<svg width="16" height="16" viewBox="0 0 16 16" fill="none" xmlns="http://www.w3.org/2000/svg">
<path fill-rule="evenodd" clip-rule="evenodd" d="M6.12775 8.85107H9.87243V16H6.12775V8.85107ZM7.14902 9.87235V14.9787H8.85115V9.87235H7.14902Z" fill="#6D6D6D"/>
<path fill-rule="evenodd" clip-rule="evenodd" d="M0 11.5745H3.74468V16H0V11.5745ZM1.02128 12.5957V14.9787H2.7234V12.5957H1.02128Z" fill="#6D6D6D"/>
<path fill-rule="evenodd" clip-rule="evenodd" d="M12.2553 6.12762H16V16H12.2553V6.12762ZM13.2766 7.1489V14.9787H14.9787V7.1489H13.2766Z" fill="#6D6D6D"/>
<path fill-rule="evenodd" clip-rule="evenodd" d="M13.8079 0.871688L8.00003 6.67957L5.27662 3.95617L2.23344 6.99935L1.51129 6.2772L5.27662 2.51186L8.00003 5.23527L13.0858 0.149536L13.8079 0.871688Z" fill="#6D6D6D"/>
<path fill-rule="evenodd" clip-rule="evenodd" d="M9.53183 0H13.9574V4.42553H12.9361V1.02128H9.53183V0Z" fill="#6D6D6D"/>
</svg>
