<svg width="16" height="16" viewBox="0 0 16 16" fill="none" xmlns="http://www.w3.org/2000/svg">
<path fill-rule="evenodd" clip-rule="evenodd" d="M5.33398 2.5C4.40573 2.5 3.51549 2.86875 2.85911 3.52513C2.20273 4.1815 1.83398 5.07174 1.83398 6V10C1.83398 10.9283 2.20273 11.8185 2.85911 12.4749C3.51549 13.1313 4.40573 13.5 5.33398 13.5H10.6673C11.5956 13.5 12.4858 13.1313 13.1422 12.4749C13.7986 11.8185 14.1673 10.9283 14.1673 10V6C14.1673 5.07174 13.7986 4.1815 13.1422 3.52513C12.4858 2.86875 11.5956 2.5 10.6673 2.5H5.33398ZM2.152 2.81802C2.99592 1.97411 4.14051 1.5 5.33398 1.5H10.6673C11.8608 1.5 13.0054 1.97411 13.8493 2.81802C14.6932 3.66193 15.1673 4.80653 15.1673 6V10C15.1673 11.1935 14.6932 12.3381 13.8493 13.182C13.0054 14.0259 11.8608 14.5 10.6673 14.5H5.33398C4.14051 14.5 2.99592 14.0259 2.152 13.182C1.30809 12.3381 0.833984 11.1935 0.833984 10V6C0.833984 4.80653 1.30809 3.66193 2.152 2.81802Z" fill="#6D6D6D"/>
<path fill-rule="evenodd" clip-rule="evenodd" d="M8 5.5C8.27614 5.5 8.5 5.72386 8.5 6V10C8.5 10.2761 8.27614 10.5 8 10.5C7.72386 10.5 7.5 10.2761 7.5 10V6C7.5 5.72386 7.72386 5.5 8 5.5Z" fill="#6D6D6D"/>
<path fill-rule="evenodd" clip-rule="evenodd" d="M6 5.5C6.27614 5.5 6.5 5.72386 6.5 6V10C6.5 10.2761 6.27614 10.5 6 10.5C5.72386 10.5 5.5 10.2761 5.5 10V6C5.5 5.72386 5.72386 5.5 6 5.5Z" fill="#6D6D6D"/>
<path fill-rule="evenodd" clip-rule="evenodd" d="M7.5 6C7.5 5.72386 7.72386 5.5 8 5.5H9.66667C10.0645 5.5 10.446 5.65803 10.7273 5.93934C11.0086 6.22064 11.1667 6.60218 11.1667 7C11.1667 7.39782 11.0086 7.77936 10.7273 8.06066C10.446 8.34197 10.0645 8.5 9.66667 8.5H8C7.72386 8.5 7.5 8.27614 7.5 8C7.5 7.72386 7.72386 7.5 8 7.5H9.66667C9.79928 7.5 9.92645 7.44732 10.0202 7.35355C10.114 7.25979 10.1667 7.13261 10.1667 7C10.1667 6.86739 10.114 6.74021 10.0202 6.64645C9.92645 6.55268 9.79928 6.5 9.66667 6.5H8C7.72386 6.5 7.5 6.27614 7.5 6Z" fill="#6D6D6D"/>
</svg>
