<svg width="16" height="16" viewBox="0 0 16 16" fill="none" xmlns="http://www.w3.org/2000/svg">
<path fill-rule="evenodd" clip-rule="evenodd" d="M0 8C0 3.57386 3.57386 0 8 0C12.4261 0 16 3.57386 16 8C16 12.4261 12.4261 16 8 16C3.57386 16 0 12.4261 0 8ZM8 1C4.12614 1 1 4.12614 1 8C1 11.8739 4.12614 15 8 15C11.8739 15 15 11.8739 15 8C15 4.12614 11.8739 1 8 1ZM8 3C5.22614 3 3 5.22614 3 8C3 8.82855 3.19912 9.62387 3.54644 10.2965L10.2965 3.54644C9.62387 3.19912 8.82855 3 8 3ZM2 8C2 4.67386 4.67386 2 8 2C9.24819 2 10.4499 2.37911 11.3883 3.04152C11.5088 3.12656 11.5856 3.26044 11.5982 3.40737C11.6108 3.5543 11.5578 3.69928 11.4536 3.80355L3.80355 11.4536C3.69928 11.5578 3.5543 11.6108 3.40737 11.5982C3.26044 11.5856 3.12656 11.5088 3.04152 11.3883C2.37911 10.4499 2 9.24819 2 8ZM12.5993 4.40243C12.7483 4.41719 12.8829 4.49801 12.966 4.62265C13.617 5.59915 14 6.74473 14 8C14 11.3261 11.3261 14 8 14C6.75181 14 5.55006 13.6209 4.61166 12.9585C4.49118 12.8734 4.41439 12.7396 4.40182 12.5926C4.38925 12.4457 4.44217 12.3007 4.54645 12.1964L12.1964 4.54645C12.3024 4.44052 12.4502 4.38767 12.5993 4.40243ZM5.70355 12.4536C6.37613 12.8009 7.17145 13 8 13C10.7739 13 13 10.7739 13 8C13 7.17352 12.8016 6.40355 12.4469 5.71022L5.70355 12.4536Z" fill="#6D6D6D"/>
</svg>
