<svg width="16" height="16" viewBox="0 0 16 16" fill="none" xmlns="http://www.w3.org/2000/svg">
<path fill-rule="evenodd" clip-rule="evenodd" d="M2.4306 1.09686C2.59938 0.928073 2.8283 0.833252 3.06699 0.833252H10.835C11.0735 0.833462 11.3026 0.928339 11.4712 1.09703M11.4712 1.09703L13.5697 3.19548C13.6533 3.2791 13.7199 3.37862 13.7652 3.48792C13.8105 3.59732 13.8338 3.71458 13.8337 3.83298V7.99992C13.8337 8.27606 13.6098 8.49992 13.3337 8.49992C13.0575 8.49992 12.8337 8.27606 12.8337 7.99992V3.87369L12.8628 3.90281C12.8536 3.89356 12.8463 3.8826 12.8413 3.87053C12.8363 3.85849 12.8337 3.8456 12.8337 3.83259V3.87369L10.7932 1.83325H10.835C10.8086 1.83323 10.7828 1.82276 10.7641 1.80414L10.7932 1.83325H3.16699V1.73325C3.16699 1.75977 3.15646 1.78521 3.1377 1.80396C3.11895 1.82272 3.09351 1.83325 3.06699 1.83325H3.16699V14.1666H3.06699C3.09351 14.1666 3.11895 14.1771 3.1377 14.1959C3.15646 14.2146 3.16699 14.2401 3.16699 14.2666V14.1666H7.33366C7.6098 14.1666 7.83366 14.3904 7.83366 14.6666C7.83366 14.9427 7.6098 15.1666 7.33366 15.1666H3.06699C2.8283 15.1666 2.59938 15.0718 2.4306 14.903C2.26181 14.7342 2.16699 14.5053 2.16699 14.2666V1.73325C2.16699 1.49456 2.26181 1.26564 2.4306 1.09686" fill="#6A7288"/>
<path fill-rule="evenodd" clip-rule="evenodd" d="M4.83398 4C4.83398 3.72386 5.05784 3.5 5.33398 3.5H8.00065C8.27679 3.5 8.50065 3.72386 8.50065 4C8.50065 4.27614 8.27679 4.5 8.00065 4.5H5.33398C5.05784 4.5 4.83398 4.27614 4.83398 4ZM4.83398 6.66667C4.83398 6.39052 5.05784 6.16667 5.33398 6.16667H10.6673C10.9435 6.16667 11.1673 6.39052 11.1673 6.66667C11.1673 6.94281 10.9435 7.16667 10.6673 7.16667H5.33398C5.05784 7.16667 4.83398 6.94281 4.83398 6.66667ZM4.83398 9.33333C4.83398 9.05719 5.05784 8.83333 5.33398 8.83333H7.33398C7.61013 8.83333 7.83398 9.05719 7.83398 9.33333C7.83398 9.60948 7.61013 9.83333 7.33398 9.83333H5.33398C5.05784 9.83333 4.83398 9.60948 4.83398 9.33333Z" fill="#6A7288"/>
<path d="M10.667 3.59999V1.56932C10.6671 1.5227 10.681 1.47716 10.7069 1.43843C10.7328 1.39969 10.7697 1.36951 10.8127 1.35168C10.8558 1.33385 10.9032 1.32918 10.9489 1.33825C10.9946 1.34732 11.0367 1.36973 11.0697 1.40265L13.2643 3.59732C13.2976 3.6302 13.3203 3.67223 13.3295 3.71807C13.3388 3.7639 13.3342 3.81145 13.3163 3.85466C13.2984 3.89786 13.2681 3.93476 13.2291 3.96064C13.1902 3.98653 13.1444 4.00022 13.0977 3.99999H11.067C10.9609 3.99999 10.8592 3.95784 10.7841 3.88283C10.7091 3.80781 10.667 3.70607 10.667 3.59999V3.59999Z" fill="#6A7288"/>
<path fill-rule="evenodd" clip-rule="evenodd" d="M10.6215 0.889692C10.7558 0.834093 10.9036 0.819521 11.0462 0.847811C11.1888 0.876101 11.3198 0.945987 11.4228 1.04866L11.4232 1.0491L13.6172 3.24304C13.7204 3.34559 13.7908 3.47645 13.8196 3.61908C13.8486 3.7623 13.8342 3.91088 13.7783 4.04588C13.7224 4.18087 13.6276 4.29617 13.5059 4.37705C13.3847 4.45763 13.2423 4.50041 13.0967 4.49999C13.0962 4.49998 13.0957 4.49998 13.0951 4.49998L13.0977 3.99999V4.49999H13.0967H11.067C10.8283 4.49999 10.5994 4.40517 10.4306 4.23638C10.2618 4.0676 10.167 3.83868 10.167 3.59999V1.56843C10.1673 1.42305 10.2106 1.28101 10.2914 1.16022C10.3723 1.03942 10.4872 0.94529 10.6215 0.889692ZM11.167 2.20709L12.4599 3.49999H11.167V2.20709Z" fill="#6A7288"/>
<path d="M13.4576 13.3438L12.9642 12.9698C12.975 12.897 12.981 12.8236 12.9823 12.75C12.9831 12.6761 12.9768 12.6022 12.9635 12.5294L13.4529 12.1554C13.4737 12.1382 13.4878 12.1146 13.4929 12.0885C13.498 12.0624 13.4938 12.0354 13.4811 12.012L13.0191 11.2335C13.0051 11.21 12.983 11.1921 12.9568 11.183C12.9305 11.1739 12.9018 11.1742 12.8758 11.1839L12.3041 11.409C12.1846 11.3174 12.0522 11.2431 11.9109 11.1884L11.8232 10.5946C11.8201 10.5683 11.8071 10.5441 11.7867 10.5266C11.7663 10.5091 11.74 10.4996 11.7128 10.5H10.7887C10.7613 10.5003 10.7347 10.5099 10.7137 10.5272C10.6927 10.5444 10.6785 10.5683 10.6736 10.5946L10.5859 11.1884C10.4466 11.2463 10.315 11.3206 10.1943 11.4098L9.6211 11.1839C9.595 11.1748 9.56651 11.1748 9.54041 11.1839C9.51432 11.1929 9.4922 11.2104 9.47779 11.2335L9.01575 12.012C9.00171 12.0352 8.99683 12.0627 9.00202 12.0892C9.00721 12.1158 9.0221 12.1396 9.04394 12.1562L9.53339 12.5302C9.51496 12.6764 9.51496 12.8243 9.53339 12.9706L9.04394 13.3445C9.02333 13.3619 9.00939 13.3855 9.0044 13.4116C8.99942 13.4377 9.0037 13.4646 9.01654 13.488L9.47858 14.2665C9.49252 14.2898 9.51447 14.3076 9.54055 14.3167C9.56663 14.3258 9.59516 14.3256 9.6211 14.3161L10.1936 14.091C10.3128 14.1825 10.4449 14.2568 10.5859 14.3116L10.6736 14.9053C10.678 14.9321 10.6921 14.9564 10.7134 14.9738C10.7347 14.9912 10.7617 15.0005 10.7895 15H11.7128C11.7403 14.9997 11.7668 14.9901 11.7878 14.9728C11.8088 14.9556 11.823 14.9317 11.8279 14.9053L11.9156 14.3116C12.0543 14.2548 12.1847 14.1803 12.3033 14.0902L12.8805 14.3161C12.9066 14.3252 12.935 14.3252 12.9611 14.3161C12.9872 14.3071 13.0094 14.2896 13.0238 14.2665L13.4858 13.488C13.4988 13.4645 13.503 13.4373 13.4979 13.411C13.4928 13.3848 13.4785 13.3611 13.4576 13.3438V13.3438ZM11.2508 13.4247C11.1139 13.4245 10.9801 13.3848 10.8664 13.3106C10.7526 13.2364 10.664 13.131 10.6118 13.0077C10.5595 12.8844 10.5459 12.7487 10.5727 12.6179C10.5995 12.4871 10.6655 12.3669 10.7623 12.2726C10.8592 12.1784 10.9825 12.1142 11.1168 12.0882C11.2511 12.0622 11.3902 12.0756 11.5167 12.1267C11.6431 12.1778 11.7512 12.2643 11.8272 12.3752C11.9033 12.4862 11.9438 12.6166 11.9438 12.75C11.9439 12.8387 11.9261 12.9265 11.8913 13.0085C11.8565 13.0904 11.8054 13.1649 11.741 13.2276C11.6766 13.2902 11.6002 13.3399 11.5161 13.3738C11.4319 13.4076 11.3418 13.4249 11.2508 13.4247V13.4247Z" fill="#6A7288"/>
</svg>
