<svg width="24" height="24" viewBox="0 0 24 24" fill="none" xmlns="http://www.w3.org/2000/svg">
<path d="M1.5 8.25C1.5 7.25544 1.89509 6.30161 2.59835 5.59835C3.30161 4.89509 4.25544 4.5 5.25 4.5H18.75C19.7446 4.5 20.6984 4.89509 21.4016 5.59835C22.1049 6.30161 22.5 7.25544 22.5 8.25V9.375H21V8.25C21 7.65326 20.7629 7.08097 20.341 6.65901C19.919 6.23705 19.3467 6 18.75 6H5.25C4.65326 6 4.08097 6.23705 3.65901 6.65901C3.23705 7.08097 3 7.65326 3 8.25V15.75C3 16.3467 3.23705 16.919 3.65901 17.341C4.08097 17.7629 4.65326 18 5.25 18H10.545C10.515 18.183 10.5 18.3705 10.5 18.564C10.5 18.882 10.53 19.1955 10.5855 19.5H5.25C4.25544 19.5 3.30161 19.1049 2.59835 18.4017C1.89509 17.6984 1.5 16.7446 1.5 15.75V8.25ZM17.25 15C18.0456 15 18.8087 14.6839 19.3713 14.1213C19.9339 13.5587 20.25 12.7956 20.25 12C20.25 11.2044 19.9339 10.4413 19.3713 9.87868C18.8087 9.31607 18.0456 9 17.25 9C16.4544 9 15.6913 9.31607 15.1287 9.87868C14.5661 10.4413 14.25 11.2044 14.25 12C14.25 12.7956 14.5661 13.5587 15.1287 14.1213C15.6913 14.6839 16.4544 15 17.25 15ZM13.992 16.632C12.8925 16.632 12 17.4975 12 18.564C12 20.2875 13.2105 21.7905 14.937 22.209L15.0615 22.239C16.4985 22.587 18.0015 22.587 19.4385 22.239L19.563 22.209C21.288 21.7905 22.5 20.2875 22.5 18.564C22.5 17.4975 21.6075 16.632 20.508 16.632H13.992Z" fill="#6A7288"/>
</svg>
