<svg width="10" height="10" viewBox="0 0 10 10" fill="none" xmlns="http://www.w3.org/2000/svg">
<path d="M6.76248 7.50004L4.99998 6.43754L3.23748 7.50004L3.70415 5.49587L2.14998 4.15004L4.19998 3.97504L4.99998 2.08337L5.79998 3.97087L7.84998 4.14587L6.29581 5.49171L6.76248 7.50004ZM4.99998 0.833374C2.69581 0.833374 0.833313 2.70837 0.833313 5.00004C0.833313 6.10511 1.2723 7.16492 2.0537 7.94632C2.44061 8.33323 2.89994 8.64015 3.40547 8.84954C3.91099 9.05894 4.45281 9.16671 4.99998 9.16671C6.10505 9.16671 7.16486 8.72772 7.94626 7.94632C8.72766 7.16492 9.16665 6.10511 9.16665 5.00004C9.16665 4.45287 9.05887 3.91105 8.84948 3.40553C8.64008 2.9 8.33317 2.44067 7.94626 2.05376C7.55935 1.66685 7.10002 1.35994 6.5945 1.15054C6.08897 0.941148 5.54715 0.833374 4.99998 0.833374Z" fill="white"/>
</svg>
