<svg width="10" height="10" viewBox="0 0 10 10" fill="none" xmlns="http://www.w3.org/2000/svg">
<path d="M3.70436 8.84937C3.20656 9.2694 2.33772 9.03041 1.78482 8.46572C1.05066 7.71597 0.784892 6.296 1.02156 5.02972L3.70436 8.84936V8.84937ZM4.28311 8.36517C3.96081 8.24223 2.666 7.64229 3.17867 5.51254C2.35736 5.02799 1.17875 4.66357 1.10332 4.58454C1.10332 4.58454 1.1064 4.71265 1.06863 4.96385L3.85589 8.69865C3.92513 8.57617 4.10874 8.47841 4.28311 8.36517ZM3.40282 7.10232C3.67764 7.91454 4.16389 8.01054 4.52233 8.21142L8.16191 1.22302H8.20497L4.8259 8.44352C5.16859 8.73351 5.62572 9.02507 6.31182 8.8863C9.14011 8.43287 9.78584 4.33746 8.25592 0.9375C6.45674 2.04507 5.11031 2.64229 4.23193 3.81479C3.54875 4.72675 3.01876 6.01102 3.40282 7.10232Z" fill="white"/>
</svg>
