<svg width="16" height="16" viewBox="0 0 16 16" fill="none" xmlns="http://www.w3.org/2000/svg">
<path d="M6.64375 12.8567L2.14375 8.35672C2.05134 8.26115 1.99968 8.13341 1.99968 8.00047C1.99968 7.86753 2.05134 7.73979 2.14375 7.64422L6.64375 3.14422C6.7409 3.06449 6.86423 3.02374 6.98976 3.02991C7.11528 3.03607 7.23403 3.08871 7.3229 3.17757C7.41176 3.26644 7.4644 3.38519 7.47056 3.51071C7.47673 3.63624 7.43598 3.75957 7.35625 3.85672L3.70625 7.50047L13.5 7.50047C13.6326 7.50047 13.7598 7.55315 13.8536 7.64692C13.9473 7.74068 14 7.86786 14 8.00047C14 8.13308 13.9473 8.26025 13.8536 8.35402C13.7598 8.44779 13.6326 8.50047 13.5 8.50047L3.70625 8.50047L7.35625 12.1442C7.43598 12.2414 7.47673 12.3647 7.47056 12.4902C7.4644 12.6158 7.41176 12.7345 7.32289 12.8234C7.23403 12.9122 7.11528 12.9649 6.98976 12.971C6.86423 12.9772 6.7409 12.9365 6.64375 12.8567V12.8567Z" fill="#9BA1AF"/>
</svg>
