<svg width="16" height="16" viewBox="0 0 16 16" fill="none" xmlns="http://www.w3.org/2000/svg">
<path fill-rule="evenodd" clip-rule="evenodd" d="M1.5 14C1.5 13.7239 1.72386 13.5 2 13.5H14C14.2761 13.5 14.5 13.7239 14.5 14C14.5 14.2761 14.2761 14.5 14 14.5H2C1.72386 14.5 1.5 14.2761 1.5 14Z" fill="#061438"/>
<path fill-rule="evenodd" clip-rule="evenodd" d="M10.0335 1.5C10.1661 1.5 10.2933 1.55268 10.3871 1.64645L13.6871 4.94645C13.8823 5.14171 13.8823 5.45829 13.6871 5.65355L11.8021 7.53848C11.802 7.53861 11.8019 7.53875 11.8017 7.53889L8.06378 11.2768C8.06377 11.2769 8.0638 11.2768 8.06378 11.2768C7.84505 11.4956 7.54832 11.6186 7.23895 11.6187H4.21484C3.9387 11.6187 3.71484 11.3948 3.71484 11.1187V8.09467C3.71491 7.7853 3.83785 7.48852 4.05662 7.26978C4.05664 7.26976 4.05661 7.2698 4.05662 7.26978L9.67996 1.64645C9.77373 1.55268 9.9009 1.5 10.0335 1.5ZM10.0335 2.70711L8.85528 3.88533L11.4482 6.47823L12.6264 5.3L10.0335 2.70711ZM10.7411 7.18533L8.14818 4.59244L4.76373 7.97689C4.7325 8.00811 4.71488 8.05051 4.71484 8.09467C4.71484 8.0947 4.71484 8.09463 4.71484 8.09467V10.6187H7.23874C7.23877 10.6187 7.2387 10.6187 7.23874 10.6187C7.2829 10.6186 7.32535 10.6011 7.35657 10.5698L10.7411 7.18533Z" fill="#061438"/>
</svg>
