<svg width="200" height="200" viewBox="0 0 200 200" fill="none" xmlns="http://www.w3.org/2000/svg">
<g clip-path="url(#clip0_866_35401)">
<path d="M205 134.234H0V134.337H205V134.234Z" fill="#EBEBEB"/>
<path d="M184.459 140.83H170.88V140.933H184.459V140.83Z" fill="#EBEBEB"/>
<path d="M135.8 141.945H132.237V142.048H135.8V141.945Z" fill="#EBEBEB"/>
<path d="M170.47 137.025H162.602V137.128H170.47V137.025Z" fill="#EBEBEB"/>
<path d="M39.2164 137.715H21.5085V137.817H39.2164V137.715Z" fill="#EBEBEB"/>
<path d="M45.4649 137.715H42.8696V137.817H45.4649V137.715Z" fill="#EBEBEB"/>
<path d="M92.3115 139.445H53.9027V139.548H92.3115V139.445Z" fill="#EBEBEB"/>
<path d="M97.17 115.948H18.0031C17.383 115.947 16.7885 115.7 16.3504 115.261C15.9122 114.822 15.6661 114.227 15.6661 113.607V2.3206C15.6715 1.70397 15.92 1.11437 16.3576 0.67987C16.7952 0.245368 17.3865 0.00105632 18.0031 0H97.17C97.7909 0 98.3864 0.246651 98.8255 0.685692C99.2645 1.12473 99.5111 1.7202 99.5111 2.3411V113.607C99.5111 114.228 99.2645 114.823 98.8255 115.262C98.3864 115.701 97.7909 115.948 97.17 115.948ZM18.0031 0.0820003C17.4101 0.0830864 16.8418 0.319417 16.4229 0.739118C16.0039 1.15882 15.7686 1.7276 15.7686 2.3206V113.607C15.7686 114.2 16.0039 114.769 16.4229 115.188C16.8418 115.608 17.4101 115.844 18.0031 115.845H97.17C97.7634 115.844 98.3322 115.608 98.7518 115.189C99.1714 114.769 99.4076 114.2 99.4086 113.607V2.3206C99.4076 1.72722 99.1714 1.15845 98.7518 0.738868C98.3322 0.319284 97.7634 0.0830841 97.17 0.0820003H18.0031Z" fill="#EBEBEB"/>
<path d="M185.857 115.948H106.686C106.066 115.947 105.471 115.7 105.032 115.261C104.593 114.822 104.346 114.227 104.345 113.607V2.3206C104.351 1.7036 104.601 1.114 105.039 0.679613C105.477 0.245225 106.069 0.0010448 106.686 0H185.857C186.473 0.00213384 187.063 0.246922 187.5 0.681308C187.937 1.11569 188.185 1.70468 188.19 2.3206V113.607C188.19 114.226 187.944 114.821 187.507 115.259C187.07 115.698 186.477 115.946 185.857 115.948ZM106.686 0.0820003C106.093 0.0830841 105.524 0.319284 105.104 0.738868C104.685 1.15845 104.449 1.72722 104.447 2.3206V113.607C104.449 114.2 104.685 114.769 105.104 115.189C105.524 115.608 106.093 115.844 106.686 115.845H185.857C186.45 115.844 187.019 115.608 187.439 115.189C187.858 114.769 188.095 114.2 188.096 113.607V2.3206C188.095 1.72722 187.858 1.15845 187.439 0.738868C187.019 0.319284 186.45 0.0830841 185.857 0.0820003H106.686Z" fill="#EBEBEB"/>
<path d="M99.3594 48.7402H41.1476V134.09H99.3594V48.7402Z" fill="#F0F0F0"/>
<path d="M97.3012 51.4258H43.2017V67.1903H97.3012V51.4258Z" fill="#E0E0E0"/>
<path d="M46.2767 53.9766H43.2017V67.1868H46.2767V53.9766Z" fill="#EBEBEB"/>
<path d="M61.1392 53.9766H58.0642V67.1868H61.1392V53.9766Z" fill="#EBEBEB"/>
<path d="M78.0074 53.6456L74.9771 54.168L77.221 67.1862L80.2513 66.6639L78.0074 53.6456Z" fill="#EBEBEB"/>
<path d="M50.0856 55.7188H47.0106V67.1906H50.0856V55.7188Z" fill="#EBEBEB"/>
<path d="M57.1499 55.7188H54.0749V67.1906H57.1499V55.7188Z" fill="#EBEBEB"/>
<path d="M74.9808 55.7188H71.9058V67.1906H74.9808V55.7188Z" fill="#EBEBEB"/>
<path d="M65.1782 55.3212L62.1765 55.9883L64.6653 67.1868L67.667 66.5197L65.1782 55.3212Z" fill="#EBEBEB"/>
<path d="M52.7424 53.3203H51.2049V67.1865H52.7424V53.3203Z" fill="#EBEBEB"/>
<path d="M71.0202 53.3203H69.4827V67.1865H71.0202V53.3203Z" fill="#EBEBEB"/>
<path d="M43.2058 85.4531H97.3053V69.6886H43.2058V85.4531Z" fill="#E0E0E0"/>
<path d="M94.2262 85.4473H97.3012V72.2371H94.2262V85.4473Z" fill="#EBEBEB"/>
<path d="M79.3678 85.4473H82.4428V72.2371H79.3678V85.4473Z" fill="#EBEBEB"/>
<path d="M60.2565 84.923L63.2868 85.4453L65.5308 72.4271L62.5005 71.9047L60.2565 84.923Z" fill="#EBEBEB"/>
<path d="M90.4173 85.4531H93.4923V73.9813H90.4173V85.4531Z" fill="#EBEBEB"/>
<path d="M83.3571 85.4531H86.4321V73.9813H83.3571V85.4531Z" fill="#EBEBEB"/>
<path d="M65.5262 85.4531H68.6012V73.9813H65.5262V85.4531Z" fill="#EBEBEB"/>
<path d="M72.85 84.7821L75.8517 85.4492L78.3406 74.2507L75.3388 73.5835L72.85 84.7821Z" fill="#EBEBEB"/>
<path d="M87.7605 85.4473H89.298V71.5811H87.7605V85.4473Z" fill="#EBEBEB"/>
<path d="M69.4868 85.4473H71.0243V71.5811H69.4868V85.4473Z" fill="#EBEBEB"/>
<path d="M46.2767 72.2383H43.2017V85.4485H46.2767V72.2383Z" fill="#EBEBEB"/>
<path d="M50.0856 73.9766H47.0106V85.4484H50.0856V73.9766Z" fill="#EBEBEB"/>
<path d="M57.1499 73.9766H54.0749V85.4484H57.1499V73.9766Z" fill="#EBEBEB"/>
<path d="M52.7424 71.582H51.2049V85.4482H52.7424V71.582Z" fill="#EBEBEB"/>
<path d="M97.3012 87.9453H43.2017V103.71H97.3012V87.9453Z" fill="#E0E0E0"/>
<path d="M77.3301 90.4961H74.2551V103.706H77.3301V90.4961Z" fill="#EBEBEB"/>
<path d="M94.2007 90.1632L91.1704 90.6855L93.4144 103.704L96.4447 103.181L94.2007 90.1632Z" fill="#EBEBEB"/>
<path d="M66.2765 92.2383H63.2015V103.71H66.2765V92.2383Z" fill="#EBEBEB"/>
<path d="M73.3408 92.2383H70.2658V103.71H73.3408V92.2383Z" fill="#EBEBEB"/>
<path d="M91.1717 92.2383H88.0967V103.71H91.1717V92.2383Z" fill="#EBEBEB"/>
<path d="M81.3704 91.8407L78.3687 92.5078L80.8575 103.706L83.8592 103.039L81.3704 91.8407Z" fill="#EBEBEB"/>
<path d="M68.9333 89.8398H67.3958V103.706H68.9333V89.8398Z" fill="#EBEBEB"/>
<path d="M87.2111 89.8398H85.6736V103.706H87.2111V89.8398Z" fill="#EBEBEB"/>
<path d="M58.8437 90.1652L55.8134 90.6875L58.0573 103.706L61.0876 103.183L58.8437 90.1652Z" fill="#EBEBEB"/>
<path d="M55.8133 92.2383H52.7383V103.71H55.8133V92.2383Z" fill="#EBEBEB"/>
<path d="M46.0137 91.8407L43.0119 92.5078L45.5007 103.706L48.5025 103.039L46.0137 91.8407Z" fill="#EBEBEB"/>
<path d="M51.8568 89.8398H50.3193V103.706H51.8568V89.8398Z" fill="#EBEBEB"/>
<path d="M31.1026 134.312H41.1476L41.1476 48.7414H31.1026L31.1026 134.312Z" fill="#E0E0E0"/>
<path d="M133.43 132.078H124.898L129.384 95.5308C129.491 94.7672 129.866 94.0666 130.442 93.5537C131.018 93.0409 131.757 92.7492 132.528 92.7305H169.74L164.283 132.062L133.43 132.078Z" fill="#F5F5F5"/>
<path d="M160.49 132.077H169.023L173.512 95.5296C173.567 95.1783 173.544 94.8192 173.444 94.4778C173.345 94.1364 173.172 93.8209 172.937 93.5538C172.703 93.2867 172.412 93.0743 172.086 92.9319C171.761 92.7894 171.407 92.7203 171.052 92.7293H168.121C167.351 92.7528 166.614 93.0462 166.039 93.5582C165.465 94.0701 165.088 94.768 164.976 95.5296L160.49 132.077Z" fill="#F0F0F0"/>
<path d="M157.35 132.021L158.896 114.35C158.928 113.966 159.091 113.606 159.358 113.328C159.624 113.051 159.978 112.873 160.359 112.824L160.995 112.742C161.508 112.678 161.983 112.439 162.341 112.066C162.698 111.693 162.916 111.208 162.959 110.692L163.242 107.47C163.269 107.157 163.232 106.843 163.131 106.545C163.031 106.248 162.87 105.975 162.658 105.744C162.446 105.512 162.189 105.328 161.902 105.201C161.615 105.075 161.304 105.01 160.991 105.01H175.25C175.564 105.01 175.874 105.075 176.161 105.201C176.449 105.328 176.706 105.512 176.918 105.744C177.13 105.975 177.291 106.248 177.391 106.545C177.492 106.843 177.529 107.157 177.501 107.47L177.218 110.692C177.176 111.208 176.958 111.693 176.6 112.066C176.243 112.439 175.768 112.678 175.255 112.742L174.619 112.824C174.238 112.873 173.885 113.051 173.618 113.329C173.352 113.606 173.189 113.966 173.155 114.35L171.61 132.021C171.554 132.642 171.269 133.219 170.809 133.641C170.349 134.062 169.748 134.295 169.125 134.296H154.865C155.489 134.295 156.089 134.062 156.549 133.641C157.009 133.219 157.295 132.642 157.35 132.021Z" fill="#E6E6E6"/>
<path d="M118.105 109.941C117.992 108.6 117.379 107.35 116.388 106.439C115.397 105.528 114.1 105.022 112.754 105.021H125.169C126.511 105.027 127.803 105.535 128.79 106.446C129.776 107.356 130.386 108.604 130.499 109.941L131.729 123.947H119.33L118.105 109.941Z" fill="#E6E6E6"/>
<path d="M107.24 105.037H112.75C114.096 105.037 115.393 105.543 116.384 106.455C117.375 107.366 117.987 108.616 118.1 109.957L119.33 123.963H148.9L150.13 109.957C150.242 108.619 150.851 107.371 151.838 106.46C152.824 105.55 154.117 105.042 155.46 105.037H160.974C161.288 105.037 161.598 105.102 161.885 105.229C162.172 105.355 162.43 105.54 162.642 105.771C162.853 106.003 163.015 106.276 163.115 106.573C163.216 106.87 163.253 107.185 163.225 107.497L162.942 110.72C162.9 111.235 162.682 111.72 162.324 112.093C161.967 112.467 161.491 112.706 160.978 112.77L160.343 112.852C159.961 112.9 159.608 113.078 159.341 113.355C159.075 113.633 158.912 113.994 158.879 114.377L157.35 132.019C157.295 132.64 157.009 133.218 156.549 133.639C156.089 134.06 155.489 134.294 154.865 134.295H113.365C112.742 134.294 112.141 134.06 111.681 133.639C111.221 133.218 110.936 132.64 110.88 132.019L109.335 114.348C109.301 113.965 109.137 113.606 108.871 113.328C108.605 113.051 108.252 112.873 107.871 112.823L107.235 112.741C106.722 112.676 106.247 112.437 105.889 112.064C105.531 111.691 105.311 111.206 105.267 110.691L104.989 107.468C104.965 107.158 105.006 106.847 105.108 106.553C105.21 106.259 105.372 105.99 105.583 105.761C105.795 105.533 106.051 105.351 106.336 105.226C106.621 105.102 106.929 105.037 107.24 105.037Z" fill="#F0F0F0"/>
<path d="M41.8856 44.4758C41.8856 44.4758 41.4305 41.4787 43.6158 39.5558C45.8011 37.6329 45.6084 36.4931 44.9811 36.3455C44.3538 36.1979 43.7839 38.1167 42.8245 38.6456C42.8245 38.6456 42.7917 35.9069 43.7675 34.9024C44.7433 33.8979 45.2558 31.2944 44.3251 31.2493C43.3944 31.2042 43.3042 32.7908 43.0951 33.9183C42.886 35.0458 41.8651 36.6284 41.8651 36.6284C41.8651 36.6284 41.6642 34.1685 41.0451 33.1722C40.426 32.1759 42.0947 29.8594 41.4551 28.8549C40.8155 27.8504 39.6552 29.765 39.7495 31.9257C39.8438 34.0864 41.287 36.3906 40.9508 38.6456C40.9508 38.6456 40.3153 37.0589 39.7454 36.9154C39.1755 36.7719 38.5974 35.7265 38.2161 35.337C37.8348 34.9475 37.351 36.2922 38.2161 37.5386C39.0812 38.785 41.287 42.1265 40.9508 44.8243L41.8856 44.4758Z" fill="#E6E6E6"/>
<path d="M43.1894 43.1113L43.9069 47.6008C43.9584 47.9268 43.9387 48.26 43.8491 48.5777C43.7595 48.8953 43.6021 49.1897 43.3878 49.4406C43.1735 49.6916 42.9073 49.8931 42.6076 50.0313C42.308 50.1695 41.9819 50.2411 41.6519 50.2412H40.8893C40.5593 50.2411 40.2332 50.1695 39.9335 50.0313C39.6339 49.8931 39.3677 49.6916 39.1534 49.4406C38.9391 49.1897 38.7817 48.8953 38.6921 48.5777C38.6025 48.26 38.5827 47.9268 38.6343 47.6008L39.36 43.1113H43.1894Z" fill="#E6E6E6"/>
<path d="M86.1205 49.3633H88.3468V39.7898H86.1205V49.3633Z" fill="#EBEBEB"/>
<path d="M75.3539 49.3633H77.5802V39.7898H75.3539V49.3633Z" fill="#EBEBEB"/>
<path d="M61.5058 48.9832L63.6998 49.3613L65.326 39.927L63.132 39.5488L61.5058 48.9832Z" fill="#EBEBEB"/>
<path d="M83.3612 49.3594H85.5875V41.0487H83.3612V49.3594Z" fill="#EBEBEB"/>
<path d="M78.2444 49.3594H80.4707V41.0487H78.2444V49.3594Z" fill="#EBEBEB"/>
<path d="M65.3212 49.3594H67.5475V41.0487H65.3212V49.3594Z" fill="#EBEBEB"/>
<path d="M70.6309 48.8783L72.8041 49.3613L74.6071 41.2486L72.4339 40.7656L70.6309 48.8783Z" fill="#EBEBEB"/>
<path d="M81.4342 49.3633H82.5494V39.3142H81.4342V49.3633Z" fill="#EBEBEB"/>
<path d="M68.1871 49.3633H69.3023V39.3142H68.1871V49.3633Z" fill="#EBEBEB"/>
<path d="M60.2495 41.7617H49.3968V49.2524H60.2495V41.7617Z" fill="#EBEBEB"/>
<path d="M97.4693 44.8301H88.3796V50.4225H97.4693V44.8301Z" fill="#EBEBEB"/>
<path d="M95.3455 39.9141H90.7986V45.5065H95.3455V39.9141Z" fill="#EBEBEB"/>
<path d="M171.302 32.5137H160.49V77.5645H171.302V32.5137Z" fill="#E0E0E0"/>
<path d="M129.708 77.6875H170.142V32.5178L129.708 32.5178V77.6875Z" fill="#E0E0E0"/>
<path d="M128.404 77.6875H170.355V32.5178L128.404 32.5178V77.6875Z" fill="#F0F0F0"/>
<path d="M130.2 75.6074H168.633V33.9514L130.2 33.9514V75.6074Z" fill="white"/>
<path d="M130.196 75.6074H130.909V33.9514H130.196V75.6074Z" fill="#E0E0E0"/>
<path d="M130.794 63.9118V65.0352H168.736V63.9118H130.794Z" fill="#E0E0E0"/>
<path d="M130.196 63.9063L169.232 63.9062V62.0202L130.196 62.0202V63.9063Z" fill="#F0F0F0"/>
<path d="M102.5 152.749C146.404 152.749 181.995 150.671 181.995 148.108C181.995 145.545 146.404 143.467 102.5 143.467C58.5962 143.467 23.0051 145.545 23.0051 148.108C23.0051 150.671 58.5962 152.749 102.5 152.749Z" fill="#F5F5F5"/>
<path d="M131.999 40.1055H58.6464C56.9889 40.1055 55.6452 41.4491 55.6452 43.1067V129.477C55.6452 131.135 56.9889 132.478 58.6464 132.478H131.999C133.657 132.478 135.001 131.135 135.001 129.477V43.1067C135.001 41.4491 133.657 40.1055 131.999 40.1055Z" fill="#407BFF"/>
<path opacity="0.6" d="M131.999 40.1055H58.6464C56.9889 40.1055 55.6452 41.4491 55.6452 43.1067V129.477C55.6452 131.135 56.9889 132.478 58.6464 132.478H131.999C133.657 132.478 135.001 131.135 135.001 129.477V43.1067C135.001 41.4491 133.657 40.1055 131.999 40.1055Z" fill="white"/>
<path d="M122.147 82.4707H68.5028V91.6547H122.147V82.4707Z" fill="white"/>
<g opacity="0.4">
<path opacity="0.4" d="M73.2998 87.9567V88.1986H71.4384V85.5664H73.2424V85.8042H71.7172V86.7431H73.0784V86.9768H71.7172V87.9567H73.2998Z" fill="#263238"/>
<path opacity="0.4" d="M73.6729 87.0625H74.661V87.2921H73.6729V87.0625Z" fill="#263238"/>
<path opacity="0.4" d="M78.5191 87.0504V88.1984H78.2526V87.075C78.2526 86.665 78.0435 86.4436 77.6868 86.4436C77.5943 86.4393 77.502 86.4553 77.4164 86.4904C77.3307 86.5255 77.2537 86.5789 77.1909 86.6468C77.128 86.7148 77.0807 86.7957 77.0524 86.8838C77.024 86.9719 77.0152 87.0652 77.0267 87.157V88.1984H76.7561V87.075C76.7561 86.665 76.547 86.4436 76.1862 86.4436C76.0937 86.4393 76.0014 86.4553 75.9158 86.4904C75.8301 86.5255 75.7531 86.5789 75.6903 86.6468C75.6274 86.7148 75.5801 86.7957 75.5518 86.8838C75.5234 86.9719 75.5146 87.0652 75.5261 87.157V88.1984H75.2555V86.2181H75.5138V86.5789C75.5912 86.4581 75.6989 86.3596 75.8263 86.2934C75.9536 86.2272 76.0961 86.1956 76.2395 86.2017C76.3844 86.1895 76.5295 86.2223 76.655 86.2957C76.7805 86.3691 76.8803 86.4795 76.9406 86.6117C77.0225 86.4796 77.1384 86.3719 77.2761 86.2998C77.4139 86.2276 77.5684 86.1938 77.7237 86.2017C77.835 86.1933 77.9468 86.2099 78.0508 86.2503C78.1548 86.2908 78.2484 86.3541 78.3247 86.4355C78.4011 86.5169 78.4581 86.6145 78.4918 86.7209C78.5254 86.8273 78.5347 86.9399 78.5191 87.0504Z" fill="#263238"/>
<path opacity="0.4" d="M80.7413 86.9691V88.1991H80.483V87.8875C80.4096 87.9985 80.3077 88.0875 80.1879 88.1452C80.0681 88.203 79.9349 88.2273 79.8024 88.2155C79.3555 88.2155 79.0808 87.9818 79.0808 87.6415C79.0808 87.3012 79.2776 87.0798 79.8434 87.0798H80.4707V86.9609C80.4707 86.6206 80.2821 86.4361 79.9131 86.4361C79.6723 86.4334 79.4384 86.5162 79.253 86.6698L79.1341 86.473C79.3658 86.2867 79.6571 86.1906 79.9541 86.2024C80.0588 86.1897 80.1649 86.2006 80.2648 86.2343C80.3647 86.268 80.4558 86.3237 80.5313 86.3973C80.6068 86.4708 80.6649 86.5604 80.7012 86.6594C80.7376 86.7583 80.7513 86.8642 80.7413 86.9691ZM80.4707 87.6046V87.2807H79.8516C79.4703 87.2807 79.3432 87.4283 79.3432 87.6333C79.3432 87.8383 79.5277 88.0064 79.8434 88.0064C79.9772 88.0153 80.1103 87.981 80.2232 87.9087C80.3361 87.8364 80.4228 87.7299 80.4707 87.6046Z" fill="#263238"/>
<path opacity="0.4" d="M81.4055 85.5949C81.4061 85.5696 81.4116 85.5446 81.4217 85.5215C81.4319 85.4983 81.4466 85.4773 81.4648 85.4598C81.4831 85.4423 81.5047 85.4286 81.5283 85.4194C81.5518 85.4102 81.577 85.4058 81.6023 85.4063C81.6271 85.4058 81.6517 85.4101 81.6748 85.4191C81.6979 85.428 81.719 85.4415 81.7369 85.4586C81.7548 85.4758 81.7691 85.4963 81.7791 85.5189C81.7891 85.5416 81.7945 85.566 81.795 85.5908C81.7956 85.6164 81.791 85.6419 81.7815 85.6658C81.7721 85.6897 81.758 85.7114 81.74 85.7297C81.7221 85.748 81.7007 85.7626 81.677 85.7725C81.6534 85.7825 81.628 85.7876 81.6023 85.7876C81.5767 85.7881 81.5512 85.7836 81.5273 85.7741C81.5035 85.7647 81.4817 85.7506 81.4634 85.7326C81.4451 85.7147 81.4305 85.6933 81.4206 85.6696C81.4106 85.646 81.4055 85.6205 81.4055 85.5949ZM81.467 86.2181H81.7335V88.1984H81.467V86.2181Z" fill="#263238"/>
<path opacity="0.4" d="M82.4756 85.4062H82.7421V88.1984H82.4756V85.4062Z" fill="#263238"/>
</g>
<path d="M122.147 95.0176H68.5028V104.202H122.147V95.0176Z" fill="white"/>
<g opacity="0.4">
<path opacity="0.4" d="M73.4966 99.0274C73.4966 99.5891 73.0866 99.9294 72.4224 99.9294H71.7172V100.749H71.4384V98.1172H72.4224C73.0907 98.1254 73.4966 98.4657 73.4966 99.0274ZM73.2178 99.0274C73.2178 98.6174 72.9431 98.3673 72.3978 98.3673H71.7008V99.6834H72.3978C72.9431 99.6834 73.2178 99.4415 73.2178 99.0274Z" fill="#263238"/>
<path opacity="0.4" d="M75.5179 99.531V100.761H75.2596V100.449C75.1863 100.56 75.0843 100.649 74.9645 100.707C74.8447 100.765 74.7115 100.789 74.579 100.777C74.1321 100.777 73.8574 100.544 73.8574 100.199C73.8574 99.8549 74.0542 99.6293 74.62 99.6293H75.2473V99.5064C75.2473 99.1702 75.0546 98.9856 74.6856 98.9856C74.446 98.9825 74.2132 99.0654 74.0296 99.2193L73.9066 99.0184C74.1402 98.8362 74.4305 98.7418 74.7266 98.7519C74.8327 98.7382 74.9406 98.7488 75.042 98.7829C75.1434 98.817 75.2357 98.8737 75.312 98.9488C75.3882 99.0238 75.4464 99.1152 75.4821 99.2161C75.5177 99.317 75.53 99.4246 75.5179 99.531ZM75.2514 100.162V99.8385H74.62C74.2387 99.8385 74.1157 99.9902 74.1157 100.195C74.1157 100.4 74.2961 100.564 74.6159 100.564C74.7509 100.574 74.8856 100.541 75 100.468C75.1144 100.396 75.2026 100.289 75.2514 100.162Z" fill="#263238"/>
<path opacity="0.4" d="M75.9689 100.533L76.0878 100.324C76.2946 100.468 76.5408 100.545 76.793 100.545C77.1661 100.545 77.3219 100.418 77.3219 100.221C77.3219 99.7046 76.0386 100.11 76.0386 99.3315C76.0386 99.0076 76.3174 98.7657 76.8217 98.7657C77.0677 98.7635 77.3098 98.8272 77.5228 98.9502L77.4039 99.1634C77.2315 99.0495 77.0284 98.9908 76.8217 98.9953C76.465 98.9953 76.3051 99.1347 76.3051 99.3233C76.3051 99.8563 77.5884 99.4545 77.5884 100.213C77.5884 100.557 77.2891 100.779 76.7684 100.779C76.4822 100.786 76.2015 100.7 75.9689 100.533Z" fill="#263238"/>
<path opacity="0.4" d="M77.8057 100.533L77.9287 100.324C78.1332 100.47 78.3786 100.547 78.6298 100.545C79.007 100.545 79.1587 100.418 79.1587 100.221C79.1587 99.7046 77.8795 100.111 77.8795 99.3315C77.8795 99.0076 78.1583 98.7657 78.6585 98.7657C78.9046 98.7625 79.147 98.8263 79.3596 98.9502L79.2448 99.1634C79.0707 99.0499 78.8664 98.9914 78.6585 98.9953C78.3018 98.9953 78.146 99.1347 78.146 99.3233C78.146 99.8563 79.4293 99.4545 79.4293 100.213C79.4293 100.557 79.1259 100.779 78.6093 100.779C78.3219 100.786 78.04 100.699 77.8057 100.533Z" fill="#263238"/>
<path opacity="0.4" d="M82.7831 98.7812L82.0369 100.757H81.7868L81.18 99.1379L80.5568 100.757H80.3067L79.54 98.7812H79.7942L80.4174 100.462L81.0529 98.7812H81.2825L81.9139 100.462L82.5412 98.7812H82.7831Z" fill="#263238"/>
<path opacity="0.4" d="M82.9307 99.7703C82.9307 99.5708 82.9899 99.3758 83.1007 99.21C83.2116 99.0441 83.3691 98.9148 83.5534 98.8385C83.7377 98.7622 83.9405 98.7422 84.1361 98.7811C84.3318 98.82 84.5115 98.9161 84.6525 99.0571C84.7936 99.1982 84.8897 99.3779 84.9286 99.5735C84.9675 99.7692 84.9475 99.972 84.8712 100.156C84.7948 100.341 84.6656 100.498 84.4997 100.609C84.3338 100.72 84.1388 100.779 83.9393 100.779C83.8057 100.783 83.6725 100.761 83.548 100.711C83.4236 100.662 83.3106 100.588 83.216 100.494C83.1214 100.399 83.0473 100.286 82.9982 100.162C82.9491 100.037 82.9262 99.904 82.9307 99.7703ZM84.6733 99.7703C84.6668 99.6258 84.618 99.4863 84.5329 99.3692C84.4479 99.2522 84.3302 99.1627 84.1947 99.112C84.0592 99.0612 83.9117 99.0515 83.7707 99.0839C83.6297 99.1163 83.5013 99.1894 83.4015 99.2942C83.3017 99.399 83.2349 99.5309 83.2095 99.6733C83.184 99.8158 83.201 99.9626 83.2583 100.095C83.3156 100.228 83.4108 100.341 83.5318 100.421C83.6529 100.5 83.7946 100.542 83.9393 100.541C84.0394 100.543 84.1388 100.524 84.2312 100.486C84.3236 100.447 84.4069 100.39 84.4759 100.317C84.545 100.245 84.5982 100.159 84.6321 100.065C84.6661 99.9704 84.6801 99.8702 84.6733 99.7703Z" fill="#263238"/>
<path opacity="0.4" d="M86.4854 98.7655V99.0238H86.4198C86.326 99.0194 86.2324 99.0356 86.1456 99.0714C86.0588 99.1071 85.9809 99.1616 85.9175 99.2309C85.8541 99.3001 85.8067 99.3825 85.7788 99.4722C85.7508 99.5618 85.7429 99.6565 85.7556 99.7495V100.758H85.4891V98.7819H85.7433V99.1673C85.8125 99.0337 85.9202 98.9239 86.0526 98.8522C86.1849 98.7806 86.3357 98.7504 86.4854 98.7655Z" fill="#263238"/>
<path opacity="0.4" d="M88.7527 97.9902V100.778H88.4985V100.389C88.4189 100.518 88.3064 100.625 88.1725 100.697C88.0385 100.769 87.8879 100.804 87.7359 100.799C87.48 100.782 87.24 100.669 87.0646 100.482C86.8892 100.295 86.7916 100.049 86.7916 99.7922C86.7916 99.5358 86.8892 99.2891 87.0646 99.1021C87.24 98.9151 87.48 98.802 87.7359 98.7856C87.8859 98.7823 88.0342 98.8184 88.1658 98.8904C88.2975 98.9623 88.408 99.0676 88.4862 99.1956V97.9902H88.7527ZM88.4903 99.7901C88.4839 99.6456 88.4351 99.5061 88.35 99.389C88.2649 99.272 88.1473 99.1825 88.0118 99.1318C87.8762 99.081 87.7288 99.0713 87.5878 99.1037C87.4467 99.1361 87.3183 99.2092 87.2185 99.314C87.1188 99.4188 87.052 99.5507 87.0265 99.6931C87.0011 99.8356 87.0181 99.9824 87.0754 100.115C87.1327 100.248 87.2278 100.361 87.3489 100.44C87.47 100.52 87.6117 100.562 87.7564 100.561C87.8583 100.563 87.9596 100.544 88.0535 100.504C88.1474 100.464 88.2318 100.405 88.3012 100.33C88.3705 100.255 88.4232 100.167 88.4558 100.07C88.4884 99.9736 88.5002 99.8711 88.4903 99.7696V99.7901Z" fill="#263238"/>
</g>
<path opacity="0.2" d="M122.147 113.568H68.5028V122.752H122.147V113.568Z" fill="black"/>
<g opacity="0.5">
<path opacity="0.5" d="M81.549 109.35H80.6716L80.483 109.76H80.3108L81.0283 108.189H81.1923L81.9098 109.76H81.7376L81.549 109.35ZM81.4875 109.214L81.1103 108.37L80.7331 109.214H81.4875Z" fill="black"/>
<path opacity="0.5" d="M82.1394 108.104H82.3V109.768H82.1394V108.104Z" fill="black"/>
<path opacity="0.5" d="M83.3407 108.58V108.736H83.2997C83.2425 108.731 83.1848 108.739 83.1312 108.759C83.0775 108.78 83.0291 108.812 82.9897 108.854C82.9503 108.896 82.9208 108.946 82.9035 109.001C82.8862 109.056 82.8815 109.114 82.8897 109.17V109.773H82.7298V108.592H82.8856V108.822C82.9267 108.739 82.9927 108.671 83.0743 108.628C83.1559 108.585 83.2491 108.568 83.3407 108.58Z" fill="black"/>
<path opacity="0.5" d="M84.6445 109.226H83.64C83.6431 109.284 83.6576 109.34 83.6827 109.392C83.7077 109.443 83.7428 109.49 83.7859 109.528C83.829 109.566 83.8793 109.595 83.9338 109.614C83.9882 109.632 84.0459 109.64 84.1033 109.636C84.1714 109.638 84.2393 109.626 84.3022 109.6C84.3652 109.574 84.4218 109.534 84.4682 109.484L84.5543 109.587C84.4696 109.676 84.3604 109.738 84.2406 109.765C84.1207 109.792 83.9956 109.783 83.8808 109.739C83.766 109.696 83.6667 109.619 83.5954 109.519C83.5241 109.419 83.484 109.3 83.4801 109.177C83.4762 109.099 83.4883 109.021 83.5157 108.948C83.543 108.875 83.5851 108.808 83.6393 108.752C83.6935 108.696 83.7587 108.652 83.8307 108.622C83.9028 108.592 83.9802 108.577 84.0582 108.578C84.1362 108.576 84.2137 108.591 84.2859 108.621C84.358 108.65 84.4231 108.695 84.4771 108.751C84.5311 108.807 84.5728 108.874 84.5995 108.948C84.6262 109.021 84.6373 109.099 84.6322 109.177C84.6322 109.177 84.6445 109.21 84.6445 109.226ZM83.6564 109.107H84.4764C84.4764 108.998 84.4332 108.894 84.3563 108.817C84.2794 108.74 84.1751 108.697 84.0664 108.697C83.9577 108.697 83.8534 108.74 83.7765 108.817C83.6996 108.894 83.6564 108.998 83.6564 109.107Z" fill="black"/>
<path opacity="0.5" d="M85.8294 109.059V109.789H85.69V109.604C85.6465 109.672 85.5852 109.726 85.5128 109.76C85.4404 109.795 85.3598 109.809 85.28 109.801C85.0135 109.801 84.87 109.662 84.87 109.457C84.87 109.252 84.9848 109.12 85.3251 109.12H85.69V109.051C85.69 108.85 85.5752 108.739 85.3538 108.739C85.2046 108.734 85.0587 108.783 84.9438 108.878L84.8741 108.76C85.01 108.651 85.18 108.594 85.3538 108.6C85.4172 108.589 85.4824 108.593 85.5439 108.612C85.6054 108.631 85.6616 108.664 85.7079 108.709C85.7542 108.754 85.7893 108.808 85.8105 108.869C85.8316 108.93 85.838 108.995 85.8294 109.059ZM85.6736 109.436V109.239H85.3005C85.0709 109.239 84.9971 109.329 84.9971 109.452C84.9971 109.575 85.1078 109.674 85.2964 109.674C85.3813 109.68 85.466 109.659 85.5372 109.612C85.6084 109.565 85.6622 109.496 85.69 109.416L85.6736 109.436Z" fill="black"/>
<path opacity="0.5" d="M87.33 108.104V109.768H87.1783V109.534C87.1317 109.613 87.0648 109.677 86.9847 109.72C86.9046 109.764 86.8142 109.784 86.7232 109.78C86.5725 109.768 86.4319 109.699 86.3295 109.588C86.227 109.477 86.1702 109.331 86.1702 109.18C86.1702 109.029 86.227 108.883 86.3295 108.772C86.4319 108.66 86.5725 108.592 86.7232 108.579C86.812 108.577 86.9 108.597 86.9789 108.638C87.0577 108.679 87.1249 108.739 87.1742 108.813V108.104H87.33ZM87.1742 109.178C87.1702 109.092 87.1411 109.009 87.0905 108.94C87.0399 108.87 86.9701 108.817 86.8897 108.787C86.8092 108.757 86.7217 108.751 86.638 108.771C86.5543 108.79 86.4781 108.833 86.4188 108.895C86.3595 108.957 86.3197 109.035 86.3043 109.12C86.289 109.204 86.2988 109.292 86.3325 109.37C86.3662 109.449 86.4224 109.517 86.494 109.564C86.5657 109.612 86.6496 109.637 86.7355 109.637C86.7966 109.641 86.8577 109.631 86.9148 109.609C86.972 109.587 87.0238 109.554 87.0669 109.51C87.1099 109.467 87.1432 109.415 87.1646 109.357C87.1859 109.3 87.1948 109.239 87.1906 109.178H87.1742Z" fill="black"/>
<path opacity="0.5" d="M88.7855 108.588L88.1951 109.912C88.0967 110.142 87.9696 110.216 87.7851 110.216C87.6793 110.218 87.5764 110.18 87.4981 110.109L87.5719 109.99C87.6295 110.048 87.7077 110.08 87.7892 110.08C87.8958 110.08 87.9655 110.031 88.0352 109.879L88.0844 109.769L87.5555 108.588H87.74L88.1869 109.592L88.6297 108.588H88.7855Z" fill="black"/>
<path opacity="0.5" d="M90.4911 109.059V109.789H90.3394V109.604C90.2959 109.672 90.2346 109.726 90.1622 109.76C90.0898 109.795 90.0093 109.809 89.9294 109.801C89.6629 109.801 89.5194 109.662 89.5194 109.457C89.5194 109.252 89.6342 109.12 89.9745 109.12H90.3476V109.051C90.3476 108.85 90.2369 108.739 90.0155 108.739C89.8664 108.734 89.7204 108.783 89.6055 108.878L89.5317 108.76C89.6692 108.651 89.8405 108.595 90.0155 108.6C90.079 108.589 90.1441 108.593 90.2056 108.612C90.2671 108.631 90.3233 108.664 90.3696 108.709C90.4159 108.754 90.4511 108.808 90.4722 108.869C90.4933 108.93 90.4998 108.995 90.4911 109.059ZM90.3312 109.436V109.239H89.9622C89.7326 109.239 89.6588 109.329 89.6588 109.452C89.6588 109.575 89.7695 109.674 89.9581 109.674C90.0399 109.677 90.1205 109.654 90.1879 109.607C90.2552 109.56 90.3055 109.493 90.3312 109.416V109.436Z" fill="black"/>
<path opacity="0.5" d="M93.48 109.084V109.769H93.3242V109.101C93.3242 108.851 93.1971 108.723 92.9839 108.723C92.9289 108.719 92.8737 108.727 92.822 108.746C92.7703 108.765 92.7234 108.795 92.6844 108.834C92.6454 108.873 92.6154 108.92 92.5963 108.972C92.5772 109.023 92.5696 109.079 92.5739 109.133V109.753H92.4181V109.101C92.4181 108.851 92.291 108.723 92.0737 108.723C92.0187 108.719 91.9635 108.727 91.9118 108.746C91.8601 108.765 91.8132 108.795 91.7742 108.834C91.7352 108.873 91.7052 108.92 91.6861 108.972C91.667 109.023 91.6594 109.079 91.6637 109.133V109.753H91.5038V108.572H91.6555V108.789C91.7007 108.716 91.765 108.656 91.8415 108.616C91.9181 108.576 92.004 108.558 92.0901 108.564C92.176 108.557 92.2619 108.577 92.3355 108.622C92.4091 108.667 92.4667 108.734 92.5001 108.814C92.5478 108.733 92.6166 108.668 92.6989 108.623C92.7813 108.579 92.8742 108.559 92.9675 108.564C93.0383 108.551 93.1112 108.556 93.1797 108.578C93.2483 108.599 93.3105 108.638 93.361 108.689C93.4114 108.74 93.4486 108.803 93.4694 108.872C93.4901 108.941 93.4938 109.014 93.48 109.084Z" fill="black"/>
<path opacity="0.5" d="M94.9314 109.227H93.9433C93.9517 109.343 94.0055 109.451 94.093 109.528C94.1804 109.604 94.2946 109.643 94.4107 109.637C94.4783 109.639 94.5456 109.627 94.6079 109.601C94.6703 109.575 94.7261 109.535 94.7715 109.485L94.8617 109.588C94.8041 109.65 94.7337 109.7 94.6551 109.733C94.5766 109.767 94.4919 109.783 94.4066 109.78C94.3254 109.785 94.2439 109.774 94.1675 109.745C94.0912 109.717 94.0215 109.673 93.9632 109.616C93.9048 109.56 93.8591 109.491 93.8288 109.416C93.7985 109.34 93.7845 109.259 93.7875 109.178C93.7875 109.025 93.848 108.879 93.9556 108.772C94.0633 108.664 94.2093 108.604 94.3615 108.604C94.5138 108.604 94.6598 108.664 94.7674 108.772C94.875 108.879 94.9355 109.025 94.9355 109.178C94.9355 109.178 94.9314 109.21 94.9314 109.227ZM93.9433 109.108H94.7838C94.7838 108.996 94.7395 108.889 94.6607 108.811C94.5819 108.732 94.475 108.688 94.3636 108.688C94.2521 108.688 94.1452 108.732 94.0664 108.811C93.9876 108.889 93.9433 108.996 93.9433 109.108Z" fill="black"/>
<path opacity="0.5" d="M97.211 109.084V109.769H97.0511V109.101C97.0511 108.851 96.9281 108.723 96.7149 108.723C96.6598 108.718 96.6043 108.726 96.5522 108.744C96.5002 108.763 96.4529 108.793 96.4138 108.832C96.3747 108.871 96.3446 108.919 96.3258 108.971C96.307 109.023 96.2999 109.078 96.3049 109.133V109.753H96.145V109.101C96.145 108.851 96.022 108.723 95.8047 108.723C95.7496 108.718 95.6941 108.726 95.642 108.744C95.59 108.763 95.5427 108.793 95.5036 108.832C95.4645 108.871 95.4345 108.919 95.4156 108.971C95.3968 109.023 95.3897 109.078 95.3947 109.133V109.753H95.2348V108.572H95.3865V108.789C95.4314 108.715 95.4956 108.655 95.5722 108.615C95.6489 108.576 95.735 108.558 95.8211 108.564C95.9071 108.557 95.993 108.577 96.0666 108.622C96.1402 108.667 96.1977 108.734 96.2311 108.814C96.2788 108.733 96.3476 108.668 96.43 108.623C96.5123 108.579 96.6052 108.559 96.6985 108.564C96.7693 108.551 96.8422 108.556 96.9107 108.578C96.9793 108.599 97.0415 108.638 97.092 108.689C97.1425 108.74 97.1797 108.803 97.2004 108.872C97.2211 108.941 97.2248 109.014 97.211 109.084Z" fill="black"/>
<path opacity="0.5" d="M98.8428 109.178C98.8467 109.257 98.8344 109.335 98.8066 109.409C98.7787 109.483 98.7359 109.55 98.6809 109.607C98.6259 109.663 98.5598 109.708 98.4868 109.738C98.4138 109.768 98.3354 109.782 98.2565 109.78C98.1655 109.784 98.0751 109.764 97.995 109.72C97.9148 109.677 97.8479 109.613 97.8014 109.534V109.768H97.6456V108.104H97.8055V108.813C97.8544 108.739 97.9216 108.678 98.0005 108.637C98.0795 108.596 98.1676 108.576 98.2565 108.579C98.3352 108.577 98.4135 108.591 98.4865 108.62C98.5595 108.65 98.6257 108.694 98.6807 108.75C98.7358 108.806 98.7787 108.873 98.8066 108.947C98.8344 109.02 98.8468 109.099 98.8428 109.178ZM98.6829 109.178C98.6789 109.092 98.6498 109.009 98.5992 108.94C98.5486 108.87 98.4788 108.817 98.3983 108.787C98.3179 108.757 98.2304 108.751 98.1467 108.771C98.063 108.79 97.9868 108.833 97.9274 108.895C97.8681 108.957 97.8283 109.035 97.813 109.12C97.7977 109.204 97.8075 109.292 97.8412 109.37C97.8749 109.449 97.9311 109.517 98.0027 109.564C98.0743 109.612 98.1583 109.637 98.2442 109.637C98.3039 109.638 98.3632 109.627 98.4184 109.604C98.4736 109.581 98.5233 109.547 98.5646 109.504C98.6059 109.461 98.6377 109.409 98.6581 109.353C98.6784 109.297 98.6869 109.237 98.6829 109.178Z" fill="black"/>
<path opacity="0.5" d="M100.2 109.227H99.22C99.2232 109.284 99.2377 109.341 99.2627 109.392C99.2878 109.444 99.3229 109.491 99.366 109.529C99.4091 109.567 99.4593 109.596 99.5138 109.615C99.5683 109.633 99.6259 109.641 99.6833 109.637C99.7515 109.637 99.8188 109.622 99.8805 109.593C99.9421 109.564 99.9966 109.521 100.04 109.469L100.13 109.571C100.045 109.66 99.9364 109.722 99.8165 109.749C99.6967 109.776 99.5715 109.768 99.4567 109.724C99.3419 109.68 99.2426 109.603 99.1713 109.503C99.1 109.403 99.0599 109.284 99.056 109.161C99.0521 109.083 99.0642 109.005 99.0916 108.932C99.119 108.859 99.1611 108.793 99.2153 108.737C99.2695 108.68 99.3346 108.636 99.4066 108.606C99.4787 108.576 99.5561 108.561 99.6341 108.563C99.712 108.561 99.7893 108.575 99.8613 108.605C99.9332 108.635 99.9981 108.679 100.052 108.736C100.105 108.792 100.147 108.859 100.173 108.932C100.199 109.006 100.21 109.084 100.204 109.161L100.2 109.227ZM99.2118 109.108H100.032C100.032 108.999 99.9886 108.895 99.9117 108.818C99.8349 108.741 99.7306 108.698 99.6218 108.698C99.5131 108.698 99.4088 108.741 99.3319 108.818C99.255 108.895 99.2118 108.999 99.2118 109.108Z" fill="black"/>
<path opacity="0.5" d="M101.122 108.58V108.736H101.086C101.028 108.731 100.971 108.739 100.917 108.759C100.863 108.78 100.815 108.812 100.776 108.854C100.736 108.896 100.707 108.946 100.689 109.001C100.672 109.055 100.667 109.113 100.676 109.17V109.773H100.516V108.592H100.667V108.822C100.709 108.739 100.775 108.672 100.856 108.628C100.938 108.585 101.031 108.568 101.122 108.58Z" fill="black"/>
<path opacity="0.5" d="M102.156 108.599C102.156 108.435 102.024 108.324 101.795 108.324C101.714 108.32 101.633 108.334 101.559 108.365C101.484 108.396 101.418 108.444 101.364 108.505L101.245 108.415C101.315 108.336 101.402 108.274 101.499 108.233C101.597 108.193 101.702 108.175 101.807 108.181C102.123 108.181 102.324 108.333 102.324 108.591C102.324 108.972 101.914 109.001 101.914 109.312H101.746C101.746 108.927 102.156 108.89 102.156 108.599ZM101.713 109.661C101.718 109.634 101.732 109.609 101.754 109.591C101.775 109.574 101.802 109.564 101.83 109.564C101.857 109.564 101.884 109.574 101.906 109.591C101.927 109.609 101.941 109.634 101.946 109.661C101.95 109.678 101.949 109.696 101.945 109.713C101.94 109.73 101.932 109.745 101.921 109.759C101.91 109.772 101.896 109.783 101.88 109.791C101.864 109.798 101.847 109.802 101.83 109.802C101.812 109.802 101.795 109.798 101.779 109.791C101.763 109.783 101.749 109.772 101.738 109.759C101.727 109.745 101.719 109.73 101.715 109.713C101.71 109.696 101.71 109.678 101.713 109.661Z" fill="black"/>
<path opacity="0.5" d="M103.267 108.197H103.632V109.468H104.419V109.763H103.267V108.197Z" fill="black"/>
<path opacity="0.5" d="M104.501 109.166C104.493 109.033 104.524 108.901 104.592 108.787C104.66 108.672 104.761 108.581 104.881 108.524C105.002 108.467 105.136 108.448 105.268 108.469C105.399 108.49 105.521 108.55 105.618 108.641C105.715 108.732 105.783 108.85 105.812 108.98C105.841 109.11 105.83 109.245 105.782 109.369C105.733 109.493 105.648 109.599 105.538 109.674C105.428 109.749 105.298 109.789 105.165 109.789C105.08 109.795 104.994 109.783 104.914 109.754C104.833 109.725 104.76 109.68 104.698 109.622C104.635 109.564 104.586 109.493 104.552 109.415C104.518 109.336 104.501 109.252 104.501 109.166ZM105.472 109.166C105.468 109.107 105.446 109.05 105.409 109.003C105.373 108.955 105.323 108.92 105.267 108.9C105.21 108.881 105.149 108.878 105.091 108.892C105.033 108.907 104.981 108.938 104.94 108.982C104.9 109.026 104.873 109.08 104.863 109.139C104.853 109.198 104.86 109.259 104.884 109.313C104.908 109.368 104.947 109.415 104.997 109.448C105.047 109.48 105.105 109.498 105.165 109.498C105.208 109.499 105.25 109.491 105.289 109.474C105.329 109.457 105.364 109.432 105.393 109.401C105.422 109.37 105.444 109.333 105.458 109.292C105.472 109.252 105.477 109.209 105.472 109.166Z" fill="black"/>
<path opacity="0.5" d="M107.309 108.559V109.568C107.321 109.659 107.311 109.751 107.28 109.837C107.25 109.923 107.2 110.001 107.134 110.065C107.069 110.128 106.989 110.176 106.902 110.203C106.815 110.231 106.723 110.238 106.633 110.224C106.422 110.232 106.214 110.173 106.038 110.056L106.178 109.806C106.297 109.892 106.44 109.939 106.588 109.941C106.834 109.941 106.944 109.83 106.944 109.613V109.56C106.895 109.611 106.836 109.651 106.77 109.677C106.704 109.703 106.634 109.715 106.563 109.712C106.482 109.718 106.401 109.708 106.324 109.682C106.247 109.656 106.177 109.614 106.117 109.559C106.057 109.504 106.01 109.437 105.977 109.363C105.945 109.289 105.928 109.208 105.928 109.127C105.928 109.046 105.945 108.966 105.977 108.892C106.01 108.817 106.057 108.751 106.117 108.696C106.177 108.641 106.247 108.599 106.324 108.573C106.401 108.546 106.482 108.536 106.563 108.543C106.64 108.537 106.718 108.549 106.789 108.579C106.86 108.609 106.923 108.656 106.973 108.715V108.559H107.309ZM106.965 109.129C106.966 109.088 106.959 109.047 106.943 109.009C106.928 108.971 106.904 108.937 106.874 108.909C106.844 108.881 106.809 108.859 106.77 108.845C106.731 108.832 106.69 108.827 106.649 108.83C106.607 108.825 106.565 108.829 106.524 108.842C106.484 108.855 106.447 108.876 106.415 108.904C106.384 108.932 106.358 108.966 106.341 109.005C106.324 109.043 106.315 109.085 106.315 109.127C106.315 109.17 106.324 109.211 106.341 109.25C106.358 109.288 106.384 109.323 106.415 109.351C106.447 109.379 106.484 109.4 106.524 109.413C106.565 109.426 106.607 109.43 106.649 109.425C106.69 109.428 106.731 109.423 106.769 109.41C106.808 109.396 106.843 109.375 106.873 109.347C106.902 109.319 106.926 109.286 106.942 109.248C106.958 109.211 106.966 109.17 106.965 109.129Z" fill="black"/>
<path opacity="0.5" d="M108.24 108.198C108.24 108.17 108.247 108.143 108.258 108.118C108.269 108.093 108.286 108.071 108.306 108.052C108.326 108.034 108.35 108.02 108.376 108.011C108.402 108.002 108.43 107.999 108.457 108.001C108.484 107.998 108.511 108.001 108.537 108.009C108.563 108.017 108.587 108.03 108.607 108.048C108.627 108.066 108.644 108.088 108.655 108.112C108.667 108.136 108.674 108.163 108.675 108.19C108.675 108.247 108.652 108.303 108.611 108.343C108.57 108.384 108.515 108.407 108.457 108.407C108.4 108.407 108.344 108.384 108.304 108.343C108.263 108.303 108.24 108.247 108.24 108.19V108.198ZM108.281 108.559H108.63V109.789H108.281V108.559Z" fill="black"/>
<path opacity="0.5" d="M110.183 109.058V109.751H109.835V109.116C109.835 108.919 109.745 108.829 109.589 108.829C109.433 108.829 109.298 108.931 109.298 109.153V109.751H108.949V108.521H109.285V108.665C109.338 108.61 109.402 108.568 109.473 108.54C109.544 108.512 109.62 108.5 109.695 108.505C109.766 108.501 109.837 108.514 109.902 108.541C109.968 108.569 110.026 108.611 110.073 108.664C110.12 108.717 110.154 108.78 110.173 108.848C110.192 108.917 110.196 108.988 110.183 109.058Z" fill="black"/>
</g>
<path d="M122.147 113.008H68.5028V122.192H122.147V113.008Z" fill="#407BFF"/>
<path d="M88.396 119.027L87.74 118.08H87.5432H86.7642V119.035H86.3132V115.891H87.5432C88.3632 115.891 88.8511 116.301 88.8511 116.989C88.8615 117.208 88.7996 117.423 88.6751 117.602C88.5505 117.782 88.3703 117.915 88.1623 117.982L88.9085 119.035L88.396 119.027ZM88.396 116.977C88.396 116.526 88.0967 116.272 87.5186 116.272H86.756V117.686H87.5186C88.0844 117.691 88.3837 117.428 88.3837 116.981L88.396 116.977Z" fill="white"/>
<path d="M91.6432 117.981H89.7121C89.7425 118.184 89.8478 118.368 90.0071 118.497C90.1665 118.626 90.3684 118.69 90.5731 118.678C90.7018 118.682 90.83 118.659 90.9489 118.61C91.0678 118.56 91.1746 118.485 91.2619 118.391L91.4997 118.67C91.3242 118.848 91.1011 118.971 90.8571 119.026C90.6131 119.08 90.3586 119.063 90.124 118.977C89.8894 118.89 89.6848 118.738 89.5347 118.538C89.3846 118.338 89.2953 118.099 89.2775 117.85C89.269 117.689 89.2938 117.528 89.3506 117.377C89.4073 117.226 89.4946 117.088 89.607 116.973C89.7195 116.857 89.8546 116.766 90.0039 116.705C90.1533 116.645 90.3136 116.615 90.4747 116.62C90.635 116.615 90.7945 116.644 90.9428 116.705C91.0911 116.766 91.225 116.858 91.3359 116.974C91.4468 117.089 91.5321 117.227 91.5865 117.378C91.6408 117.529 91.6629 117.69 91.6514 117.85C91.6514 117.886 91.6473 117.94 91.6432 117.981ZM89.7121 117.669H91.2373C91.2177 117.481 91.1289 117.306 90.9881 117.179C90.8473 117.052 90.6643 116.982 90.4747 116.982C90.2851 116.982 90.1022 117.052 89.9613 117.179C89.8205 117.306 89.7317 117.481 89.7121 117.669Z" fill="white"/>
<path d="M94.5296 116.648V118.698C94.5296 119.538 94.0991 119.928 93.2996 119.928C92.8916 119.945 92.4902 119.821 92.1639 119.575L92.3689 119.243C92.6313 119.447 92.9552 119.555 93.2873 119.551C93.849 119.551 94.1073 119.292 94.1073 118.751V118.563C94.0012 118.684 93.8692 118.781 93.7209 118.845C93.5725 118.908 93.4118 118.938 93.2504 118.932C92.9449 118.932 92.6518 118.81 92.4358 118.594C92.2197 118.378 92.0983 118.085 92.0983 117.78C92.0983 117.474 92.2197 117.181 92.4358 116.965C92.6518 116.749 92.9449 116.627 93.2504 116.627C93.4192 116.622 93.5867 116.657 93.7398 116.728C93.8929 116.799 94.0271 116.905 94.1319 117.037V116.668L94.5296 116.648ZM94.1196 117.775C94.1287 117.612 94.0883 117.449 94.0039 117.308C93.9194 117.168 93.7948 117.056 93.6459 116.987C93.4971 116.917 93.331 116.895 93.1691 116.921C93.0072 116.947 92.8569 117.022 92.7377 117.134C92.6184 117.247 92.5357 117.393 92.5003 117.553C92.4648 117.713 92.4782 117.88 92.5387 118.033C92.5992 118.185 92.7041 118.316 92.8397 118.408C92.9754 118.501 93.1356 118.55 93.2996 118.55C93.4045 118.557 93.5096 118.541 93.6083 118.505C93.7069 118.468 93.797 118.412 93.8728 118.339C93.9486 118.267 94.0086 118.179 94.049 118.082C94.0894 117.985 94.1092 117.881 94.1073 117.775H94.1196Z" fill="white"/>
<path d="M95.2758 115.91C95.2764 115.872 95.2843 115.835 95.2992 115.8C95.3141 115.766 95.3357 115.734 95.3628 115.708C95.3898 115.682 95.4217 115.661 95.4568 115.647C95.4918 115.633 95.5292 115.627 95.5669 115.627C95.6066 115.622 95.6469 115.626 95.6851 115.638C95.7234 115.65 95.7586 115.67 95.7886 115.696C95.8185 115.723 95.8425 115.755 95.8589 115.792C95.8753 115.828 95.8838 115.868 95.8838 115.908C95.8838 115.948 95.8753 115.987 95.8589 116.024C95.8425 116.06 95.8185 116.093 95.7886 116.12C95.7586 116.146 95.7234 116.166 95.6851 116.178C95.6469 116.19 95.6066 116.194 95.5669 116.189C95.5294 116.19 95.4921 116.183 95.4571 116.17C95.4221 116.157 95.3901 116.136 95.363 116.11C95.3359 116.084 95.3143 116.053 95.2993 116.019C95.2843 115.984 95.2763 115.947 95.2758 115.91ZM95.3537 116.648H95.7842V119.026H95.3537V116.648Z" fill="white"/>
<path d="M96.3049 118.776L96.4853 118.435C96.7296 118.594 97.0141 118.679 97.3053 118.681C97.7153 118.681 97.8711 118.558 97.8711 118.358C97.8711 117.825 96.3664 118.288 96.3664 117.337C96.3664 116.927 96.7477 116.623 97.3586 116.623C97.6611 116.618 97.9595 116.693 98.2237 116.841L98.0392 117.181C97.8345 117.052 97.5963 116.986 97.3545 116.992C96.9773 116.992 96.7928 117.132 96.7928 117.32C96.7928 117.882 98.3016 117.423 98.3016 118.349C98.3016 118.759 97.8916 119.055 97.2725 119.055C96.9295 119.06 96.5927 118.963 96.3049 118.776Z" fill="white"/>
<path d="M100.196 118.9C100.047 119.014 99.8628 119.073 99.6751 119.068C99.5739 119.08 99.4715 119.068 99.3752 119.035C99.279 119.002 99.1914 118.947 99.1191 118.876C99.0467 118.804 98.9913 118.717 98.9569 118.621C98.9226 118.525 98.9102 118.423 98.9207 118.322V117.014H98.5107V116.661H98.9207V116.141H99.3307V116.661H100.04V117.014H99.3553V118.305C99.3456 118.358 99.3483 118.412 99.363 118.464C99.3778 118.516 99.4042 118.563 99.4403 118.603C99.4764 118.642 99.5212 118.673 99.5712 118.693C99.6211 118.712 99.6749 118.72 99.7284 118.715C99.8496 118.717 99.9678 118.678 100.065 118.605L100.196 118.9Z" fill="white"/>
<path d="M102.779 117.981H100.86C100.89 118.184 100.996 118.369 101.157 118.498C101.317 118.627 101.52 118.691 101.725 118.678C101.853 118.683 101.981 118.659 102.099 118.61C102.217 118.56 102.323 118.485 102.41 118.391L102.648 118.67C102.473 118.848 102.25 118.972 102.006 119.027C101.762 119.082 101.507 119.065 101.273 118.978C101.038 118.891 100.834 118.739 100.684 118.538C100.535 118.338 100.446 118.099 100.429 117.85C100.421 117.689 100.446 117.528 100.503 117.377C100.559 117.226 100.647 117.088 100.759 116.973C100.871 116.857 101.007 116.766 101.156 116.705C101.305 116.645 101.466 116.615 101.627 116.62C101.787 116.616 101.946 116.645 102.094 116.707C102.242 116.768 102.376 116.859 102.486 116.975C102.597 117.091 102.683 117.228 102.737 117.379C102.792 117.529 102.814 117.69 102.803 117.85C102.799 117.894 102.791 117.938 102.779 117.981ZM100.86 117.669H102.389C102.366 117.483 102.275 117.312 102.134 117.188C101.993 117.064 101.812 116.996 101.625 116.996C101.437 116.996 101.256 117.064 101.115 117.188C100.974 117.312 100.884 117.483 100.86 117.669Z" fill="white"/>
<path d="M104.669 116.623V117.033H104.571C104.464 117.026 104.357 117.043 104.258 117.082C104.158 117.122 104.069 117.183 103.997 117.262C103.925 117.341 103.872 117.435 103.841 117.538C103.81 117.64 103.803 117.748 103.82 117.853V119.038H103.39V116.66H103.8V117.07C103.886 116.92 104.014 116.798 104.169 116.719C104.323 116.64 104.496 116.607 104.669 116.623Z" fill="white"/>
<g opacity="0.6">
<path opacity="0.6" d="M85.9319 50.2686L86.1164 49.8832C86.4345 50.1499 86.8369 50.2952 87.2521 50.2932C87.8466 50.2932 88.1008 50.0636 88.1008 49.7643C88.1008 48.9443 86.018 49.4527 86.018 48.1776C86.018 47.6446 86.428 47.1936 87.3341 47.1936C87.7244 47.1873 88.1085 47.2926 88.4411 47.497L88.2771 47.907C87.9955 47.7267 87.6685 47.6301 87.3341 47.6282C86.7478 47.6282 86.5141 47.8742 86.5141 48.1735C86.5141 48.9935 88.601 48.4851 88.601 49.752C88.601 50.2768 88.191 50.7278 87.2685 50.7278C86.7826 50.738 86.3089 50.5753 85.9319 50.2686Z" fill="#263238"/>
<path opacity="0.6" d="M89.1504 47.2472C89.1509 47.2059 89.1596 47.1652 89.1761 47.1273C89.1925 47.0894 89.2162 47.0552 89.246 47.0266C89.2757 46.998 89.3109 46.9756 89.3494 46.9606C89.3879 46.9457 89.4289 46.9386 89.4702 46.9397C89.5109 46.9381 89.5516 46.9445 89.5898 46.9587C89.628 46.9729 89.663 46.9946 89.6927 47.0224C89.7225 47.0503 89.7464 47.0838 89.7631 47.121C89.7798 47.1581 89.7889 47.1983 89.79 47.239C89.79 47.3238 89.7563 47.4052 89.6963 47.4651C89.6363 47.5251 89.555 47.5588 89.4702 47.5588C89.3854 47.5588 89.304 47.5251 89.2441 47.4651C89.1841 47.4052 89.1504 47.3238 89.1504 47.239V47.2472ZM89.2324 48.0672H89.708V50.6748H89.2324V48.0672Z" fill="#263238"/>
<path opacity="0.6" d="M93.0987 48.0556V50.3065C93.0987 51.229 92.6313 51.6472 91.7498 51.6472C91.3074 51.6612 90.8734 51.5238 90.5198 51.2577L90.7453 50.8928C91.0308 51.1187 91.3857 51.2389 91.7498 51.2331C92.3648 51.2331 92.6436 50.9461 92.6436 50.3557V50.1507C92.5275 50.2847 92.383 50.391 92.2205 50.462C92.0581 50.5329 91.8818 50.5666 91.7047 50.5607C91.533 50.5705 91.3612 50.5451 91.1998 50.4862C91.0383 50.4272 90.8906 50.336 90.7656 50.2179C90.6406 50.0999 90.5411 49.9576 90.4731 49.7997C90.405 49.6419 90.3699 49.4718 90.3699 49.2999C90.3699 49.128 90.405 48.9579 90.4731 48.8001C90.5411 48.6422 90.6406 48.4999 90.7656 48.3819C90.8906 48.2639 91.0383 48.1726 91.1998 48.1137C91.3612 48.0547 91.533 48.0294 91.7047 48.0392C91.8859 48.0297 92.0668 48.0618 92.2338 48.1328C92.4008 48.2039 92.5493 48.3121 92.6682 48.4492V48.0392L93.0987 48.0556ZM92.6395 49.2856C92.6485 49.1063 92.6036 48.9285 92.5105 48.775C92.4175 48.6216 92.2806 48.4995 92.1176 48.4246C91.9545 48.3496 91.7727 48.3253 91.5957 48.3547C91.4186 48.3841 91.2545 48.4658 91.1243 48.5894C90.9942 48.713 90.9041 48.8727 90.8657 49.048C90.8272 49.2233 90.8421 49.4061 90.9086 49.5728C90.975 49.7396 91.0899 49.8825 91.2383 49.9833C91.3868 50.0841 91.5621 50.1381 91.7416 50.1384C91.8589 50.1487 91.977 50.1343 92.0885 50.0962C92.1999 50.0582 92.3021 49.9972 92.3886 49.9173C92.4751 49.8374 92.5439 49.7403 92.5906 49.6322C92.6374 49.5241 92.661 49.4074 92.66 49.2897L92.6395 49.2856Z" fill="#263238"/>
<path opacity="0.6" d="M96.4771 49.1612V50.6618H96.0015V49.1981C96.0015 48.6856 95.7473 48.4355 95.3004 48.4355C95.1869 48.4281 95.0731 48.4458 94.9672 48.4873C94.8612 48.5288 94.7657 48.5931 94.6874 48.6757C94.6092 48.7583 94.55 48.8571 94.5143 48.9651C94.4785 49.0731 94.4669 49.1876 94.4804 49.3006V50.6454H94.0089V48.0378H94.464V48.4478C94.5759 48.3089 94.7197 48.1991 94.8832 48.1277C95.0467 48.0563 95.225 48.0255 95.4029 48.0378C95.5508 48.0279 95.6991 48.0506 95.8373 48.1042C95.9755 48.1579 96.1002 48.2412 96.2027 48.3484C96.3051 48.4555 96.3828 48.5838 96.4302 48.7243C96.4776 48.8647 96.4937 49.0139 96.4771 49.1612Z" fill="#263238"/>
<path opacity="0.6" d="M101.106 48.0541V50.6617H100.659V50.2517C100.555 50.3859 100.42 50.4931 100.266 50.5644C100.112 50.6358 99.9431 50.6691 99.7735 50.6617C99.621 50.6774 99.467 50.6587 99.3227 50.607C99.1784 50.5553 99.0476 50.4719 98.9398 50.3629C98.832 50.2539 98.75 50.1222 98.6999 49.9774C98.6497 49.8325 98.6327 49.6783 98.6501 49.526V48.0254H99.1216V49.4727C99.1216 49.9811 99.3799 50.2394 99.8268 50.2394C99.9405 50.2476 100.055 50.2304 100.161 50.1892C100.267 50.1479 100.363 50.0836 100.441 50.0008C100.52 49.9181 100.579 49.819 100.614 49.7106C100.65 49.6023 100.661 49.4874 100.647 49.3743V48.0254L101.106 48.0541Z" fill="#263238"/>
<path opacity="0.6" d="M104.706 49.3585C104.715 49.5345 104.687 49.7106 104.625 49.8753C104.562 50.0401 104.466 50.19 104.342 50.3154C104.218 50.4408 104.069 50.539 103.905 50.6037C103.741 50.6683 103.566 50.6981 103.39 50.691C103.217 50.6977 103.044 50.6642 102.886 50.5931C102.728 50.5219 102.589 50.4151 102.479 50.281V51.6258H102.008V48.067H102.459V48.477C102.567 48.3343 102.708 48.2198 102.871 48.1434C103.033 48.067 103.211 48.031 103.39 48.0383C103.565 48.0307 103.74 48.0597 103.903 48.1234C104.067 48.1871 104.215 48.2842 104.339 48.4084C104.462 48.5326 104.559 48.6812 104.622 48.8448C104.685 49.0084 104.714 49.1833 104.706 49.3585ZM104.23 49.3585C104.222 49.1871 104.164 49.0218 104.063 48.8831C103.962 48.7444 103.823 48.6384 103.662 48.5781C103.501 48.5178 103.327 48.5059 103.159 48.5439C102.992 48.5819 102.84 48.6682 102.721 48.7919C102.602 48.9157 102.522 49.0716 102.491 49.2403C102.46 49.4091 102.479 49.5832 102.546 49.7412C102.612 49.8993 102.724 50.0342 102.867 50.1294C103.01 50.2246 103.177 50.2759 103.349 50.2769C103.468 50.2794 103.587 50.2571 103.698 50.2113C103.808 50.1655 103.908 50.0973 103.991 50.011C104.074 49.9247 104.138 49.8222 104.179 49.7099C104.22 49.5975 104.238 49.4779 104.23 49.3585Z" fill="#263238"/>
</g>
<path d="M122.147 69.9199H68.5028V79.1039H122.147V69.9199Z" fill="white"/>
<g opacity="0.4">
<path opacity="0.4" d="M71.4384 73.0156H71.7172V75.4059H73.1891V75.6478H71.4384V73.0156Z" fill="#263238"/>
<path opacity="0.4" d="M75.0956 74.422V75.652H74.8414V75.3445C74.7668 75.4542 74.6646 75.5423 74.5451 75.5998C74.4256 75.6574 74.2931 75.6825 74.1608 75.6725C73.7139 75.6725 73.4392 75.4388 73.4392 75.0944C73.4392 74.75 73.6319 74.5368 74.2018 74.5368H74.8291V74.4179C74.8291 74.0776 74.6364 73.8931 74.2674 73.8931C74.0278 73.8899 73.795 73.9729 73.6114 74.1268L73.4884 73.9259C73.7225 73.7446 74.0124 73.6503 74.3084 73.6594C74.4127 73.6468 74.5185 73.6576 74.618 73.6911C74.7176 73.7246 74.8084 73.7799 74.8839 73.853C74.9593 73.9261 75.0175 74.0151 75.0541 74.1135C75.0907 74.212 75.1049 74.3174 75.0956 74.422ZM74.8291 75.0534V74.7295H74.21C73.8246 74.7295 73.7016 74.8812 73.7016 75.0862C73.7016 75.2912 73.8861 75.4552 74.2018 75.4552C74.3355 75.4634 74.4683 75.4289 74.581 75.3567C74.6938 75.2844 74.7807 75.1782 74.8291 75.0534Z" fill="#263238"/>
<path opacity="0.4" d="M75.5466 75.4391L75.6655 75.23C75.8723 75.3743 76.1185 75.4516 76.3707 75.4514C76.7479 75.4514 76.8996 75.3243 76.8996 75.1275C76.8996 74.6109 75.6204 75.0168 75.6204 74.2378C75.6204 73.9139 75.8951 73.672 76.3994 73.672C76.6455 73.6688 76.8879 73.7326 77.1005 73.8565L76.9816 74.0697C76.8092 73.9558 76.6061 73.8971 76.3994 73.9016C76.0427 73.9016 75.8869 74.041 75.8869 74.2296C75.8869 74.7626 77.1661 74.3608 77.1661 75.1193C77.1661 75.4637 76.8668 75.6851 76.3461 75.6851C76.0601 75.6913 75.7797 75.605 75.5466 75.4391Z" fill="#263238"/>
<path opacity="0.4" d="M78.72 75.5282C78.6036 75.6207 78.4587 75.6699 78.31 75.6676C78.2321 75.676 78.1532 75.6669 78.0792 75.6408C78.0053 75.6147 77.9381 75.5724 77.8826 75.517C77.8272 75.4615 77.7848 75.3943 77.7588 75.3203C77.7327 75.2464 77.7235 75.1675 77.7319 75.0895V73.8964H77.3752V73.6709H77.7319V73.2363H77.9984V73.6709H78.597V73.8964H77.9984V75.0772C77.9914 75.1245 77.9952 75.1727 78.0095 75.2182C78.0238 75.2638 78.0483 75.3055 78.0811 75.3402C78.1138 75.3749 78.154 75.4018 78.1987 75.4187C78.2433 75.4357 78.2912 75.4423 78.3387 75.438C78.4464 75.4413 78.5515 75.4048 78.6339 75.3355L78.72 75.5282Z" fill="#263238"/>
<path opacity="0.4" d="M82.41 73.0156V75.6478H82.1804L80.4912 73.5117V75.6478H80.2124V73.0156H80.442L82.1353 75.1517V73.0156H82.41Z" fill="#263238"/>
<path opacity="0.4" d="M84.7224 74.4215V75.6515H84.46V75.344C84.386 75.4543 84.2839 75.5429 84.1643 75.6005C84.0446 75.6582 83.9118 75.6829 83.7794 75.672C83.3325 75.672 83.0578 75.4383 83.0578 75.0939C83.0578 74.7495 83.2546 74.5363 83.8245 74.5363H84.46V74.4174C84.46 74.0771 84.2673 73.8926 83.8983 73.8926C83.6587 73.8894 83.4259 73.9724 83.2423 74.1263L83.1193 73.9254C83.3529 73.7431 83.6432 73.6488 83.9393 73.6589C84.0433 73.647 84.1486 73.6583 84.2476 73.6921C84.3467 73.7259 84.437 73.7813 84.5119 73.8543C84.5869 73.9273 84.6447 74.0161 84.6811 74.1142C84.7175 74.2123 84.7316 74.3173 84.7224 74.4215ZM84.4559 75.0529V74.729H83.8327C83.4514 74.729 83.3284 74.8807 83.3284 75.0857C83.3284 75.2907 83.5129 75.4547 83.8286 75.4547C83.9629 75.4638 84.0967 75.4297 84.2102 75.3575C84.3238 75.2852 84.4113 75.1785 84.46 75.0529H84.4559Z" fill="#263238"/>
<path opacity="0.4" d="M88.7117 74.5005V75.6485H88.4452V74.5292C88.4452 74.1192 88.232 73.8978 87.8753 73.8978C87.7828 73.8935 87.6905 73.9095 87.6049 73.9446C87.5192 73.9797 87.4422 74.0331 87.3794 74.101C87.3165 74.169 87.2692 74.2498 87.2409 74.3379C87.2125 74.4261 87.2038 74.5193 87.2152 74.6112V75.6485H86.9487V74.5292C86.9487 74.1192 86.7355 73.8978 86.3747 73.8978C86.2822 73.8935 86.1899 73.9095 86.1043 73.9446C86.0186 73.9797 85.9417 74.0331 85.8788 74.101C85.8159 74.169 85.7686 74.2498 85.7403 74.3379C85.7119 74.4261 85.7032 74.5193 85.7146 74.6112V75.6485H85.4481V73.6723H85.69V74.0331C85.7674 73.9122 85.8751 73.8137 86.0025 73.7476C86.1298 73.6814 86.2723 73.6497 86.4157 73.6559C86.5611 73.6439 86.7066 73.6768 86.8327 73.7502C86.9588 73.8235 87.0594 73.9337 87.1209 74.0659C87.2019 73.9338 87.3169 73.826 87.454 73.7538C87.5912 73.6816 87.7452 73.6478 87.8999 73.6559C88.0121 73.6449 88.1253 73.6595 88.2311 73.6986C88.3368 73.7376 88.4324 73.8002 88.5105 73.8815C88.5886 73.9627 88.6473 74.0607 88.6821 74.1679C88.717 74.2751 88.7271 74.3888 88.7117 74.5005Z" fill="#263238"/>
<path opacity="0.4" d="M91.1676 74.741H89.5276C89.5333 74.8374 89.5581 74.9318 89.6004 75.0186C89.6427 75.1055 89.7017 75.1832 89.7741 75.2472C89.8464 75.3112 89.9307 75.3602 90.0221 75.3916C90.1135 75.4229 90.2102 75.4359 90.3066 75.4298C90.4204 75.4334 90.5337 75.4122 90.6385 75.3676C90.7433 75.323 90.8371 75.2561 90.9134 75.1715L91.061 75.3437C90.9189 75.4921 90.7363 75.5953 90.5359 75.6405C90.3354 75.6857 90.1262 75.6708 89.9342 75.5978C89.7421 75.5247 89.5759 75.3967 89.4562 75.2298C89.3365 75.0628 89.2686 74.8643 89.2611 74.659C89.2544 74.5284 89.2745 74.3978 89.3202 74.2754C89.366 74.1529 89.4364 74.0411 89.5271 73.9469C89.6178 73.8528 89.7269 73.7782 89.8476 73.7279C89.9682 73.6776 90.098 73.6526 90.2287 73.6545C90.3593 73.6519 90.4889 73.6765 90.6095 73.7267C90.73 73.7769 90.8389 73.8515 90.929 73.946C91.0192 74.0404 91.0888 74.1526 91.1334 74.2753C91.178 74.398 91.1966 74.5287 91.1881 74.659C91.1717 74.6836 91.1676 74.7123 91.1676 74.741ZM89.5276 74.5442H90.9298C90.9298 74.3582 90.8559 74.1799 90.7244 74.0484C90.593 73.9169 90.4146 73.8431 90.2287 73.8431C90.0428 73.8431 89.8644 73.9169 89.7329 74.0484C89.6015 74.1799 89.5276 74.3582 89.5276 74.5442Z" fill="#263238"/>
</g>
<path d="M122.147 57.375H68.5028V66.559H122.147V57.375Z" fill="white"/>
<g opacity="0.4">
<path opacity="0.4" d="M71.7172 60.7126V61.7458H73.0784V61.9877H71.7172V63.1029H71.4384V60.4707H73.2424V60.7126H71.7172Z" fill="#263238"/>
<path opacity="0.4" d="M73.6647 60.4997C73.6639 60.4604 73.6749 60.4218 73.6962 60.3888C73.7175 60.3559 73.7482 60.33 73.7843 60.3146C73.8204 60.2992 73.8603 60.295 73.8989 60.3024C73.9374 60.3099 73.9729 60.3287 74.0006 60.3565C74.0284 60.3842 74.0472 60.4197 74.0547 60.4582C74.0622 60.4968 74.0579 60.5367 74.0425 60.5728C74.0271 60.6089 74.0013 60.6396 73.9683 60.6609C73.9353 60.6822 73.8967 60.6932 73.8574 60.6924C73.8063 60.6924 73.7573 60.6721 73.7212 60.6359C73.685 60.5998 73.6647 60.5508 73.6647 60.4997ZM73.7221 61.127H73.9886V63.1032H73.7221V61.127Z" fill="#263238"/>
<path opacity="0.4" d="M75.7311 61.1099V61.3682H75.6655C75.5713 61.3637 75.4773 61.38 75.3901 61.416C75.303 61.452 75.2248 61.5068 75.1614 61.5766C75.0979 61.6463 75.0506 61.7292 75.023 61.8194C74.9953 61.9095 74.9879 62.0047 75.0013 62.098V63.1066H74.7348V61.1304H74.989V61.4994C75.0599 61.3681 75.1684 61.2608 75.3006 61.1914C75.4328 61.122 75.5827 61.0937 75.7311 61.1099Z" fill="#263238"/>
<path opacity="0.4" d="M75.9525 62.8768L76.0714 62.6636C76.2764 62.8122 76.5235 62.8912 76.7766 62.8891C77.1538 62.8891 77.3055 62.7579 77.3055 62.5652C77.3055 62.0486 76.0263 62.4545 76.0263 61.6714C76.0263 61.3516 76.301 61.1097 76.8053 61.1097C77.0517 61.1043 77.2946 61.1683 77.5064 61.2942L77.3875 61.5074C77.215 61.3935 77.012 61.3348 76.8053 61.3393C76.4486 61.3393 76.2928 61.4787 76.2928 61.6673C76.2928 62.2003 77.572 61.7985 77.572 62.557C77.572 62.8973 77.2727 63.1187 76.752 63.1187C76.4664 63.1261 76.1861 63.0413 75.9525 62.8768Z" fill="#263238"/>
<path opacity="0.4" d="M79.13 62.9839C79.0122 63.0734 78.8679 63.121 78.72 63.1192C78.6423 63.1283 78.5635 63.1197 78.4895 63.0942C78.4155 63.0686 78.3482 63.0267 78.2926 62.9715C78.2371 62.9163 78.1947 62.8494 78.1686 62.7756C78.1425 62.7017 78.1334 62.623 78.1419 62.5452V61.3521H77.7852V61.1266H78.1419V60.6797H78.4084V61.1143H79.007V61.3398H78.4084V62.5165C78.4015 62.5639 78.4054 62.6122 78.4197 62.6579C78.434 62.7036 78.4583 62.7456 78.491 62.7806C78.5237 62.8156 78.5638 62.8429 78.6084 62.8603C78.653 62.8777 78.701 62.885 78.7487 62.8814C78.8561 62.8828 78.9605 62.8465 79.0439 62.7789L79.13 62.9839Z" fill="#263238"/>
<path opacity="0.4" d="M82.82 60.4707V63.1029H82.5904L80.9012 60.9668V63.1029H80.6224V60.4707H80.852L82.5453 62.6068V60.4707H82.82Z" fill="#263238"/>
<path opacity="0.4" d="M85.1283 61.8767V63.1067H84.87V62.7992C84.7965 62.9087 84.695 62.9965 84.576 63.0535C84.457 63.1104 84.325 63.1345 84.1935 63.1231C83.7425 63.1231 83.4678 62.8935 83.4678 62.5491C83.4678 62.2047 83.6646 61.9915 84.2345 61.9915H84.87V61.8685C84.87 61.5323 84.6773 61.3478 84.3083 61.3478C84.0687 61.3446 83.836 61.4275 83.6523 61.5815L83.5293 61.3806C83.7631 61.1986 84.0532 61.1043 84.3493 61.1141C84.4531 61.102 84.5583 61.1133 84.6572 61.1471C84.7561 61.1809 84.8461 61.2364 84.9208 61.3095C84.9955 61.3826 85.0529 61.4714 85.0888 61.5696C85.1247 61.6677 85.1382 61.7726 85.1283 61.8767ZM84.8618 62.5081V62.1842H84.2386C83.8573 62.1842 83.7343 62.3359 83.7343 62.5368C83.7343 62.7377 83.9188 62.9099 84.2345 62.9099C84.3694 62.9192 84.5038 62.8853 84.6181 62.813C84.7324 62.7408 84.8206 62.6339 84.87 62.5081H84.8618Z" fill="#263238"/>
<path opacity="0.4" d="M89.1176 61.9544V63.1024H88.8511V61.9831C88.8511 61.5731 88.6379 61.3517 88.2812 61.3517C88.1887 61.3474 88.0964 61.3634 88.0108 61.3985C87.9251 61.4336 87.8481 61.487 87.7853 61.5549C87.7224 61.6229 87.6751 61.7038 87.6468 61.7919C87.6184 61.88 87.6097 61.9733 87.6211 62.0651V63.1024H87.3546V61.9831C87.3546 61.5731 87.1414 61.3517 86.7806 61.3517C86.6881 61.3474 86.5958 61.3634 86.5102 61.3985C86.4245 61.4336 86.3475 61.487 86.2847 61.5549C86.2218 61.6229 86.1745 61.7038 86.1462 61.7919C86.1178 61.88 86.1091 61.9733 86.1205 62.0651V63.1024H85.854V61.1262H86.1V61.4993C86.1774 61.3785 86.2851 61.28 86.4125 61.2138C86.5398 61.1476 86.6823 61.116 86.8257 61.1221C86.9711 61.1102 87.1166 61.1431 87.2427 61.2164C87.3688 61.2897 87.4694 61.3999 87.5309 61.5321C87.6112 61.3994 87.7261 61.2911 87.8634 61.2189C88.0007 61.1466 88.155 61.1132 88.3099 61.1221C88.4206 61.1122 88.5321 61.1271 88.6364 61.1658C88.7406 61.2044 88.8348 61.2659 88.9122 61.3457C88.9897 61.4254 89.0483 61.5215 89.0838 61.6268C89.1193 61.7321 89.1309 61.8441 89.1176 61.9544Z" fill="#263238"/>
<path opacity="0.4" d="M91.5736 62.198H89.9335C89.9393 62.2945 89.964 62.3888 90.0063 62.4757C90.0486 62.5625 90.1076 62.6402 90.18 62.7042C90.2524 62.7682 90.3367 62.8173 90.4281 62.8486C90.5195 62.8799 90.6161 62.8929 90.7125 62.8868C90.8268 62.8905 90.9404 62.8689 91.0453 62.8236C91.1502 62.7782 91.2438 62.7102 91.3193 62.6244L91.467 62.8007C91.3249 62.9491 91.1422 63.0523 90.9418 63.0975C90.7414 63.1427 90.5321 63.1278 90.3401 63.0548C90.1481 62.9817 89.9819 62.8538 89.8622 62.6868C89.7425 62.5198 89.6746 62.3213 89.667 62.116C89.6603 61.9854 89.6804 61.8549 89.7262 61.7324C89.7719 61.6099 89.8423 61.4981 89.9331 61.404C90.0238 61.3098 90.1328 61.2353 90.2535 61.185C90.3742 61.1346 90.5039 61.1097 90.6346 61.1115C90.7652 61.109 90.8949 61.1335 91.0154 61.1837C91.136 61.2339 91.2448 61.3086 91.335 61.403C91.4252 61.4974 91.4948 61.6096 91.5394 61.7323C91.584 61.8551 91.6026 61.9857 91.594 62.116C91.5776 62.1365 91.5736 62.1652 91.5736 62.198ZM89.9335 61.9971H91.3358C91.3358 61.8112 91.2619 61.6328 91.1304 61.5014C90.9989 61.3699 90.8206 61.296 90.6346 61.296C90.4487 61.296 90.2704 61.3699 90.1389 61.5014C90.0074 61.6328 89.9335 61.8112 89.9335 61.9971Z" fill="#263238"/>
</g>
<path d="M48.3185 135.414H47.929C47.929 134.836 48.4087 121.29 50.7662 119.014C53.1893 116.657 56.0388 118.981 56.0634 119.014L55.8174 119.309C55.7108 119.223 53.2057 117.19 51.0327 119.309C48.79 121.445 48.3226 135.275 48.3185 135.414Z" fill="#407BFF"/>
<path d="M48.1217 138.133L47.7363 138.096C47.7363 137.932 49.2615 121.647 43.3616 114.873L43.6527 114.619C49.6633 121.519 48.1381 137.969 48.1217 138.133Z" fill="#407BFF"/>
<path d="M48.3103 136.394C48.2611 135.623 47.1254 117.534 51.66 113.352L51.9224 113.639C47.5231 117.681 48.6834 136.189 48.6957 136.365L48.3103 136.394Z" fill="#407BFF"/>
<path d="M47.7363 136.382C47.7363 136.259 47.5969 124.082 44.3702 122.249C44.0959 122.068 43.7821 121.956 43.4553 121.922C43.1285 121.887 42.7983 121.932 42.4924 122.052C40.6023 122.835 39.5978 126.443 39.5855 126.48L39.2124 126.378C39.2534 126.222 40.2784 122.552 42.3448 121.696C42.7048 121.551 43.0943 121.495 43.4804 121.533C43.8665 121.571 44.2378 121.701 44.5629 121.913C47.9782 123.869 48.1217 135.853 48.1258 136.378L47.7363 136.382Z" fill="#407BFF"/>
<path d="M49.0647 136.391C49.0401 135.981 48.544 126.78 51.1557 123.365C51.8527 122.459 52.6235 122.028 53.4599 122.09C55.3172 122.217 56.7399 124.734 56.8178 124.841L56.4816 125.034C56.4816 125.009 55.0794 122.574 53.4312 122.475C52.7383 122.422 52.0741 122.803 51.4632 123.603C48.9376 126.883 49.446 136.276 49.4501 136.37L49.0647 136.391Z" fill="#407BFF"/>
<path d="M48.5441 137.666L48.1587 137.637C48.1587 137.416 49.7987 115.448 47.0927 111.782L47.4043 111.553C50.2005 115.333 48.6138 136.755 48.5441 137.666Z" fill="#407BFF"/>
<path d="M41.5945 123.881C41.5945 123.881 43.2673 124.501 42.7712 125.956C42.2751 127.412 36.9779 129.81 36.9779 129.81C36.9779 129.81 34.7598 127.781 36.7975 124.48C38.8352 121.18 41.5494 122.84 41.5945 123.881Z" fill="#407BFF"/>
<path opacity="0.2" d="M41.5945 123.881C41.5945 123.881 43.2673 124.501 42.7712 125.956C42.2751 127.412 36.9779 129.81 36.9779 129.81C36.9779 129.81 34.7598 127.781 36.7975 124.48C38.8352 121.18 41.5494 122.84 41.5945 123.881Z" fill="black"/>
<path d="M48.872 121.11C48.872 121.11 47.0885 121.036 46.986 122.569C46.8835 124.103 50.84 128.359 50.84 128.359C50.84 128.359 53.669 127.334 53.0622 123.5C52.4554 119.667 49.3148 120.163 48.872 121.11Z" fill="#407BFF"/>
<path opacity="0.2" d="M48.872 121.11C48.872 121.11 47.0885 121.036 46.986 122.569C46.8835 124.103 50.84 128.359 50.84 128.359C50.84 128.359 53.669 127.334 53.0622 123.5C52.4554 119.667 49.3148 120.163 48.872 121.11Z" fill="black"/>
<path d="M50.3809 113.753C50.3809 113.753 49.1918 113.626 49.2861 112.904C49.3804 112.183 53.9069 110.317 56.576 113.314C56.576 113.314 54.8663 116.25 52.3981 116.291C49.9299 116.332 50.3809 113.753 50.3809 113.753Z" fill="#407BFF"/>
<path opacity="0.2" d="M50.3809 113.753C50.3809 113.753 49.1918 113.626 49.2861 112.904C49.3804 112.183 53.9069 110.317 56.576 113.314C56.576 113.314 54.8663 116.25 52.3981 116.291C49.9299 116.332 50.3809 113.753 50.3809 113.753Z" fill="black"/>
<path d="M48.1669 111.995C48.1669 111.995 49.2411 112.515 49.5445 111.851C49.8479 111.187 46.9902 107.214 43.1321 108.358C43.1321 108.358 43.0296 111.753 45.1042 113.093C47.1788 114.434 48.1669 111.995 48.1669 111.995Z" fill="#407BFF"/>
<path opacity="0.2" d="M48.1669 111.995C48.1669 111.995 49.2411 112.515 49.5445 111.851C49.8479 111.187 46.9902 107.214 43.1321 108.358C43.1321 108.358 43.0296 111.753 45.1042 113.093C47.1788 114.434 48.1669 111.995 48.1669 111.995Z" fill="black"/>
<path d="M53.792 123.299C53.792 123.299 52.972 122.635 53.8576 122.311C54.7432 121.987 59.0851 122.082 59.1302 126.382C59.1302 126.382 54.0708 127.223 53.4476 125.583C52.8244 123.943 53.792 123.299 53.792 123.299Z" fill="#407BFF"/>
<path opacity="0.2" d="M53.792 123.299C53.792 123.299 52.972 122.635 53.8576 122.311C54.7432 121.987 59.0851 122.082 59.1302 126.382C59.1302 126.382 54.0708 127.223 53.4476 125.583C52.8244 123.943 53.792 123.299 53.792 123.299Z" fill="black"/>
<path d="M43.46 113.648C43.46 113.648 44.28 112.983 43.3944 112.663C42.5088 112.344 38.1669 112.43 38.1218 116.731C38.1218 116.731 43.1812 117.575 43.8044 115.935C44.4276 114.295 43.46 113.648 43.46 113.648Z" fill="#407BFF"/>
<path opacity="0.2" d="M43.46 113.648C43.46 113.648 44.28 112.983 43.3944 112.663C42.5088 112.344 38.1669 112.43 38.1218 116.731C38.1218 116.731 43.1812 117.575 43.8044 115.935C44.4276 114.295 43.46 113.648 43.46 113.648Z" fill="black"/>
<path d="M46.1496 117.112C46.1496 117.112 46.2234 116.292 45.5715 116.624C44.9196 116.956 42.6605 119.383 45.0057 121.7C45.0057 121.7 48.1668 119.359 47.5969 118.141C47.027 116.923 46.1496 117.112 46.1496 117.112Z" fill="#407BFF"/>
<path opacity="0.2" d="M46.1496 117.112C46.1496 117.112 46.2234 116.292 45.5715 116.624C44.9196 116.956 42.6605 119.383 45.0057 121.7C45.0057 121.7 48.1668 119.359 47.5969 118.141C47.027 116.923 46.1496 117.112 46.1496 117.112Z" fill="black"/>
<path d="M54.53 118.26C54.53 118.26 54.038 117.616 54.7596 117.538C55.4812 117.46 58.6956 118.317 57.9453 121.531C57.9453 121.531 54.0257 121.236 53.8453 119.891C53.6649 118.547 54.53 118.26 54.53 118.26Z" fill="#407BFF"/>
<path opacity="0.2" d="M54.53 118.26C54.53 118.26 54.038 117.616 54.7596 117.538C55.4812 117.46 58.6956 118.317 57.9453 121.531C57.9453 121.531 54.0257 121.236 53.8453 119.891C53.6649 118.547 54.53 118.26 54.53 118.26Z" fill="black"/>
<path d="M41.8857 148.305H54.5588L56.2439 135.98H40.2006L41.8857 148.305Z" fill="#263238"/>
<path opacity="0.2" d="M41.8857 148.305H54.5588L56.2439 135.98H40.2006L41.8857 148.305Z" fill="white"/>
<path d="M57.8346 134.979V136.151C57.8346 136.527 57.6852 136.888 57.4191 137.154C57.1531 137.42 56.7923 137.57 56.416 137.57H39.8725C39.4963 137.57 39.1355 137.42 38.8694 137.154C38.6034 136.888 38.4539 136.527 38.4539 136.151V134.979H57.8346Z" fill="#263238"/>
<path d="M163.434 18.1661H151.655C150.694 18.1661 149.772 18.548 149.092 19.2277C148.412 19.9074 148.031 20.8293 148.031 21.7905V32.0405C148.03 32.5168 148.123 32.9886 148.305 33.4288C148.487 33.869 148.754 34.269 149.091 34.606C149.427 34.943 149.827 35.2103 150.267 35.3927C150.707 35.5751 151.179 35.669 151.655 35.669H155.095L154.275 38.9039L157.555 35.669H163.455C164.417 35.669 165.34 35.2867 166.02 34.6063C166.701 33.9258 167.083 33.0028 167.083 32.0405V21.7905C167.083 21.3125 166.989 20.8391 166.805 20.3978C166.621 19.9565 166.352 19.5558 166.013 19.2189C165.674 18.882 165.271 18.6156 164.829 18.4349C164.386 18.2542 163.912 18.1629 163.434 18.1661Z" fill="#407BFF"/>
<path opacity="0.7" d="M163.434 18.1661H151.655C150.694 18.1661 149.772 18.548 149.092 19.2277C148.412 19.9074 148.031 20.8293 148.031 21.7905V32.0405C148.03 32.5168 148.123 32.9886 148.305 33.4288C148.487 33.869 148.754 34.269 149.091 34.606C149.427 34.943 149.827 35.2103 150.267 35.3927C150.707 35.5751 151.179 35.669 151.655 35.669H155.095L154.275 38.9039L157.555 35.669H163.455C164.417 35.669 165.34 35.2867 166.02 34.6063C166.701 33.9258 167.083 33.0028 167.083 32.0405V21.7905C167.083 21.3125 166.989 20.8391 166.805 20.3978C166.621 19.9565 166.352 19.5558 166.013 19.2189C165.674 18.882 165.271 18.6156 164.829 18.4349C164.386 18.2542 163.912 18.1629 163.434 18.1661Z" fill="white"/>
<path d="M157.547 31.4457C160.071 31.4457 162.118 29.399 162.118 26.8742C162.118 24.3495 160.071 22.3027 157.547 22.3027C155.022 22.3027 152.975 24.3495 152.975 26.8742C152.975 29.399 155.022 31.4457 157.547 31.4457Z" fill="white"/>
<path d="M157.547 21.0273C156.39 21.0273 155.26 21.3702 154.298 22.0127C153.337 22.6551 152.588 23.5682 152.145 24.6366C151.703 25.7049 151.587 26.8804 151.812 28.0146C152.038 29.1487 152.595 30.1905 153.412 31.0081C154.23 31.8258 155.272 32.3826 156.406 32.6082C157.54 32.8338 158.716 32.718 159.784 32.2755C160.852 31.833 161.765 31.0836 162.408 30.1221C163.05 29.1607 163.393 28.0303 163.393 26.874C163.394 26.106 163.243 25.3455 162.949 24.6359C162.656 23.9263 162.225 23.2816 161.682 22.7386C161.139 22.1956 160.494 21.7649 159.785 21.4713C159.075 21.1777 158.315 21.0268 157.547 21.0273ZM160.864 25.1273L157.342 29.2766C157.292 29.3365 157.229 29.3845 157.158 29.4172C157.087 29.4498 157.01 29.4662 156.932 29.4652C156.854 29.4656 156.777 29.449 156.706 29.4164C156.635 29.3838 156.572 29.3361 156.522 29.2766L154.23 26.5747C154.181 26.5212 154.144 26.4586 154.12 26.3905C154.097 26.3224 154.087 26.2502 154.092 26.1783C154.097 26.1063 154.116 26.0361 154.148 25.9717C154.181 25.9074 154.226 25.8502 154.281 25.8037C154.336 25.7571 154.4 25.7222 154.469 25.7009C154.538 25.6795 154.61 25.6723 154.682 25.6796C154.754 25.6869 154.823 25.7085 154.886 25.7433C154.95 25.778 155.005 25.8251 155.05 25.8817L156.932 28.0999L160.044 24.4344C160.137 24.3313 160.267 24.2685 160.406 24.2592C160.545 24.25 160.682 24.2951 160.788 24.3849C160.894 24.4748 160.962 24.6024 160.976 24.7409C160.99 24.8794 160.95 25.018 160.864 25.1273Z" fill="#407BFF"/>
<path d="M161.392 81.4087C161.392 81.4087 154.254 80.5067 143.439 83.4587C143.439 83.4587 141.7 64.1313 141.905 61.4745C142.11 58.8177 158.604 59.5967 158.604 59.5967C158.604 59.5967 159.014 67.3334 160.089 71.9992C161.163 76.665 161.95 80.5108 161.392 81.4087Z" fill="#407BFF"/>
<path opacity="0.2" d="M161.392 81.4087C161.392 81.4087 154.254 80.5067 143.439 83.4587C143.439 83.4587 141.7 64.1313 141.905 61.4745C142.11 58.8177 158.604 59.5967 158.604 59.5967C158.604 59.5967 159.014 67.3334 160.089 71.9992C161.163 76.665 161.95 80.5108 161.392 81.4087Z" fill="black"/>
<path d="M138.223 145.393L141.134 146.217L141.827 141.687L142.2 139.264L139.289 138.439L138.793 141.687L138.223 145.393Z" fill="#E4897B"/>
<path d="M154.959 145.631L157.961 146.029L157.989 141.687L158.01 138.989L155.005 138.596L154.984 141.687L154.959 145.631Z" fill="#E4897B"/>
<path opacity="0.2" d="M155.005 138.596L154.984 141.687H157.989L158.01 138.989L155.005 138.596Z" fill="black"/>
<path opacity="0.2" d="M138.793 141.687H141.827L142.2 139.264L139.289 138.439L138.793 141.687Z" fill="black"/>
<path d="M125.3 63.0598L122.41 62.207L122.939 65.5075C122.939 65.5075 125.563 66.1102 125.809 64.7449L125.3 63.0598Z" fill="#E4897B"/>
<path d="M119.523 62.9737L120.942 65.6551L122.938 65.5075L122.41 62.207L119.523 62.9737Z" fill="#E4897B"/>
<path d="M129.289 63.9056L124.542 62.8438L124.111 65.1479L128.42 66.1976L129.289 63.9056Z" fill="#E4897B"/>
<path d="M143.652 61.8219L143.373 62.154C142.774 62.8551 141.323 64.5484 139.81 66.008C138.58 67.197 137.35 68.2343 136.53 68.4434C134.205 69.042 125.755 66.5533 125.755 66.5533L126.628 63.1257C126.628 63.1257 134.5 64.1712 135.111 64.1712C135.575 64.1712 140.363 57.234 141.524 56.6641L143.652 61.8219Z" fill="#407BFF"/>
<path opacity="0.2" d="M143.373 62.1537C142.774 62.8548 141.323 64.5481 139.81 66.0077C140.113 63.6051 140.995 61.3993 142.155 60.0053C142.263 59.8708 142.387 59.7497 142.524 59.6445L143.373 62.1537Z" fill="black"/>
<path d="M138.26 144.938L141.565 144.852C141.624 144.85 141.683 144.868 141.731 144.904C141.778 144.94 141.812 144.991 141.827 145.048L142.524 147.709C142.541 147.773 142.543 147.84 142.53 147.904C142.518 147.969 142.491 148.03 142.451 148.083C142.412 148.135 142.361 148.179 142.303 148.209C142.244 148.24 142.18 148.257 142.114 148.259C140.921 148.259 139.195 148.259 137.698 148.287C135.944 148.337 134.828 148.251 132.778 148.287C131.548 148.32 131.138 147.082 131.663 146.955C134.013 146.373 135.55 146.488 137.551 145.176C137.762 145.035 138.007 144.953 138.26 144.938Z" fill="#263238"/>
<path d="M137.973 145.364C137.489 145.471 136.628 145.614 136.284 145.331C136.234 145.29 136.194 145.237 136.169 145.177C136.143 145.117 136.132 145.052 136.136 144.987C136.136 144.948 136.146 144.909 136.166 144.876C136.185 144.842 136.213 144.814 136.247 144.794C136.612 144.577 137.846 145.163 137.99 145.229C138.002 145.235 138.013 145.246 138.02 145.258C138.027 145.27 138.031 145.284 138.031 145.298C138.03 145.314 138.024 145.329 138.013 145.341C138.003 145.353 137.989 145.361 137.973 145.364ZM136.333 144.909H136.309C136.295 144.917 136.284 144.928 136.276 144.942C136.268 144.956 136.264 144.971 136.264 144.987C136.26 145.029 136.267 145.072 136.283 145.111C136.3 145.15 136.325 145.185 136.358 145.212C136.551 145.372 137.051 145.389 137.715 145.257C137.235 145.057 136.567 144.823 136.341 144.909H136.333Z" fill="#407BFF"/>
<path d="M137.973 145.365H137.924C137.551 145.209 136.805 144.577 136.846 144.237C136.846 144.155 136.911 144.053 137.108 144.028C137.18 144.019 137.254 144.024 137.324 144.043C137.394 144.062 137.46 144.094 137.518 144.139C137.928 144.446 138.022 145.254 138.031 145.287C138.032 145.299 138.03 145.312 138.025 145.323C138.02 145.335 138.012 145.345 138.002 145.352L137.973 145.365ZM137.055 144.188C136.993 144.209 136.989 144.241 136.989 144.254C136.965 144.459 137.473 144.959 137.854 145.172C137.81 144.828 137.658 144.506 137.42 144.254C137.379 144.22 137.332 144.195 137.281 144.181C137.23 144.166 137.177 144.163 137.124 144.172C137.101 144.174 137.077 144.179 137.055 144.188Z" fill="#407BFF"/>
<path d="M155.078 144.938L158.383 144.852C158.443 144.85 158.502 144.868 158.551 144.904C158.599 144.939 158.634 144.99 158.65 145.049L159.342 147.709C159.36 147.773 159.363 147.84 159.35 147.905C159.338 147.97 159.311 148.031 159.272 148.084C159.232 148.137 159.181 148.18 159.122 148.211C159.063 148.241 158.999 148.257 158.932 148.259C157.739 148.259 156.013 148.259 154.513 148.288C152.762 148.337 151.643 148.251 149.593 148.288C148.363 148.32 147.953 147.082 148.477 146.955C150.827 146.373 152.36 146.488 154.361 145.176C154.574 145.033 154.822 144.951 155.078 144.938Z" fill="#263238"/>
<path d="M154.795 145.364C154.312 145.471 153.447 145.614 153.106 145.331C153.056 145.29 153.017 145.237 152.991 145.177C152.965 145.117 152.954 145.052 152.959 144.987C152.959 144.948 152.969 144.909 152.988 144.876C153.008 144.842 153.036 144.814 153.069 144.794C153.43 144.577 154.668 145.163 154.808 145.229C154.821 145.234 154.833 145.244 154.84 145.257C154.848 145.269 154.851 145.284 154.849 145.298C154.848 145.314 154.842 145.328 154.832 145.34C154.823 145.351 154.81 145.36 154.795 145.364ZM153.155 144.909H153.131C153.117 144.917 153.106 144.928 153.099 144.942C153.092 144.956 153.089 144.971 153.09 144.987C153.086 145.029 153.092 145.072 153.109 145.111C153.125 145.151 153.151 145.185 153.184 145.212C153.377 145.372 153.873 145.389 154.541 145.257C154.053 145.057 153.385 144.823 153.16 144.909H153.155Z" fill="#407BFF"/>
<path d="M154.795 145.363H154.742C154.373 145.207 153.623 144.576 153.668 144.236C153.668 144.154 153.73 144.051 153.926 144.027C153.999 144.017 154.072 144.021 154.143 144.04C154.213 144.059 154.279 144.092 154.336 144.137C154.623 144.457 154.802 144.858 154.849 145.285C154.851 145.298 154.849 145.311 154.844 145.322C154.839 145.334 154.831 145.344 154.82 145.351L154.795 145.363ZM153.873 144.186C153.816 144.207 153.812 144.24 153.812 144.252C153.783 144.457 154.295 144.957 154.677 145.17C154.63 144.827 154.478 144.506 154.242 144.252C154.201 144.218 154.154 144.193 154.103 144.179C154.052 144.165 153.999 144.162 153.947 144.17L153.873 144.186Z" fill="#407BFF"/>
<path d="M161.15 79.6445C162.741 86.5366 160.011 140.759 160.011 140.759H154.738L152.483 95.573L144.181 140.759L138.543 140.349C142.233 105.343 145.484 84.4456 145.484 84.4456V81.8052L161.15 79.6445Z" fill="#263238"/>
<path opacity="0.4" d="M138.543 140.349L144.181 140.759L150.716 105.188L152.483 95.573L154.738 140.759H160.011C160.011 140.759 162.741 86.5366 161.15 79.6445L145.476 81.8052V84.4456C145.476 84.4456 142.229 105.343 138.543 140.349Z" fill="white"/>
<path d="M158.309 54.1178C158.148 57.4131 158.231 60.7159 158.559 63.9988C158.781 66.2948 159.084 68.4637 159.408 70.4194C160.166 75.0073 161.027 78.4472 161.15 79.6485L145.476 81.8092C139.761 65.8192 141.913 56.5286 141.913 56.5286C143.085 56.0447 144.286 55.6339 145.509 55.2986C145.767 55.2289 146.03 55.1633 146.3 55.1018C148.502 54.6686 150.726 54.3619 152.963 54.1834C153.373 54.1465 153.82 54.1178 154.238 54.0973C156.378 53.9907 158.309 54.1178 158.309 54.1178Z" fill="#263238"/>
<path d="M149.921 46.9238C150.035 49.1173 150.269 53.2337 152.094 54.2792C152.094 54.2792 150.958 56.4399 148.502 56.6613C146.645 56.8253 146.768 54.9926 146.768 54.9926C147.842 54.1931 147.588 52.836 146.768 51.3026L149.921 46.9238Z" fill="#E4897B"/>
<path opacity="0.2" d="M148.633 48.7109L146.78 51.3021C146.975 51.6565 147.14 52.0269 147.272 52.4091C148.133 52.0647 149.121 50.7691 148.978 49.8302C148.933 49.4391 148.816 49.0597 148.633 48.7109Z" fill="black"/>
<path d="M141.926 42.5081C141.569 43.6479 141.766 45.9849 143.352 45.2264C144.939 44.4679 142.541 40.5524 141.926 42.5081Z" fill="#263238"/>
<path d="M150.126 44.0483C150.302 46.9716 150.536 48.6731 149.26 50.3295C147.321 52.8182 143.566 51.8916 142.516 49.0708C141.573 46.5288 141.446 42.1746 144.156 40.6986C144.757 40.3717 145.431 40.2026 146.114 40.2071C146.798 40.2116 147.47 40.3895 148.066 40.7241C148.663 41.0588 149.164 41.5393 149.525 42.1206C149.885 42.702 150.092 43.3652 150.126 44.0483Z" fill="#E4897B"/>
<path d="M148.076 42.4571V39.1771C148.076 39.1771 151.552 38.9188 151.397 40.6982C153.324 41.6535 152.413 44.6506 149.826 46.1184C148.408 44.9827 148.572 42.2521 148.572 42.2521C148.42 42.33 148.248 42.3956 148.076 42.4571Z" fill="#263238"/>
<path d="M151.54 46.3289C151.473 46.6865 151.335 47.0271 151.134 47.3306C150.934 47.6341 150.674 47.8943 150.372 48.096C149.552 48.6331 148.842 47.973 148.814 47.0505C148.789 46.2305 149.178 44.9349 150.121 44.7709C150.328 44.7388 150.539 44.7583 150.736 44.8276C150.933 44.897 151.109 45.0141 151.25 45.1685C151.39 45.3228 151.49 45.5096 151.541 45.7121C151.592 45.9147 151.591 46.1266 151.54 46.3289Z" fill="#E4897B"/>
<path d="M145.808 45.3525C145.837 45.5903 145.734 45.7953 145.579 45.8117C145.423 45.8281 145.275 45.6518 145.247 45.4017C145.218 45.1516 145.32 44.9589 145.472 44.9425C145.624 44.9261 145.78 45.0983 145.808 45.3525Z" fill="#263238"/>
<path d="M143.127 45.6512C143.156 45.889 143.053 46.094 142.897 46.1104C142.741 46.1268 142.594 45.9505 142.565 45.7004C142.536 45.4503 142.639 45.2576 142.795 45.2412C142.951 45.2248 143.09 45.4134 143.127 45.6512Z" fill="#263238"/>
<path d="M143.992 45.6719C143.785 46.405 143.477 47.1059 143.078 47.7547C143.255 47.8455 143.449 47.898 143.647 47.9086C143.846 47.9192 144.044 47.8877 144.23 47.8162L143.992 45.6719Z" fill="#DE5753"/>
<path d="M145.612 48.5787C145.51 48.6044 145.408 48.6236 145.304 48.6361C145.286 48.6361 145.268 48.6287 145.255 48.6156C145.242 48.6026 145.234 48.5848 145.234 48.5664C145.234 48.5479 145.242 48.5301 145.255 48.5171C145.268 48.504 145.286 48.4967 145.304 48.4967C145.598 48.4699 145.882 48.3744 146.133 48.2177C146.384 48.061 146.594 47.8476 146.747 47.5947C146.751 47.5864 146.756 47.5789 146.762 47.5727C146.769 47.5665 146.777 47.5617 146.785 47.5586C146.794 47.5556 146.803 47.5543 146.812 47.5548C146.821 47.5554 146.829 47.5578 146.837 47.5618C146.846 47.5658 146.853 47.5714 146.86 47.5783C146.866 47.5852 146.871 47.5933 146.874 47.6021C146.877 47.6109 146.878 47.6202 146.877 47.6295C146.877 47.6388 146.874 47.6478 146.87 47.6562C146.736 47.889 146.555 48.0914 146.338 48.2502C146.121 48.4091 145.874 48.5209 145.612 48.5787Z" fill="#263238"/>
<path d="M146.53 44.3975C146.505 44.4032 146.479 44.4025 146.455 44.3953C146.43 44.3881 146.408 44.3747 146.39 44.3565C146.272 44.2264 146.124 44.1257 145.96 44.0623C145.796 43.999 145.619 43.9748 145.443 43.9916C145.425 43.9957 145.407 43.9961 145.388 43.9927C145.37 43.9894 145.353 43.9822 145.337 43.9719C145.322 43.9615 145.309 43.948 145.299 43.9324C145.289 43.9167 145.282 43.8992 145.279 43.8809C145.276 43.8628 145.276 43.8443 145.279 43.8262C145.283 43.8082 145.29 43.7911 145.301 43.7758C145.311 43.7606 145.324 43.7475 145.339 43.7374C145.355 43.7273 145.372 43.7203 145.39 43.7169C145.611 43.6905 145.836 43.7173 146.045 43.795C146.254 43.8727 146.441 43.9992 146.591 44.1638C146.605 44.1764 146.615 44.1917 146.623 44.2086C146.63 44.2255 146.634 44.2437 146.634 44.2622C146.634 44.2806 146.63 44.2988 146.623 44.3157C146.615 44.3327 146.605 44.3479 146.591 44.3606C146.574 44.3773 146.553 44.3899 146.53 44.3975Z" fill="#263238"/>
<path d="M141.86 44.8616C141.834 44.8717 141.804 44.8717 141.778 44.8616C141.743 44.8495 141.715 44.8242 141.699 44.7912C141.683 44.7582 141.68 44.7201 141.692 44.6853C141.76 44.4743 141.877 44.2828 142.035 44.1271C142.193 43.9715 142.386 43.8563 142.598 43.7915C142.634 43.7823 142.672 43.7877 142.704 43.8065C142.736 43.8254 142.759 43.8561 142.768 43.892C142.777 43.9279 142.772 43.9659 142.753 43.9979C142.734 44.0298 142.704 44.0529 142.668 44.0621C142.5 44.1138 142.348 44.2059 142.224 44.3303C142.1 44.4547 142.009 44.6076 141.958 44.7755C141.951 44.797 141.937 44.8162 141.92 44.8312C141.903 44.8463 141.882 44.8567 141.86 44.8616Z" fill="#263238"/>
<path d="M149.617 43.6717C149.617 43.6717 147.567 42.9214 146.632 41.7324C146.632 41.7324 144.771 42.2203 144.39 42.9624C144.216 42.8134 144.103 42.6053 144.074 42.3781C144.044 42.151 144.1 41.9209 144.23 41.7324C144.23 41.7324 142.836 42.0276 142.561 42.9624C142.335 42.8546 142.149 42.6769 142.03 42.4555C141.912 42.2341 141.868 41.9806 141.905 41.7324C141.905 41.7324 141.286 41.9661 141.085 42.9624C141.085 42.9624 139.548 39.7562 144.627 38.8378C144.243 38.7074 143.84 38.6395 143.434 38.6369C143.434 38.6369 146.981 37.206 149.789 38.5139C152.598 39.8218 152.11 42.3556 149.617 43.6717Z" fill="#263238"/>
<path d="M162.36 82.4081L157.44 83.0641C157.44 83.0641 155.411 68.8822 154.517 64.3025V54.5281L157.087 53.8516L159.08 54.5281C159.627 56.4946 160.047 58.494 160.339 60.5141C160.581 62.0475 160.798 63.6875 160.991 65.348C161.257 67.6112 161.479 69.9154 161.667 72.072C161.962 75.5529 162.159 78.632 162.266 80.5139C162.327 81.6947 162.36 82.4081 162.36 82.4081Z" fill="#407BFF"/>
<path d="M154.521 64.2951C154.521 64.2951 154.931 57.3948 157.091 53.836C157.091 53.836 157.038 52.8192 156.608 52.6552C156.177 52.4912 154.521 53.4752 154.521 53.4752C154.521 53.4752 153.492 52.77 153.266 53.098C153.041 53.426 152.491 55.6072 154.521 64.2951Z" fill="#407BFF"/>
<path opacity="0.7" d="M154.521 64.2951C154.521 64.2951 154.931 57.3948 157.091 53.836C157.091 53.836 157.038 52.8192 156.608 52.6552C156.177 52.4912 154.521 53.4752 154.521 53.4752C154.521 53.4752 153.492 52.77 153.266 53.098C153.041 53.426 152.491 55.6072 154.521 64.2951Z" fill="white"/>
<path d="M143.336 84.2981L143.898 84.7081C143.898 84.7081 143.078 80.1366 143.414 68.5746C143.414 68.017 143.451 67.4799 143.471 66.9674C143.881 57.1848 145.406 55.4054 145.521 55.2988L144.103 55.7826L141.532 56.6682C140.757 65.0117 143.336 84.2981 143.336 84.2981Z" fill="#407BFF"/>
<path d="M143.557 65.282C143.557 65.282 142.139 58.5744 142.561 56.262C142.983 53.9496 144.496 54.9787 144.496 54.9787C144.496 54.9787 145.886 53.8553 146.3 55.0935C146.3 55.0935 144.39 56.4383 143.557 65.282Z" fill="#407BFF"/>
<path opacity="0.7" d="M143.557 65.282C143.557 65.282 142.139 58.5744 142.561 56.262C142.983 53.9496 144.496 54.9787 144.496 54.9787C144.496 54.9787 145.886 53.8553 146.3 55.0935C146.3 55.0935 144.39 56.4383 143.557 65.282Z" fill="white"/>
<path opacity="0.2" d="M160.982 65.3319C158.883 64.1552 158.604 61.0843 158.604 61.0843C158.731 61.0351 159.51 60.7686 160.33 60.498C160.572 62.0314 160.79 63.6714 160.982 65.3319Z" fill="black"/>
<path opacity="0.2" d="M150.716 105.189L152.483 95.5744L152.143 90.4863C152.143 90.4863 149.72 99.3095 150.716 105.189Z" fill="black"/>
<path opacity="0.2" d="M162.258 80.4985C160.937 80.4083 159.798 80.3222 159.798 80.3222L159.547 74.9553C159.959 74.6978 160.453 74.6069 160.929 74.7011C161.254 73.8438 161.499 72.9586 161.663 72.0566C161.95 75.5375 162.151 78.6207 162.258 80.4985Z" fill="black"/>
<path d="M162.709 72.0527L160.138 76.1814L162.171 77.3499L164.586 73.6312L162.709 72.0527Z" fill="#E4897B"/>
<path d="M158.969 54.4629C160.7 54.6515 168.055 64.7457 168.379 67.7879C168.703 70.8301 164.057 76.0822 164.057 76.0822L160.958 74.2577C160.958 74.2577 164.107 69.4156 164.271 68.1077C164.435 66.7998 158.51 61.5149 158.51 61.5149C158.062 60.2974 157.816 59.0151 157.78 57.7183C157.698 55.4961 158.969 54.4629 158.969 54.4629Z" fill="#407BFF"/>
<path d="M159.543 74.959C159.543 74.959 162.188 75.5248 163.254 77.1894C163.254 77.1894 162.147 80.6539 161.355 81.0311C160.564 81.4083 158.604 81.4083 158.604 81.4083C158.604 81.4083 158.477 77.5543 159.543 74.959Z" fill="#407BFF"/>
</g>
<defs>
<clipPath id="clip0_866_35401">
<rect width="200" height="200" fill="white"/>
</clipPath>
</defs>
</svg>
