<svg width="16" height="16" viewBox="0 0 16 16" fill="none" xmlns="http://www.w3.org/2000/svg">
<path d="M13.1633 3.33331C13.5612 3.33331 13.9427 3.49135 14.224 3.77265C14.5053 4.05396 14.6633 4.43549 14.6633 4.83331V11.17C14.6633 11.5678 14.5053 11.9493 14.224 12.2306C13.9427 12.5119 13.5612 12.67 13.1633 12.67H2.83333C2.63635 12.67 2.44129 12.6312 2.2593 12.5558C2.07731 12.4804 1.91196 12.3699 1.77267 12.2306C1.63338 12.0914 1.52289 11.926 1.44751 11.744C1.37213 11.562 1.33333 11.367 1.33333 11.17V4.83331C1.33333 4.43549 1.49136 4.05396 1.77267 3.77265C2.05397 3.49135 2.4355 3.33331 2.83333 3.33331H13.1633ZM13.1633 4.33331H2.83333C2.70072 4.33331 2.57354 4.38599 2.47977 4.47976C2.38601 4.57353 2.33333 4.7007 2.33333 4.83331V11.17C2.33333 11.446 2.55733 11.67 2.83333 11.67H13.1633C13.2959 11.67 13.4231 11.6173 13.5169 11.5235C13.6107 11.4298 13.6633 11.3026 13.6633 11.17V4.83331C13.6633 4.7007 13.6107 4.57353 13.5169 4.47976C13.4231 4.38599 13.2959 4.33331 13.1633 4.33331ZM4.49999 9.66665H11.5C11.6267 9.66669 11.7486 9.71481 11.8412 9.8013C11.9338 9.88778 11.99 10.0062 11.9987 10.1326C12.0073 10.259 11.9677 10.3839 11.8877 10.4822C11.8078 10.5805 11.6935 10.6447 11.568 10.662L11.5 10.6666H4.49999C4.37331 10.6666 4.25137 10.6185 4.1588 10.532C4.06623 10.4455 4.00995 10.3271 4.00131 10.2007C3.99268 10.0743 4.03234 9.94939 4.11228 9.85111C4.19223 9.75284 4.30649 9.68858 4.43199 9.67131L4.49999 9.66665H11.5H4.49999ZM11 7.33331C11.1768 7.33331 11.3464 7.40355 11.4714 7.52858C11.5964 7.6536 11.6667 7.82317 11.6667 7.99998C11.6667 8.17679 11.5964 8.34636 11.4714 8.47138C11.3464 8.59641 11.1768 8.66665 11 8.66665C10.8232 8.66665 10.6536 8.59641 10.5286 8.47138C10.4036 8.34636 10.3333 8.17679 10.3333 7.99998C10.3333 7.82317 10.4036 7.6536 10.5286 7.52858C10.6536 7.40355 10.8232 7.33331 11 7.33331ZM7.00333 7.33331C7.18014 7.33331 7.34971 7.40355 7.47473 7.52858C7.59976 7.6536 7.67 7.82317 7.67 7.99998C7.67 8.17679 7.59976 8.34636 7.47473 8.47138C7.34971 8.59641 7.18014 8.66665 7.00333 8.66665C6.82652 8.66665 6.65695 8.59641 6.53192 8.47138C6.4069 8.34636 6.33666 8.17679 6.33666 7.99998C6.33666 7.82317 6.4069 7.6536 6.53192 7.52858C6.65695 7.40355 6.82652 7.33331 7.00333 7.33331ZM5.00333 7.33331C5.18014 7.33331 5.34971 7.40355 5.47473 7.52858C5.59976 7.6536 5.67 7.82317 5.67 7.99998C5.67 8.17679 5.59976 8.34636 5.47473 8.47138C5.34971 8.59641 5.18014 8.66665 5.00333 8.66665C4.82652 8.66665 4.65695 8.59641 4.53192 8.47138C4.4069 8.34636 4.33666 8.17679 4.33666 7.99998C4.33666 7.82317 4.4069 7.6536 4.53192 7.52858C4.65695 7.40355 4.82652 7.33331 5.00333 7.33331ZM9.00333 7.33331C9.18014 7.33331 9.34971 7.40355 9.47473 7.52858C9.59976 7.6536 9.67 7.82317 9.67 7.99998C9.67 8.17679 9.59976 8.34636 9.47473 8.47138C9.34971 8.59641 9.18014 8.66665 9.00333 8.66665C8.82652 8.66665 8.65695 8.59641 8.53192 8.47138C8.4069 8.34636 8.33666 8.17679 8.33666 7.99998C8.33666 7.82317 8.4069 7.6536 8.53192 7.52858C8.65695 7.40355 8.82652 7.33331 9.00333 7.33331ZM3.99999 5.33331C4.17681 5.33331 4.34638 5.40355 4.4714 5.52858C4.59642 5.6536 4.66666 5.82317 4.66666 5.99998C4.66666 6.17679 4.59642 6.34636 4.4714 6.47138C4.34638 6.59641 4.17681 6.66665 3.99999 6.66665C3.82318 6.66665 3.65361 6.59641 3.52859 6.47138C3.40357 6.34636 3.33333 6.17679 3.33333 5.99998C3.33333 5.82317 3.40357 5.6536 3.52859 5.52858C3.65361 5.40355 3.82318 5.33331 3.99999 5.33331ZM5.99666 5.33331C6.17347 5.33331 6.34304 5.40355 6.46807 5.52858C6.59309 5.6536 6.66333 5.82317 6.66333 5.99998C6.66333 6.17679 6.59309 6.34636 6.46807 6.47138C6.34304 6.59641 6.17347 6.66665 5.99666 6.66665C5.81985 6.66665 5.65028 6.59641 5.52526 6.47138C5.40023 6.34636 5.32999 6.17679 5.32999 5.99998C5.32999 5.82317 5.40023 5.6536 5.52526 5.52858C5.65028 5.40355 5.81985 5.33331 5.99666 5.33331ZM7.99666 5.33331C8.17347 5.33331 8.34304 5.40355 8.46807 5.52858C8.59309 5.6536 8.66333 5.82317 8.66333 5.99998C8.66333 6.17679 8.59309 6.34636 8.46807 6.47138C8.34304 6.59641 8.17347 6.66665 7.99666 6.66665C7.81985 6.66665 7.65028 6.59641 7.52526 6.47138C7.40023 6.34636 7.33 6.17679 7.33 5.99998C7.33 5.82317 7.40023 5.6536 7.52526 5.52858C7.65028 5.40355 7.81985 5.33331 7.99666 5.33331ZM9.99666 5.33331C10.1735 5.33331 10.343 5.40355 10.4681 5.52858C10.5931 5.6536 10.6633 5.82317 10.6633 5.99998C10.6633 6.17679 10.5931 6.34636 10.4681 6.47138C10.343 6.59641 10.1735 6.66665 9.99666 6.66665C9.81985 6.66665 9.65028 6.59641 9.52526 6.47138C9.40023 6.34636 9.33 6.17679 9.33 5.99998C9.33 5.82317 9.40023 5.6536 9.52526 5.52858C9.65028 5.40355 9.81985 5.33331 9.99666 5.33331ZM11.9967 5.33331C12.1735 5.33331 12.343 5.40355 12.4681 5.52858C12.5931 5.6536 12.6633 5.82317 12.6633 5.99998C12.6633 6.17679 12.5931 6.34636 12.4681 6.47138C12.343 6.59641 12.1735 6.66665 11.9967 6.66665C11.8199 6.66665 11.6503 6.59641 11.5253 6.47138C11.4002 6.34636 11.33 6.17679 11.33 5.99998C11.33 5.82317 11.4002 5.6536 11.5253 5.52858C11.6503 5.40355 11.8199 5.33331 11.9967 5.33331Z" fill="#6A7288"/>
</svg>
