<svg width="16" height="16" viewBox="0 0 16 16" fill="none" xmlns="http://www.w3.org/2000/svg">
<path d="M4.80905 6.39578L2.60952 8.24977L4.80905 10.1038C4.85316 10.1398 4.88973 10.1843 4.91665 10.2347C4.94356 10.2851 4.96027 10.3404 4.96582 10.3974C4.97137 10.4544 4.96563 10.512 4.94895 10.5667C4.93227 10.6214 4.90497 10.6723 4.86865 10.7163C4.82752 10.7659 4.77614 10.8058 4.71811 10.8332C4.66008 10.8606 4.59682 10.8748 4.53276 10.8749C4.4312 10.8753 4.33296 10.8384 4.25646 10.771L1.65603 8.58337C1.60724 8.54284 1.56794 8.49191 1.54097 8.43423C1.51399 8.37655 1.5 8.31355 1.5 8.24977C1.5 8.18598 1.51399 8.12298 1.54097 8.0653C1.56794 8.00762 1.60724 7.95669 1.65603 7.91616L4.25646 5.72856C4.29862 5.68412 4.34959 5.64916 4.40605 5.62596C4.4625 5.60276 4.52317 5.59184 4.58408 5.59392C4.645 5.59599 4.7048 5.61102 4.75958 5.63801C4.81435 5.665 4.86287 5.70335 4.90197 5.75056C4.94106 5.79776 4.96986 5.85276 4.98647 5.91196C5.00308 5.97117 5.00713 6.03324 4.99836 6.09413C4.98959 6.15502 4.9682 6.21336 4.93558 6.26534C4.90296 6.31732 4.85984 6.36176 4.80905 6.39578ZM14.344 7.91616L11.7435 5.72856C11.6547 5.66904 11.5472 5.64469 11.4416 5.66018C11.336 5.67567 11.2399 5.72991 11.1714 5.81252C11.103 5.89512 11.0672 6.0003 11.0708 6.10791C11.0744 6.21552 11.1172 6.31802 11.1909 6.39578L13.3905 8.24977L11.1909 10.1038C11.1235 10.1615 11.0752 10.2386 11.0525 10.3249C11.0298 10.4111 11.0337 10.5023 11.0638 10.5862C11.0938 10.6701 11.1486 10.7427 11.2207 10.7943C11.2928 10.8459 11.3789 10.874 11.4672 10.8749C11.5688 10.8753 11.667 10.8384 11.7435 10.771L14.344 8.58337C14.3928 8.54284 14.4321 8.49191 14.459 8.43423C14.486 8.37655 14.5 8.31355 14.5 8.24977C14.5 8.18598 14.486 8.12298 14.459 8.0653C14.4321 8.00762 14.3928 7.95669 14.344 7.91616ZM9.8799 3.02688C9.82658 3.00695 9.76986 2.99795 9.71305 3.00039C9.65625 3.00284 9.6005 3.01668 9.54905 3.04112C9.49761 3.06556 9.4515 3.1001 9.41343 3.14273C9.37536 3.18536 9.34608 3.23522 9.3273 3.28939L5.86006 12.9148C5.84032 12.9686 5.8314 13.0259 5.83382 13.0832C5.83624 13.1406 5.84996 13.1969 5.87417 13.2488C5.89838 13.3007 5.9326 13.3473 5.97482 13.3857C6.01705 13.4241 6.06644 13.4537 6.1201 13.4726C6.1671 13.4896 6.21648 13.4988 6.26638 13.5C6.35558 13.5005 6.4427 13.4728 6.51555 13.4208C6.5884 13.3688 6.64334 13.2952 6.6727 13.2101L10.1399 3.58472C10.1597 3.53089 10.1686 3.47364 10.1662 3.41629C10.1638 3.35895 10.15 3.30267 10.1258 3.25073C10.1016 3.1988 10.0674 3.15226 10.0252 3.11382C9.98295 3.07539 9.93356 3.04583 9.8799 3.02688Z" fill="#6A7288"/>
</svg>
