<svg width="18" height="18" viewBox="0 0 18 18" fill="none" xmlns="http://www.w3.org/2000/svg">
<path d="M9 0.575017C9.29837 0.575017 9.58452 0.693544 9.7955 0.904522C10.0065 1.1155 10.125 1.40165 10.125 1.70002V8.45002H12.375C12.4795 8.45002 12.5819 8.47911 12.6707 8.53403C12.7596 8.58895 12.8314 8.66752 12.8781 8.76096C12.9248 8.85439 12.9446 8.95899 12.9352 9.06303C12.9258 9.16707 12.8877 9.26645 12.825 9.35002L9.45 13.85C9.39533 13.9165 9.32663 13.97 9.24882 14.0067C9.17102 14.0434 9.08604 14.0625 9 14.0625C8.91396 14.0625 8.82898 14.0434 8.75118 14.0067C8.67337 13.97 8.60467 13.9165 8.55 13.85L5.175 9.35002C5.11232 9.26645 5.07415 9.16707 5.06477 9.06303C5.05539 8.95899 5.07517 8.85439 5.12188 8.76096C5.1686 8.66752 5.24042 8.58895 5.32928 8.53403C5.41814 8.47911 5.52054 8.45002 5.625 8.45002H7.875V1.70002C7.875 1.40165 7.99353 1.1155 8.20451 0.904522C8.41548 0.693544 8.70163 0.575017 9 0.575017Z" fill="#1852FA"/>
<path d="M16.875 12.375C16.7258 12.375 16.5827 12.4343 16.4773 12.5398C16.3718 12.6452 16.3125 12.7883 16.3125 12.9375V16.3125H1.6875V12.9375C1.6875 12.7883 1.62824 12.6452 1.52275 12.5398C1.41726 12.4343 1.27418 12.375 1.125 12.375C0.975816 12.375 0.832742 12.4343 0.727252 12.5398C0.621763 12.6452 0.5625 12.7883 0.5625 12.9375V16.3125C0.5625 16.6109 0.681026 16.897 0.892005 17.108C1.10298 17.319 1.38913 17.4375 1.6875 17.4375H16.3125C16.6109 17.4375 16.897 17.319 17.108 17.108C17.319 16.897 17.4375 16.6109 17.4375 16.3125V12.9375C17.4375 12.7883 17.3782 12.6452 17.2727 12.5398C17.1673 12.4343 17.0242 12.375 16.875 12.375Z" fill="#1852FA"/>
</svg>
