<svg width="32" height="32" viewBox="0 0 32 32" fill="none" xmlns="http://www.w3.org/2000/svg">
<path fill-rule="evenodd" clip-rule="evenodd" d="M5.36879 4.87143C6.09203 4.27059 7.00543 4 8 4H24C24.9538 4 25.863 4.24975 26.5949 4.83747C27.3286 5.42668 27.7884 6.27885 27.9809 7.30533L29.9785 16.794C29.9928 16.8617 30 16.9308 30 17V24L30 24.0029C29.9969 25.0621 29.5748 26.0769 28.8259 26.8259C28.0769 27.5748 27.0621 27.9969 26.0029 28L26 28H6L5.9971 28C4.93795 27.9969 3.92306 27.5748 3.17412 26.8259C2.42519 26.0769 2.00308 25.0621 2 24.0029L2 24V17C2 16.9308 2.00719 16.8617 2.02145 16.794L4.01974 7.30213C4.21066 6.31802 4.64835 5.46996 5.36879 4.87143ZM6.64683 6.40982C6.35385 6.65321 6.10452 7.0518 5.98201 7.68885L5.97855 7.70601L4 17.1041V23.9984C4.00189 24.5287 4.21336 25.0367 4.58834 25.4117C4.96334 25.7867 5.47141 25.9981 6.00171 26H25.9983C26.5286 25.9981 27.0367 25.7867 27.4117 25.4117C27.7867 25.0367 27.9981 24.5286 28 23.9983V17.1041L26.0215 7.70601L26.0167 7.68209C25.8953 7.02668 25.6371 6.63341 25.3426 6.3969C25.0433 6.1565 24.6087 6 24 6H8C7.36957 6 6.93922 6.16691 6.64683 6.40982Z" fill="#061438"/>
<path fill-rule="evenodd" clip-rule="evenodd" d="M2 17C2 16.4477 2.44772 16 3 16H12C12.5523 16 13 16.4477 13 17C13 17.5523 12.5523 18 12 18H3C2.44772 18 2 17.5523 2 17Z" fill="#061438"/>
<path fill-rule="evenodd" clip-rule="evenodd" d="M19 17C19 16.4477 19.4477 16 20 16H29C29.5523 16 30 16.4477 30 17C30 17.5523 29.5523 18 29 18H20C19.4477 18 19 17.5523 19 17Z" fill="#061438"/>
<path fill-rule="evenodd" clip-rule="evenodd" d="M12 16C12.5523 16 13 16.4477 13 17C13 17.7956 13.3161 18.5587 13.8787 19.1213C14.4413 19.6839 15.2044 20 16 20C16.7956 20 17.5587 19.6839 18.1213 19.1213C18.6839 18.5587 19 17.7956 19 17C19 16.4477 19.4477 16 20 16C20.5523 16 21 16.4477 21 17C21 18.3261 20.4732 19.5979 19.5355 20.5355C18.5979 21.4732 17.3261 22 16 22C14.6739 22 13.4021 21.4732 12.4645 20.5355C11.5268 19.5979 11 18.3261 11 17C11 16.4477 11.4477 16 12 16Z" fill="#061438"/>
</svg>
