<svg width="24" height="24" viewBox="0 0 24 24" fill="none" xmlns="http://www.w3.org/2000/svg">
<path d="M6.99756 2.75244H16.1851L20.2501 6.80994V18.9974C20.2501 19.4099 20.5876 19.7474 21.0001 19.7474C21.4126 19.7474 21.7501 19.4099 21.7501 18.9974V6.49494C21.7501 6.29994 21.6676 6.10494 21.5326 5.96244L17.0326 1.46244C16.8901 1.32744 16.6951 1.25244 16.5001 1.25244H6.99756C6.58506 1.25244 6.24756 1.58994 6.24756 2.00244C6.24756 2.41494 6.58506 2.75244 6.99756 2.75244Z" fill="#6A7288"/>
<path d="M3 20.4975H3.75V6.5025C3.75 6.3 3.8325 6.1125 3.9675 5.97C4.11 5.8275 4.305 5.7525 4.5 5.7525H14.25V5.60249L14.145 5.7075L14.25 5.7525V5.60249L14.145 5.7075L17.295 8.8575L17.4 8.75249L17.265 8.80499L17.295 8.85L17.4 8.74499H17.2575L17.265 8.79749L17.4 8.74499H17.2575V14.6212V20.4975C17.2575 20.7 17.1825 20.8875 17.04 21.03C16.8975 21.1725 16.71 21.2475 16.5075 21.2475H4.5C4.2975 21.2475 4.11 21.165 3.9675 21.03C3.825 20.8875 3.75 20.7 3.75 20.4975H3H2.25C2.25 21.0975 2.49 21.6675 2.91 22.0875C3.33 22.5075 3.9075 22.7475 4.5 22.7475H16.5C17.0925 22.7475 17.67 22.515 18.09 22.0875C18.51 21.6675 18.75 21.0975 18.75 20.4975V8.75249C18.75 8.57249 18.7125 8.39999 18.645 8.23499C18.5775 8.06999 18.4725 7.92 18.3525 7.7925L15.2025 4.6425C14.9475 4.3875 14.61 4.245 14.25 4.245H4.5C3.9 4.245 3.33 4.485 2.91 4.905C2.49 5.3325 2.25 5.9025 2.25 6.5025V20.505H3V20.4975Z" fill="#6A7288"/>
<path d="M14.0024 8.39994V5.35494C14.0024 5.28744 14.0249 5.21994 14.0624 5.15994L14.2199 5.03244C14.2874 5.00244 14.3549 4.99494 14.4224 5.00994C14.4899 5.02494 14.5574 5.05494 14.6024 5.10744L17.8949 8.39994C17.9474 8.45244 17.9774 8.51244 17.9924 8.57994C18.0074 8.64744 17.9999 8.72244 17.9699 8.78244L17.8424 8.93994C17.7824 8.97744 17.7149 8.99994 17.6474 8.99994H14.6024C14.4449 8.99994 14.2874 8.93994 14.1749 8.82744C14.0624 8.71494 14.0024 8.55744 14.0024 8.39994Z" fill="#6A7288"/>
<path d="M14.0025 8.39999H14.7525V5.355H14.355L14.685 5.57249C14.73 5.50499 14.7525 5.43 14.7525 5.355H14.355L14.685 5.57249L14.0625 5.16L14.535 5.7375L14.6925 5.61L14.22 5.025L14.505 5.715L14.355 5.3475V5.74499L14.505 5.715L14.355 5.3475V5.74499V5.3475L14.2725 5.74499L14.355 5.7525V5.3475L14.2725 5.74499H14.28L14.355 5.355L14.07 5.64C14.13 5.7 14.205 5.7375 14.28 5.7525L14.355 5.3625L14.07 5.6475L17.3625 8.93999L17.37 8.94749L17.6475 8.6625L17.2575 8.74499C17.2725 8.82749 17.31 8.895 17.37 8.94749L17.6475 8.6625L17.2575 8.74499L17.9925 8.595L17.2575 8.73749L17.6325 8.6625H17.25L17.2575 8.73749L17.6325 8.6625H17.25H17.6475L17.28 8.5125L17.25 8.64749H17.6475L17.28 8.49749L17.97 8.79L17.3925 8.31749L17.265 8.475L17.8425 8.94749L17.43 8.325L17.6475 8.65499V8.24999C17.565 8.24999 17.49 8.27249 17.43 8.31749L17.6475 8.64749V8.24999H14.6025V8.39999L14.7075 8.295L14.6025 8.24999V8.39999L14.7075 8.295L14.6025 8.39999H14.7525L14.7075 8.295L14.6025 8.39999H14.7525H14.0025H13.2525C13.2525 8.75999 13.395 9.105 13.65 9.3525C13.905 9.60749 14.25 9.74999 14.6025 9.74999H17.6475C17.865 9.74999 18.075 9.6825 18.255 9.56999L18.42 9.42L18.5475 9.2625L18.66 9.075C18.72 8.94 18.7425 8.78999 18.7425 8.64749C18.7425 8.57999 18.735 8.50499 18.72 8.43749V8.42999C18.675 8.21249 18.57 8.01749 18.4125 7.86749L18.42 7.87499L15.135 4.575C14.9775 4.4175 14.7825 4.3125 14.565 4.2675H14.5725C14.4975 4.2525 14.43 4.245 14.355 4.245C14.2125 4.245 14.0625 4.275 13.935 4.3275L13.7475 4.44L13.5825 4.575L13.4325 4.74C13.3125 4.92 13.245 5.1375 13.245 5.355V8.39999H14.0025Z" fill="#6A7288"/>
</svg>
