<svg width="16" height="16" viewBox="0 0 16 16" fill="none" xmlns="http://www.w3.org/2000/svg">
<path d="M8 2C4.692 2 2 4.692 2 8C2 11.308 4.692 14 8 14C11.308 14 14 11.308 14 8C14 4.692 11.308 2 8 2ZM8 3C10.7675 3 13 5.2325 13 8C13.0012 9.19698 12.572 10.3545 11.7907 11.2613C11.0093 12.1681 9.92801 12.7637 8.744 12.9395V9.458H10.168L10.3915 8.0115H8.744V7.2215C8.744 6.6215 8.9415 6.088 9.503 6.088H10.4055V4.826C10.247 4.8045 9.9115 4.758 9.2775 4.758C7.9535 4.758 7.1775 5.457 7.1775 7.05V8.0115H5.8165V9.458H7.1775V12.927C6.00988 12.7348 4.94862 12.1337 4.18335 11.2312C3.41807 10.3286 2.99864 9.18333 3 8C3 5.2325 5.2325 3 8 3Z" fill="#6A7288"/>
</svg>
