<svg width="18" height="18" viewBox="0 0 18 18" fill="none" xmlns="http://www.w3.org/2000/svg">
<path d="M9 14.0627C9.29837 14.0627 9.58452 13.9442 9.79549 13.7332C10.0065 13.5222 10.125 13.236 10.125 12.9377V6.18768H12.375C12.4795 6.18768 12.5819 6.15859 12.6707 6.10367C12.7596 6.04875 12.8314 5.97017 12.8781 5.87674C12.9248 5.7833 12.9446 5.6787 12.9352 5.57466C12.9258 5.47062 12.8877 5.37125 12.825 5.28768L9.45 0.787678C9.39533 0.721237 9.32663 0.667725 9.24882 0.630987C9.17102 0.594249 9.08604 0.575195 9 0.575195C8.91396 0.575195 8.82898 0.594249 8.75118 0.630987C8.67337 0.667725 8.60467 0.721237 8.55 0.787678L5.175 5.28768C5.11232 5.37125 5.07415 5.47062 5.06477 5.57466C5.05539 5.6787 5.07517 5.7833 5.12188 5.87674C5.1686 5.97017 5.24042 6.04875 5.32928 6.10367C5.41814 6.15859 5.52054 6.18768 5.625 6.18768H7.875V12.9377C7.875 13.236 7.99353 13.5222 8.20451 13.7332C8.41548 13.9442 8.70163 14.0627 9 14.0627Z" fill="#1852FA"/>
<path d="M16.875 12.375C16.7258 12.375 16.5827 12.4343 16.4773 12.5398C16.3718 12.6452 16.3125 12.7883 16.3125 12.9375V16.3125H1.6875V12.9375C1.6875 12.7883 1.62824 12.6452 1.52275 12.5398C1.41726 12.4343 1.27418 12.375 1.125 12.375C0.975816 12.375 0.832742 12.4343 0.727252 12.5398C0.621763 12.6452 0.5625 12.7883 0.5625 12.9375V16.3125C0.5625 16.6109 0.681026 16.897 0.892005 17.108C1.10298 17.319 1.38913 17.4375 1.6875 17.4375H16.3125C16.6109 17.4375 16.897 17.319 17.108 17.108C17.319 16.897 17.4375 16.6109 17.4375 16.3125V12.9375C17.4375 12.7883 17.3782 12.6452 17.2727 12.5398C17.1673 12.4343 17.0242 12.375 16.875 12.375Z" fill="#1852FA"/>
</svg>
