<svg width="16" height="16" viewBox="0 0 16 16" fill="none" xmlns="http://www.w3.org/2000/svg">
<path d="M11.2884 4.20339C11.2307 4.14082 11.162 4.09118 11.0865 4.05731C11.0109 4.02344 10.9299 4.00601 10.8481 4.00601C10.7663 4.00601 10.6853 4.02344 10.6098 4.05731C10.5342 4.09118 10.4656 4.14082 10.4078 4.20339L6.88514 8.01001L7.7658 8.96166L11.2884 5.14829C11.5258 4.89182 11.5258 4.45986 11.2884 4.20339ZM13.9367 4.19664L7.7658 10.865L5.59225 8.52296C5.47547 8.39676 5.31707 8.32586 5.15192 8.32586C4.98676 8.32586 4.82837 8.39676 4.71159 8.52296C4.5948 8.64915 4.5292 8.82031 4.5292 8.99879C4.5292 9.17726 4.5948 9.34842 4.71159 9.47461L7.32234 12.2958C7.56593 12.5591 7.95942 12.5591 8.20301 12.2958L14.8173 5.15504C14.8752 5.0926 14.9212 5.01843 14.9525 4.93678C14.9839 4.85514 15 4.76761 15 4.67921C15 4.59082 14.9839 4.50329 14.9525 4.42164C14.9212 4.33999 14.8752 4.26583 14.8173 4.20339H14.8111C14.7547 4.13967 14.6871 4.08884 14.6123 4.05391C14.5374 4.01897 14.4568 4.00065 14.3752 4.00002C14.2937 3.99939 14.2128 4.01647 14.1375 4.05024C14.0622 4.08402 13.9939 4.1338 13.9367 4.19664ZM1.18269 9.48136L3.79345 12.3026C4.03704 12.5658 4.43052 12.5658 4.67411 12.3026L5.11132 11.8301L2.06335 8.52296C2.00557 8.46039 1.93694 8.41075 1.86138 8.37688C1.78582 8.34301 1.70482 8.32558 1.62302 8.32558C1.54122 8.32558 1.46022 8.34301 1.38467 8.37688C1.30911 8.41075 1.24047 8.46039 1.18269 8.52296C0.939103 8.78618 0.939103 9.21814 1.18269 9.48136Z" fill="#1852FA"/>
</svg>
