<svg width="24" height="24" viewBox="0 0 24 24" fill="none" xmlns="http://www.w3.org/2000/svg">
<path fill-rule="evenodd" clip-rule="evenodd" d="M9.25 16C9.25 15.5858 9.58579 15.25 10 15.25H14C14.4142 15.25 14.75 15.5858 14.75 16V22C14.75 22.4142 14.4142 22.75 14 22.75C13.5858 22.75 13.25 22.4142 13.25 22V16.75H10.75V22C10.75 22.4142 10.4142 22.75 10 22.75C9.58579 22.75 9.25 22.4142 9.25 22V16Z" fill="#6A7288"/>
<path fill-rule="evenodd" clip-rule="evenodd" d="M4 12.75C4.41421 12.75 4.75 13.0858 4.75 13.5V21.25H19.25V13.5C19.25 13.0858 19.5858 12.75 20 12.75C20.4142 12.75 20.75 13.0858 20.75 13.5V22C20.75 22.4142 20.4142 22.75 20 22.75H4C3.58579 22.75 3.25 22.4142 3.25 22V13.5C3.25 13.0858 3.58579 12.75 4 12.75Z" fill="#6A7288"/>
<path fill-rule="evenodd" clip-rule="evenodd" d="M4.37596 1.58397C4.51506 1.37533 4.74924 1.25 5 1.25H19C19.2508 1.25 19.4849 1.37533 19.624 1.58397L23.624 7.58397C23.7096 7.71224 23.7535 7.86375 23.7498 8.01786C23.7257 9.03104 23.3003 9.99321 22.5672 10.693C21.8368 11.3901 20.8604 11.77 19.8512 11.75C19.2218 11.7528 18.6008 11.6043 18.0406 11.3171C17.7492 11.1677 17.4788 10.983 17.2349 10.768C16.9916 10.9807 16.7225 11.1636 16.4329 11.3121C15.8716 11.6 15.2498 11.7501 14.619 11.7501C13.9882 11.7501 13.3664 11.6 12.8051 11.3121C12.5143 11.163 12.2441 10.9791 12 10.7653C11.7559 10.9791 11.4857 11.163 11.1949 11.3121C10.6336 11.6 10.0118 11.7501 9.381 11.7501C8.75017 11.7501 8.12841 11.6 7.56709 11.3121C7.27754 11.1636 7.00837 10.9807 6.76507 10.768C6.52122 10.983 6.25077 11.1677 5.95942 11.3171C5.39921 11.6043 4.77824 11.7528 4.14879 11.75C3.13958 11.77 2.16321 11.3901 1.43281 10.693C0.699697 9.99321 0.274348 9.03104 0.250213 8.01786C0.246542 7.86375 0.29045 7.71224 0.375962 7.58397L4.37596 1.58397ZM5.40139 2.75L1.76566 8.20359C1.8296 8.73677 2.07675 9.23398 2.4685 9.60791C2.91404 10.0332 3.51019 10.2642 4.12595 10.2502C4.13344 10.25 4.14092 10.25 4.14841 10.25C4.54002 10.2528 4.92651 10.161 5.27498 9.98231C5.62345 9.80362 5.92358 9.54337 6.14982 9.22371C6.28987 9.02585 6.51691 8.90787 6.75932 8.907C7.00173 8.90614 7.22962 9.02249 7.37107 9.21935C7.60027 9.53833 7.90209 9.79817 8.25159 9.9774C8.60108 10.1566 8.98822 10.2501 9.381 10.2501C9.77378 10.2501 10.1609 10.1566 10.5104 9.9774C10.8599 9.79817 11.1617 9.53833 11.3909 9.21935C11.5318 9.02326 11.7585 8.907 12 8.907C12.2415 8.907 12.4682 9.02326 12.6091 9.21935C12.8383 9.53833 13.1401 9.79817 13.4896 9.9774C13.8391 10.1566 14.2262 10.2501 14.619 10.2501C15.0118 10.2501 15.3989 10.1566 15.7484 9.9774C16.0979 9.79817 16.3997 9.53833 16.6289 9.21935C16.7704 9.02249 16.9983 8.90614 17.2407 8.907C17.4831 8.90787 17.7101 9.02585 17.8502 9.22371C18.0764 9.54337 18.3766 9.80362 18.725 9.98231C19.0735 10.161 19.46 10.2528 19.8516 10.25C19.8591 10.25 19.8666 10.25 19.874 10.2502C20.4898 10.2642 21.086 10.0332 21.5315 9.60791C21.9232 9.23398 22.1704 8.73676 22.2343 8.20359L18.5986 2.75H5.40139Z" fill="#6A7288"/>
</svg>
