<svg width="16" height="16" viewBox="0 0 16 16" fill="none" xmlns="http://www.w3.org/2000/svg">
<path fill-rule="evenodd" clip-rule="evenodd" d="M2.25 1H10.7515C11.0823 1.00096 11.3993 1.13281 11.6332 1.36675C11.8672 1.60069 11.999 1.91771 12 2.24855L12 2.25L12 12.9956H11V2.25096C10.9997 2.18451 10.9731 2.12086 10.9261 2.07386C10.8792 2.02687 10.8155 2.00033 10.7491 2H2.25092C2.18448 2.00033 2.12085 2.02687 2.07386 2.07386C2.02687 2.12085 2.00033 2.18448 2 2.25092V13.2492C2.00077 13.448 2.08011 13.6386 2.22076 13.7792C2.36143 13.9199 2.552 13.9993 2.75093 14H13V15H2.75L2.74851 15C2.2852 14.9986 1.84126 14.814 1.51366 14.4863C1.18605 14.1587 1.00139 13.7148 1 13.2515L1 13.25V2.24855C1.00096 1.91771 1.13281 1.60069 1.36675 1.36675C1.60069 1.13281 1.91771 1.00096 2.24855 1L2.25 1Z" fill="#6A7288"/>
<path fill-rule="evenodd" clip-rule="evenodd" d="M11 4C11 3.72386 11.2239 3.5 11.5 3.5H13.75C14.0815 3.5 14.3995 3.6317 14.6339 3.86612C14.8683 4.10054 15 4.41848 15 4.75V13C15 13.5304 14.7893 14.0391 14.4142 14.4142C14.0391 14.7893 13.5304 15 13 15C12.4696 15 11.9609 14.7893 11.5858 14.4142C11.2107 14.0391 11 13.5304 11 13V4ZM12 4.5V13C12 13.2652 12.1054 13.5196 12.2929 13.7071C12.4804 13.8946 12.7348 14 13 14C13.2652 14 13.5196 13.8946 13.7071 13.7071C13.8946 13.5196 14 13.2652 14 13V4.75C14 4.6837 13.9737 4.62011 13.9268 4.57322C13.8799 4.52634 13.8163 4.5 13.75 4.5H12Z" fill="#6A7288"/>
<path fill-rule="evenodd" clip-rule="evenodd" d="M7 4C7 3.72386 7.22386 3.5 7.5 3.5H9.5C9.77614 3.5 10 3.72386 10 4C10 4.27614 9.77614 4.5 9.5 4.5H7.5C7.22386 4.5 7 4.27614 7 4Z" fill="#6A7288"/>
<path fill-rule="evenodd" clip-rule="evenodd" d="M7 6C7 5.72386 7.22386 5.5 7.5 5.5H9.5C9.77614 5.5 10 5.72386 10 6C10 6.27614 9.77614 6.5 9.5 6.5H7.5C7.22386 6.5 7 6.27614 7 6Z" fill="#6A7288"/>
<path fill-rule="evenodd" clip-rule="evenodd" d="M3 8C3 7.72386 3.22386 7.5 3.5 7.5H9.5C9.77614 7.5 10 7.72386 10 8C10 8.27614 9.77614 8.5 9.5 8.5H3.5C3.22386 8.5 3 8.27614 3 8Z" fill="#6A7288"/>
<path fill-rule="evenodd" clip-rule="evenodd" d="M3 10C3 9.72386 3.22386 9.5 3.5 9.5H9.5C9.77614 9.5 10 9.72386 10 10C10 10.2761 9.77614 10.5 9.5 10.5H3.5C3.22386 10.5 3 10.2761 3 10Z" fill="#6A7288"/>
<path fill-rule="evenodd" clip-rule="evenodd" d="M3 12C3 11.7239 3.22386 11.5 3.5 11.5H9.5C9.77614 11.5 10 11.7239 10 12C10 12.2761 9.77614 12.5 9.5 12.5H3.5C3.22386 12.5 3 12.2761 3 12Z" fill="#6A7288"/>
<path d="M5.5 6.5H3.5C3.36739 6.5 3.24021 6.44732 3.14645 6.35355C3.05268 6.25979 3 6.13261 3 6V4C3 3.86739 3.05268 3.74021 3.14645 3.64645C3.24021 3.55268 3.36739 3.5 3.5 3.5H5.5C5.63261 3.5 5.75979 3.55268 5.85355 3.64645C5.94732 3.74021 6 3.86739 6 4V6C6 6.13261 5.94732 6.25979 5.85355 6.35355C5.75979 6.44732 5.63261 6.5 5.5 6.5Z" fill="#6A7288"/>
</svg>
