<svg width="16" height="16" viewBox="0 0 16 16" fill="none" xmlns="http://www.w3.org/2000/svg">
<path fill-rule="evenodd" clip-rule="evenodd" d="M4.79999 2.66628C4.79999 2.38338 4.91237 2.11207 5.11241 1.91203C5.31245 1.71199 5.58376 1.59961 5.86665 1.59961C6.14955 1.59961 6.42086 1.71199 6.6209 1.91203C6.82094 2.11207 6.93332 2.38338 6.93332 2.66628C6.93332 2.94917 6.82094 3.22048 6.6209 3.42052C6.42086 3.62056 6.14955 3.73294 5.86665 3.73294C5.58376 3.73294 5.31245 3.62056 5.11241 3.42052C4.91237 3.22048 4.79999 2.94917 4.79999 2.66628ZM9.06665 2.66628C9.06665 2.38338 9.17904 2.11207 9.37907 1.91203C9.57911 1.71199 9.85042 1.59961 10.1333 1.59961C10.4162 1.59961 10.6875 1.71199 10.8876 1.91203C11.0876 2.11207 11.2 2.38338 11.2 2.66628C11.2 2.94917 11.0876 3.22048 10.8876 3.42052C10.6875 3.62056 10.4162 3.73294 10.1333 3.73294C9.85042 3.73294 9.57911 3.62056 9.37907 3.42052C9.17904 3.22048 9.06665 2.94917 9.06665 2.66628ZM4.79999 7.99961C4.79999 7.71671 4.91237 7.4454 5.11241 7.24536C5.31245 7.04532 5.58376 6.93294 5.86665 6.93294C6.14955 6.93294 6.42086 7.04532 6.6209 7.24536C6.82094 7.4454 6.93332 7.71671 6.93332 7.99961C6.93332 8.28251 6.82094 8.55382 6.6209 8.75386C6.42086 8.9539 6.14955 9.06628 5.86665 9.06628C5.58376 9.06628 5.31245 8.9539 5.11241 8.75386C4.91237 8.55382 4.79999 8.28251 4.79999 7.99961ZM9.06665 7.99961C9.06665 7.71671 9.17904 7.4454 9.37907 7.24536C9.57911 7.04532 9.85042 6.93294 10.1333 6.93294C10.4162 6.93294 10.6875 7.04532 10.8876 7.24536C11.0876 7.4454 11.2 7.71671 11.2 7.99961C11.2 8.28251 11.0876 8.55382 10.8876 8.75386C10.6875 8.9539 10.4162 9.06628 10.1333 9.06628C9.85042 9.06628 9.57911 8.9539 9.37907 8.75386C9.17904 8.55382 9.06665 8.28251 9.06665 7.99961ZM4.79999 13.3329C4.79999 13.05 4.91237 12.7787 5.11241 12.5787C5.31245 12.3787 5.58376 12.2663 5.86665 12.2663C6.14955 12.2663 6.42086 12.3787 6.6209 12.5787C6.82094 12.7787 6.93332 13.05 6.93332 13.3329C6.93332 13.6158 6.82094 13.8872 6.6209 14.0872C6.42086 14.2872 6.14955 14.3996 5.86665 14.3996C5.58376 14.3996 5.31245 14.2872 5.11241 14.0872C4.91237 13.8872 4.79999 13.6158 4.79999 13.3329ZM9.06665 13.3329C9.06665 13.05 9.17904 12.7787 9.37907 12.5787C9.57911 12.3787 9.85042 12.2663 10.1333 12.2663C10.4162 12.2663 10.6875 12.3787 10.8876 12.5787C11.0876 12.7787 11.2 13.05 11.2 13.3329C11.2 13.6158 11.0876 13.8872 10.8876 14.0872C10.6875 14.2872 10.4162 14.3996 10.1333 14.3996C9.85042 14.3996 9.57911 14.2872 9.37907 14.0872C9.17904 13.8872 9.06665 13.6158 9.06665 13.3329Z" fill="#6A7288"/>
</svg>
