<svg width="24" height="24" viewBox="0 0 24 24" fill="none" xmlns="http://www.w3.org/2000/svg">
<path d="M12 2.25H11.9672C9.37031 2.25938 6.93281 3.27656 5.09531 5.11406C3.2625 6.95625 2.25 9.39844 2.25 12C2.25 14.6016 3.2625 17.0437 5.1 18.8859C6.93281 20.7234 9.375 21.7406 11.9719 21.75H12.0047C17.3813 21.75 21.7547 17.3766 21.7547 12C21.7547 6.62344 17.3766 2.25 12 2.25ZM20.4469 11.3438H16.8094C16.7672 10.0922 16.6125 8.89688 16.35 7.77188C17.1516 7.51406 17.9297 7.18594 18.6797 6.7875C19.7109 8.10938 20.3203 9.675 20.4469 11.3438ZM11.3438 11.3438H8.44687C8.48438 10.1953 8.625 9.10781 8.85938 8.10469C9.675 8.2875 10.5047 8.4 11.3438 8.4375V11.3438ZM11.3438 12.6562V15.5578C10.5094 15.5953 9.675 15.7078 8.85938 15.8906C8.625 14.8875 8.48438 13.8 8.44687 12.6562H11.3438ZM12.6562 12.6562H15.5297C15.4922 13.8 15.3516 14.8875 15.1172 15.8859C14.3109 15.7031 13.4859 15.5953 12.6562 15.5578V12.6562ZM12.6562 11.3438V8.4375C13.4906 8.4 14.3156 8.2875 15.1172 8.10938C15.3516 9.1125 15.4922 10.1953 15.5297 11.3438H12.6562ZM17.7844 5.81719C17.2078 6.10312 16.6125 6.34688 16.0031 6.54375C15.6703 5.54063 15.2484 4.67344 14.7609 3.98906C15.8859 4.37812 16.9125 5.00156 17.7844 5.81719ZM14.7656 6.88125C14.0766 7.03125 13.3687 7.125 12.6562 7.1625V3.72188C13.4531 4.15313 14.2312 5.31094 14.7656 6.88125ZM11.3438 3.70312V7.15781C10.6219 7.12031 9.90938 7.02656 9.21094 6.87188C9.75469 5.2875 10.5422 4.12969 11.3438 3.70312ZM9.20625 4.00313C8.72344 4.68281 8.30625 5.54531 7.97344 6.53906C7.37344 6.34219 6.78281 6.09844 6.21563 5.81719C7.07813 5.00625 8.09531 4.3875 9.20625 4.00313ZM5.32031 6.79219C6.06094 7.18594 6.83437 7.51406 7.62656 7.76719C7.35938 8.8875 7.20469 10.0875 7.16719 11.3391H3.55781C3.67969 9.67969 4.28906 8.11406 5.32031 6.79219ZM3.55313 12.6562H7.1625C7.20469 13.9078 7.35938 15.1078 7.62188 16.2281C6.82969 16.4859 6.05625 16.8141 5.31563 17.2031C4.28906 15.8859 3.67969 14.3203 3.55313 12.6562ZM6.21094 18.1828C6.77812 17.9016 7.36875 17.6578 7.97344 17.4609C8.30625 18.4594 8.72344 19.3172 9.20625 20.0016C8.09531 19.6078 7.07812 18.9937 6.21094 18.1828ZM9.21094 17.1234C9.90938 16.9687 10.6266 16.875 11.3438 16.8375V20.2969C10.5375 19.8703 9.75469 18.7078 9.21094 17.1234ZM12.6562 20.2781V16.8328C13.3687 16.8703 14.0766 16.9641 14.7656 17.1141C14.2312 18.6891 13.4531 19.8469 12.6562 20.2781ZM14.7656 20.0109C15.2531 19.3266 15.675 18.4594 16.0078 17.4562C16.6172 17.6531 17.2172 17.9016 17.7891 18.1875C16.9172 18.9984 15.8859 19.6219 14.7656 20.0109ZM18.6797 17.2078C17.9297 16.8094 17.1516 16.4813 16.35 16.2234C16.6125 15.1031 16.7672 13.9078 16.8094 12.6562H20.4469C20.3203 14.3203 19.7156 15.8859 18.6797 17.2078Z" fill="#6A7288"/>
</svg>
