<svg width="25" height="24" viewBox="0 0 25 24" fill="none" xmlns="http://www.w3.org/2000/svg">
<path d="M11.0682 3C9.61187 3 8.18819 3.43187 6.97725 4.24099C5.76632 5.05011 4.82251 6.20015 4.26517 7.54567C3.70784 8.89119 3.56202 10.3718 3.84614 11.8002C4.13027 13.2286 4.83158 14.5406 5.8614 15.5704C6.89122 16.6003 8.20329 17.3016 9.63168 17.5857C11.0601 17.8698 12.5407 17.724 13.8862 17.1667C15.2317 16.6093 16.3817 15.6655 17.1909 14.4546C18 13.2437 18.4318 11.82 18.4318 10.3636C18.4317 8.41069 17.6559 6.5378 16.275 5.15688C14.894 3.77597 13.0212 3.00012 11.0682 3V3Z" stroke="#9BA1AF" stroke-width="2" stroke-miterlimit="10"/>
<path d="M16.562 15.8574L21.7046 21.0001" stroke="#9BA1AF" stroke-width="2" stroke-miterlimit="10" stroke-linecap="round"/>
</svg>
