<svg width="16" height="16" viewBox="0 0 16 16" fill="none" xmlns="http://www.w3.org/2000/svg">
<path fill-rule="evenodd" clip-rule="evenodd" d="M2.16666 2C2.16666 1.72386 2.39051 1.5 2.66666 1.5H13.3333C13.6095 1.5 13.8333 1.72386 13.8333 2V3.64433C13.8333 3.92048 13.6095 4.14433 13.3333 4.14433C13.0572 4.14433 12.8333 3.92048 12.8333 3.64433V2.5H3.16666V3.64433C3.16666 3.92048 2.9428 4.14433 2.66666 4.14433C2.39051 4.14433 2.16666 3.92048 2.16666 3.64433V2Z" fill="#6A7288"/>
<path fill-rule="evenodd" clip-rule="evenodd" d="M8 1.5C8.27614 1.5 8.5 1.72386 8.5 2V14C8.5 14.2761 8.27614 14.5 8 14.5C7.72386 14.5 7.5 14.2761 7.5 14V2C7.5 1.72386 7.72386 1.5 8 1.5Z" fill="#6A7288"/>
<path fill-rule="evenodd" clip-rule="evenodd" d="M4.83331 14C4.83331 13.7239 5.05717 13.5 5.33331 13.5H10.6666C10.9428 13.5 11.1666 13.7239 11.1666 14C11.1666 14.2761 10.9428 14.5 10.6666 14.5H5.33331C5.05717 14.5 4.83331 14.2761 4.83331 14Z" fill="#6A7288"/>
</svg>
