<svg width="32" height="32" viewBox="0 0 32 32" fill="none" xmlns="http://www.w3.org/2000/svg">
<rect x="12" y="10" width="7" height="15" fill="#FAAD42"/>
<path d="M28.0669 24.9425L17.415 5.16125C16.66 3.75875 14.6488 3.75875 13.8931 5.16125L3.24189 24.9425C3.07796 25.247 2.99577 25.5887 3.00335 25.9345C3.01093 26.2802 3.10801 26.618 3.28513 26.915C3.46224 27.212 3.71333 27.458 4.01389 27.629C4.31446 27.8 4.65422 27.8901 5.00001 27.8906H26.3056C26.6517 27.8907 26.9919 27.8009 27.2928 27.6302C27.5938 27.4594 27.8454 27.2134 28.0228 26.9163C28.2003 26.6193 28.2977 26.2812 28.3054 25.9352C28.3131 25.5893 28.2309 25.2472 28.0669 24.9425ZM15.6544 24.8281C15.4072 24.8281 15.1655 24.7548 14.9599 24.6175C14.7544 24.4801 14.5941 24.2849 14.4995 24.0565C14.4049 23.8281 14.3802 23.5767 14.4284 23.3343C14.4766 23.0918 14.5957 22.8691 14.7705 22.6942C14.9453 22.5194 15.168 22.4004 15.4105 22.3521C15.653 22.3039 15.9043 22.3287 16.1327 22.4233C16.3611 22.5179 16.5564 22.6781 16.6937 22.8837C16.8311 23.0892 16.9044 23.3309 16.9044 23.5781C16.9044 23.9096 16.7727 24.2276 16.5383 24.462C16.3038 24.6964 15.9859 24.8281 15.6544 24.8281ZM17.0119 12.2563L16.6531 19.8813C16.6531 20.1465 16.5478 20.4008 16.3602 20.5884C16.1727 20.7759 15.9184 20.8813 15.6531 20.8813C15.3879 20.8813 15.1336 20.7759 14.946 20.5884C14.7585 20.4008 14.6531 20.1465 14.6531 19.8813L14.2944 12.2594C14.2863 12.0772 14.315 11.8954 14.3787 11.7245C14.4425 11.5537 14.5399 11.3975 14.6653 11.2652C14.7907 11.1328 14.9415 11.0271 15.1086 10.9543C15.2758 10.8814 15.4558 10.843 15.6381 10.8413H15.6513C15.8348 10.8412 16.0165 10.8782 16.1853 10.9503C16.3541 11.0223 16.5066 11.1278 16.6335 11.2604C16.7604 11.393 16.8592 11.5499 16.9238 11.7217C16.9884 11.8935 17.0175 12.0766 17.0094 12.26L17.0119 12.2563Z" fill="white"/>
</svg>
