<svg width="24" height="24" viewBox="0 0 24 24" fill="none" xmlns="http://www.w3.org/2000/svg">
<path fill-rule="evenodd" clip-rule="evenodd" d="M6.75 8.25C5.75544 8.25 4.80161 8.64509 4.09835 9.34835C3.39509 10.0516 3 11.0054 3 12C3 12.9946 3.39509 13.9484 4.09835 14.6517C4.80161 15.3549 5.75544 15.75 6.75 15.75H9.75C10.1642 15.75 10.5 16.0858 10.5 16.5C10.5 16.9142 10.1642 17.25 9.75 17.25H6.75C5.35761 17.25 4.02226 16.6969 3.03769 15.7123C2.05312 14.7277 1.5 13.3924 1.5 12C1.5 10.6076 2.05312 9.27226 3.03769 8.28769C4.02226 7.30312 5.35761 6.75 6.75 6.75H9.75C10.1642 6.75 10.5 7.08579 10.5 7.5C10.5 7.91421 10.1642 8.25 9.75 8.25H6.75Z" fill="#6A7288"/>
<path fill-rule="evenodd" clip-rule="evenodd" d="M13.5 7.5C13.5 7.08579 13.8358 6.75 14.25 6.75H17.25C18.6424 6.75 19.9777 7.30312 20.9623 8.28769C21.9469 9.27226 22.5 10.6076 22.5 12C22.5 13.3924 21.9469 14.7277 20.9623 15.7123C19.9777 16.6969 18.6424 17.25 17.25 17.25H14.25C13.8358 17.25 13.5 16.9142 13.5 16.5C13.5 16.0858 13.8358 15.75 14.25 15.75H17.25C18.2446 15.75 19.1984 15.3549 19.9017 14.6517C20.6049 13.9484 21 12.9946 21 12C21 11.0054 20.6049 10.0516 19.9017 9.34835C19.1984 8.64509 18.2446 8.25 17.25 8.25H14.25C13.8358 8.25 13.5 7.91421 13.5 7.5Z" fill="#6A7288"/>
<path fill-rule="evenodd" clip-rule="evenodd" d="M6.90417 12C6.90417 11.5858 7.23996 11.25 7.65417 11.25H16.4395C16.8537 11.25 17.1895 11.5858 17.1895 12C17.1895 12.4142 16.8537 12.75 16.4395 12.75H7.65417C7.23996 12.75 6.90417 12.4142 6.90417 12Z" fill="#6A7288"/>
</svg>
