<svg width="16" height="16" viewBox="0 0 16 16" fill="none" xmlns="http://www.w3.org/2000/svg">
<path d="M2.7 8C2.91128 8.17588 3.08187 8.39552 3.2 8.64375C3.5 9.2625 3.5 10.0188 3.5 10.75C3.5 12.2688 3.5625 13 5 13C5.13261 13 5.25979 13.0527 5.35355 13.1464C5.44732 13.2402 5.5 13.3674 5.5 13.5C5.5 13.6326 5.44732 13.7598 5.35355 13.8536C5.25979 13.9473 5.13261 14 5 14C3.90625 14 3.16875 13.6187 2.8 12.8562C2.5 12.2375 2.5 11.4812 2.5 10.75C2.5 9.23125 2.4375 8.5 1 8.5C0.867392 8.5 0.740215 8.44732 0.646447 8.35355C0.552678 8.25979 0.5 8.13261 0.5 8C0.5 7.86739 0.552678 7.74021 0.646447 7.64645C0.740215 7.55268 0.867392 7.5 1 7.5C2.4375 7.5 2.5 6.76875 2.5 5.25C2.5 4.51875 2.5 3.7625 2.8 3.14375C3.16875 2.38125 3.90625 2 5 2C5.13261 2 5.25979 2.05268 5.35355 2.14645C5.44732 2.24021 5.5 2.36739 5.5 2.5C5.5 2.63261 5.44732 2.75979 5.35355 2.85355C5.25979 2.94732 5.13261 3 5 3C3.5625 3 3.5 3.73125 3.5 5.25C3.5 5.98125 3.5 6.7375 3.2 7.35625C3.08187 7.60448 2.91128 7.82412 2.7 8ZM15 7.5C13.5625 7.5 13.5 6.76875 13.5 5.25C13.5 4.51875 13.5 3.7625 13.2 3.14375C12.8313 2.38125 12.0938 2 11 2C10.8674 2 10.7402 2.05268 10.6464 2.14645C10.5527 2.24021 10.5 2.36739 10.5 2.5C10.5 2.63261 10.5527 2.75979 10.6464 2.85355C10.7402 2.94732 10.8674 3 11 3C12.4375 3 12.5 3.73125 12.5 5.25C12.5 5.98125 12.5 6.7375 12.8 7.35625C12.9181 7.60448 13.0887 7.82412 13.3 8C13.0887 8.17588 12.9181 8.39552 12.8 8.64375C12.5 9.2625 12.5 10.0188 12.5 10.75C12.5 12.2688 12.4375 13 11 13C10.8674 13 10.7402 13.0527 10.6464 13.1464C10.5527 13.2402 10.5 13.3674 10.5 13.5C10.5 13.6326 10.5527 13.7598 10.6464 13.8536C10.7402 13.9473 10.8674 14 11 14C12.0938 14 12.8313 13.6187 13.2 12.8562C13.5 12.2375 13.5 11.4812 13.5 10.75C13.5 9.23125 13.5625 8.5 15 8.5C15.1326 8.5 15.2598 8.44732 15.3536 8.35355C15.4473 8.25979 15.5 8.13261 15.5 8C15.5 7.86739 15.4473 7.74021 15.3536 7.64645C15.2598 7.55268 15.1326 7.5 15 7.5Z" fill="#6A7288"/>
</svg>
