<svg width="16" height="16" viewBox="0 0 16 16" fill="none" xmlns="http://www.w3.org/2000/svg">
<path fill-rule="evenodd" clip-rule="evenodd" d="M2.21967 2.21967C2.51256 1.92678 2.98744 1.92678 3.28033 2.21967L13.7803 12.7197C14.0732 13.0126 14.0732 13.4874 13.7803 13.7803C13.4874 14.0732 13.0126 14.0732 12.7197 13.7803L2.21967 3.28033C1.92678 2.98744 1.92678 2.51256 2.21967 2.21967Z" fill="#9BA1AF"/>
<path fill-rule="evenodd" clip-rule="evenodd" d="M13.7803 2.21967C14.0732 2.51256 14.0732 2.98744 13.7803 3.28033L3.28033 13.7803C2.98744 14.0732 2.51256 14.0732 2.21967 13.7803C1.92678 13.4874 1.92678 13.0126 2.21967 12.7197L12.7197 2.21967C13.0126 1.92678 13.4874 1.92678 13.7803 2.21967Z" fill="#9BA1AF"/>
</svg>
