<svg width="24" height="24" viewBox="0 0 24 24" fill="none" xmlns="http://www.w3.org/2000/svg">
<path d="M21.586 18.2463C21.5756 18.2607 21.5642 18.2743 21.5529 18.2879C21.548 18.2937 21.5437 18.3001 21.5386 18.3058L19.3719 20.7604C19.2364 20.9138 19.0527 21 18.8612 21C18.6696 21 18.4859 20.9138 18.3505 20.7604C18.215 20.6069 18.1389 20.3988 18.1389 20.1818C18.1389 19.9648 18.215 19.7567 18.3505 19.6032L19.2842 18.5454H18.2234C17.189 18.5443 16.1696 18.264 15.2498 17.7277C14.33 17.1915 13.5362 16.4148 12.9341 15.4618L9.16837 9.48921C8.70005 8.74805 8.08262 8.14394 7.36721 7.72688C6.6518 7.30982 5.85898 7.09182 5.0544 7.09092H2.97222C2.78068 7.09092 2.59698 7.00472 2.46153 6.85128C2.32609 6.69784 2.25 6.48974 2.25 6.27274C2.25 6.05575 2.32609 5.84764 2.46153 5.6942C2.59698 5.54076 2.78068 5.45456 2.97222 5.45456H5.0544C6.08887 5.45572 7.10821 5.73602 8.02803 6.27226C8.94785 6.8085 9.74168 7.58524 10.3438 8.53818L14.1095 14.5108C14.5778 15.2519 15.1952 15.8561 15.9106 16.2731C16.6261 16.6902 17.4189 16.9082 18.2234 16.9091H19.2842L18.3505 15.8513C18.215 15.6978 18.1389 15.4897 18.1389 15.2727C18.1389 15.0557 18.215 14.8476 18.3505 14.6942C18.4859 14.5407 18.6696 14.4545 18.8612 14.4545C19.0527 14.4545 19.2364 14.5407 19.3719 14.6942L21.5386 17.1487C21.5437 17.1544 21.548 17.1608 21.5529 17.1666C21.5642 17.1802 21.5755 17.1938 21.586 17.2082C21.5943 17.2195 21.6015 17.2314 21.6091 17.2431C21.6154 17.2529 21.6222 17.2623 21.6281 17.2725C21.6358 17.2854 21.6426 17.2988 21.6494 17.3121C21.6545 17.3218 21.6598 17.3312 21.6645 17.3411C21.6708 17.3544 21.6761 17.3679 21.6816 17.3814C21.6862 17.3922 21.6909 17.4027 21.6949 17.4138C21.6996 17.4267 21.7035 17.4399 21.7076 17.4531C21.7114 17.4651 21.7155 17.4771 21.7188 17.4894C21.7224 17.5027 21.725 17.516 21.7279 17.5293C21.7307 17.5419 21.7338 17.5543 21.736 17.5671C21.7387 17.5825 21.7404 17.5982 21.7423 17.6138C21.7437 17.6247 21.7455 17.6353 21.7465 17.6463C21.7512 17.7001 21.7512 17.7544 21.7465 17.8083C21.7456 17.8192 21.7437 17.8298 21.7423 17.8407C21.7404 17.8563 21.7387 17.872 21.736 17.8874C21.7338 17.9002 21.7307 17.9126 21.7279 17.9253C21.725 17.9386 21.7224 17.9518 21.7188 17.9651C21.7155 17.9774 21.7114 17.9894 21.7076 18.0015C21.7035 18.0146 21.6996 18.0278 21.695 18.0407C21.6909 18.0518 21.6861 18.0623 21.6816 18.0731C21.6761 18.0866 21.6708 18.1001 21.6645 18.1134C21.6598 18.1234 21.6545 18.1327 21.6494 18.1424C21.6426 18.1557 21.6359 18.1691 21.6281 18.1821C21.6222 18.1922 21.6155 18.2016 21.6091 18.2114C21.6015 18.2231 21.5943 18.2349 21.586 18.2463ZM12.9943 9.85033C13.0714 9.91284 13.1587 9.95751 13.2511 9.98178C13.3435 10.006 13.4393 10.0094 13.5328 9.99178C13.6264 9.97411 13.716 9.93573 13.7964 9.87882C13.8769 9.8219 13.9467 9.74759 14.0018 9.66011L14.1095 9.48931C14.5778 8.74814 15.1952 8.144 15.9106 7.72692C16.626 7.30985 17.4189 7.09183 18.2234 7.09092H19.2842L18.3505 8.14873C18.215 8.30217 18.1389 8.51028 18.1389 8.72728C18.1389 8.94428 18.215 9.15239 18.3505 9.30584C18.4859 9.45928 18.6696 9.54548 18.8612 9.54548C19.0527 9.54548 19.2364 9.45928 19.3719 9.30584L21.5386 6.8513C21.5437 6.84557 21.548 6.83923 21.5529 6.8334C21.5642 6.8198 21.5755 6.80619 21.586 6.79177C21.5943 6.78052 21.6015 6.76856 21.6091 6.7569C21.6154 6.74708 21.6222 6.73767 21.6281 6.72755C21.6358 6.71456 21.6426 6.70116 21.6494 6.68786C21.6545 6.67815 21.6598 6.66884 21.6645 6.65892C21.6708 6.64563 21.6761 6.63213 21.6816 6.61863C21.6862 6.60779 21.6909 6.59725 21.6949 6.58621C21.6996 6.57332 21.7035 6.56013 21.7076 6.54693C21.7114 6.53486 21.7155 6.5229 21.7188 6.51063C21.7224 6.49733 21.725 6.48404 21.7279 6.47074C21.7307 6.45806 21.7338 6.44568 21.736 6.4329C21.7387 6.41746 21.7405 6.40181 21.7423 6.38616C21.7437 6.37532 21.7455 6.36468 21.7465 6.35374C21.7512 6.29987 21.7512 6.24561 21.7465 6.19174C21.7456 6.1808 21.7437 6.17016 21.7423 6.15932C21.7405 6.14367 21.7387 6.12802 21.736 6.11258C21.7338 6.0998 21.7307 6.08742 21.7279 6.07474C21.725 6.06145 21.7224 6.04815 21.7188 6.03486C21.7155 6.02258 21.7114 6.01062 21.7076 5.99855C21.7035 5.98535 21.6996 5.97216 21.695 5.95928C21.6909 5.94823 21.6862 5.9377 21.6816 5.92685C21.6761 5.91335 21.6708 5.89985 21.6645 5.88656C21.6598 5.87664 21.6545 5.86733 21.6494 5.85762C21.6426 5.84432 21.6359 5.83092 21.6281 5.81793C21.6222 5.80781 21.6155 5.7984 21.6091 5.78858C21.6015 5.77692 21.5943 5.76506 21.586 5.75371C21.5756 5.73929 21.5642 5.72568 21.5529 5.71208C21.548 5.70625 21.5437 5.69991 21.5386 5.69419L19.3719 3.23965C19.3048 3.16367 19.2252 3.1034 19.1376 3.06228C19.0499 3.02116 18.956 3 18.8612 3C18.7663 3 18.6724 3.02116 18.5848 3.06228C18.4972 3.1034 18.4175 3.16367 18.3505 3.23965C18.2834 3.31562 18.2302 3.40582 18.1939 3.50509C18.1576 3.60436 18.1389 3.71075 18.1389 3.8182C18.1389 3.92565 18.1576 4.03204 18.1939 4.13131C18.2302 4.23058 18.2834 4.32078 18.3505 4.39676L19.2842 5.45456H18.2234C17.189 5.45572 16.1696 5.73602 15.2498 6.27226C14.33 6.8085 13.5362 7.58524 12.9341 8.53818L12.8264 8.70908C12.7712 8.7965 12.7318 8.89538 12.7104 9.00006C12.689 9.10474 12.686 9.21317 12.7016 9.31916C12.7172 9.42515 12.7511 9.52662 12.8013 9.61778C12.8515 9.70894 12.9171 9.78799 12.9943 9.85044V9.85033ZM10.2835 14.1497C10.2063 14.0872 10.1191 14.0425 10.0267 14.0183C9.93426 13.994 9.83854 13.9906 9.74499 14.0083C9.65143 14.026 9.56187 14.0644 9.48141 14.1212C9.40095 14.1781 9.33118 14.2524 9.27608 14.3399L9.16837 14.5107C8.70006 15.2519 8.08264 15.856 7.36722 16.2731C6.65181 16.6902 5.85899 16.9082 5.0544 16.9091H2.97222C2.78068 16.9091 2.59698 16.9953 2.46153 17.1487C2.32609 17.3022 2.25 17.5103 2.25 17.7273C2.25 17.9443 2.32609 18.1524 2.46153 18.3058C2.59698 18.4592 2.78068 18.5454 2.97222 18.5454H5.0544C6.08887 18.5443 7.10821 18.264 8.02803 17.7277C8.94785 17.1915 9.74168 16.4148 10.3438 15.4618L10.4515 15.2909C10.5066 15.2035 10.546 15.1046 10.5674 14.9999C10.5888 14.8953 10.5918 14.7868 10.5762 14.6808C10.5606 14.5748 10.5268 14.4734 10.4766 14.3822C10.4263 14.2911 10.3608 14.212 10.2836 14.1496L10.2835 14.1497Z" fill="#6A7288"/>
</svg>
