<svg width="24" height="24" viewBox="0 0 24 24" fill="none" xmlns="http://www.w3.org/2000/svg">
<path d="M3 6.75C3.39782 6.75 3.77936 6.59196 4.06066 6.31066C4.34196 6.02936 4.5 5.64782 4.5 5.25C4.5 4.85218 4.34196 4.47064 4.06066 4.18934C3.77936 3.90804 3.39782 3.75 3 3.75C2.60218 3.75 2.22064 3.90804 1.93934 4.18934C1.65804 4.47064 1.5 4.85218 1.5 5.25C1.5 5.64782 1.65804 6.02936 1.93934 6.31066C2.22064 6.59196 2.60218 6.75 3 6.75ZM3 13.5C3.39782 13.5 3.77936 13.342 4.06066 13.0607C4.34196 12.7794 4.5 12.3978 4.5 12C4.5 11.6022 4.34196 11.2206 4.06066 10.9393C3.77936 10.658 3.39782 10.5 3 10.5C2.60218 10.5 2.22064 10.658 1.93934 10.9393C1.65804 11.2206 1.5 11.6022 1.5 12C1.5 12.3978 1.65804 12.7794 1.93934 13.0607C2.22064 13.342 2.60218 13.5 3 13.5ZM4.5 18.75C4.5 19.1478 4.34196 19.5294 4.06066 19.8107C3.77936 20.092 3.39782 20.25 3 20.25C2.60218 20.25 2.22064 20.092 1.93934 19.8107C1.65804 19.5294 1.5 19.1478 1.5 18.75C1.5 18.3522 1.65804 17.9706 1.93934 17.6893C2.22064 17.408 2.60218 17.25 3 17.25C3.39782 17.25 3.77936 17.408 4.06066 17.6893C4.34196 17.9706 4.5 18.3522 4.5 18.75ZM8.25 4.5C8.05109 4.5 7.86032 4.57902 7.71967 4.71967C7.57902 4.86032 7.5 5.05109 7.5 5.25C7.5 5.44891 7.57902 5.63968 7.71967 5.78033C7.86032 5.92098 8.05109 6 8.25 6H21.75C21.9489 6 22.1397 5.92098 22.2803 5.78033C22.421 5.63968 22.5 5.44891 22.5 5.25C22.5 5.05109 22.421 4.86032 22.2803 4.71967C22.1397 4.57902 21.9489 4.5 21.75 4.5H8.25ZM7.5 12C7.5 11.8011 7.57902 11.6103 7.71967 11.4697C7.86032 11.329 8.05109 11.25 8.25 11.25H21.75C21.9489 11.25 22.1397 11.329 22.2803 11.4697C22.421 11.6103 22.5 11.8011 22.5 12C22.5 12.1989 22.421 12.3897 22.2803 12.5303C22.1397 12.671 21.9489 12.75 21.75 12.75H8.25C8.05109 12.75 7.86032 12.671 7.71967 12.5303C7.57902 12.3897 7.5 12.1989 7.5 12ZM8.25 18C8.05109 18 7.86032 18.079 7.71967 18.2197C7.57902 18.3603 7.5 18.5511 7.5 18.75C7.5 18.9489 7.57902 19.1397 7.71967 19.2803C7.86032 19.421 8.05109 19.5 8.25 19.5H21.75C21.9489 19.5 22.1397 19.421 22.2803 19.2803C22.421 19.1397 22.5 18.9489 22.5 18.75C22.5 18.5511 22.421 18.3603 22.2803 18.2197C22.1397 18.079 21.9489 18 21.75 18H8.25Z" fill="#1852FA"/>
</svg>
