<svg width="12" height="12" viewBox="0 0 12 12" fill="none" xmlns="http://www.w3.org/2000/svg">
<path fill-rule="evenodd" clip-rule="evenodd" d="M6.00024 3.34964C6.20735 3.34964 6.37524 3.51753 6.37524 3.72464V5.84444L7.89051 7.3597C8.03695 7.50615 8.03695 7.74359 7.89051 7.89003C7.74406 8.03648 7.50662 8.03648 7.36017 7.89003L5.73508 6.26494C5.66475 6.19461 5.62524 6.09923 5.62524 5.99977V3.72464C5.62524 3.51753 5.79314 3.34964 6.00024 3.34964Z" fill="#6A7288"/>
<path fill-rule="evenodd" clip-rule="evenodd" d="M7.55159 1.7713C6.51621 1.39169 5.3775 1.40532 4.3515 1.8096C3.3255 2.21388 2.48357 2.98069 1.98544 3.96456C1.89189 4.14934 1.66627 4.22329 1.48149 4.12974C1.29672 4.03619 1.22277 3.81056 1.31632 3.62579C1.89743 2.47801 2.87962 1.58345 4.07655 1.11182C5.27348 0.640186 6.60189 0.624286 7.80977 1.06714C9.01764 1.50998 10.021 2.38078 10.6294 3.51431C11.2378 4.64785 11.409 5.96528 11.1105 7.21667C10.812 8.46806 10.0646 9.56636 9.00997 10.3032C7.9554 11.0401 6.66704 11.3642 5.38932 11.2141C4.11161 11.0641 2.93341 10.4503 2.07825 9.48913C1.22308 8.528 0.750448 7.28641 0.75 5.99991C0.749928 5.7928 0.917763 5.62485 1.12487 5.62478C1.33198 5.62471 1.49993 5.79254 1.5 5.99965C1.50038 7.10243 1.90553 8.16671 2.63857 8.99059C3.37161 9.81447 4.38155 10.3406 5.4768 10.4693C6.57206 10.5979 7.67643 10.32 8.58041 9.68841C9.48438 9.05679 10.1251 8.11533 10.381 7.04265C10.6368 5.96996 10.4901 4.84067 9.96855 3.86901C9.44702 2.89735 8.58698 2.15091 7.55159 1.7713Z" fill="#6A7288"/>
<path fill-rule="evenodd" clip-rule="evenodd" d="M2.02217 0.823889C2.22768 0.849577 2.37345 1.037 2.34776 1.24251L2.08254 3.36424L4.20428 3.09902C4.40978 3.07333 4.59721 3.21911 4.62289 3.42461C4.64858 3.63012 4.50281 3.81754 4.2973 3.84323L1.69715 4.16825C1.58232 4.1826 1.4673 4.14314 1.38547 4.06131C1.30365 3.97948 1.26418 3.86446 1.27853 3.74963L1.60355 1.14948C1.62924 0.943972 1.81666 0.7982 2.02217 0.823889Z" fill="#6A7288"/>
</svg>
