<svg width="24" height="24" viewBox="0 0 24 24" fill="none" xmlns="http://www.w3.org/2000/svg">
<path fill-rule="evenodd" clip-rule="evenodd" d="M4.78508 3.5625C3.68042 3.5625 2.8125 4.42912 2.8125 5.4795V18.5205C2.8125 19.5709 3.68042 20.4375 4.78508 20.4375H19.2236C20.3216 20.4375 21.1941 19.5697 21.1875 18.5241L21.1875 18.5205V5.4795C21.1875 4.42912 20.3195 3.5625 19.2149 3.5625H4.78508ZM1.6875 5.4795C1.6875 3.78442 3.08274 2.4375 4.78508 2.4375H19.2149C20.9172 2.4375 22.3125 3.78442 22.3125 5.4795V18.5188C22.3223 20.2178 20.9145 21.5625 19.2236 21.5625H4.78508C3.08274 21.5625 1.6875 20.2156 1.6875 18.5205V5.4795Z" fill="#1852FA"/>
<path d="M7.12021 9.893L6.69147 11.1278H5.79968L7.47178 6.27441H8.61223L10.3615 11.1278H9.39254L8.94665 9.893H7.12021ZM8.74085 9.14699C8.36356 8.03226 8.13204 7.37199 8.01199 6.9604C7.89194 7.41487 7.6347 8.19518 7.32601 9.14699H8.74085Z" fill="#1852FA"/>
<path d="M14.1345 6V10.1331C14.1345 10.4675 14.1345 10.7933 14.1431 11.1363H13.3028C13.2856 11.0334 13.2685 10.8191 13.2599 10.7162C13.0884 11.0334 12.754 11.2221 12.1966 11.2221C11.2791 11.2221 10.7046 10.4846 10.7046 9.36991C10.7046 8.26376 11.322 7.44915 12.3338 7.44915C12.8912 7.44915 13.1741 7.65494 13.2599 7.83502V6H14.1345ZM11.6049 9.33561C11.6049 10.0902 11.9222 10.5018 12.4367 10.5018C13.1741 10.5018 13.2942 9.91013 13.2942 9.30132C13.2942 8.6239 13.1827 8.14371 12.471 8.14371C11.9136 8.15229 11.6049 8.5896 11.6049 9.33561Z" fill="#1852FA"/>
<path d="M15.6606 10.0645C15.7464 10.3903 15.9951 10.5704 16.4152 10.5704C16.8354 10.5704 16.9983 10.4074 16.9983 10.1502C16.9983 9.88438 16.844 9.77291 16.2695 9.62714C15.1462 9.35274 14.9404 9.00117 14.9404 8.50383C14.9404 7.98077 15.3177 7.44055 16.3466 7.44055C17.3842 7.44055 17.7615 8.01507 17.7958 8.51241H16.964C16.9297 8.34949 16.8097 8.06652 16.3123 8.06652C15.9265 8.06652 15.8064 8.24659 15.8064 8.43523C15.8064 8.64103 15.9265 8.74393 16.5439 8.8897C17.71 9.1641 17.8987 9.55854 17.8987 10.0902C17.8987 10.699 17.4271 11.2135 16.3981 11.2135C15.3605 11.2135 14.9061 10.7076 14.8203 10.0645H15.6606Z" fill="#1852FA"/>
<path fill-rule="evenodd" clip-rule="evenodd" d="M16.9827 14.2745C16.694 14.0106 16.2966 13.9955 16.0097 14.2162L16.0042 14.2204L16.0041 14.2204C15.7753 14.392 15.5608 14.6084 15.3988 14.7898C15.3191 14.8789 15.2551 14.9563 15.2116 15.0106C15.1899 15.0376 15.1734 15.0588 15.1629 15.0726L15.1515 15.0875L15.1495 15.0902L15.1494 15.0903C15.1379 15.1058 15.1257 15.1207 15.1127 15.1349L9.41554 21.3791C9.20615 21.6086 8.85037 21.6249 8.62087 21.4155C8.39138 21.2061 8.37508 20.8503 8.58447 20.6208L14.2643 14.3957L14.2705 14.3875C14.2855 14.368 14.3067 14.3407 14.3337 14.307C14.3875 14.2399 14.4646 14.1468 14.5597 14.0403C14.7468 13.8309 15.0161 13.5555 15.3267 13.3223C16.0685 12.7539 17.0752 12.8309 17.7464 13.4485L17.7511 13.4528L17.7511 13.4528L22.1355 17.5788C22.3617 17.7917 22.3725 18.1477 22.1596 18.3739C21.9467 18.6001 21.5908 18.6109 21.3645 18.398L16.9827 14.2745Z" fill="#1852FA"/>
<path fill-rule="evenodd" clip-rule="evenodd" d="M10.9078 14.3143C10.7789 14.1702 10.2058 13.5629 9.38501 13.2058C8.96484 13.023 8.45967 12.897 7.90667 12.9495C7.34654 13.0028 6.77712 13.2358 6.23336 13.7084L1.87639 17.5795C1.64416 17.7859 1.62317 18.1414 1.82951 18.3736C2.03585 18.6059 2.39138 18.6269 2.62362 18.4205L6.97361 14.5556C7.35291 14.2266 7.70443 14.0988 8.01314 14.0695C8.32956 14.0394 8.64156 14.1092 8.93621 14.2374C9.50344 14.4842 9.93069 14.9138 10.0516 15.0448C10.0912 15.096 10.1286 15.1281 10.1438 15.1411C10.1478 15.1445 10.1514 15.1475 10.1542 15.1498L12.3696 17.1836C12.5985 17.3937 12.9543 17.3784 13.1644 17.1496C13.3745 16.9207 13.3593 16.5649 13.1304 16.3548L10.9201 14.3258C10.9158 14.3217 10.9117 14.3179 10.9078 14.3143Z" fill="#1852FA"/>
</svg>
