<svg width="16" height="16" viewBox="0 0 16 16" fill="none" xmlns="http://www.w3.org/2000/svg">
<path d="M9.71673 2.51693C9.75389 2.47968 9.79803 2.45012 9.84663 2.42996C9.89522 2.40979 9.94732 2.39941 9.99993 2.39941C10.0525 2.39941 10.1046 2.40979 10.1532 2.42996C10.2018 2.45012 10.246 2.47968 10.2831 2.51693L12.6831 4.91693C12.7204 4.95409 12.7499 4.99823 12.7701 5.04682C12.7903 5.09542 12.8007 5.14752 12.8007 5.20013C12.8007 5.25274 12.7903 5.30484 12.7701 5.35344C12.7499 5.40203 12.7204 5.44617 12.6831 5.48333L10.2831 7.88333C10.2459 7.92052 10.2018 7.95002 10.1532 7.97015C10.1046 7.99027 10.0525 8.00063 9.99993 8.00063C9.94734 8.00063 9.89526 7.99027 9.84667 7.97015C9.79808 7.95002 9.75392 7.92052 9.71673 7.88333C9.67954 7.84614 9.65004 7.80199 9.62992 7.7534C9.60979 7.7048 9.59943 7.65272 9.59943 7.60013C9.59943 7.54753 9.60979 7.49545 9.62992 7.44686C9.65004 7.39827 9.67954 7.35412 9.71673 7.31693L11.4343 5.60013H3.59993C3.49385 5.60013 3.39211 5.55799 3.31709 5.48297C3.24208 5.40796 3.19993 5.30622 3.19993 5.20013C3.19993 5.09404 3.24208 4.9923 3.31709 4.91729C3.39211 4.84227 3.49385 4.80013 3.59993 4.80013H11.4343L9.71673 3.08333C9.67948 3.04617 9.64993 3.00203 9.62977 2.95344C9.6096 2.90484 9.59922 2.85274 9.59922 2.80013C9.59922 2.74752 9.6096 2.69542 9.62977 2.64682C9.64993 2.59823 9.67948 2.55409 9.71673 2.51693ZM6.28313 8.11693C6.32038 8.15409 6.34994 8.19823 6.3701 8.24682C6.39027 8.29542 6.40065 8.34751 6.40065 8.40013C6.40065 8.45274 6.39027 8.50484 6.3701 8.55344C6.34994 8.60203 6.32038 8.64617 6.28313 8.68333L4.56553 10.4001H12.3999C12.506 10.4001 12.6078 10.4423 12.6828 10.5173C12.7578 10.5923 12.7999 10.694 12.7999 10.8001C12.7999 10.9062 12.7578 11.008 12.6828 11.083C12.6078 11.158 12.506 11.2001 12.3999 11.2001H4.56553L6.28313 12.9169C6.35824 12.992 6.40044 13.0939 6.40044 13.2001C6.40044 13.3063 6.35824 13.4082 6.28313 13.4833C6.20802 13.5584 6.10615 13.6006 5.99993 13.6006C5.89371 13.6006 5.79184 13.5584 5.71673 13.4833L3.31673 11.0833C3.27948 11.0462 3.24993 11.002 3.22976 10.9534C3.2096 10.9048 3.19922 10.8527 3.19922 10.8001C3.19922 10.7475 3.2096 10.6954 3.22976 10.6468C3.24993 10.5982 3.27948 10.5541 3.31673 10.5169L5.71673 8.11693C5.75389 8.07968 5.79803 8.05012 5.84663 8.02996C5.89522 8.00979 5.94732 7.99941 5.99993 7.99941C6.05255 7.99941 6.10465 8.00979 6.15324 8.02996C6.20184 8.05012 6.24598 8.07968 6.28313 8.11693Z" fill="#6A7288"/>
</svg>
