<svg width="24" height="24" viewBox="0 0 24 24" fill="none" xmlns="http://www.w3.org/2000/svg">
<path fill-rule="evenodd" clip-rule="evenodd" d="M1.75 4C1.75 3.0335 2.5335 2.25 3.5 2.25H9.5C9.72258 2.25 9.93367 2.34887 10.0762 2.51986L12.3513 5.25H20.5C21.4665 5.25 22.25 6.03349 22.25 7V11.5C22.25 11.9142 21.9142 12.25 21.5 12.25C21.0858 12.25 20.75 11.9142 20.75 11.5V7C20.75 6.86191 20.6381 6.75 20.5 6.75H12C11.7774 6.75 11.5663 6.65113 11.4238 6.48014L9.14872 3.75H3.5C3.36193 3.75 3.25 3.86193 3.25 4V20C3.25 20.1381 3.36192 20.25 3.5 20.25H11C11.4142 20.25 11.75 20.5858 11.75 21C11.75 21.4142 11.4142 21.75 11 21.75H3.5C2.53351 21.75 1.75 20.9665 1.75 20V4Z" fill="#6A7288"/>
<path fill-rule="evenodd" clip-rule="evenodd" d="M12.75 15.5C12.75 15.0858 13.0858 14.75 13.5 14.75H20.5C20.9142 14.75 21.25 15.0858 21.25 15.5C21.25 15.9142 20.9142 16.25 20.5 16.25H13.5C13.0858 16.25 12.75 15.9142 12.75 15.5Z" fill="#6A7288"/>
<path fill-rule="evenodd" clip-rule="evenodd" d="M12.75 18.5C12.75 18.0858 13.0858 17.75 13.5 17.75H20.5C20.9142 17.75 21.25 18.0858 21.25 18.5C21.25 18.9142 20.9142 19.25 20.5 19.25H13.5C13.0858 19.25 12.75 18.9142 12.75 18.5Z" fill="#6A7288"/>
<path fill-rule="evenodd" clip-rule="evenodd" d="M17.4697 12.4697C17.7626 12.1768 18.2374 12.1768 18.5303 12.4697L21.0303 14.9697C21.3232 15.2626 21.3232 15.7374 21.0303 16.0303C20.7374 16.3232 20.2626 16.3232 19.9697 16.0303L17.4697 13.5303C17.1768 13.2374 17.1768 12.7626 17.4697 12.4697Z" fill="#6A7288"/>
<path fill-rule="evenodd" clip-rule="evenodd" d="M12.9697 17.9697C13.2626 17.6768 13.7374 17.6768 14.0303 17.9697L16.5303 20.4697C16.8232 20.7626 16.8232 21.2374 16.5303 21.5303C16.2374 21.8232 15.7626 21.8232 15.4697 21.5303L12.9697 19.0303C12.6768 18.7374 12.6768 18.2626 12.9697 17.9697Z" fill="#6A7288"/>
</svg>
