<svg width="16" height="16" viewBox="0 0 16 16" fill="none" xmlns="http://www.w3.org/2000/svg">
<path fill-rule="evenodd" clip-rule="evenodd" d="M8.00843 6.27081C8.23309 6.27081 8.41521 6.45293 8.41521 6.67759V13.5928C8.41521 13.8175 8.23309 13.9996 8.00843 13.9996C7.78377 13.9996 7.60165 13.8175 7.60165 13.5928V6.67759C7.60165 6.45293 7.78377 6.27081 8.00843 6.27081Z" fill="#6A7288"/>
<path fill-rule="evenodd" clip-rule="evenodd" d="M7.72079 6.38996C7.87965 6.2311 8.13721 6.2311 8.29606 6.38996L10.5333 8.62723C10.6922 8.78608 10.6922 9.04364 10.5333 9.2025C10.3745 9.36135 10.1169 9.36135 9.95807 9.2025L8.00843 7.25286L6.05879 9.2025C5.89994 9.36135 5.64238 9.36135 5.48352 9.2025C5.32467 9.04364 5.32467 8.78608 5.48352 8.62723L7.72079 6.38996Z" fill="#6A7288"/>
<path fill-rule="evenodd" clip-rule="evenodd" d="M5.52576 2.75594C6.38498 2.18049 7.41716 1.92079 8.4464 2.02107C9.47564 2.12136 10.4383 2.57543 11.1702 3.30591C11.8267 3.96101 12.2612 4.80206 12.4177 5.71087C12.9518 5.82488 13.4405 6.10168 13.8143 6.50708C14.2633 6.994 14.5139 7.63123 14.5169 8.29353C14.5199 8.95583 14.2751 9.5953 13.8306 10.0863C13.3861 10.5773 12.774 10.8842 12.1147 10.9469C12.1019 10.9481 12.0891 10.9487 12.0762 10.9487H9.63554C9.41089 10.9487 9.22877 10.7666 9.22877 10.5419C9.22877 10.3173 9.41089 10.1352 9.63554 10.1352H12.056C12.5062 10.0879 12.9234 9.87617 13.2275 9.54027C13.5357 9.19984 13.7054 8.75644 13.7033 8.29723C13.7013 7.83801 13.5275 7.39618 13.2162 7.05856C12.9049 6.72094 12.4786 6.51196 12.0211 6.47268C11.826 6.45593 11.6705 6.30254 11.6511 6.10767C11.5673 5.26594 11.1943 4.47929 10.5956 3.88177C9.99681 3.28425 9.2094 2.91282 8.3675 2.83079C7.5256 2.74876 6.6813 2.9612 5.97847 3.4319C5.27564 3.9026 4.75777 4.60244 4.51311 5.41218C4.46799 5.5615 4.34146 5.67186 4.1874 5.69628C3.66392 5.77925 3.18736 6.04663 2.84374 6.45015C2.50011 6.85367 2.31207 7.36674 2.31356 7.89675L2.31356 7.89711C2.31465 8.46156 2.52774 9.00501 2.9106 9.41978C3.28984 9.83063 3.80826 10.0855 4.3648 10.1352H6.38133C6.60599 10.1352 6.78811 10.3173 6.78811 10.5419C6.78811 10.7666 6.60599 10.9487 6.38133 10.9487H4.34745C4.33634 10.9487 4.32524 10.9483 4.31418 10.9474C3.54832 10.8845 2.83401 10.5362 2.3128 9.9716C1.79162 9.40699 1.50154 8.66722 1.50001 7.89886C1.49802 7.17483 1.75492 6.47393 2.22434 5.92269C2.63895 5.43581 3.19522 5.094 3.8122 4.9427C4.13584 4.05229 4.73506 3.28549 5.52576 2.75594ZM1.50001 7.89886C1.50001 7.8988 1.50001 7.89874 1.50001 7.89868L1.90679 7.89789L1.50001 7.89903C1.50001 7.89898 1.50001 7.89892 1.50001 7.89886Z" fill="#6A7288"/>
</svg>
