<svg width="16" height="16" viewBox="0 0 16 16" fill="none" xmlns="http://www.w3.org/2000/svg">
<path d="M1.19093 8.21936C1.06784 8.06144 1.00068 7.86711 1.00001 7.66689C0.999329 7.46666 1.06517 7.27188 1.18719 7.11313C2.13052 5.87621 4.68093 3 8.00149 3C11.2782 3 13.8529 5.87434 14.8093 7.1122C14.9329 7.27097 15 7.46643 15 7.66765C15 7.86887 14.9329 8.06433 14.8093 8.2231C13.8529 9.46096 11.2782 12.3353 8.00149 12.3353C4.7248 12.3353 2.14499 9.45442 1.19093 8.21936Z" stroke="#6A7288" stroke-miterlimit="10" stroke-linecap="square"/>
<path d="M8.00176 10.4684C9.54848 10.4684 10.8024 9.2145 10.8024 7.66778C10.8024 6.12105 9.54848 4.86719 8.00176 4.86719C6.45504 4.86719 5.20117 6.12105 5.20117 7.66778C5.20117 9.2145 6.45504 10.4684 8.00176 10.4684Z" stroke="#6A7288" stroke-miterlimit="10" stroke-linecap="square"/>
</svg>
