<svg width="24" height="19" viewBox="0 0 24 19" fill="none" xmlns="http://www.w3.org/2000/svg">
<g clip-path="url(#clip0_320_8415)">
<path d="M5.45522 18.0029V8.73108L2.57973 6.10044L0.0012207 4.64062V16.3667C0.0012207 17.272 0.734738 18.0029 1.63746 18.0029H5.45522Z" fill="#4285F4"/>
<path d="M18.5448 18.0028H22.3626C23.268 18.0028 23.9988 17.2692 23.9988 16.3666V4.64062L21.0782 6.31267L18.5448 8.73098V18.0028Z" fill="#34A853"/>
<path d="M5.45524 8.73076L5.06396 5.10798L5.45524 1.64062L12 6.54924L18.5448 1.64062L18.9825 4.92078L18.5448 8.73076L12 13.6394L5.45524 8.73076Z" fill="#EA4335"/>
<path d="M18.5448 1.6408V8.73094L23.9988 4.64049V2.45887C23.9988 0.435488 21.689 -0.717986 20.072 0.495482L18.5448 1.6408Z" fill="#FBBC04"/>
<path d="M0.0012207 4.64053L2.50962 6.5219L5.45522 8.73098V1.64084L3.928 0.495525C2.30817 -0.718037 0.0012207 0.435531 0.0012207 2.45882V4.64044V4.64053Z" fill="#C5221F"/>
</g>
<defs>
<clipPath id="clip0_320_8415">
<rect width="24" height="18.0919" fill="white"/>
</clipPath>
</defs>
</svg>
