<svg width="16" height="16" viewBox="0 0 16 16" fill="none" xmlns="http://www.w3.org/2000/svg">
<path fill-rule="evenodd" clip-rule="evenodd" d="M13.6259 7.99103H13.6259C13.6256 8.03764 13.6247 8.08424 13.6233 8.13081L14.503 8.8208C14.51 8.82635 14.5171 8.832 14.524 8.83775C14.7629 9.03578 14.9239 9.31209 14.9783 9.61758C15.0326 9.92262 14.9773 10.237 14.822 10.5051C14.8218 10.5055 14.8215 10.5059 14.8213 10.5063L13.5886 12.6391L13.5829 12.6488C13.4253 12.9146 13.1789 13.1162 12.8872 13.2181C12.5955 13.32 12.2772 13.3156 11.9884 13.2058C11.9823 13.2035 11.9763 13.2012 11.9703 13.1987L10.9354 12.782C10.8538 12.8324 10.771 12.8806 10.6869 12.9268L10.5316 14.0325C10.53 14.0435 10.5283 14.0545 10.5264 14.0655C10.4737 14.3667 10.3181 14.6403 10.0861 14.8395C9.8541 15.0387 9.56013 15.1511 9.25441 15.1576C9.24735 15.1577 9.2403 15.1578 9.23324 15.1578H6.76591L6.74861 15.1577C6.44855 15.1525 6.15922 15.0452 5.92827 14.8536C5.69732 14.662 5.53853 14.3974 5.47807 14.1034C5.47382 14.0828 5.47023 14.062 5.46729 14.0411L5.31229 12.9381C5.22727 12.8914 5.1435 12.8424 5.06107 12.7912L4.02791 13.2071C4.02208 13.2095 4.01623 13.2118 4.01036 13.214C3.72167 13.3239 3.40346 13.3285 3.11176 13.2268C2.82007 13.1251 2.57361 12.9238 2.41581 12.6582L2.40968 12.6478L1.17738 10.5157C1.1771 10.5152 1.17682 10.5147 1.17654 10.5142C1.02103 10.246 0.965526 9.93144 1.01991 9.62622C1.0744 9.32044 1.23563 9.04393 1.4749 8.8459C1.48151 8.84043 1.48819 8.83505 1.49494 8.82975L2.3736 8.13988C2.37189 8.08872 2.37095 8.03684 2.37095 7.98429C2.37095 7.93507 2.37174 7.88641 2.37325 7.83827L1.4933 7.14703C1.48384 7.13961 1.47453 7.13201 1.46535 7.12425C1.23012 6.92535 1.0724 6.65001 1.01981 6.34648C0.967298 6.04336 1.02299 5.73144 1.17713 5.46524C1.17733 5.46488 1.17754 5.46452 1.17774 5.46417L2.41055 3.33119L2.41622 3.32149C2.57384 3.05572 2.82022 2.85412 3.11193 2.75222C3.40364 2.65032 3.72196 2.65467 4.01078 2.76449C4.01683 2.7668 4.02287 2.76916 4.02888 2.77158L5.0637 3.18827C5.14532 3.13795 5.22818 3.08967 5.31221 3.04349L5.46758 1.93784C5.46913 1.92681 5.47087 1.91581 5.47278 1.90484C5.52543 1.60362 5.68105 1.33004 5.91305 1.13084C6.14504 0.931643 6.43902 0.819198 6.74474 0.812724C6.75179 0.812575 6.75885 0.8125 6.76591 0.8125H9.23324L9.25054 0.81265C9.55059 0.817841 9.83993 0.925085 10.0709 1.11672C10.3018 1.30835 10.4606 1.57293 10.5211 1.86688C10.5253 1.88753 10.5289 1.90831 10.5319 1.92919L10.6869 3.03218C10.7719 3.07891 10.8557 3.12788 10.9381 3.17906L11.9712 2.76317C11.9771 2.76083 11.9829 2.75853 11.9888 2.7563C12.2775 2.64637 12.5957 2.64184 12.8874 2.74351C13.1791 2.84518 13.4255 3.04653 13.5833 3.31209L13.5895 3.32254L14.8218 5.45465C14.8221 5.45519 14.8224 5.45573 14.8227 5.45626C14.9781 5.72439 15.0336 6.03892 14.9792 6.34409C14.9248 6.64987 14.7635 6.92638 14.5242 7.1244C14.5176 7.12987 14.511 7.13526 14.5042 7.14056L13.6234 7.83215C13.625 7.88227 13.6259 7.93332 13.6259 7.98515V7.99103ZM12.7845 7.21934L13.8867 6.35402C13.9435 6.30698 13.9818 6.2413 13.9947 6.16867C14.0077 6.09604 13.9944 6.02118 13.9573 5.95741L12.7237 3.82294C12.6862 3.75982 12.6276 3.71196 12.5583 3.68779C12.4889 3.66363 12.4133 3.6647 12.3447 3.69083L11.0498 4.21205C10.9788 4.24063 10.9018 4.25108 10.8257 4.24247C10.7496 4.23386 10.6769 4.20646 10.614 4.16272C10.4177 4.02551 10.2107 3.90427 9.99502 3.80015C9.92606 3.76733 9.86627 3.71798 9.82098 3.65649C9.7757 3.595 9.7463 3.52327 9.73542 3.44768L9.54158 2.06835C9.52691 1.99701 9.48838 1.9328 9.43233 1.88629C9.37628 1.83979 9.30606 1.81376 9.23324 1.8125H6.76591C6.69187 1.81407 6.62067 1.8413 6.56448 1.88954C6.50829 1.93779 6.4706 2.00405 6.45785 2.077L6.26373 3.45835C6.25333 3.53312 6.22468 3.60417 6.18031 3.66524C6.13594 3.72631 6.07722 3.77552 6.00933 3.80852C5.79337 3.9132 5.58568 4.03411 5.38802 4.17022C5.32495 4.21417 5.25197 4.24179 5.1756 4.2506C5.09923 4.25941 5.02188 4.24914 4.95046 4.2207L3.65535 3.6992C3.5867 3.67309 3.51104 3.67206 3.4417 3.69628C3.37237 3.7205 3.3138 3.76842 3.27634 3.83159L2.04267 5.96606C2.00593 6.02939 1.99264 6.10364 2.00514 6.17578C2.01763 6.24793 2.05512 6.31337 2.11103 6.36065L3.21259 7.22598C3.27284 7.27322 3.32038 7.3347 3.35095 7.40489C3.38151 7.47509 3.39413 7.55178 3.38768 7.62806C3.37701 7.74575 3.37095 7.86401 3.37095 7.98429C3.37095 8.10457 3.37729 8.22456 3.38768 8.34484C3.39493 8.42159 3.38289 8.49894 3.35267 8.56986C3.32245 8.64078 3.27499 8.70304 3.21461 8.75097L2.11248 9.61629C2.05564 9.66333 2.01735 9.72901 2.00441 9.80164C1.99146 9.87426 2.00472 9.94913 2.04181 10.0129L3.27547 12.1474C3.31298 12.2105 3.37156 12.2583 3.4409 12.2825C3.51023 12.3067 3.58587 12.3056 3.65449 12.2795L4.9493 11.7583C5.02034 11.7297 5.09737 11.7192 5.17345 11.7278C5.24954 11.7364 5.32228 11.7639 5.38514 11.8076C5.58145 11.9448 5.78844 12.066 6.00413 12.1702C6.07309 12.203 6.13287 12.2523 6.17816 12.3138C6.22345 12.3753 6.25285 12.447 6.26373 12.5226L6.45756 13.902C6.47224 13.9733 6.51077 14.0375 6.56682 14.084C6.62287 14.1305 6.69309 14.1565 6.76591 14.1578H9.23324C9.30728 14.1562 9.37848 14.129 9.43467 14.0808C9.49086 14.0325 9.52855 13.9663 9.5413 13.8933L9.73542 12.512C9.74582 12.4372 9.77447 12.3661 9.81884 12.3051C9.86321 12.244 9.92193 12.1948 9.98982 12.1618C10.2058 12.0571 10.4135 11.9362 10.6111 11.8001C10.6742 11.7561 10.7472 11.7285 10.8235 11.7197C10.8999 11.7109 10.9773 11.7212 11.0487 11.7496L12.3438 12.2711C12.4124 12.2972 12.4881 12.2982 12.5574 12.274C12.6268 12.2498 12.6853 12.2019 12.7228 12.1387L13.9565 10.0042C13.9935 9.94046 14.0067 9.86561 13.9938 9.793C13.9809 9.72038 13.9426 9.65471 13.8858 9.60764L12.5818 8.58483C12.61 8.38616 12.6247 8.18581 12.6259 7.98515C12.6259 7.86487 12.6195 7.74488 12.61 7.62547C12.6029 7.54859 12.6152 7.47116 12.6457 7.40023C12.6762 7.3293 12.7239 7.26712 12.7845 7.21934ZM8.08198 7.14315C7.90864 7.12619 7.73428 7.16313 7.58271 7.24896C7.43093 7.3349 7.30942 7.46566 7.23482 7.62333C7.16022 7.781 7.13618 7.95788 7.16599 8.12974C7.1958 8.3016 7.278 8.46005 7.40134 8.58339C7.52468 8.70673 7.68313 8.78893 7.85499 8.81874C8.02685 8.84855 8.20372 8.82451 8.3614 8.74991C8.51907 8.67531 8.64983 8.5538 8.73577 8.40202C8.82157 8.25049 8.85852 8.07618 8.84159 7.90289C8.82185 7.70812 8.73546 7.52614 8.59703 7.3877C8.45862 7.2493 8.2767 7.16292 8.08198 7.14315ZM9.83666 7.80372C9.87407 8.18248 9.79349 8.56355 9.60596 8.89474C9.41843 9.22593 9.13311 9.49107 8.78907 9.65384C8.44503 9.81662 8.05909 9.86907 7.68409 9.80403C7.30909 9.73899 6.96336 9.55962 6.69423 9.2905C6.42511 9.02137 6.24574 8.67564 6.1807 8.30064C6.11566 7.92563 6.16811 7.53969 6.33089 7.19566C6.49366 6.85162 6.7588 6.5663 7.08999 6.37877C7.42118 6.19124 7.80225 6.11066 8.181 6.14807C8.6056 6.19071 9.00239 6.37885 9.30413 6.6806C9.60588 6.98234 9.79401 7.37913 9.83666 7.80372Z" fill="#6A7288"/>
</svg>
