<svg width="24" height="24" viewBox="0 0 24 24" fill="none" xmlns="http://www.w3.org/2000/svg">
<path fill-rule="evenodd" clip-rule="evenodd" d="M7.82157 4.57126C7.82165 4.26299 7.88312 3.95781 8.00239 3.67355C8.12166 3.38928 8.29636 3.13161 8.51627 2.91558C8.73619 2.69955 8.99693 2.52947 9.28327 2.41528C9.56962 2.30109 9.87584 2.24507 10.1841 2.25048C11.4563 2.27251 12.4641 3.33751 12.4641 4.6097V5.90626C12.4641 5.93113 12.4739 5.95497 12.4915 5.97255C12.5091 5.99013 12.533 6.00001 12.5578 6.00001H16.1784C16.6616 6.00001 17.1249 6.19193 17.4665 6.53354C17.8081 6.87514 18 7.33847 18 7.82157V11.4422C18 11.4671 18.0099 11.4909 18.0275 11.5085C18.045 11.5261 18.0689 11.5359 18.0938 11.5359H19.3903C20.6625 11.5359 21.75 12.5161 21.75 13.8159C21.75 15.1158 20.7239 16.1784 19.4288 16.1784H18.0938C18.0689 16.1784 18.045 16.1883 18.0275 16.2059C18.0099 16.2235 18 16.2473 18 16.2722V19.9284C18 20.4116 17.8081 20.8749 17.4665 21.2165C17.1249 21.5581 16.6616 21.75 16.1784 21.75H12.8438C12.8189 21.75 12.795 21.7401 12.7775 21.7226C12.7599 21.705 12.75 21.6811 12.75 21.6563V20.3574C12.75 18.9525 11.4891 17.9677 10.0781 18.0005C8.66016 18.0338 7.50001 19.2558 7.50001 20.6752V21.6563C7.50001 21.6811 7.49013 21.705 7.47255 21.7226C7.45497 21.7401 7.43112 21.75 7.40626 21.75H4.10719C3.61509 21.7485 3.14357 21.5524 2.7956 21.2044C2.44763 20.8564 2.25149 20.3849 2.25001 19.8928V16.5938C2.25001 16.5689 2.25988 16.5451 2.27747 16.5275C2.29505 16.5099 2.31889 16.5 2.34376 16.5H3.64266C5.0386 16.5 6.16032 15.2213 6.14063 13.8211C6.12141 12.4444 4.98188 11.25 3.60516 11.25H2.34376C2.31889 11.25 2.29505 11.2401 2.27747 11.2226C2.25988 11.205 2.25001 11.1811 2.25001 11.1563V7.8572C2.25149 7.3651 2.44763 6.89358 2.7956 6.54561C3.14357 6.19764 3.61509 6.0015 4.10719 6.00001H7.72782C7.75268 6.00001 7.77653 5.99013 7.79411 5.97255C7.81169 5.95497 7.82157 5.93113 7.82157 5.90626V4.57126ZM10.113 19.5001C9.53473 19.5138 9.00001 20.0453 9.00001 20.6752V21.6563C9.00001 22.0789 8.8321 22.4843 8.53321 22.7832C8.23432 23.0821 7.82894 23.25 7.40626 23.25H4.10267C3.21431 23.2473 2.36311 22.8932 1.73494 22.2651C1.10678 21.6369 0.752692 20.7857 0.750014 19.8973L0.75 19.8928L0.750007 16.5938C0.750007 16.1711 0.917916 15.7657 1.21681 15.4668C1.51569 15.1679 1.92107 15 2.34376 15H3.64266C4.09699 15 4.65024 14.5146 4.64078 13.8422C4.63225 13.2314 4.10839 12.75 3.60516 12.75H2.34376C1.92107 12.75 1.51569 12.5821 1.21681 12.2832C0.917916 11.9843 0.750007 11.5789 0.750007 11.1563V7.85268C0.752685 6.96432 1.10678 6.11311 1.73494 5.48495C2.36311 4.85678 3.21432 4.5027 4.10267 4.50002L4.10719 4.5L6.32224 4.50001C6.33133 4.01672 6.43202 3.53931 6.61921 3.09318C6.81555 2.62526 7.1031 2.20112 7.4651 1.84551C7.8271 1.48991 8.2563 1.20995 8.72764 1.02198C9.19887 0.834063 9.7028 0.741844 10.21 0.750705M10.113 19.5001C10.4661 19.4919 10.7721 19.6131 10.9719 19.7829C11.1591 19.9419 11.25 20.1342 11.25 20.3574V21.6563C11.25 22.0789 11.4179 22.4843 11.7168 22.7832C12.0157 23.0821 12.4211 23.25 12.8438 23.25H16.1784C17.0594 23.25 17.9042 22.9001 18.5271 22.2771C19.1501 21.6542 19.5 20.8094 19.5 19.9284V17.6778C21.6212 17.6394 23.25 15.8884 23.25 13.8159C23.25 11.6499 21.4771 10.0932 19.5 10.0375V7.82157C19.5 6.94064 19.1501 6.09579 18.5271 5.47287C17.9042 4.84996 17.0594 4.50001 16.1784 4.50001H13.9625C13.9058 2.4899 12.2949 0.787011 10.21 0.750705" fill="white"/>
</svg>
