<svg width="32" height="32" viewBox="0 0 32 32" fill="none" xmlns="http://www.w3.org/2000/svg">
<path fill-rule="evenodd" clip-rule="evenodd" d="M6 6C4.89543 6 4 6.89543 4 8V26C4 27.1046 4.89543 28 6 28H26C27.1046 28 28 27.1046 28 26V8C28 6.89543 27.1046 6 26 6H6ZM2 8C2 5.79086 3.79086 4 6 4H26C28.2091 4 30 5.79086 30 8V26C30 28.2091 28.2091 30 26 30H6C3.79086 30 2 28.2091 2 26V8Z" fill="black"/>
<path d="M18.5 16C19.3284 16 20 15.3284 20 14.5C20 13.6716 19.3284 13 18.5 13C17.6716 13 17 13.6716 17 14.5C17 15.3284 17.6716 16 18.5 16Z" fill="black"/>
<path d="M23.5 16C24.3284 16 25 15.3284 25 14.5C25 13.6716 24.3284 13 23.5 13C22.6716 13 22 13.6716 22 14.5C22 15.3284 22.6716 16 23.5 16Z" fill="black"/>
<path d="M18.5 21C19.3284 21 20 20.3284 20 19.5C20 18.6716 19.3284 18 18.5 18C17.6716 18 17 18.6716 17 19.5C17 20.3284 17.6716 21 18.5 21Z" fill="black"/>
<path d="M23.5 21C24.3284 21 25 20.3284 25 19.5C25 18.6716 24.3284 18 23.5 18C22.6716 18 22 18.6716 22 19.5C22 20.3284 22.6716 21 23.5 21Z" fill="black"/>
<path d="M8.5 21C9.32843 21 10 20.3284 10 19.5C10 18.6716 9.32843 18 8.5 18C7.67157 18 7 18.6716 7 19.5C7 20.3284 7.67157 21 8.5 21Z" fill="black"/>
<path d="M13.5 21C14.3284 21 15 20.3284 15 19.5C15 18.6716 14.3284 18 13.5 18C12.6716 18 12 18.6716 12 19.5C12 20.3284 12.6716 21 13.5 21Z" fill="black"/>
<path d="M8.5 26C9.32843 26 10 25.3284 10 24.5C10 23.6716 9.32843 23 8.5 23C7.67157 23 7 23.6716 7 24.5C7 25.3284 7.67157 26 8.5 26Z" fill="black"/>
<path d="M13.5 26C14.3284 26 15 25.3284 15 24.5C15 23.6716 14.3284 23 13.5 23C12.6716 23 12 23.6716 12 24.5C12 25.3284 12.6716 26 13.5 26Z" fill="black"/>
<path d="M18.5 26C19.3284 26 20 25.3284 20 24.5C20 23.6716 19.3284 23 18.5 23C17.6716 23 17 23.6716 17 24.5C17 25.3284 17.6716 26 18.5 26Z" fill="black"/>
<path fill-rule="evenodd" clip-rule="evenodd" d="M8 2C8.55228 2 9 2.44772 9 3V5C9 5.55228 8.55228 6 8 6C7.44772 6 7 5.55228 7 5V3C7 2.44772 7.44772 2 8 2Z" fill="black"/>
<path fill-rule="evenodd" clip-rule="evenodd" d="M24 2C24.5523 2 25 2.44772 25 3V5C25 5.55228 24.5523 6 24 6C23.4477 6 23 5.55228 23 5V3C23 2.44772 23.4477 2 24 2Z" fill="black"/>
<path fill-rule="evenodd" clip-rule="evenodd" d="M3 9H29V11H3V9Z" fill="black"/>
</svg>
