<svg width="24" height="24" viewBox="0 0 24 24" fill="none" xmlns="http://www.w3.org/2000/svg">
<path fill-rule="evenodd" clip-rule="evenodd" d="M20.4389 11.9865H20.4388C20.4384 12.0565 20.4371 12.1264 20.4349 12.1962L21.7545 13.2312C21.7651 13.2395 21.7756 13.248 21.786 13.2566C22.1444 13.5537 22.3858 13.9681 22.4675 14.4264C22.549 14.8839 22.4659 15.3556 22.233 15.7577C22.2327 15.7583 22.2323 15.7589 22.232 15.7595L20.3829 18.9587L20.3744 18.9732C20.138 19.3719 19.7684 19.6743 19.3309 19.8271C18.8933 19.98 18.4158 19.9735 17.9826 19.8087C17.9735 19.8053 17.9645 19.8017 17.9554 19.7981L16.4032 19.1731C16.2808 19.2485 16.1565 19.321 16.0304 19.3902L15.7974 21.0487C15.7951 21.0652 15.7925 21.0817 15.7896 21.0982C15.7106 21.55 15.4772 21.9604 15.1292 22.2592C14.7812 22.558 14.3402 22.7267 13.8816 22.7364C13.8711 22.7366 13.8605 22.7367 13.8499 22.7367H10.1489L10.1229 22.7365C9.67286 22.7287 9.23885 22.5678 8.89243 22.2804C8.54601 21.9929 8.30783 21.5961 8.21714 21.1551C8.21076 21.1242 8.20537 21.093 8.20097 21.0617L7.96847 19.4072C7.84093 19.3371 7.71528 19.2636 7.59164 19.1869L6.04189 19.8107C6.03315 19.8142 6.02438 19.8177 6.01557 19.821C5.58254 19.9859 5.10522 19.9927 4.66768 19.8402C4.23013 19.6877 3.86045 19.3857 3.62374 18.9873L3.61455 18.9717L1.7661 15.7735C1.76568 15.7728 1.76527 15.772 1.76485 15.7713C1.53158 15.3691 1.44832 14.8972 1.5299 14.4393C1.61162 13.9807 1.85347 13.5659 2.21238 13.2689C2.2223 13.2607 2.23232 13.2526 2.24244 13.2446L3.56044 12.2098C3.55786 12.1331 3.55645 12.0553 3.55645 11.9764C3.55645 11.9026 3.55764 11.8296 3.5599 11.7574L2.23997 10.7205C2.2258 10.7094 2.21182 10.698 2.19805 10.6864C1.84521 10.388 1.60863 9.97502 1.52975 9.51973C1.45098 9.06505 1.53451 8.59716 1.76572 8.19785C1.76603 8.19732 1.76634 8.19679 1.76665 8.19625L3.61585 4.99678L3.62437 4.98224C3.86079 4.58358 4.23036 4.28118 4.66792 4.12833C5.10549 3.97548 5.58297 3.982 6.0162 4.14674C6.02528 4.15019 6.03433 4.15374 6.04335 4.15737L7.59558 4.78241C7.718 4.70692 7.8423 4.6345 7.96834 4.56524L8.20141 2.90676C8.20373 2.89022 8.20633 2.87372 8.20921 2.85726C8.28817 2.40544 8.5216 1.99506 8.8696 1.69626C9.2176 1.39746 9.65856 1.2288 10.1171 1.21909C10.1277 1.21886 10.1383 1.21875 10.1489 1.21875H13.8499L13.8758 1.21897C14.3259 1.22676 14.7599 1.38763 15.1064 1.67507C15.4528 1.96252 15.691 2.3594 15.7817 2.80032C15.788 2.83129 15.7934 2.86246 15.7978 2.89378L16.0303 4.54827C16.1579 4.61836 16.2835 4.69183 16.4071 4.76859L17.9569 4.14476C17.9656 4.14124 17.9744 4.1378 17.9832 4.13445C18.4162 3.96955 18.8936 3.96276 19.3311 4.11526C19.7687 4.26777 20.1383 4.5698 20.375 4.96813L20.3842 4.9838L22.2327 8.18197C22.2332 8.18278 22.2336 8.18359 22.2341 8.1844C22.4672 8.58658 22.5505 9.05839 22.4689 9.51614C22.3872 9.9748 22.1453 10.3896 21.7864 10.6866C21.7765 10.6948 21.7665 10.7029 21.7564 10.7108L20.4351 11.7482C20.4375 11.8234 20.4389 11.9 20.4389 11.9777V11.9865ZM19.1768 10.829L20.83 9.53102C20.9153 9.46047 20.9727 9.36195 20.9921 9.25301C21.0116 9.14407 20.9917 9.03177 20.936 8.93611L19.0855 5.73441C19.0293 5.63973 18.9414 5.56794 18.8374 5.53169C18.7334 5.49544 18.62 5.49706 18.517 5.53625L16.5748 6.31807C16.4682 6.36094 16.3527 6.37662 16.2386 6.36371C16.1244 6.35079 16.0153 6.30968 15.921 6.24409C15.6266 6.03827 15.3161 5.8564 14.9926 5.70023C14.8891 5.651 14.7994 5.57697 14.7315 5.48474C14.6636 5.3925 14.6195 5.2849 14.6032 5.17151L14.3124 3.10252C14.2904 2.99552 14.2326 2.8992 14.1485 2.82944C14.0644 2.75968 13.9591 2.72064 13.8499 2.71875H10.1489C10.0378 2.7211 9.93103 2.76195 9.84675 2.83432C9.76247 2.90668 9.70594 3.00607 9.68681 3.1155L9.39563 5.18752C9.38003 5.29967 9.33705 5.40626 9.2705 5.49786C9.20394 5.58947 9.11586 5.66328 9.01402 5.71278C8.69009 5.8698 8.37855 6.05117 8.08207 6.25533C7.98746 6.32126 7.87798 6.36269 7.76343 6.3759C7.64888 6.38912 7.53284 6.3737 7.42571 6.33105L5.48306 5.5488C5.38008 5.50964 5.26659 5.50809 5.16259 5.54442C5.05858 5.58075 4.97074 5.65263 4.91454 5.74739L3.06404 8.94909C3.00892 9.04409 2.98898 9.15545 3.00773 9.26367C3.02648 9.37189 3.08272 9.47006 3.16658 9.54098L4.81892 10.839C4.90929 10.9098 4.98061 11.0021 5.02645 11.1073C5.0723 11.2126 5.09123 11.3277 5.08155 11.4421C5.06554 11.6186 5.05645 11.796 5.05645 11.9764C5.05645 12.1569 5.06597 12.3368 5.08155 12.5173C5.09242 12.6324 5.07437 12.7484 5.02904 12.8548C4.98371 12.9612 4.91252 13.0546 4.82195 13.1265L3.16875 14.4244C3.0835 14.495 3.02605 14.5935 3.00664 14.7025C2.98723 14.8114 3.00711 14.9237 3.06274 15.0194L4.91324 18.2211C4.96951 18.3157 5.05738 18.3875 5.16138 18.4238C5.26538 18.46 5.37883 18.4584 5.48176 18.4192L7.42399 17.6374C7.53054 17.5945 7.64609 17.5788 7.76021 17.5918C7.87434 17.6047 7.98346 17.6458 8.07774 17.7114C8.3722 17.9172 8.68269 18.0991 9.00623 18.2552C9.10967 18.3045 9.19934 18.3785 9.26728 18.4707C9.33521 18.563 9.3793 18.6706 9.39563 18.7839L9.68638 20.8529C9.70839 20.9599 9.76619 21.0563 9.85026 21.126C9.93434 21.1958 10.0397 21.2348 10.1489 21.2367H13.8499C13.961 21.2344 14.0678 21.1935 14.152 21.1211C14.2363 21.0488 14.2929 20.9494 14.312 20.84L14.6032 18.7679C14.6188 18.6558 14.6617 18.5492 14.7283 18.4576C14.7948 18.366 14.8829 18.2922 14.9848 18.2427C15.3087 18.0857 15.6202 17.9043 15.9167 17.7001C16.0113 17.6342 16.1208 17.5928 16.2354 17.5796C16.3499 17.5663 16.4659 17.5818 16.5731 17.6244L18.5157 18.4067C18.6187 18.4458 18.7322 18.4474 18.8362 18.411C18.9402 18.3747 19.028 18.3028 19.0842 18.2081L20.9347 15.0064C20.9903 14.9107 21.0101 14.7984 20.9907 14.6895C20.9713 14.5806 20.9139 14.4821 20.8287 14.4115L18.8727 12.8772C18.915 12.5792 18.9371 12.2787 18.9389 11.9777C18.9389 11.7973 18.9294 11.6173 18.9151 11.4382C18.9045 11.3229 18.9228 11.2067 18.9686 11.1003C19.0143 10.994 19.0859 10.9007 19.1768 10.829ZM12.123 10.7147C11.863 10.6893 11.6015 10.7447 11.3741 10.8734C11.1464 11.0024 10.9642 11.1985 10.8523 11.435C10.7404 11.6715 10.7043 11.9368 10.749 12.1946C10.7937 12.4524 10.917 12.6901 11.102 12.8751C11.287 13.0601 11.5247 13.1834 11.7825 13.2281C12.0403 13.2728 12.3056 13.2368 12.5421 13.1249C12.7786 13.013 12.9748 12.8307 13.1037 12.603C13.2324 12.3757 13.2878 12.1143 13.2624 11.8543C13.2328 11.5622 13.1032 11.2892 12.8956 11.0816C12.688 10.8739 12.4151 10.7444 12.123 10.7147ZM14.755 11.7056C14.8111 12.2737 14.6903 12.8453 14.409 13.3421C14.1277 13.8389 13.6997 14.2366 13.1836 14.4808C12.6676 14.7249 12.0887 14.8036 11.5262 14.706C10.9637 14.6085 10.4451 14.3394 10.0414 13.9357C9.63769 13.5321 9.36865 13.0135 9.27108 12.451C9.17352 11.8885 9.2522 11.3095 9.49636 10.7935C9.74052 10.2774 10.1382 9.84945 10.635 9.56816C11.1318 9.28686 11.7034 9.16599 12.2715 9.2221C12.9084 9.28607 13.5036 9.56828 13.9562 10.0209C14.4088 10.4735 14.6911 11.0687 14.755 11.7056Z" fill="#6A7288"/>
</svg>
