<svg width="32" height="32" viewBox="0 0 32 32" fill="none" xmlns="http://www.w3.org/2000/svg">
<circle cx="16" cy="16" r="13" fill="white"/>
<path fill-rule="evenodd" clip-rule="evenodd" d="M10.2195 10.2197C10.5124 9.92678 10.9873 9.92678 11.2802 10.2197L21.7802 20.7197C22.0731 21.0126 22.0731 21.4874 21.7802 21.7803C21.4873 22.0732 21.0124 22.0732 20.7196 21.7803L10.2195 11.2803C9.92665 10.9874 9.92665 10.5126 10.2195 10.2197Z" fill="#ED3D3D"/>
<path fill-rule="evenodd" clip-rule="evenodd" d="M21.7802 10.2197C22.0731 10.5126 22.0731 10.9874 21.7802 11.2803L11.2802 21.7803C10.9873 22.0732 10.5124 22.0732 10.2195 21.7803C9.92665 21.4874 9.92665 21.0126 10.2195 20.7197L20.7196 10.2197C21.0124 9.92678 21.4873 9.92678 21.7802 10.2197Z" fill="#ED3D3D"/>
</svg>
