<svg width="32" height="32" viewBox="0 0 32 32" fill="none" xmlns="http://www.w3.org/2000/svg">
<path d="M8 15.4756V24H16.5244L14.7467 22.2223H9.77778V17.2534L8 15.4756Z" fill="#061438"/>
<path d="M30.9955 28.7022L28.4444 26.1156V28.4445H3.5555V24.7556H5.33328V23.3333H3.5555V17.4222H5.33328V16H3.5555V10.3111H5.33328V8.8889H3.5555V3.92001L17.7244 18.0089V15.5022L3.29773 1.14668C3.1734 1.02132 3.01455 0.935822 2.84144 0.901094C2.66833 0.866365 2.4888 0.883975 2.32574 0.951679C2.16268 1.01938 2.02348 1.13411 1.92587 1.28124C1.82827 1.42837 1.7767 1.60123 1.77772 1.77779V29.3333C1.77772 29.5691 1.87138 29.7952 2.03807 29.9619C2.20477 30.1286 2.43087 30.2222 2.66661 30.2222H30.3644C30.5409 30.2233 30.7138 30.1717 30.8609 30.0741C31.0081 29.9765 31.1228 29.8373 31.1905 29.6742C31.2582 29.5112 31.2758 29.3316 31.2411 29.1585C31.2064 28.9854 31.1209 28.8266 30.9955 28.7022Z" fill="#061438"/>
<path d="M21.3333 26.6667H24.8889C25.3604 26.6667 25.8126 26.4794 26.146 26.146C26.4794 25.8126 26.6667 25.3604 26.6667 24.8889V7.73335L24.6222 3.97335C24.4641 3.69941 24.2358 3.47262 23.9607 3.31637C23.6857 3.16011 23.374 3.08006 23.0578 3.08446C22.7343 3.08703 22.4177 3.17778 22.1421 3.34694C21.8664 3.51611 21.6421 3.75727 21.4933 4.04446L19.5555 7.75113V24.8889C19.5555 25.3604 19.7428 25.8126 20.0762 26.146C20.4096 26.4794 20.8618 26.6667 21.3333 26.6667ZM21.3333 8.17779L23.0578 4.82668L24.8889 8.18668V21.3334H21.3333V8.17779ZM21.3333 22.7822H24.8889V24.9511H21.3333V22.7822Z" fill="#061438"/>
</svg>
