<svg width="24" height="24" viewBox="0 0 24 24" fill="none" xmlns="http://www.w3.org/2000/svg">
<path fill-rule="evenodd" clip-rule="evenodd" d="M4.35 3.75C4.01863 3.75 3.75 4.01863 3.75 4.35V19.65C3.75 19.9814 4.01863 20.25 4.35 20.25H19.65C19.9814 20.25 20.25 19.9814 20.25 19.65V4.35C20.25 4.01863 19.9814 3.75 19.65 3.75H4.35ZM2.25 4.35C2.25 3.1902 3.1902 2.25 4.35 2.25H19.65C20.8098 2.25 21.75 3.1902 21.75 4.35V19.65C21.75 20.8098 20.8098 21.75 19.65 21.75H4.35C3.1902 21.75 2.25 20.8098 2.25 19.65V4.35Z" fill="#6A7288"/>
<path fill-rule="evenodd" clip-rule="evenodd" d="M2.25 8.99988C2.25 8.58566 2.58579 8.24988 3 8.24988H21C21.4142 8.24988 21.75 8.58566 21.75 8.99988C21.75 9.41409 21.4142 9.74988 21 9.74988H3C2.58579 9.74988 2.25 9.41409 2.25 8.99988Z" fill="#6A7288"/>
<path fill-rule="evenodd" clip-rule="evenodd" d="M8.99963 8.24988C9.41385 8.24988 9.74963 8.58566 9.74963 8.99988V21C9.74963 21.4142 9.41385 21.75 8.99963 21.75C8.58542 21.75 8.24963 21.4142 8.24963 21V8.99988C8.24963 8.58566 8.58542 8.24988 8.99963 8.24988Z" fill="#6A7288"/>
</svg>
