<svg width="10" height="10" viewBox="0 0 10 10" fill="none" xmlns="http://www.w3.org/2000/svg">
<path d="M5.80208 1.04297C5.96543 1.04296 6.12595 1.08562 6.26774 1.16675C6.40952 1.24787 6.52765 1.36464 6.61041 1.50547L6.94958 2.08339H7.8125C7.99033 2.08339 8.16642 2.11841 8.33071 2.18647C8.49501 2.25452 8.64429 2.35427 8.77004 2.48001C8.89578 2.60576 8.99553 2.75504 9.06358 2.91933C9.13164 3.08363 9.16666 3.25972 9.16666 3.43755V7.39588C9.16666 7.57372 9.13164 7.74981 9.06358 7.9141C8.99553 8.0784 8.89578 8.22768 8.77004 8.35343C8.64429 8.47917 8.49501 8.57892 8.33071 8.64697C8.16642 8.71503 7.99033 8.75005 7.8125 8.75005H2.18749C1.82835 8.75005 1.48391 8.60738 1.22995 8.35343C0.975999 8.09947 0.833328 7.75503 0.833328 7.39588V3.43755C0.833328 3.0784 0.975999 2.73397 1.22995 2.48001C1.48391 2.22606 1.82835 2.08339 2.18749 2.08339H3.05416L3.41875 1.49005C3.50257 1.35348 3.62001 1.24067 3.75985 1.1624C3.89968 1.08413 4.05725 1.04301 4.21749 1.04297H5.80208ZM5.80208 1.66797H4.21749C4.1719 1.66801 4.12686 1.67802 4.08554 1.69731C4.04423 1.7166 4.00763 1.7447 3.97833 1.77964L3.95124 1.81714L3.49583 2.5588C3.4679 2.60435 3.42876 2.64198 3.38215 2.6681C3.33554 2.69421 3.28301 2.70794 3.22958 2.70797H2.18791C2.09209 2.70791 1.99719 2.72675 1.90865 2.76339C1.82011 2.80004 1.73966 2.85378 1.6719 2.92154C1.60414 2.9893 1.5504 3.06975 1.51375 3.15829C1.47711 3.24683 1.45827 3.34173 1.45833 3.43755V7.39588C1.45833 7.79838 1.78499 8.12505 2.18749 8.12505H7.8125C8.00588 8.12505 8.19135 8.04823 8.32809 7.91148C8.46484 7.77474 8.54166 7.58927 8.54166 7.39588V3.43755C8.54166 3.24416 8.46484 3.0587 8.32809 2.92195C8.19135 2.78521 8.00588 2.70839 7.8125 2.70839H6.77083C6.71635 2.70841 6.66282 2.6942 6.61553 2.66716C6.56824 2.64012 6.52885 2.60118 6.50125 2.55422L6.07125 1.82214C6.04368 1.77523 6.00435 1.73634 5.95714 1.7093C5.90993 1.68226 5.85648 1.66801 5.80208 1.66797V1.66797ZM5 3.33339C5.49728 3.33339 5.97419 3.53093 6.32582 3.88256C6.67745 4.23419 6.875 4.7111 6.875 5.20838C6.875 5.70567 6.67745 6.18258 6.32582 6.53421C5.97419 6.88584 5.49728 7.08338 5 7.08338C4.50271 7.08338 4.0258 6.88584 3.67417 6.53421C3.32254 6.18258 3.125 5.70567 3.125 5.20838C3.125 4.7111 3.32254 4.23419 3.67417 3.88256C4.0258 3.53093 4.50271 3.33339 5 3.33339V3.33339ZM5 3.95839C4.83584 3.95839 4.6733 3.99072 4.52164 4.05354C4.36998 4.11635 4.23218 4.20843 4.11611 4.3245C4.00004 4.44057 3.90796 4.57837 3.84515 4.73003C3.78233 4.88169 3.75 5.04423 3.75 5.20838C3.75 5.37254 3.78233 5.53508 3.84515 5.68674C3.90796 5.8384 4.00004 5.9762 4.11611 6.09227C4.23218 6.20834 4.36998 6.30042 4.52164 6.36323C4.6733 6.42605 4.83584 6.45838 5 6.45838C5.33152 6.45838 5.64946 6.32669 5.88388 6.09227C6.1183 5.85785 6.25 5.53991 6.25 5.20838C6.25 4.87686 6.1183 4.55892 5.88388 4.3245C5.64946 4.09008 5.33152 3.95839 5 3.95839V3.95839Z" fill="#061438"/>
</svg>
