<svg width="16" height="16" viewBox="0 0 16 16" fill="none" xmlns="http://www.w3.org/2000/svg">
<path d="M5.01875 4.47781C4.92524 4.38408 4.87273 4.25709 4.87273 4.12469C4.87273 3.99229 4.92524 3.8653 5.01875 3.77156L7.64375 1.14656C7.73855 1.05267 7.86658 1 8 1C8.13342 1 8.26145 1.05267 8.35625 1.14656L10.9812 3.77156C11.0748 3.8653 11.1273 3.99229 11.1273 4.12469C11.1273 4.25709 11.0748 4.38408 10.9812 4.47781C10.9347 4.52505 10.8793 4.56257 10.8181 4.58818C10.7569 4.61379 10.6913 4.62698 10.625 4.62698C10.5587 4.62698 10.4931 4.61379 10.4319 4.58818C10.3707 4.56257 10.3153 4.52505 10.2688 4.47781L8.5 2.70906V8.50281C8.5 8.63542 8.44732 8.7626 8.35355 8.85637C8.25979 8.95013 8.13261 9.00281 8 9.00281C7.86739 9.00281 7.74021 8.95013 7.64645 8.85637C7.55268 8.7626 7.5 8.63542 7.5 8.50281V2.70906L5.73125 4.47781C5.68473 4.52505 5.62927 4.56257 5.56811 4.58818C5.50695 4.61379 5.44131 4.62698 5.375 4.62698C5.30869 4.62698 5.24305 4.61379 5.18189 4.58818C5.12073 4.56257 5.06527 4.52505 5.01875 4.47781ZM12.5 6.00281H11C10.8674 6.00281 10.7402 6.05549 10.6464 6.14926C10.5527 6.24303 10.5 6.3702 10.5 6.50281C10.5 6.63542 10.5527 6.7626 10.6464 6.85637C10.7402 6.95013 10.8674 7.00281 11 7.00281H12.5V13.5028H3.5V7.00281H5C5.13261 7.00281 5.25979 6.95013 5.35355 6.85637C5.44732 6.7626 5.5 6.63542 5.5 6.50281C5.5 6.3702 5.44732 6.24303 5.35355 6.14926C5.25979 6.05549 5.13261 6.00281 5 6.00281H3.5C3.23478 6.00281 2.98043 6.10817 2.79289 6.29571C2.60536 6.48324 2.5 6.7376 2.5 7.00281V13.5028C2.5 13.768 2.60536 14.0224 2.79289 14.2099C2.98043 14.3975 3.23478 14.5028 3.5 14.5028H12.5C12.7652 14.5028 13.0196 14.3975 13.2071 14.2099C13.3946 14.0224 13.5 13.768 13.5 13.5028V7.00281C13.5 6.7376 13.3946 6.48324 13.2071 6.29571C13.0196 6.10817 12.7652 6.00281 12.5 6.00281Z" fill="#6A7288"/>
</svg>
