<svg width="10" height="10" viewBox="0 0 10 10" fill="none" xmlns="http://www.w3.org/2000/svg">
<path d="M1.68706 2.2092L3.27247 3.6042L4.68497 1.86503C4.72453 1.81641 4.77454 1.77734 4.83128 1.75073C4.88803 1.72411 4.95005 1.71065 5.01272 1.71133C5.0754 1.71201 5.13711 1.72682 5.19326 1.75466C5.24942 1.7825 5.29857 1.82265 5.33706 1.87211L6.68497 3.60378L8.32164 2.18878C8.38591 2.13333 8.46559 2.09883 8.55001 2.0899C8.63443 2.08097 8.71956 2.09804 8.79401 2.13882C8.86846 2.1796 8.92868 2.24215 8.9666 2.3181C9.00453 2.39404 9.01835 2.47976 9.00622 2.56378L8.38122 6.87503H1.63414L0.999557 2.58336C0.986952 2.49888 1.00062 2.41256 1.0387 2.3361C1.07679 2.25964 1.13745 2.19673 1.21248 2.1559C1.28751 2.11507 1.37328 2.09828 1.45816 2.10781C1.54305 2.11735 1.62296 2.15274 1.68706 2.2092ZM1.66664 7.3363H8.33331V7.70836C8.33331 7.81887 8.28941 7.92485 8.21127 8.00299C8.13313 8.08113 8.02715 8.12503 7.91664 8.12503H2.08331C1.9728 8.12503 1.86682 8.08113 1.78868 8.00299C1.71054 7.92485 1.66664 7.81887 1.66664 7.70836V7.3363Z" fill="white"/>
</svg>
