<svg width="28" height="28" viewBox="0 0 28 28" fill="none" xmlns="http://www.w3.org/2000/svg">
<path fill-rule="evenodd" clip-rule="evenodd" d="M2.5 0H19.5029C20.1646 0.00192571 20.7986 0.265628 21.2665 0.733508C21.7344 1.20139 21.9981 1.83542 22 2.4971L22 2.5L22 23.9912H20V2.50192C19.9994 2.36902 19.9463 2.24172 19.8523 2.14772C19.7583 2.05374 19.631 2.00067 19.4982 2H2.50184C2.36896 2.00067 2.2417 2.05374 2.14772 2.14772C2.05374 2.2417 2.00067 2.36896 2 2.50184V24.4983C2.00153 24.8961 2.16023 25.2772 2.44153 25.5585C2.72287 25.8398 3.10401 25.9985 3.50185 26H24V28H3.5L3.49701 28C2.5704 27.9972 1.68253 27.6279 1.02731 26.9727C0.372095 26.3175 0.00277185 25.4296 4.47035e-06 24.503L0 24.5V2.4971C0.00192147 1.83542 0.265629 1.20139 0.733508 0.733508C1.20139 0.265629 1.83542 0.00192571 2.4971 4.23193e-06L2.5 0Z" fill="#061438"/>
<path fill-rule="evenodd" clip-rule="evenodd" d="M20 6C20 5.44772 20.4477 5 21 5H25.5C26.163 5 26.7989 5.26339 27.2678 5.73223C27.7366 6.20107 28 6.83696 28 7.5V24C28 25.0609 27.5786 26.0783 26.8284 26.8284C26.0783 27.5786 25.0609 28 24 28C22.9391 28 21.9217 27.5786 21.1716 26.8284C20.4214 26.0783 20 25.0609 20 24V6ZM22 7V24C22 24.5304 22.2107 25.0391 22.5858 25.4142C22.9609 25.7893 23.4696 26 24 26C24.5304 26 25.0391 25.7893 25.4142 25.4142C25.7893 25.0391 26 24.5304 26 24V7.5C26 7.36739 25.9473 7.24022 25.8536 7.14645C25.7598 7.05268 25.6326 7 25.5 7H22Z" fill="#061438"/>
<path fill-rule="evenodd" clip-rule="evenodd" d="M12 6C12 5.44772 12.4477 5 13 5H17C17.5523 5 18 5.44772 18 6C18 6.55228 17.5523 7 17 7H13C12.4477 7 12 6.55228 12 6Z" fill="#061438"/>
<path fill-rule="evenodd" clip-rule="evenodd" d="M12 10C12 9.44772 12.4477 9 13 9H17C17.5523 9 18 9.44772 18 10C18 10.5523 17.5523 11 17 11H13C12.4477 11 12 10.5523 12 10Z" fill="#061438"/>
<path fill-rule="evenodd" clip-rule="evenodd" d="M4 14C4 13.4477 4.44772 13 5 13H17C17.5523 13 18 13.4477 18 14C18 14.5523 17.5523 15 17 15H5C4.44772 15 4 14.5523 4 14Z" fill="#061438"/>
<path fill-rule="evenodd" clip-rule="evenodd" d="M4 18C4 17.4477 4.44772 17 5 17H17C17.5523 17 18 17.4477 18 18C18 18.5523 17.5523 19 17 19H5C4.44772 19 4 18.5523 4 18Z" fill="#061438"/>
<path fill-rule="evenodd" clip-rule="evenodd" d="M4 22C4 21.4477 4.44772 21 5 21H17C17.5523 21 18 21.4477 18 22C18 22.5523 17.5523 23 17 23H5C4.44772 23 4 22.5523 4 22Z" fill="#061438"/>
<path d="M9 11H5C4.73478 11 4.48043 10.8946 4.29289 10.7071C4.10536 10.5196 4 10.2652 4 10V6C4 5.73478 4.10536 5.48043 4.29289 5.29289C4.48043 5.10536 4.73478 5 5 5H9C9.26522 5 9.51957 5.10536 9.70711 5.29289C9.89464 5.48043 10 5.73478 10 6V10C10 10.2652 9.89464 10.5196 9.70711 10.7071C9.51957 10.8946 9.26522 11 9 11Z" fill="#061438"/>
</svg>
