<svg width="24" height="24" viewBox="0 0 24 24" fill="none" xmlns="http://www.w3.org/2000/svg">
<path d="M12 2.25C10.0716 2.25 8.18657 2.82183 6.58319 3.89317C4.97982 4.96451 3.73013 6.48726 2.99218 8.26884C2.25422 10.0504 2.06114 12.0108 2.43735 13.9021C2.81355 15.7934 3.74215 17.5307 5.10571 18.8943C6.46928 20.2579 8.20656 21.1865 10.0979 21.5627C11.9892 21.9389 13.9496 21.7458 15.7312 21.0078C17.5127 20.2699 19.0355 19.0202 20.1068 17.4168C21.1782 15.8134 21.75 13.9284 21.75 12C21.7475 9.4149 20.7195 6.93639 18.8916 5.10845C17.0636 3.28051 14.5851 2.25248 12 2.25ZM12 20.25C10.3683 20.25 8.77326 19.7661 7.41655 18.8596C6.05984 17.9531 5.00242 16.6646 4.378 15.1571C3.75358 13.6496 3.5902 11.9908 3.90853 10.3905C4.22685 8.79016 5.01259 7.32015 6.16637 6.16637C7.32016 5.01259 8.79017 4.22685 10.3905 3.90852C11.9909 3.59019 13.6497 3.75357 15.1571 4.37799C16.6646 5.00242 17.9531 6.05984 18.8596 7.41655C19.7661 8.77325 20.25 10.3683 20.25 12C20.2475 14.1873 19.3775 16.2843 17.8309 17.8309C16.2843 19.3775 14.1873 20.2475 12 20.25ZM13.125 16.875C13.125 17.0975 13.059 17.315 12.9354 17.5C12.8118 17.685 12.6361 17.8292 12.4305 17.9144C12.225 17.9995 11.9988 18.0218 11.7805 17.9784C11.5623 17.935 11.3618 17.8278 11.2045 17.6705C11.0472 17.5132 10.94 17.3127 10.8966 17.0945C10.8532 16.8762 10.8755 16.65 10.9606 16.4445C11.0458 16.2389 11.19 16.0632 11.375 15.9396C11.56 15.816 11.7775 15.75 12 15.75C12.2984 15.75 12.5845 15.8685 12.7955 16.0795C13.0065 16.2905 13.125 16.5766 13.125 16.875ZM15.375 10.125C15.375 10.8898 15.1153 11.6318 14.6384 12.2297C14.1615 12.8275 13.4956 13.2457 12.75 13.4156V13.5C12.75 13.6989 12.671 13.8897 12.5303 14.0303C12.3897 14.171 12.1989 14.25 12 14.25C11.8011 14.25 11.6103 14.171 11.4697 14.0303C11.329 13.8897 11.25 13.6989 11.25 13.5V12.75C11.25 12.5511 11.329 12.3603 11.4697 12.2197C11.6103 12.079 11.8011 12 12 12C12.3708 12 12.7334 11.89 13.0417 11.684C13.35 11.478 13.5904 11.1851 13.7323 10.8425C13.8742 10.4999 13.9113 10.1229 13.839 9.75921C13.7666 9.39549 13.5881 9.0614 13.3258 8.79917C13.0636 8.53695 12.7295 8.35837 12.3658 8.28603C12.0021 8.21368 11.6251 8.25081 11.2825 8.39273C10.9399 8.53464 10.647 8.77496 10.441 9.08331C10.235 9.39165 10.125 9.75416 10.125 10.125C10.125 10.3239 10.046 10.5147 9.90533 10.6553C9.76468 10.796 9.57392 10.875 9.375 10.875C9.17609 10.875 8.98533 10.796 8.84467 10.6553C8.70402 10.5147 8.625 10.3239 8.625 10.125C8.625 9.22989 8.98058 8.37145 9.61352 7.73851C10.2465 7.10558 11.1049 6.75 12 6.75C12.8951 6.75 13.7536 7.10558 14.3865 7.73851C15.0194 8.37145 15.375 9.22989 15.375 10.125Z" fill="#061438"/>
</svg>
