<svg width="24" height="24" viewBox="0 0 24 24" fill="none" xmlns="http://www.w3.org/2000/svg">
<path d="M7.40625 9.42854C7.5803 9.42854 7.74722 9.36081 7.87029 9.24025C7.99336 9.11969 8.0625 8.95618 8.0625 8.78568C8.0625 8.61518 7.99336 8.45167 7.87029 8.33111C7.74722 8.21055 7.5803 8.14282 7.40625 8.14282C7.2322 8.14282 7.06528 8.21055 6.94221 8.33111C6.81914 8.45167 6.75 8.61518 6.75 8.78568C6.75 8.95618 6.81914 9.11969 6.94221 9.24025C7.06528 9.36081 7.2322 9.42854 7.40625 9.42854ZM9.375 9.42854C9.54905 9.42854 9.71597 9.36081 9.83904 9.24025C9.96211 9.11969 10.0313 8.95618 10.0313 8.78568C10.0313 8.61518 9.96211 8.45167 9.83904 8.33111C9.71597 8.21055 9.54905 8.14282 9.375 8.14282C9.20095 8.14282 9.03403 8.21055 8.91096 8.33111C8.78789 8.45167 8.71875 8.61518 8.71875 8.78568C8.71875 8.95618 8.78789 9.11969 8.91096 9.24025C9.03403 9.36081 9.20095 9.42854 9.375 9.42854ZM12 8.78568C12 8.95618 11.9309 9.11969 11.8078 9.24025C11.6847 9.36081 11.5178 9.42854 11.3438 9.42854C11.1697 9.42854 11.0028 9.36081 10.8797 9.24025C10.7566 9.11969 10.6875 8.95618 10.6875 8.78568C10.6875 8.61518 10.7566 8.45167 10.8797 8.33111C11.0028 8.21055 11.1697 8.14282 11.3438 8.14282C11.5178 8.14282 11.6847 8.21055 11.8078 8.33111C11.9309 8.45167 12 8.61518 12 8.78568Z" fill="#6A7288"/>
<path d="M17.25 3C17.9462 3 18.6139 3.27092 19.1062 3.75315C19.5984 4.23539 19.875 4.88944 19.875 5.57143C20.5712 5.57143 21.2389 5.84235 21.7312 6.32458C22.2234 6.80682 22.5 7.46087 22.5 8.14286V18.4286C22.5 19.1106 22.2234 19.7646 21.7312 20.2468C21.2389 20.7291 20.5712 21 19.875 21H6.75C6.05381 21 5.38613 20.7291 4.89384 20.2468C4.40156 19.7646 4.125 19.1106 4.125 18.4286C3.42881 18.4286 2.76113 18.1577 2.26884 17.6754C1.77656 17.1932 1.5 16.5391 1.5 15.8571V5.57143C1.5 4.88944 1.77656 4.23539 2.26884 3.75315C2.76113 3.27092 3.42881 3 4.125 3H17.25ZM4.125 17.1429V8.14286C4.125 7.46087 4.40156 6.80682 4.89384 6.32458C5.38613 5.84235 6.05381 5.57143 6.75 5.57143H18.5625C18.5625 5.23044 18.4242 4.90341 18.1781 4.66229C17.9319 4.42117 17.5981 4.28571 17.25 4.28571H4.125C3.7769 4.28571 3.44306 4.42117 3.19692 4.66229C2.95078 4.90341 2.8125 5.23044 2.8125 5.57143V15.8571C2.8125 16.1981 2.95078 16.5252 3.19692 16.7663C3.44306 17.0074 3.7769 17.1429 4.125 17.1429ZM5.4375 12V18.4286C5.4375 18.7696 5.57578 19.0966 5.82192 19.3377C6.06806 19.5788 6.4019 19.7143 6.75 19.7143H19.875C20.2231 19.7143 20.5569 19.5788 20.8031 19.3377C21.0492 19.0966 21.1875 18.7696 21.1875 18.4286V12H5.4375ZM21.1875 10.7143V8.14286C21.1875 7.80186 21.0492 7.47484 20.8031 7.23372C20.5569 6.9926 20.2231 6.85714 19.875 6.85714H6.75C6.4019 6.85714 6.06806 6.9926 5.82192 7.23372C5.57578 7.47484 5.4375 7.80186 5.4375 8.14286V10.7143H21.1875Z" fill="#6A7288"/>
</svg>
