<svg width="16" height="16" viewBox="0 0 16 16" fill="none" xmlns="http://www.w3.org/2000/svg">
<path fill-rule="evenodd" clip-rule="evenodd" d="M8.05101 1.70877C8.01764 1.69797 7.98171 1.69797 7.94834 1.70877L2.44834 3.49344C2.41486 3.50417 2.38566 3.52525 2.36493 3.55364C2.3442 3.58204 2.33302 3.61628 2.33301 3.65144V7.0001C2.33301 10.6408 4.51967 13.3221 7.95301 14.6174C7.9831 14.6287 8.01625 14.6287 8.04634 14.6174C11.4797 13.3221 13.6663 10.6408 13.6663 7.0001V3.65077C13.6662 3.61564 13.655 3.58145 13.6343 3.55307C13.6136 3.5247 13.5844 3.50359 13.551 3.49277L8.05101 1.70877ZM7.63967 0.758104C7.87367 0.682195 8.12568 0.682195 8.35967 0.758104L13.8597 2.54144C14.0941 2.61747 14.2983 2.76576 14.4432 2.96504C14.5882 3.16432 14.6663 3.40437 14.6663 3.65077V7.0001C14.6663 11.1268 12.153 14.1368 8.39901 15.5534C8.14162 15.6504 7.85773 15.6504 7.60034 15.5534C3.84701 14.1361 1.33301 11.1268 1.33301 7.0001V3.65077C1.33301 3.1441 1.65967 2.69744 2.13967 2.54144L7.63967 0.758104ZM8.66634 8.15477C8.92051 8.00801 9.11916 7.78148 9.23147 7.51031C9.34378 7.23915 9.36348 6.93851 9.28752 6.65501C9.21155 6.37151 9.04417 6.12099 8.81132 5.94232C8.57847 5.76364 8.29318 5.66678 7.99967 5.66677C7.70617 5.66678 7.42088 5.76364 7.18803 5.94232C6.95518 6.12099 6.7878 6.37151 6.71183 6.65501C6.63587 6.93851 6.65557 7.23915 6.76788 7.51031C6.88019 7.78148 7.07884 8.00801 7.33301 8.15477V10.0001C7.33301 10.1769 7.40325 10.3465 7.52827 10.4715C7.65329 10.5965 7.82286 10.6668 7.99967 10.6668C8.17649 10.6668 8.34606 10.5965 8.47108 10.4715C8.5961 10.3465 8.66634 10.1769 8.66634 10.0001V8.15477Z" fill="#6A7288"/>
</svg>
