<svg width="16" height="16" viewBox="0 0 16 16" fill="none" xmlns="http://www.w3.org/2000/svg">
<path d="M4.43849 11.095C3.19075 10.2867 2.092 9.26895 1.19068 8.08664C1.06774 7.92865 1.00068 7.73434 1.00001 7.53416C0.999329 7.33397 1.06508 7.13921 1.18695 6.98039C2.1303 5.74344 4.68075 2.86719 8.00137 2.86719C9.26779 2.89633 10.5008 3.2792 11.561 3.97251" stroke="#6A7288" stroke-miterlimit="10"/>
<path d="M13.1334 5.16504C13.7441 5.71971 14.3049 6.32681 14.8096 6.97939C14.9332 7.13816 15.0004 7.33363 15.0004 7.53485C15.0004 7.73607 14.9332 7.93154 14.8096 8.09031C13.8532 9.32819 11.2785 12.2026 8.00173 12.2026C7.36606 12.1998 6.73488 12.096 6.13184 11.895" stroke="#6A7288" stroke-miterlimit="10" stroke-linecap="square"/>
<path d="M6.02132 9.51533C5.49587 8.99031 5.2005 8.27806 5.2002 7.53526C5.19989 6.79247 5.49467 6.07998 6.01969 5.55452C6.54471 5.02907 7.25696 4.73371 7.99975 4.7334C8.74255 4.73309 9.45504 5.02787 9.98049 5.55289" stroke="#6A7288" stroke-miterlimit="10"/>
<path d="M10.7637 7.06836C10.8312 7.46993 10.8103 7.88137 10.7026 8.27407C10.595 8.66677 10.403 9.03129 10.1401 9.34227C9.87727 9.65326 9.5498 9.90323 9.18052 10.0748C8.81123 10.2464 8.409 10.3354 8.0018 10.3358C7.84446 10.3358 7.68739 10.3227 7.53223 10.2966" stroke="#6A7288" stroke-miterlimit="10" stroke-linecap="square"/>
<path d="M1.46387 14.0696L14.5335 1" stroke="#6A7288" stroke-miterlimit="10" stroke-linecap="square"/>
<path d="M1.19093 8.21936C1.06784 8.06144 1.00068 7.86711 1.00001 7.66689C0.999329 7.46666 1.06517 7.27188 1.18719 7.11313C2.13052 5.87621 4.68093 3 8.00149 3C11.2782 3 13.8529 5.87434 14.8093 7.1122C14.9329 7.27097 15 7.46643 15 7.66765C15 7.86887 14.9329 8.06433 14.8093 8.2231C13.8529 9.46096 11.2782 12.3353 8.00149 12.3353C4.7248 12.3353 2.14499 9.45442 1.19093 8.21936Z" stroke="#6A7288" stroke-miterlimit="10" stroke-linecap="square"/>
<path d="M8.00176 10.4684C9.54848 10.4684 10.8024 9.2145 10.8024 7.66778C10.8024 6.12105 9.54848 4.86719 8.00176 4.86719C6.45504 4.86719 5.20117 6.12105 5.20117 7.66778C5.20117 9.2145 6.45504 10.4684 8.00176 10.4684Z" stroke="#6A7288" stroke-miterlimit="10" stroke-linecap="square"/>
</svg>
