<svg width="16" height="16" viewBox="0 0 16 16" fill="none" xmlns="http://www.w3.org/2000/svg">
<path fill-rule="evenodd" clip-rule="evenodd" d="M8 5.76666C8.27614 5.76666 8.5 5.99052 8.5 6.26666V8.86666C8.5 9.1428 8.27614 9.36666 8 9.36666C7.72386 9.36666 7.5 9.1428 7.5 8.86666V6.26666C7.5 5.99052 7.72386 5.76666 8 5.76666Z" fill="#6A7288"/>
<path fill-rule="evenodd" clip-rule="evenodd" d="M2.29999 8.86664C2.29999 8.5905 2.52385 8.36664 2.79999 8.36664H13.2C13.4761 8.36664 13.7 8.5905 13.7 8.86664V10.6C13.7 10.8761 13.4761 11.1 13.2 11.1C12.9238 11.1 12.7 10.8761 12.7 10.6V9.36664H3.29999V10.6C3.29999 10.8761 3.07613 11.1 2.79999 11.1C2.52385 11.1 2.29999 10.8761 2.29999 10.6V8.86664Z" fill="#6A7288"/>
<path fill-rule="evenodd" clip-rule="evenodd" d="M5.76666 1.5C5.76666 1.22386 5.99052 1 6.26666 1H9.73333C10.0095 1 10.2333 1.22386 10.2333 1.5V4.96667C10.2333 5.24281 10.0095 5.46667 9.73333 5.46667H6.26666C5.99052 5.46667 5.76666 5.24281 5.76666 4.96667V1.5ZM6.76666 2V4.46667H9.23333V2H6.76666Z" fill="#6A7288"/>
<path d="M13.2 14.5C13.918 14.5 14.5 13.918 14.5 13.2C14.5 12.4821 13.918 11.9 13.2 11.9C12.482 11.9 11.9 12.4821 11.9 13.2C11.9 13.918 12.482 14.5 13.2 14.5Z" fill="#6A7288"/>
<path d="M2.8 14.5C3.51797 14.5 4.1 13.918 4.1 13.2C4.1 12.4821 3.51797 11.9 2.8 11.9C2.08203 11.9 1.5 12.4821 1.5 13.2C1.5 13.918 2.08203 14.5 2.8 14.5Z" fill="#6A7288"/>
<path fill-rule="evenodd" clip-rule="evenodd" d="M4.89999 13.2C4.89999 12.9239 5.12385 12.7 5.39999 12.7H10.6C10.8761 12.7 11.1 12.9239 11.1 13.2C11.1 13.4762 10.8761 13.7 10.6 13.7H5.39999C5.12385 13.7 4.89999 13.4762 4.89999 13.2Z" fill="#6A7288"/>
</svg>
