<svg width="16" height="16" viewBox="0 0 16 16" fill="none" xmlns="http://www.w3.org/2000/svg">
<path fill-rule="evenodd" clip-rule="evenodd" d="M6.31563 5.22406C6.31563 2.88422 8.21574 1 10.625 1C13.0218 1 15 2.8659 15 5.21781C15 7.5685 13.0231 9.44281 10.625 9.44281C10.0995 9.44281 9.65654 9.37557 9.20068 9.21265C9.18487 9.22374 9.16736 9.23586 9.14774 9.24925C9.05252 9.31419 8.88773 9.42153 8.69626 9.46278C8.59406 9.48488 8.5003 9.47549 8.45714 9.47041C8.40179 9.46391 8.34608 9.45299 8.29726 9.44215C8.2025 9.4211 8.0946 9.39132 8.00217 9.36581L7.9951 9.36385C7.94375 9.34968 7.89677 9.33675 7.85417 9.3255C7.86761 9.35528 7.88346 9.38859 7.90187 9.42621C7.90849 9.43974 7.91574 9.45441 7.92341 9.46993C7.95904 9.54199 8.00378 9.63247 8.0366 9.71313C8.05758 9.76468 8.08122 9.82972 8.09685 9.90063C8.1115 9.96707 8.12755 10.0749 8.10152 10.197C8.07088 10.3408 7.99484 10.4691 7.93572 10.5556C7.8685 10.6539 7.78435 10.7536 7.69153 10.8447C7.52703 11.006 7.24816 11.2259 6.91724 11.2645C6.70905 11.2887 6.52511 11.2256 6.41592 11.1823C6.37323 11.1654 6.33173 11.1471 6.29439 11.13C6.29666 11.1354 6.29891 11.1409 6.30113 11.1462C6.33723 11.2341 6.39723 11.3911 6.39366 11.5708C6.38662 11.9962 6.13737 12.254 5.96198 12.4156C5.86501 12.5063 5.74072 12.6189 5.58733 12.7018C5.41705 12.7939 5.23255 12.8391 5.0221 12.8365L5.0218 12.8365C4.85742 12.8344 4.68041 12.7963 4.56812 12.7721C4.5541 12.7691 4.54109 12.7663 4.52924 12.7638C4.46362 12.75 4.41957 12.7418 4.38603 12.7379C4.38364 12.7376 4.38144 12.7374 4.37942 12.7372C4.37964 12.739 4.37987 12.7409 4.38011 12.7429C4.38651 12.7947 4.3926 12.8282 4.40028 12.8704C4.40758 12.9106 4.41632 12.9586 4.42813 13.0378C4.45769 13.2361 4.5228 13.7089 4.17529 14.0496C4.10838 14.1155 4.05635 14.1703 3.98759 14.2427C3.96291 14.2687 3.93609 14.297 3.90565 14.3289C3.7927 14.4471 3.64396 14.5998 3.39887 14.8385L3.39656 14.8407L3.39655 14.8407C3.20047 15.0293 2.96152 15.0064 2.86287 14.9873C2.75135 14.9656 2.6518 14.9193 2.58018 14.8812C2.43087 14.8017 2.27079 14.6851 2.13067 14.574C1.84565 14.3479 1.55694 14.0746 1.43868 13.9509C1.25785 13.7619 1 13.3877 1 12.9397L1 12.9394C1.0001 12.7808 1.03359 12.6239 1.09827 12.4791C1.16138 12.3378 1.25282 12.211 1.36688 12.1066C1.43603 12.0383 1.69788 11.7438 2.10027 11.2811C2.50012 10.8212 3.01688 10.2207 3.56607 9.57993C4.57669 8.4008 5.69487 7.08799 6.39175 6.26979C6.31539 5.91341 6.31552 5.55935 6.31562 5.25688C6.31562 5.24587 6.31563 5.23493 6.31563 5.22406ZM7.80203 9.18317C7.80206 9.18318 7.80217 9.18384 7.80231 9.1851C7.80208 9.18378 7.80201 9.18315 7.80203 9.18317ZM7.68238 9.2865C7.68274 9.28654 7.68312 9.28659 7.68353 9.28664C7.67628 9.28624 7.6753 9.28567 7.68238 9.2865ZM10.625 2C8.75301 2 7.31563 3.45141 7.31563 5.22406C7.31563 5.6467 7.3204 5.95341 7.41605 6.22871C7.47426 6.39622 7.43938 6.58203 7.32439 6.71703C7.27356 6.7767 7.21958 6.84008 7.16274 6.90681C6.46668 7.72406 5.34178 9.0448 4.32534 10.2307C3.7757 10.872 3.25711 11.4746 2.85491 11.9372C2.46389 12.3869 2.15953 12.7317 2.05607 12.8312C2.05188 12.8353 2.04761 12.8392 2.04329 12.8431C2.02968 12.8553 2.01879 12.8702 2.01133 12.8869C2.00387 12.9036 2.00001 12.9217 2 12.94L1.5 12.9397H2C2 12.9729 2.01118 13.0259 2.04535 13.094C2.07898 13.161 2.12401 13.2207 2.16132 13.2597C2.24931 13.3517 2.50435 13.594 2.75214 13.7905C2.81161 13.8377 2.86605 13.8785 2.91411 13.9123C3.03005 13.7966 3.1139 13.71 3.18263 13.638C3.20732 13.6122 3.2309 13.5873 3.25396 13.563C3.31964 13.4938 3.38104 13.4291 3.45153 13.359C3.45314 13.338 3.45422 13.287 3.43906 13.1853C3.43638 13.1673 3.43076 13.1343 3.42409 13.0952C3.41132 13.0202 3.39473 12.9228 3.38766 12.8656C3.37566 12.7685 3.35388 12.5655 3.4373 12.3709C3.50843 12.2049 3.60676 12.0461 3.76567 11.9279C3.92005 11.8131 4.08296 11.7749 4.18449 11.7535C4.30646 11.7279 4.42181 11.7353 4.50128 11.7445C4.58473 11.7542 4.66841 11.7712 4.73482 11.7851C4.74377 11.787 4.75247 11.7888 4.76093 11.7906C4.90119 11.8201 4.97601 11.8359 5.03445 11.8366L5.02812 12.3366L5.03415 11.8366C5.08307 11.8372 5.09858 11.8293 5.11189 11.8221C5.14131 11.8062 5.18374 11.7743 5.2803 11.6839L5.28333 11.6811L5.28335 11.6811C5.35309 11.6169 5.37892 11.5848 5.38992 11.567C5.3903 11.5664 5.39065 11.5658 5.39096 11.5653C5.38802 11.5566 5.38336 11.5438 5.37612 11.5262C5.36565 11.5007 5.35422 11.4751 5.33903 11.4411C5.33594 11.4342 5.3327 11.427 5.32928 11.4193C5.31081 11.3779 5.28778 11.3257 5.26669 11.2703C5.22653 11.1648 5.17518 11.0031 5.18583 10.8171C5.1977 10.6098 5.28373 10.4143 5.44702 10.2543C5.63117 10.074 5.85395 10.0077 6.06614 10.0164C6.25109 10.0241 6.41468 10.0883 6.51909 10.1333C6.56562 10.1534 6.6127 10.1753 6.65164 10.1935C6.65886 10.1969 6.66581 10.2001 6.67243 10.2032C6.71868 10.2247 6.75358 10.2404 6.78447 10.2527C6.79692 10.2576 6.807 10.2612 6.81491 10.2639C6.82313 10.2599 6.83398 10.2542 6.84747 10.246C6.89048 10.2199 6.94087 10.1802 6.99128 10.1308C7.02695 10.0958 7.05811 10.0603 7.08303 10.0283C7.0697 9.99992 7.05393 9.96795 7.03499 9.92951C7.02538 9.91001 7.01495 9.88886 7.0036 9.86566C6.95909 9.77467 6.90124 9.6534 6.86062 9.52858C6.82307 9.41319 6.77615 9.22582 6.82154 9.02381L6.82244 9.01982L6.82245 9.01982C6.84909 8.90567 6.90679 8.81323 6.94031 8.76382C6.98163 8.70293 7.03103 8.64335 7.0833 8.58959C7.16712 8.50337 7.33733 8.34938 7.55941 8.3011C7.66183 8.27883 7.75587 8.28825 7.79911 8.29334C7.85446 8.29984 7.91017 8.31076 7.95899 8.3216C8.05375 8.34265 8.16165 8.37243 8.25408 8.39794L8.26115 8.3999C8.3625 8.42787 8.44681 8.451 8.51407 8.46594C8.51494 8.46613 8.5158 8.46632 8.51665 8.46651C8.53498 8.45576 8.55719 8.44158 8.58429 8.4231C8.61579 8.40162 8.64632 8.37961 8.68203 8.35388C8.69175 8.34688 8.70184 8.3396 8.71245 8.33198C8.75771 8.29947 8.8133 8.25998 8.8701 8.22461C9.00932 8.13792 9.18221 8.12503 9.33276 8.1901C9.74802 8.3696 10.1202 8.44281 10.625 8.44281C12.5081 8.44281 14 6.97963 14 5.21781C14 3.45723 12.5094 2 10.625 2ZM8.57387 8.47725C8.57351 8.47721 8.57313 8.47716 8.57272 8.47711C8.57997 8.47751 8.58095 8.47808 8.57387 8.47725ZM7.13523 9.94972C7.13526 9.94967 7.13504 9.9502 7.13451 9.9513C7.13494 9.95029 7.13519 9.94975 7.13523 9.94972ZM11.5 4C11.4011 4 11.3044 4.02932 11.2222 4.08427C11.14 4.13921 11.0759 4.21729 11.0381 4.30866C11.0002 4.40002 10.9903 4.50055 11.0096 4.59755C11.0289 4.69454 11.0765 4.78363 11.1464 4.85355C11.2164 4.92348 11.3055 4.9711 11.4025 4.99039C11.4994 5.00969 11.6 4.99978 11.6913 4.96194C11.7827 4.9241 11.8608 4.86001 11.9157 4.77779C11.9707 4.69556 12 4.59889 12 4.5C12 4.36739 11.9473 4.24021 11.8536 4.14645C11.7598 4.05268 11.6326 4 11.5 4ZM10.6666 3.2528C10.9133 3.08797 11.2033 3 11.5 3C11.8978 3 12.2794 3.15804 12.5607 3.43934C12.842 3.72064 13 4.10217 13 4.5C13 4.79667 12.912 5.08668 12.7472 5.33335C12.5824 5.58003 12.3481 5.77229 12.074 5.88582C11.7999 5.99935 11.4983 6.02906 11.2074 5.97118C10.9164 5.9133 10.6491 5.77044 10.4393 5.56066C10.2296 5.35088 10.0867 5.08361 10.0288 4.79264C9.97094 4.50166 10.0006 4.20006 10.1142 3.92598C10.2277 3.65189 10.42 3.41762 10.6666 3.2528Z" fill="#6A7288"/>
</svg>
