<svg width="24" height="24" viewBox="0 0 24 24" fill="none" xmlns="http://www.w3.org/2000/svg">
<path fill-rule="evenodd" clip-rule="evenodd" d="M5.26459 7.03779C5.55748 6.74489 6.03236 6.74489 6.32525 7.03779L11.9995 12.712L17.6737 7.03779C17.9666 6.74489 18.4415 6.74489 18.7343 7.03779C19.0272 7.33068 19.0272 7.80555 18.7343 8.09845L12.5298 14.303C12.2369 14.5959 11.762 14.5959 11.4691 14.303L5.26459 8.09845C4.9717 7.80555 4.9717 7.33068 5.26459 7.03779Z" fill="#6D6D6D"/>
<path fill-rule="evenodd" clip-rule="evenodd" d="M4.02273 4.77283C3.45789 4.77283 3 5.23072 3 5.79555V18.2046C3 18.7695 3.45789 19.2274 4.02273 19.2274H19.9773C20.5421 19.2274 21 18.7695 21 18.2046V5.79555C21 5.23072 20.5421 4.77283 19.9773 4.77283H4.02273ZM1.5 5.79555C1.5 4.40229 2.62946 3.27283 4.02273 3.27283H19.9773C21.3705 3.27283 22.5 4.40229 22.5 5.79555V18.2046C22.5 19.5979 21.3705 20.7274 19.9773 20.7274H4.02273C2.62946 20.7274 1.5 19.5979 1.5 18.2046V5.79555Z" fill="#6D6D6D"/>
<path fill-rule="evenodd" clip-rule="evenodd" d="M8.09798 14.1287C8.39087 14.4216 8.39087 14.8965 8.09798 15.1894L6.32525 16.9621C6.03236 17.255 5.55748 17.255 5.26459 16.9621C4.9717 16.6692 4.9717 16.1943 5.26459 15.9015L7.03732 14.1287C7.33021 13.8358 7.80509 13.8358 8.09798 14.1287Z" fill="#6D6D6D"/>
<path fill-rule="evenodd" clip-rule="evenodd" d="M15.9023 14.1287C16.1952 13.8358 16.6701 13.8358 16.9629 14.1287L18.7357 15.9015C19.0286 16.1943 19.0286 16.6692 18.7357 16.9621C18.4428 17.255 17.9679 17.255 17.675 16.9621L15.9023 15.1894C15.6094 14.8965 15.6094 14.4216 15.9023 14.1287Z" fill="#6D6D6D"/>
</svg>
