<svg width="32" height="32" viewBox="0 0 32 32" fill="none" xmlns="http://www.w3.org/2000/svg">
<g clip-path="url(#clip0_3814_35593)">
<path fill-rule="evenodd" clip-rule="evenodd" d="M16.004 4C13.2933 4 11.095 6.19838 11.095 8.90909V10.0909C11.095 12.8016 13.2933 15 16.004 15C18.7148 15 20.9131 12.8016 20.9131 10.0909V8.90909C20.9131 6.19838 18.7148 4 16.004 4ZM9.09496 8.90909C9.09496 5.09381 12.1888 2 16.004 2C19.8193 2 22.9131 5.09381 22.9131 8.90909V10.0909C22.9131 13.9062 19.8193 17 16.004 17C12.1888 17 9.09496 13.9062 9.09496 10.0909V8.90909Z" fill="#6D6D6D"/>
<path fill-rule="evenodd" clip-rule="evenodd" d="M7.38951 21.005C9.6708 20.3823 12.8226 19.7266 16.003 19.7266C19.1834 19.7266 22.3352 20.3823 24.6164 21.005M7.38892 21.0051C4.89648 21.6841 3.1848 23.9536 3.1848 26.5269V28.9993C3.1848 29.5516 3.63251 29.9993 4.1848 29.9993H27.8212C28.3734 29.9993 28.8212 29.5516 28.8212 28.9993V26.5269C28.8212 23.9536 27.1095 21.6841 24.617 21.0051M16.003 21.7266C13.0713 21.7266 10.111 22.3353 7.91559 22.9345L7.91499 22.9347C6.30212 23.3739 5.1848 24.8459 5.1848 26.5269V27.9993H26.8212V26.5269C26.8212 24.8459 25.7038 23.3739 24.091 22.9347L24.0904 22.9345C21.895 22.3353 18.9347 21.7266 16.003 21.7266Z" fill="#6D6D6D"/>
</g>
<defs>
<clipPath id="clip0_3814_35593">
<rect width="32" height="32" fill="white"/>
</clipPath>
</defs>
</svg>
