<svg width="24" height="24" viewBox="0 0 24 24" fill="none" xmlns="http://www.w3.org/2000/svg">
<path fill-rule="evenodd" clip-rule="evenodd" d="M12 3C7.02944 3 3 7.02944 3 12C3 16.9706 7.02944 21 12 21C16.9706 21 21 16.9706 21 12C21 7.02944 16.9706 3 12 3ZM1.5 12C1.5 6.20101 6.20101 1.5 12 1.5C17.799 1.5 22.5 6.20101 22.5 12C22.5 17.799 17.799 22.5 12 22.5C6.20101 22.5 1.5 17.799 1.5 12Z" fill="#6D6D6D"/>
<path d="M12.0016 18.2046C12.4911 18.2046 12.888 17.8078 12.888 17.3182C12.888 16.8287 12.4911 16.4319 12.0016 16.4319C11.5121 16.4319 11.1152 16.8287 11.1152 17.3182C11.1152 17.8078 11.5121 18.2046 12.0016 18.2046Z" fill="#6D6D6D"/>
<path fill-rule="evenodd" clip-rule="evenodd" d="M12.7958 7.44912C12.0478 7.3789 11.1694 7.52449 10.401 7.86404C10.0221 8.03147 9.57927 7.86007 9.41184 7.4812C9.24442 7.10233 9.41582 6.65947 9.79469 6.49204C10.7813 6.05603 11.9159 5.85993 12.9359 5.95568C13.9377 6.04972 14.9752 6.44593 15.5373 7.35549C16.597 9.07033 15.7553 10.9259 14.2948 12.1635C12.9517 13.3015 12.7509 13.7098 12.7509 14.2158C12.7509 14.63 12.4151 14.9658 12.0009 14.9658C11.5867 14.9658 11.2509 14.63 11.2509 14.2158C11.2509 12.949 12.0091 12.1341 13.3251 11.019C14.5237 10.0034 14.7527 8.93935 14.2613 8.144C14.0477 7.79848 13.5621 7.52105 12.7958 7.44912Z" fill="#6D6D6D"/>
</svg>
