<svg width="24" height="24" viewBox="0 0 24 24" fill="none" xmlns="http://www.w3.org/2000/svg">
<path fill-rule="evenodd" clip-rule="evenodd" d="M1.5 4.90918C1.5 4.49497 1.83579 4.15918 2.25 4.15918H21.75C22.1642 4.15918 22.5 4.49497 22.5 4.90918V9.341C22.5 9.75521 22.1642 10.091 21.75 10.091C20.6574 10.091 19.8409 10.9075 19.8409 12.0001C19.8409 13.0927 20.6574 13.9092 21.75 13.9092C22.1642 13.9092 22.5 14.245 22.5 14.6592V19.091C22.5 19.5052 22.1642 19.841 21.75 19.841H2.25C1.83579 19.841 1.5 19.5052 1.5 19.091V14.6592C1.5 14.245 1.83579 13.9092 2.25 13.9092C3.3426 13.9092 4.15909 13.0927 4.15909 12.0001C4.15909 10.9075 3.3426 10.091 2.25 10.091C1.83579 10.091 1.5 9.75521 1.5 9.341V4.90918ZM3 5.65918V8.66939C4.54485 8.99965 5.65909 10.3378 5.65909 12.0001C5.65909 13.6624 4.54485 15.0005 3 15.3308V18.341H21V15.3308C19.4552 15.0005 18.3409 13.6624 18.3409 12.0001C18.3409 10.3378 19.4552 8.99966 21 8.66939V5.65918H3Z" fill="#6D6D6D"/>
<path fill-rule="evenodd" clip-rule="evenodd" d="M15.1903 8.81073C15.4832 9.10363 15.4832 9.5785 15.1903 9.87139L9.87213 15.1896C9.57923 15.4825 9.10436 15.4825 8.81147 15.1896C8.51857 14.8967 8.51857 14.4218 8.81147 14.1289L14.1296 8.81073C14.4225 8.51784 14.8974 8.51784 15.1903 8.81073Z" fill="#6D6D6D"/>
<path d="M9.78267 10.2273C10.517 10.2273 11.1122 9.63207 11.1122 8.89778C11.1122 8.1635 10.517 7.56824 9.78267 7.56824C9.04838 7.56824 8.45312 8.1635 8.45312 8.89778C8.45312 9.63207 9.04838 10.2273 9.78267 10.2273Z" fill="#6D6D6D"/>
<path d="M14.2163 16.432C14.9506 16.432 15.5458 15.8368 15.5458 15.1025C15.5458 14.3682 14.9506 13.7729 14.2163 13.7729C13.482 13.7729 12.8867 14.3682 12.8867 15.1025C12.8867 15.8368 13.482 16.432 14.2163 16.432Z" fill="#6D6D6D"/>
</svg>
