<svg width="24" height="24" viewBox="0 0 24 24" fill="none" xmlns="http://www.w3.org/2000/svg">
<g clip-path="url(#clip0_2988_8236)">
<path fill-rule="evenodd" clip-rule="evenodd" d="M8.0625 5.3125C7.51022 5.3125 7.0625 5.76022 7.0625 6.3125V15.0625C7.0625 15.6148 7.51022 16.0625 8.0625 16.0625H20.3125C20.8648 16.0625 21.3125 15.6148 21.3125 15.0625V6.3125C21.3125 5.76022 20.8648 5.3125 20.3125 5.3125H8.0625ZM5.5625 6.3125C5.5625 4.93179 6.68179 3.8125 8.0625 3.8125H20.3125C21.6932 3.8125 22.8125 4.93179 22.8125 6.3125V15.0625C22.8125 16.4432 21.6932 17.5625 20.3125 17.5625H8.0625C6.68179 17.5625 5.5625 16.4432 5.5625 15.0625V6.3125Z" fill="#6D6D6D"/>
<path fill-rule="evenodd" clip-rule="evenodd" d="M3.5625 7.3125V18.5625C3.5625 18.8277 3.66786 19.0821 3.85539 19.2696C4.04293 19.4571 4.29728 19.5625 4.5625 19.5625H19.3125V21.0625H4.5625C3.89946 21.0625 3.26357 20.7991 2.79473 20.3303C2.32589 19.8614 2.0625 19.2255 2.0625 18.5625V7.3125H3.5625Z" fill="#6D6D6D"/>
<path fill-rule="evenodd" clip-rule="evenodd" d="M11.6875 6.73785L18.2702 10.6875L11.6875 14.6371V6.73785ZM13.1875 9.38714V11.9879L15.3548 10.6875L13.1875 9.38714Z" fill="#6D6D6D"/>
</g>
<defs>
<clipPath id="clip0_2988_8236">
<rect width="21" height="21" fill="white" transform="translate(1.5 1.5)"/>
</clipPath>
</defs>
</svg>
