<svg width="24" height="24" viewBox="0 0 24 24" fill="none" xmlns="http://www.w3.org/2000/svg">
<path fill-rule="evenodd" clip-rule="evenodd" d="M22.5005 2.25C22.5005 1.83579 22.1648 1.5 21.7505 1.5H12.0003C11.8014 1.5 11.6107 1.57901 11.47 1.71964L2.29123 10.8975C2.04039 11.1482 1.8414 11.4459 1.70565 11.7735C1.56989 12.1012 1.50001 12.4524 1.50001 12.8071C1.50001 13.1617 1.56989 13.5129 1.70565 13.8406C1.84138 14.1682 2.04033 14.4659 2.29112 14.7166C2.29115 14.7166 2.29119 14.7166 2.29123 14.7167L9.28369 21.7091C9.53434 21.9601 9.83196 22.1592 10.1596 22.295C10.4872 22.4309 10.8384 22.5009 11.193 22.501C11.5477 22.5011 11.8989 22.4314 12.2266 22.2958C12.5543 22.1601 12.8521 21.9612 13.1029 21.7105L13.103 21.7104L22.2809 12.5305C22.4216 12.3899 22.5005 12.1991 22.5005 12.0002V2.25ZM9.81399 21.1794L10.3446 20.6488L3.35178 13.6559L3.35167 13.6558C3.24018 13.5444 3.15174 13.412 3.09141 13.2664C3.03107 13.1208 3.00001 12.9647 3.00001 12.8071C3.00001 12.6494 3.03107 12.4933 3.09141 12.3477C3.15174 12.2021 3.24018 12.0698 3.35167 11.9583L3.35175 11.9583L12.311 3H21.0005V11.6896L12.0424 20.6497C11.9309 20.7611 11.7986 20.8495 11.6529 20.9098C11.5073 20.9701 11.3512 21.0011 11.1935 21.001C11.0359 21.001 10.8798 20.9699 10.7342 20.9095C10.5886 20.8491 10.4563 20.7606 10.3449 20.6491L9.81399 21.1794Z" fill="#797979"/>
<path fill-rule="evenodd" clip-rule="evenodd" d="M15.9001 6.89996C16.5629 6.89996 17.1002 7.43724 17.1002 8.10001C17.1002 8.76278 16.5629 9.30006 15.9001 9.30006C15.2373 9.30006 14.7001 8.76278 14.7001 8.10001C14.7001 7.43724 15.2373 6.89996 15.9001 6.89996ZM18.6002 8.10001C18.6002 6.60882 17.3913 5.39996 15.9001 5.39996C14.4089 5.39996 13.2001 6.60882 13.2001 8.10001C13.2001 9.5912 14.4089 10.8001 15.9001 10.8001C17.3913 10.8001 18.6002 9.5912 18.6002 8.10001Z" fill="#797979"/>
</svg>
