<svg width="32" height="32" viewBox="0 0 32 32" fill="none" xmlns="http://www.w3.org/2000/svg">
<path fill-rule="evenodd" clip-rule="evenodd" d="M15.999 4C9.37141 4 3.99872 9.37269 3.99872 16.0002C3.99872 22.6278 9.37141 28.0005 15.999 28.0005C22.6265 28.0005 27.9992 22.6278 27.9992 16.0002C27.9992 9.37269 22.6265 4 15.999 4ZM1.99872 16.0002C1.99872 8.26812 8.26684 2 15.999 2C23.7311 2 29.9992 8.26812 29.9992 16.0002C29.9992 23.7324 23.7311 30.0005 15.999 30.0005C8.26684 30.0005 1.99872 23.7324 1.99872 16.0002Z" fill="#6D6D6D"/>
<path fill-rule="evenodd" clip-rule="evenodd" d="M16 6.72656C16.5523 6.72656 17 7.17428 17 7.72656V24.2723C17 24.8246 16.5523 25.2723 16 25.2723C15.4477 25.2723 15 24.8246 15 24.2723V7.72656C15 7.17428 15.4477 6.72656 16 6.72656Z" fill="#6D6D6D"/>
<path fill-rule="evenodd" clip-rule="evenodd" d="M15.2222 8.49199C17.1333 8.35503 19.3182 8.84157 20.4689 9.47406C20.9529 9.74009 21.1296 10.3481 20.8636 10.8321C20.5975 11.3161 19.9895 11.4928 19.5055 11.2267C18.7405 10.8062 16.9503 10.3733 15.3652 10.4869C14.581 10.5431 13.9725 10.7258 13.586 10.9982C13.2532 11.2328 13.037 11.5604 13.037 12.1385C13.037 12.8569 13.3223 13.2936 13.8256 13.6627C14.3967 14.0815 15.2013 14.3739 16.1847 14.7017C16.253 14.7244 16.3224 14.7474 16.3927 14.7707C17.2563 15.0569 18.2588 15.389 19.0444 15.8953C19.9647 16.4883 20.7 17.3926 20.7 18.7793C20.7 19.9743 20.3015 20.9508 19.555 21.6566C18.8349 22.3373 17.8851 22.6775 16.9271 22.8211C15.0262 23.1061 12.7418 22.6718 10.9317 22.0186C10.4122 21.8311 10.1431 21.258 10.3305 20.7385C10.518 20.219 11.0911 19.9499 11.6106 20.1373C13.2491 20.7286 15.1792 21.0608 16.6306 20.8432C17.3487 20.7355 17.8595 20.5072 18.181 20.2032C18.476 19.9243 18.7 19.5001 18.7 18.7793C18.7 18.2502 18.4775 17.9093 17.961 17.5764C17.3979 17.2136 16.6276 16.9571 15.6756 16.6401C15.6348 16.6266 15.5937 16.6129 15.5523 16.5991C14.62 16.2883 13.5087 15.9104 12.643 15.2756C11.7096 14.5912 11.037 13.5912 11.037 12.1385C11.037 10.9031 11.5751 9.9688 12.4336 9.36356C13.2385 8.79616 14.2583 8.56106 15.2222 8.49199Z" fill="#6D6D6D"/>
</svg>
