<svg width="24" height="24" viewBox="0 0 24 24" fill="none" xmlns="http://www.w3.org/2000/svg">
<path d="M6.89246 21.7505C7.4053 21.7505 7.82104 21.3347 7.82104 20.8219C7.82104 20.3091 7.4053 19.8933 6.89246 19.8933C6.37961 19.8933 5.96387 20.3091 5.96387 20.8219C5.96387 21.3347 6.37961 21.7505 6.89246 21.7505Z" fill="#6D6D6D"/>
<path d="M19.8915 21.7505C20.4043 21.7505 20.8201 21.3347 20.8201 20.8219C20.8201 20.3091 20.4043 19.8933 19.8915 19.8933C19.3786 19.8933 18.9629 20.3091 18.9629 20.8219C18.9629 21.3347 19.3786 21.7505 19.8915 21.7505Z" fill="#6D6D6D"/>
<path fill-rule="evenodd" clip-rule="evenodd" d="M6.89246 20.6433C6.79382 20.6433 6.71387 20.7233 6.71387 20.8219C6.71387 20.9205 6.79382 21.0005 6.89246 21.0005C6.99109 21.0005 7.07104 20.9205 7.07104 20.8219C7.07104 20.7233 6.99109 20.6433 6.89246 20.6433ZM5.21387 20.8219C5.21387 19.8948 5.9654 19.1433 6.89246 19.1433C7.81952 19.1433 8.57105 19.8948 8.57105 20.8219C8.57105 21.749 7.81952 22.5005 6.89246 22.5005C5.9654 22.5005 5.21387 21.749 5.21387 20.8219Z" fill="#6D6D6D"/>
<path fill-rule="evenodd" clip-rule="evenodd" d="M19.8915 20.6433C19.7928 20.6433 19.7129 20.7233 19.7129 20.8219C19.7129 20.9205 19.7928 21.0005 19.8915 21.0005C19.9901 21.0005 20.0701 20.9205 20.0701 20.8219C20.0701 20.7233 19.9901 20.6433 19.8915 20.6433ZM18.2129 20.8219C18.2129 19.8948 18.9644 19.1433 19.8915 19.1433C20.8185 19.1433 21.5701 19.8948 21.5701 20.8219C21.5701 21.749 20.8185 22.5005 19.8915 22.5005C18.9644 22.5005 18.2129 21.749 18.2129 20.8219Z" fill="#6D6D6D"/>
<path fill-rule="evenodd" clip-rule="evenodd" d="M1.49902 2.25C1.49902 1.83579 1.83481 1.5 2.24902 1.5H5.03479C5.41069 1.5 5.72853 1.77827 5.77821 2.15088L6.31049 6.14294H21.7494C21.9741 6.14294 22.1869 6.24369 22.3294 6.41745C22.4719 6.59122 22.5289 6.8197 22.4848 7.04003L20.6276 16.3259C20.5575 16.6765 20.2497 16.9288 19.8922 16.9288H6.89197C6.51607 16.9288 6.19823 16.6506 6.14855 16.278L4.37815 3H2.24902C1.83481 3 1.49902 2.66421 1.49902 2.25ZM6.51049 7.64294L7.5486 15.4288H19.2774L20.8345 7.64294H6.51049Z" fill="#6D6D6D"/>
</svg>
