<svg width="24" height="24" viewBox="0 0 24 24" fill="none" xmlns="http://www.w3.org/2000/svg">
<path fill-rule="evenodd" clip-rule="evenodd" d="M4.25 12.15C4.66421 12.15 5 12.4857 5 12.9V20.25H19V12.9C19 12.4857 19.3357 12.15 19.75 12.15C20.1642 12.15 20.5 12.4857 20.5 12.9V21C20.5 21.4142 20.1642 21.75 19.75 21.75H4.25C3.83579 21.75 3.5 21.4142 3.5 21V12.9C3.5 12.4857 3.83579 12.15 4.25 12.15Z" fill="#797979"/>
<path fill-rule="evenodd" clip-rule="evenodd" d="M4.2634 2.61845C4.39834 2.3901 4.64385 2.25 4.9091 2.25H19.0909C19.3561 2.25 19.6017 2.3901 19.7366 2.61845L22.3957 7.11845C22.4637 7.23353 22.4997 7.36468 22.5 7.49835C22.5017 8.27135 22.2463 9.02362 21.7731 9.6331C21.2997 10.2428 20.6356 10.6743 19.8872 10.8549C19.1387 11.0356 18.3521 10.954 17.6558 10.6242C17.3106 10.4606 16.9979 10.241 16.7288 9.9767C16.5547 10.1484 16.3621 10.3015 16.1535 10.4328C15.6168 10.7706 14.9968 10.9502 14.3635 10.9502C13.7301 10.9502 13.1101 10.7706 12.5735 10.4328C12.3656 10.3019 12.1736 10.1494 12 9.97847C11.8264 10.1494 11.6344 10.3019 11.4265 10.4328C10.8899 10.7706 10.2699 10.9502 9.63651 10.9502C9.00315 10.9502 8.38317 10.7706 7.84649 10.4328C7.63794 10.3015 7.44527 10.1484 7.27124 9.97671C7.00208 10.241 6.68944 10.4606 6.34418 10.6242C5.64787 10.954 4.86131 11.0356 4.11277 10.8549C3.36437 10.6743 2.70031 10.2428 2.22695 9.6331C1.75375 9.02362 1.4983 8.27135 1.50001 7.49835C1.5003 7.36468 1.53631 7.23353 1.60431 7.11845L4.2634 2.61845ZM5.33707 3.75L3.00859 7.69051C3.04341 8.0634 3.18317 8.41878 3.41176 8.7132C3.67851 9.05677 4.05002 9.2967 4.46469 9.39678C4.87921 9.49682 5.315 9.45191 5.70208 9.26856C6.08937 9.08512 6.40674 8.77298 6.60045 8.38042C6.72701 8.12395 6.9884 7.96178 7.2744 7.9623C7.56039 7.96282 7.82119 8.12595 7.94681 8.38288C8.10455 8.70552 8.34707 8.9754 8.64564 9.16337C8.94409 9.35126 9.28723 9.45023 9.63651 9.45023C9.98579 9.45023 10.3289 9.35126 10.6274 9.16337C10.926 8.9754 11.1685 8.70552 11.3262 8.38288C11.4521 8.12551 11.7135 7.9623 12 7.9623C12.2865 7.9623 12.5479 8.12551 12.6738 8.38288C12.8315 8.70552 13.074 8.9754 13.3726 9.16337C13.6711 9.35126 14.0142 9.45023 14.3635 9.45023C14.7128 9.45023 15.0559 9.35126 15.3544 9.16337C15.6529 8.9754 15.8955 8.70552 16.0532 8.38288C16.1788 8.12595 16.4396 7.96282 16.7256 7.9623C17.0116 7.96178 17.273 8.12395 17.3995 8.38042C17.5933 8.77298 17.9106 9.08512 18.2979 9.26856C18.685 9.45191 19.1208 9.49682 19.5353 9.39678C19.95 9.2967 20.3215 9.05677 20.5882 8.7132C20.8168 8.41878 20.9566 8.0634 20.9914 7.69051L18.6629 3.75H5.33707Z" fill="#797979"/>
<path fill-rule="evenodd" clip-rule="evenodd" d="M9.47754 15.5999C9.47754 15.1857 9.81333 14.8499 10.2275 14.8499H13.773C14.1872 14.8499 14.523 15.1857 14.523 15.5999V20.9999C14.523 21.4142 14.1872 21.7499 13.773 21.7499C13.3588 21.7499 13.023 21.4142 13.023 20.9999V16.3499H10.9775V20.9999C10.9775 21.4142 10.6418 21.7499 10.2275 21.7499C9.81333 21.7499 9.47754 21.4142 9.47754 20.9999V15.5999Z" fill="#797979"/>
</svg>
