<svg width="24" height="24" viewBox="0 0 24 24" fill="none" xmlns="http://www.w3.org/2000/svg">
<path d="M23 10.5C22.8674 10.5 22.7402 10.4473 22.6464 10.3536C22.5527 10.2598 22.5 10.1326 22.5 10C22.4976 7.74639 21.6013 5.58577 20.0078 3.99222C18.4142 2.39868 16.2536 1.50238 14 1.5C13.8674 1.5 13.7402 1.44732 13.6464 1.35355C13.5527 1.25979 13.5 1.13261 13.5 1C13.5 0.867392 13.5527 0.740215 13.6464 0.646447C13.7402 0.552678 13.8674 0.5 14 0.5C16.5187 0.502779 18.9335 1.50456 20.7144 3.28556C22.4954 5.06655 23.4972 7.4813 23.5 10C23.5 10.1326 23.4473 10.2598 23.3536 10.3536C23.2598 10.4473 23.1326 10.5 23 10.5Z" fill="#49C549"/>
<path d="M19 10.5C18.8674 10.5 18.7402 10.4473 18.6464 10.3536C18.5527 10.2598 18.5 10.1326 18.5 10C18.4985 8.80697 18.024 7.66323 17.1804 6.81963C16.3368 5.97603 15.193 5.50146 14 5.5C13.8674 5.5 13.7402 5.44732 13.6464 5.35355C13.5527 5.25979 13.5 5.13261 13.5 5C13.5 4.86739 13.5527 4.74021 13.6464 4.64645C13.7402 4.55268 13.8674 4.5 14 4.5C15.4582 4.50172 16.8561 5.08174 17.8872 6.11281C18.9183 7.14389 19.4983 8.54184 19.5 10C19.5 10.1326 19.4473 10.2598 19.3536 10.3536C19.2598 10.4473 19.1326 10.5 19 10.5Z" fill="#9EE09E"/>
<path d="M15.6879 14.5875L13.8949 16.829C11.1179 15.197 8.80364 12.8829 7.17138 10.106L9.41288 8.31302C9.67545 8.10267 9.861 7.81133 9.9406 7.48445C10.0202 7.15757 9.98935 6.81353 9.85288 6.50602L7.80938 1.90602C7.66298 1.57599 7.40407 1.30872 7.07885 1.15192C6.75362 0.995127 6.38327 0.95901 6.03388 1.05002L2.14488 2.05752C1.78202 2.15248 1.46656 2.37718 1.25822 2.68909C1.04989 3.00099 0.963133 3.37845 1.01438 3.75002C1.69726 8.61003 3.94361 13.1157 7.41392 16.586C10.8842 20.0563 15.3899 22.3026 20.2499 22.9855C20.6213 23.037 20.9987 22.9503 21.3104 22.7421C21.6222 22.5338 21.8467 22.2183 21.9414 21.8555L22.9499 17.966C23.0407 17.6166 23.0045 17.2464 22.8477 16.9212C22.6909 16.596 22.4238 16.3371 22.0939 16.1905L17.4949 14.15C17.1876 14.0132 16.8438 13.9819 16.5169 14.061C16.19 14.1402 15.8985 14.3253 15.6879 14.5875V14.5875Z" fill="#3D6C7B"/>
</svg>
