<svg width="24" height="24" viewBox="0 0 24 24" fill="none" xmlns="http://www.w3.org/2000/svg">
<path fill-rule="evenodd" clip-rule="evenodd" d="M1.5 22.2374C1.5 21.8232 1.83579 21.4874 2.25 21.4874H21.75C22.1642 21.4874 22.5 21.8232 22.5 22.2374C22.5 22.6516 22.1642 22.9874 21.75 22.9874H2.25C1.83579 22.9874 1.5 22.6516 1.5 22.2374Z" fill="#6D6D6D"/>
<path fill-rule="evenodd" clip-rule="evenodd" d="M12.4453 4.15714C12.7381 3.86425 13.213 3.86425 13.5059 4.15714L17.4059 8.05714C17.6988 8.35003 17.6988 8.82491 17.4059 9.1178C17.113 9.41069 16.6381 9.41069 16.3453 9.1178L12.4453 5.2178C12.1524 4.92491 12.1524 4.45003 12.4453 4.15714Z" fill="#6D6D6D"/>
<path fill-rule="evenodd" clip-rule="evenodd" d="M15.3693 1.23221C15.6622 0.939319 16.1371 0.939319 16.43 1.23221L20.33 5.13221C20.6228 5.42511 20.6228 5.89998 20.33 6.19287L8.62995 17.8929C8.52525 17.9976 8.3919 18.0689 8.24671 18.098L3.37171 19.073C3.12581 19.1222 2.87161 19.0452 2.69429 18.8679C2.51697 18.6906 2.44001 18.4363 2.48919 18.1905L3.46419 13.3155C3.49322 13.1703 3.56459 13.0369 3.66929 12.9322L15.3693 1.23221ZM4.89052 13.8323L4.18069 17.3815L7.72986 16.6716L18.739 5.66254L15.8996 2.8232L4.89052 13.8323Z" fill="#6D6D6D"/>
</svg>
