<svg width="24" height="24" viewBox="0 0 24 24" fill="none" xmlns="http://www.w3.org/2000/svg">
<path fill-rule="evenodd" clip-rule="evenodd" d="M12.0008 3C8.71802 3 5.32227 5.42883 5.32227 9.67857C5.32227 10.6359 5.72114 11.8303 6.39899 13.1394C7.06841 14.4322 7.96957 15.7612 8.88416 16.9674C9.79678 18.1709 10.7112 19.2369 11.3984 20.0028C11.6278 20.2586 11.8315 20.4804 12.0008 20.6622C12.1702 20.4804 12.3739 20.2586 12.6033 20.0028C13.2905 19.2369 14.2049 18.1709 15.1175 16.9674C16.0321 15.7612 16.9333 14.4322 17.6027 13.1394C18.2805 11.8303 18.6794 10.6359 18.6794 9.67857C18.6794 5.42883 15.2837 3 12.0008 3ZM12.0008 21.75C11.4672 22.277 11.4671 22.2769 11.467 22.2768L11.4606 22.2703L11.4434 22.2527L11.3786 22.1861C11.3223 22.128 11.2406 22.043 11.137 21.9336C10.9299 21.7148 10.6351 21.3982 10.2819 21.0045C9.57617 20.218 8.63346 19.1193 7.68894 17.8737C6.74639 16.6307 5.79041 15.2263 5.06697 13.8291C4.35196 12.4483 3.82227 10.9962 3.82227 9.67857C3.82227 4.45688 8.0408 1.5 12.0008 1.5C15.9609 1.5 20.1794 4.45688 20.1794 9.67857C20.1794 10.9962 19.6497 12.4483 18.9347 13.8291C18.2113 15.2263 17.2553 16.6307 16.3127 17.8737C15.3682 19.1193 14.4255 20.218 13.7198 21.0045C13.3666 21.3982 13.0718 21.7148 12.8647 21.9336C12.7611 22.043 12.6793 22.128 12.6231 22.1861L12.5583 22.2527L12.5411 22.2703L12.5351 22.2764C12.535 22.2765 12.5345 22.277 12.0008 21.75ZM12.0008 21.75L12.5351 22.2764C12.3942 22.419 12.2014 22.5 12.0008 22.5C11.8003 22.5 11.6079 22.4195 11.467 22.2768L12.0008 21.75Z" fill="#6D6D6D"/>
<path fill-rule="evenodd" clip-rule="evenodd" d="M12.0015 7.64282C10.8772 7.64282 9.96582 8.55424 9.96582 9.67854C9.96582 10.8028 10.8772 11.7143 12.0015 11.7143C13.1258 11.7143 14.0372 10.8028 14.0372 9.67854C14.0372 8.55424 13.1258 7.64282 12.0015 7.64282ZM8.46582 9.67854C8.46582 7.72582 10.0488 6.14282 12.0015 6.14282C13.9543 6.14282 15.5372 7.72582 15.5372 9.67854C15.5372 11.6313 13.9543 13.2143 12.0015 13.2143C10.0488 13.2143 8.46582 11.6313 8.46582 9.67854Z" fill="#6D6D6D"/>
</svg>
