<svg width="24" height="24" viewBox="0 0 24 24" fill="none" xmlns="http://www.w3.org/2000/svg">
<path fill-rule="evenodd" clip-rule="evenodd" d="M5.05762 12.4444C5.05762 12.0478 5.37918 11.7262 5.77586 11.7262H7.55436C7.95103 11.7262 8.2726 12.0478 8.2726 12.4444V13.3337C8.2726 13.7304 7.95103 14.0519 7.55436 14.0519H5.77586C5.37918 14.0519 5.05762 13.7304 5.05762 13.3337V12.4444Z" fill="#6D6D6D"/>
<path fill-rule="evenodd" clip-rule="evenodd" d="M10.3926 12.4444C10.3926 12.0478 10.7141 11.7262 11.1108 11.7262H12.8893C13.286 11.7262 13.6076 12.0478 13.6076 12.4444V13.3337C13.6076 13.7304 13.286 14.0519 12.8893 14.0519H11.1108C10.7141 14.0519 10.3926 13.7304 10.3926 13.3337V12.4444Z" fill="#6D6D6D"/>
<path fill-rule="evenodd" clip-rule="evenodd" d="M5.05762 16.8907C5.05762 16.4941 5.37918 16.1725 5.77586 16.1725H7.55436C7.95103 16.1725 8.2726 16.4941 8.2726 16.8907V17.78C8.2726 18.1767 7.95103 18.4982 7.55436 18.4982H5.77586C5.37918 18.4982 5.05762 18.1767 5.05762 17.78V16.8907Z" fill="#6D6D6D"/>
<path fill-rule="evenodd" clip-rule="evenodd" d="M10.3926 16.8907C10.3926 16.4941 10.7141 16.1725 11.1108 16.1725H12.8893C13.286 16.1725 13.6076 16.4941 13.6076 16.8907V17.78C13.6076 18.1767 13.286 18.4982 12.8893 18.4982H11.1108C10.7141 18.4982 10.3926 18.1767 10.3926 17.78V16.8907Z" fill="#6D6D6D"/>
<path fill-rule="evenodd" clip-rule="evenodd" d="M15.7295 12.4444C15.7295 12.0478 16.0511 11.7262 16.4477 11.7262H18.2262C18.6229 11.7262 18.9445 12.0478 18.9445 12.4444V13.3337C18.9445 13.7304 18.6229 14.0519 18.2262 14.0519H16.4477C16.0511 14.0519 15.7295 13.7304 15.7295 13.3337V12.4444Z" fill="#6D6D6D"/>
<path d="M7.55389 12.4443H5.77539V13.3336H7.55389V12.4443Z" fill="#6D6D6D"/>
<path d="M12.8889 12.4443H11.1104V13.3336H12.8889V12.4443Z" fill="#6D6D6D"/>
<path d="M7.55389 16.891H5.77539V17.7802H7.55389V16.891Z" fill="#6D6D6D"/>
<path d="M12.8889 16.891H11.1104V17.7802H12.8889V16.891Z" fill="#6D6D6D"/>
<path d="M18.2258 12.4443H16.4473V13.3336H18.2258V12.4443Z" fill="#6D6D6D"/>
<path fill-rule="evenodd" clip-rule="evenodd" d="M1.5 5.33018C1.5 4.93351 1.82157 4.61194 2.21824 4.61194H21.7818C22.1784 4.61194 22.5 4.93351 22.5 5.33018V21.3367C22.5 21.7334 22.1784 22.0549 21.7818 22.0549H2.21824C1.82157 22.0549 1.5 21.7334 1.5 21.3367V5.33018ZM2.93648 6.04842V20.6185H21.0635V6.04842H2.93648Z" fill="#6D6D6D"/>
<path fill-rule="evenodd" clip-rule="evenodd" d="M16.4477 1.94434C16.8444 1.94434 17.166 2.2659 17.166 2.66258V5.33033C17.166 5.727 16.8444 6.04857 16.4477 6.04857C16.0511 6.04857 15.7295 5.727 15.7295 5.33033V2.66258C15.7295 2.2659 16.0511 1.94434 16.4477 1.94434Z" fill="#6D6D6D"/>
<path fill-rule="evenodd" clip-rule="evenodd" d="M7.5532 1.94434C7.94988 1.94434 8.27144 2.2659 8.27144 2.66258V5.33033C8.27144 5.727 7.94988 6.04857 7.5532 6.04857C7.15653 6.04857 6.83496 5.727 6.83496 5.33033V2.66258C6.83496 2.2659 7.15653 1.94434 7.5532 1.94434Z" fill="#6D6D6D"/>
<path fill-rule="evenodd" clip-rule="evenodd" d="M1.5 8.88755C1.5 8.49088 1.82157 8.16931 2.21824 8.16931H21.7818C22.1784 8.16931 22.5 8.49088 22.5 8.88755C22.5 9.28423 22.1784 9.60579 21.7818 9.60579H2.21824C1.82157 9.60579 1.5 9.28423 1.5 8.88755Z" fill="#6D6D6D"/>
</svg>
