<svg width="32" height="32" viewBox="0 0 32 32" fill="none" xmlns="http://www.w3.org/2000/svg">
<path fill-rule="evenodd" clip-rule="evenodd" d="M6.54627 6.36328C5.79264 6.36328 5.18262 6.9733 5.18262 7.72693C5.18262 8.48056 5.79264 9.09058 6.54627 9.09058C7.2999 9.09058 7.90992 8.48056 7.90992 7.72693C7.90992 6.9733 7.2999 6.36328 6.54627 6.36328ZM3.18262 7.72693C3.18262 5.86873 4.68807 4.36328 6.54627 4.36328C8.40447 4.36328 9.90992 5.86873 9.90992 7.72693C9.90992 9.58513 8.40447 11.0906 6.54627 11.0906C4.68807 11.0906 3.18262 9.58513 3.18262 7.72693Z" fill="#6D6D6D"/>
<path fill-rule="evenodd" clip-rule="evenodd" d="M5.36511 14.6367C4.61148 14.6367 4.00146 15.2467 4.00146 16.0004V20.9095H5.36511C5.9174 20.9095 6.36511 21.3572 6.36511 21.9095V25.6368H8.91059C9.46287 25.6368 9.91059 26.0845 9.91059 26.6368C9.91059 27.1891 9.46287 27.6368 8.91059 27.6368H5.36511C4.81283 27.6368 4.36511 27.1891 4.36511 26.6368V22.9095H3.00146C2.44918 22.9095 2.00146 22.4618 2.00146 21.9095V16.0004C2.00146 14.1422 3.50691 12.6367 5.36511 12.6367H6.54694C7.09922 12.6367 7.54694 13.0844 7.54694 13.6367C7.54694 14.189 7.09922 14.6367 6.54694 14.6367H5.36511Z" fill="#6D6D6D"/>
<path fill-rule="evenodd" clip-rule="evenodd" d="M22.0938 7.72693C22.0938 5.86873 23.5992 4.36328 25.4574 4.36328C27.3156 4.36328 28.8211 5.86873 28.8211 7.72693C28.8211 9.58513 27.3156 11.0906 25.4574 11.0906C23.5992 11.0906 22.0938 9.58513 22.0938 7.72693ZM25.4574 6.36328C24.7038 6.36328 24.0938 6.9733 24.0938 7.72693C24.0938 8.48056 24.7038 9.09058 25.4574 9.09058C26.211 9.09058 26.8211 8.48056 26.8211 7.72693C26.8211 6.9733 26.211 6.36328 25.4574 6.36328Z" fill="#6D6D6D"/>
<path fill-rule="evenodd" clip-rule="evenodd" d="M24.4574 13.6367C24.4574 13.0844 24.9051 12.6367 25.4574 12.6367H26.6392C28.4974 12.6367 30.0029 14.1422 30.0029 16.0004V21.9095C30.0029 22.4618 29.5552 22.9095 29.0029 22.9095H27.6392V26.6368C27.6392 27.1891 27.1915 27.6368 26.6392 27.6368H23.0937C22.5415 27.6368 22.0938 27.1891 22.0938 26.6368C22.0938 26.0845 22.5415 25.6368 23.0937 25.6368H25.6392V21.9095C25.6392 21.3572 26.0869 20.9095 26.6392 20.9095H28.0029V16.0004C28.0029 15.2467 27.3929 14.6367 26.6392 14.6367H25.4574C24.9051 14.6367 24.4574 14.189 24.4574 13.6367Z" fill="#6D6D6D"/>
<path fill-rule="evenodd" clip-rule="evenodd" d="M16.0015 4C14.5955 4 13.4561 5.13948 13.4561 6.54548C13.4561 7.95147 14.5955 9.09095 16.0015 9.09095C17.4075 9.09095 18.547 7.95147 18.547 6.54548C18.547 5.13948 17.4075 4 16.0015 4ZM11.4561 6.54548C11.4561 4.03491 13.491 2 16.0015 2C18.5121 2 20.547 4.03491 20.547 6.54548C20.547 9.05604 18.5121 11.091 16.0015 11.091C13.491 11.091 11.4561 9.05604 11.4561 6.54548Z" fill="#6D6D6D"/>
<path fill-rule="evenodd" clip-rule="evenodd" d="M12.4574 14.6367C11.7038 14.6367 11.0938 15.2467 11.0938 16.0004V20.9095H12.4574C13.0097 20.9095 13.4574 21.3572 13.4574 21.9095V28.0004H18.5484V23.0913C18.5484 22.539 18.9961 22.0913 19.5484 22.0913H20.912V16.0004C20.912 15.2467 20.302 14.6367 19.5484 14.6367H12.4574ZM9.09375 16.0004C9.09375 14.1422 10.5992 12.6367 12.4574 12.6367H19.5484C21.4066 12.6367 22.912 14.1422 22.912 16.0004V23.0913C22.912 23.6436 22.4643 24.0913 21.912 24.0913H20.5484V29.0004C20.5484 29.5527 20.1006 30.0004 19.5484 30.0004H12.4574C11.9051 30.0004 11.4574 29.5527 11.4574 29.0004V22.9095H10.0938C9.54147 22.9095 9.09375 22.4618 9.09375 21.9095V16.0004Z" fill="#6D6D6D"/>
</svg>
