<svg width="24" height="24" viewBox="0 0 24 24" fill="none" xmlns="http://www.w3.org/2000/svg">
<path fill-rule="evenodd" clip-rule="evenodd" d="M1.5 2.25C1.5 1.83579 1.83579 1.5 2.25 1.5H6.15C6.56421 1.5 6.9 1.83579 6.9 2.25V6.15C6.9 6.56421 6.56421 6.9 6.15 6.9H2.25C1.83579 6.9 1.5 6.56421 1.5 6.15V2.25ZM3 3V5.4H5.4V3H3Z" fill="#6B6565"/>
<path fill-rule="evenodd" clip-rule="evenodd" d="M9.29999 2.25C9.29999 1.83579 9.63577 1.5 10.05 1.5H13.95C14.3642 1.5 14.7 1.83579 14.7 2.25V6.15C14.7 6.56421 14.3642 6.9 13.95 6.9H10.05C9.63577 6.9 9.29999 6.56421 9.29999 6.15V2.25ZM10.8 3V5.4H13.2V3H10.8Z" fill="#6B6565"/>
<path fill-rule="evenodd" clip-rule="evenodd" d="M17.1 2.25C17.1 1.83579 17.4358 1.5 17.85 1.5H21.75C22.1642 1.5 22.5 1.83579 22.5 2.25V6.15C22.5 6.56421 22.1642 6.9 21.75 6.9H17.85C17.4358 6.9 17.1 6.56421 17.1 6.15V2.25ZM18.6 3V5.4H21V3H18.6Z" fill="#6B6565"/>
<path fill-rule="evenodd" clip-rule="evenodd" d="M1.5 10.0499C1.5 9.63571 1.83579 9.29993 2.25 9.29993H6.15C6.56421 9.29993 6.9 9.63571 6.9 10.0499V13.9499C6.9 14.3641 6.56421 14.6999 6.15 14.6999H2.25C1.83579 14.6999 1.5 14.3641 1.5 13.9499V10.0499ZM3 10.7999V13.1999H5.4V10.7999H3Z" fill="#6B6565"/>
<path fill-rule="evenodd" clip-rule="evenodd" d="M9.29999 10.0499C9.29999 9.63571 9.63577 9.29993 10.05 9.29993H13.95C14.3642 9.29993 14.7 9.63571 14.7 10.0499V13.9499C14.7 14.3641 14.3642 14.6999 13.95 14.6999H10.05C9.63577 14.6999 9.29999 14.3641 9.29999 13.9499V10.0499ZM10.8 10.7999V13.1999H13.2V10.7999H10.8Z" fill="#6B6565"/>
<path fill-rule="evenodd" clip-rule="evenodd" d="M17.1 10.0499C17.1 9.63571 17.4358 9.29993 17.85 9.29993H21.75C22.1642 9.29993 22.5 9.63571 22.5 10.0499V13.9499C22.5 14.3641 22.1642 14.6999 21.75 14.6999H17.85C17.4358 14.6999 17.1 14.3641 17.1 13.9499V10.0499ZM18.6 10.7999V13.1999H21V10.7999H18.6Z" fill="#6B6565"/>
<path fill-rule="evenodd" clip-rule="evenodd" d="M1.5 17.85C1.5 17.4358 1.83579 17.1 2.25 17.1H6.15C6.56421 17.1 6.9 17.4358 6.9 17.85V21.75C6.9 22.1642 6.56421 22.5 6.15 22.5H2.25C1.83579 22.5 1.5 22.1642 1.5 21.75V17.85ZM3 18.6V21H5.4V18.6H3Z" fill="#6B6565"/>
<path fill-rule="evenodd" clip-rule="evenodd" d="M9.29999 17.85C9.29999 17.4358 9.63577 17.1 10.05 17.1H13.95C14.3642 17.1 14.7 17.4358 14.7 17.85V21.75C14.7 22.1642 14.3642 22.5 13.95 22.5H10.05C9.63577 22.5 9.29999 22.1642 9.29999 21.75V17.85ZM10.8 18.6V21H13.2V18.6H10.8Z" fill="#6B6565"/>
<path fill-rule="evenodd" clip-rule="evenodd" d="M17.1 17.85C17.1 17.4358 17.4358 17.1 17.85 17.1H21.75C22.1642 17.1 22.5 17.4358 22.5 17.85V21.75C22.5 22.1642 22.1642 22.5 21.75 22.5H17.85C17.4358 22.5 17.1 22.1642 17.1 21.75V17.85ZM18.6 18.6V21H21V18.6H18.6Z" fill="#6B6565"/>
</svg>
