<svg width="24" height="24" viewBox="0 0 24 24" fill="none" xmlns="http://www.w3.org/2000/svg">
<path fill-rule="evenodd" clip-rule="evenodd" d="M12 6.81812C12.4142 6.81812 12.75 7.1539 12.75 7.56812V16.4318C12.75 16.846 12.4142 17.1818 12 17.1818C11.5858 17.1818 11.25 16.846 11.25 16.4318V7.56812C11.25 7.1539 11.5858 6.81812 12 6.81812Z" fill="#6D6D6D"/>
<path fill-rule="evenodd" clip-rule="evenodd" d="M6.81836 12C6.81836 11.5858 7.15415 11.25 7.56836 11.25H16.432C16.8462 11.25 17.182 11.5858 17.182 12C17.182 12.4142 16.8462 12.75 16.432 12.75H7.56836C7.15415 12.75 6.81836 12.4142 6.81836 12Z" fill="#6D6D6D"/>
<path fill-rule="evenodd" clip-rule="evenodd" d="M12 3C7.02944 3 3 7.02944 3 12C3 16.9706 7.02944 21 12 21C16.9706 21 21 16.9706 21 12C21 7.02944 16.9706 3 12 3ZM1.5 12C1.5 6.20101 6.20101 1.5 12 1.5C17.799 1.5 22.5 6.20101 22.5 12C22.5 17.799 17.799 22.5 12 22.5C6.20101 22.5 1.5 17.799 1.5 12Z" fill="#6D6D6D"/>
</svg>
