<svg width="24" height="24" viewBox="0 0 24 24" fill="none" xmlns="http://www.w3.org/2000/svg">
<path fill-rule="evenodd" clip-rule="evenodd" d="M19.327 10.1687C19.5909 9.84945 20.0637 9.80469 20.3829 10.0687C21.6564 11.1218 22.4995 12.5682 22.4995 14.2161C22.4995 15.7109 21.806 17.0409 20.7267 18.0607V21.3072C20.7267 21.5672 20.5921 21.8086 20.371 21.9452C20.1499 22.0819 19.8738 22.0943 19.6413 21.9781L16.0569 20.1859C15.6047 20.2494 15.1379 20.2845 14.6584 20.2845C11.6498 20.2845 8.95852 18.9687 7.64481 16.9275C7.42064 16.5792 7.52127 16.1151 7.86958 15.891C8.21789 15.6668 8.68198 15.7674 8.90615 16.1157C9.88465 17.6361 12.0401 18.7845 14.6584 18.7845C15.138 18.7845 15.6051 18.743 16.0576 18.6685C16.2135 18.6429 16.3735 18.6671 16.5148 18.7378L19.2267 20.0937V17.7262C19.2267 17.5065 19.3231 17.2978 19.4904 17.1553C20.4618 16.3279 20.9995 15.2975 20.9995 14.2161C20.9995 13.1126 20.4386 12.0612 19.4269 11.2246C19.1077 10.9606 19.063 10.4879 19.327 10.1687Z" fill="#6D6D6D"/>
<path fill-rule="evenodd" clip-rule="evenodd" d="M1.5 9.78424C1.5 5.30645 5.96895 1.94312 11.1139 1.94312C16.2589 1.94312 20.7278 5.30645 20.7278 9.78424C20.7278 14.262 16.2589 17.6254 11.1139 17.6254C10.1669 17.6254 9.25466 17.5097 8.39262 17.3022L4.35814 19.319C4.12564 19.4352 3.84955 19.4228 3.62846 19.2861C3.40736 19.1495 3.27278 18.9081 3.27278 18.6481V14.3139C2.17454 13.0515 1.5 11.4932 1.5 9.78424ZM11.1139 3.44312C6.46779 3.44312 3 6.42988 3 9.78424C3 11.1582 3.57154 12.4464 4.57025 13.513C4.70038 13.652 4.77278 13.8352 4.77278 14.0256V17.4347L7.97135 15.8358C8.13517 15.7539 8.32328 15.7348 8.50022 15.782C9.32243 16.0016 10.1996 16.1254 11.1139 16.1254C15.76 16.1254 19.2278 13.1386 19.2278 9.78424C19.2278 6.42988 15.76 3.44312 11.1139 3.44312Z" fill="#6D6D6D"/>
</svg>
