<svg width="24" height="24" viewBox="0 0 24 24" fill="none" xmlns="http://www.w3.org/2000/svg">
<path d="M11.9995 19.235C12.7273 19.235 13.3173 18.641 13.3173 17.9083C13.3173 17.1756 12.7273 16.5817 11.9995 16.5817C11.2717 16.5817 10.6816 17.1756 10.6816 17.9083C10.6816 18.641 11.2717 19.235 11.9995 19.235Z" fill="#6D6D6D"/>
<path fill-rule="evenodd" clip-rule="evenodd" d="M12 7.2085C12.4142 7.2085 12.75 7.54428 12.75 7.9585V14.5917C12.75 15.006 12.4142 15.3417 12 15.3417C11.5858 15.3417 11.25 15.006 11.25 14.5917V7.9585C11.25 7.54428 11.5858 7.2085 12 7.2085Z" fill="#6D6D6D"/>
<path fill-rule="evenodd" clip-rule="evenodd" d="M12 3.52515C11.8581 3.52515 11.7184 3.56381 11.5959 3.63745C11.4734 3.71109 11.3723 3.81712 11.304 3.94481C11.3039 3.94487 11.304 3.94475 11.304 3.94481L3.09538 19.291C3.09533 19.2911 3.09543 19.291 3.09538 19.291C3.03006 19.4135 2.99707 19.5515 3.00021 19.691C3.00335 19.8306 3.04241 19.9667 3.11321 20.086C3.18399 20.2053 3.28392 20.3034 3.40278 20.3714C3.52161 20.4393 3.65553 20.4748 3.79152 20.4749H20.2085C20.3445 20.4748 20.4784 20.4393 20.5972 20.3714C20.7161 20.3034 20.816 20.2053 20.8868 20.086C20.9576 19.9667 20.9967 19.8306 20.9998 19.691C21.0029 19.5514 20.97 19.4135 20.9046 19.291L12.6961 3.94499C12.6961 3.94493 12.6962 3.94504 12.6961 3.94499C12.6277 3.81729 12.5266 3.71109 12.4041 3.63745C12.2816 3.56381 12.1419 3.52515 12 3.52515ZM1.77223 18.5845C1.58514 18.9348 1.49165 19.3276 1.50058 19.7247C1.50952 20.1218 1.62057 20.51 1.82327 20.8516C2.026 21.1932 2.31361 21.4766 2.65848 21.6737C3.00339 21.8708 3.39356 21.9747 3.79084 21.9749H20.2088C20.6061 21.9747 20.9966 21.8708 21.3415 21.6737C21.6864 21.4766 21.974 21.1932 22.1767 20.8516C22.3794 20.51 22.4905 20.1218 22.4994 19.7247C22.5083 19.3276 22.4149 18.9348 22.2278 18.5845L14.0187 3.23732C13.823 2.87175 13.5323 2.56547 13.1769 2.35184C12.8214 2.13818 12.4147 2.02515 12 2.02515C11.5853 2.02515 11.1786 2.13818 10.8231 2.35184C10.4677 2.56547 10.1771 2.87157 9.98138 3.23715L1.77223 18.5845Z" fill="#6D6D6D"/>
</svg>
