<svg width="24" height="24" viewBox="0 0 24 24" fill="none" xmlns="http://www.w3.org/2000/svg">
<path fill-rule="evenodd" clip-rule="evenodd" d="M9.3422 2.99997C7.79851 2.99997 6.54688 4.2516 6.54688 5.7953V7.56796C6.54688 9.11166 7.79851 10.3633 9.3422 10.3633C10.8859 10.3633 12.1375 9.11166 12.1375 7.56796V5.7953C12.1375 4.2516 10.8859 2.99997 9.3422 2.99997ZM5.04688 5.7953C5.04688 3.42318 6.97008 1.49997 9.3422 1.49997C11.7143 1.49997 13.6375 3.42318 13.6375 5.7953V7.56796C13.6375 9.94008 11.7143 11.8633 9.3422 11.8633C6.97008 11.8633 5.04688 9.94008 5.04688 7.56796V5.7953Z" fill="#6D6D6D"/>
<path fill-rule="evenodd" clip-rule="evenodd" d="M9.34066 14.6993C7.14253 14.6993 5.3886 15.1684 4.22745 15.6087L4.22735 15.6087C3.48745 15.8892 3 16.5977 3 17.3936V20.29H15.6813V17.3936C15.6813 16.5973 15.1936 15.8885 14.4545 15.6089L14.4539 15.6087C13.2927 15.1684 11.5388 14.6993 9.34066 14.6993ZM3.69566 14.2061C4.9932 13.7141 6.92815 13.1993 9.34066 13.1993C11.7528 13.1993 13.6876 13.7139 14.9851 14.2059C16.313 14.7082 17.1813 15.9794 17.1813 17.3936V21.04C17.1813 21.4542 16.8455 21.79 16.4313 21.79H2.25C1.83579 21.79 1.5 21.4542 1.5 21.04V17.3936C1.5 15.979 2.36859 14.7092 3.69556 14.2062" fill="#6D6D6D"/>
<path fill-rule="evenodd" clip-rule="evenodd" d="M15.6816 4.90903C15.6816 4.49481 16.0174 4.15903 16.4316 4.15903H21.7496C22.1638 4.15903 22.4996 4.49481 22.4996 4.90903C22.4996 5.32324 22.1638 5.65903 21.7496 5.65903H16.4316C16.0174 5.65903 15.6816 5.32324 15.6816 4.90903Z" fill="#6D6D6D"/>
<path fill-rule="evenodd" clip-rule="evenodd" d="M15.6816 9.34091C15.6816 8.9267 16.0174 8.59091 16.4316 8.59091H21.7496C22.1638 8.59091 22.4996 8.9267 22.4996 9.34091C22.4996 9.75513 22.1638 10.0909 21.7496 10.0909H16.4316C16.0174 10.0909 15.6816 9.75513 15.6816 9.34091Z" fill="#6D6D6D"/>
<path fill-rule="evenodd" clip-rule="evenodd" d="M18.3418 13.7724C18.3418 13.3582 18.6776 13.0224 19.0918 13.0224H21.7508C22.165 13.0224 22.5008 13.3582 22.5008 13.7724C22.5008 14.1866 22.165 14.5224 21.7508 14.5224H19.0918C18.6776 14.5224 18.3418 14.1866 18.3418 13.7724Z" fill="#6D6D6D"/>
</svg>
