<svg width="24" height="24" viewBox="0 0 24 24" fill="none" xmlns="http://www.w3.org/2000/svg">
<path d="M14.6602 2.25V7.56818H19.9783L14.6602 2.25Z" fill="#6D6D6D"/>
<path fill-rule="evenodd" clip-rule="evenodd" d="M14.6602 1.5C15.0744 1.5 15.4102 1.83579 15.4102 2.25V6.81818H19.9783C20.3926 6.81818 20.7283 7.15397 20.7283 7.56818C20.7283 7.9824 20.3926 8.31818 19.9783 8.31818H14.6602C14.2459 8.31818 13.9102 7.9824 13.9102 7.56818V2.25C13.9102 1.83579 14.2459 1.5 14.6602 1.5Z" fill="#6D6D6D"/>
<path fill-rule="evenodd" clip-rule="evenodd" d="M3.27344 2.25C3.27344 1.83579 3.60922 1.5 4.02344 1.5H14.6598C14.8587 1.5 15.0495 1.57902 15.1901 1.71967L20.5083 7.03785C20.649 7.1785 20.728 7.36927 20.728 7.56818V21.75C20.728 22.1642 20.3922 22.5 19.978 22.5H4.02344C3.60922 22.5 3.27344 22.1642 3.27344 21.75V2.25ZM4.77344 3V21H19.228V7.87884L14.3491 3H4.77344Z" fill="#6D6D6D"/>
</svg>
