<svg width="24" height="24" viewBox="0 0 24 24" fill="none" xmlns="http://www.w3.org/2000/svg">
<path fill-rule="evenodd" clip-rule="evenodd" d="M12.0003 3C7.02956 3 3 7.02956 3 12.0003C3 16.971 7.02956 21.0005 12.0003 21.0005C16.971 21.0005 21.0005 16.971 21.0005 12.0003C21.0005 7.02956 16.971 3 12.0003 3ZM1.5 12.0003C1.5 6.20113 6.20113 1.5 12.0003 1.5C17.7994 1.5 22.5005 6.20113 22.5005 12.0003C22.5005 17.7994 17.7994 22.5005 12.0003 22.5005C6.20113 22.5005 1.5 17.7994 1.5 12.0003Z" fill="#6D6D6D"/>
<path fill-rule="evenodd" clip-rule="evenodd" d="M12.002 10.3638C12.4162 10.3638 12.752 10.6996 12.752 11.1138V16.4321C12.752 16.8463 12.4162 17.1821 12.002 17.1821C11.5877 17.1821 11.252 16.8463 11.252 16.4321V11.1138C11.252 10.6996 11.5877 10.3638 12.002 10.3638Z" fill="#6D6D6D"/>
<path d="M11.9997 8.45466C12.4892 8.45466 12.8861 8.05781 12.8861 7.56827C12.8861 7.07873 12.4892 6.68188 11.9997 6.68188C11.5101 6.68188 11.1133 7.07873 11.1133 7.56827C11.1133 8.05781 11.5101 8.45466 11.9997 8.45466Z" fill="#6D6D6D"/>
</svg>
