<svg width="24" height="24" viewBox="0 0 24 24" fill="none" xmlns="http://www.w3.org/2000/svg">
<path fill-rule="evenodd" clip-rule="evenodd" d="M1.5 12.0001C1.5 11.5859 1.83579 11.2501 2.25 11.2501L21.75 11.2501C22.1642 11.2501 22.5 11.5859 22.5 12.0001C22.5 12.4143 22.1642 12.7501 21.75 12.7501L2.25 12.7501C1.83579 12.7501 1.5 12.4143 1.5 12.0001Z" fill="#6D6D6D"/>
<path fill-rule="evenodd" clip-rule="evenodd" d="M9.60533 4.64469C9.89822 4.93758 9.89822 5.41246 9.60533 5.70535L3.31066 12L9.60533 18.2947C9.89822 18.5876 9.89822 19.0625 9.60533 19.3553C9.31244 19.6482 8.83756 19.6482 8.54467 19.3553L1.71967 12.5303C1.42678 12.2375 1.42678 11.7626 1.71967 11.4697L8.54467 4.64469C8.83756 4.35179 9.31244 4.35179 9.60533 4.64469Z" fill="#6D6D6D"/>
</svg>
