<svg width="24" height="24" viewBox="0 0 24 24" fill="none" xmlns="http://www.w3.org/2000/svg">
<path fill-rule="evenodd" clip-rule="evenodd" d="M20.3292 1.71967C20.0363 1.42678 19.5614 1.42678 19.2685 1.71967L9.5185 11.4697C9.22561 11.7626 9.22561 12.2374 9.5185 12.5303L19.2685 22.2803C19.5614 22.5732 20.0363 22.5732 20.3292 22.2803C20.6221 21.9874 20.6221 21.5126 20.3292 21.2197L11.1095 12L20.3292 2.78033C20.6221 2.48744 20.6221 2.01256 20.3292 1.71967Z" fill="#6D6D6D"/>
<path fill-rule="evenodd" clip-rule="evenodd" d="M14.4795 1.71967C14.1867 1.42678 13.7118 1.42678 13.4189 1.71967L3.66889 11.4697C3.376 11.7626 3.376 12.2374 3.66889 12.5303L13.4189 22.2803C13.7118 22.5732 14.1867 22.5732 14.4795 22.2803C14.7724 21.9874 14.7724 21.5126 14.4795 21.2197L5.25988 12L14.4795 2.78033C14.7724 2.48744 14.7724 2.01256 14.4795 1.71967Z" fill="#6D6D6D"/>
</svg>
