<svg width="23" height="22" viewBox="0 0 23 22" fill="none" xmlns="http://www.w3.org/2000/svg">
<path fill-rule="evenodd" clip-rule="evenodd" d="M11.5 1.375C11.897 1.375 12.2188 1.6828 12.2188 2.0625V15.1708C12.2188 15.5505 11.897 15.8583 11.5 15.8583C11.103 15.8583 10.7812 15.5505 10.7812 15.1708V2.0625C10.7812 1.6828 11.103 1.375 11.5 1.375Z" fill="#6D6D6D"/>
<path fill-rule="evenodd" clip-rule="evenodd" d="M5.38532 9.32215C5.66601 9.05367 6.1211 9.05367 6.40179 9.32215L11.4998 14.1985L16.5978 9.32215C16.8785 9.05367 17.3336 9.05367 17.6143 9.32215C17.895 9.59064 17.895 10.0259 17.6143 10.2944L12.008 15.6569C11.7273 15.9254 11.2723 15.9254 10.9916 15.6569L5.38532 10.2944C5.10463 10.0259 5.10463 9.59064 5.38532 9.32215Z" fill="#6D6D6D"/>
<path fill-rule="evenodd" clip-rule="evenodd" d="M1.4375 19.9375C1.4375 19.5578 1.7593 19.25 2.15625 19.25H20.8438C21.2407 19.25 21.5625 19.5578 21.5625 19.9375C21.5625 20.3172 21.2407 20.625 20.8438 20.625H2.15625C1.7593 20.625 1.4375 20.3172 1.4375 19.9375Z" fill="#6D6D6D"/>
</svg>
