<svg width="24" height="24" viewBox="0 0 24 24" fill="none" xmlns="http://www.w3.org/2000/svg">
<path fill-rule="evenodd" clip-rule="evenodd" d="M3.67084 1.71967C3.96373 1.42678 4.43861 1.42678 4.7315 1.71967L14.4815 11.4697C14.7744 11.7626 14.7744 12.2374 14.4815 12.5303L4.7315 22.2803C4.43861 22.5732 3.96373 22.5732 3.67084 22.2803C3.37795 21.9874 3.37795 21.5126 3.67084 21.2197L12.8905 12L3.67084 2.78033C3.37795 2.48744 3.37795 2.01256 3.67084 1.71967Z" fill="#6D6D6D"/>
<path fill-rule="evenodd" clip-rule="evenodd" d="M9.52045 1.71967C9.81334 1.42678 10.2882 1.42678 10.5811 1.71967L20.3311 11.4697C20.624 11.7626 20.624 12.2374 20.3311 12.5303L10.5811 22.2803C10.2882 22.5732 9.81334 22.5732 9.52045 22.2803C9.22756 21.9874 9.22756 21.5126 9.52045 21.2197L18.7401 12L9.52045 2.78033C9.22756 2.48744 9.22756 2.01256 9.52045 1.71967Z" fill="#6D6D6D"/>
</svg>
