<svg width="24" height="24" viewBox="0 0 24 24" fill="none" xmlns="http://www.w3.org/2000/svg">
<path fill-rule="evenodd" clip-rule="evenodd" d="M3.27246 12C3.27246 11.5858 3.60825 11.25 4.02246 11.25H6.68155C7.09577 11.25 7.43155 11.5858 7.43155 12C7.43155 12.4142 7.09577 12.75 6.68155 12.75H4.02246C3.60825 12.75 3.27246 12.4142 3.27246 12Z" fill="#6D6D6D"/>
<path fill-rule="evenodd" clip-rule="evenodd" d="M5.04492 16.4319C5.04492 16.0177 5.38071 15.6819 5.79492 15.6819H6.68129C7.0955 15.6819 7.43129 16.0177 7.43129 16.4319C7.43129 16.8461 7.0955 17.1819 6.68129 17.1819H5.79492C5.38071 17.1819 5.04492 16.8461 5.04492 16.4319Z" fill="#6D6D6D"/>
<path fill-rule="evenodd" clip-rule="evenodd" d="M9.47656 6.68152C9.47656 6.2673 9.81235 5.93152 10.2266 5.93152H17.3175C17.6616 5.93152 17.9616 6.16574 18.0451 6.49962L18.8478 9.71042L22.0847 11.3289C22.3388 11.4559 22.4993 11.7156 22.4993 11.9997V17.3179C22.4993 17.7321 22.1635 18.0679 21.7493 18.0679H17.1659C16.7517 18.0679 16.4159 17.7321 16.4159 17.3179C16.4159 16.9037 16.7517 16.5679 17.1659 16.5679H20.9993V12.4632L17.8684 10.8978C17.6726 10.7999 17.5293 10.6213 17.4762 10.4089L16.7319 7.43152H10.9766V16.5679H12.1509C12.5651 16.5679 12.9009 16.9037 12.9009 17.3179C12.9009 17.7321 12.5651 18.0679 12.1509 18.0679H10.2266C9.81235 18.0679 9.47656 17.7321 9.47656 17.3179V6.68152Z" fill="#6D6D6D"/>
<path fill-rule="evenodd" clip-rule="evenodd" d="M1.5 7.56812C1.5 7.1539 1.83579 6.81812 2.25 6.81812H6.68182C7.09604 6.81812 7.43182 7.1539 7.43182 7.56812C7.43182 7.98233 7.09604 8.31812 6.68182 8.31812H2.25C1.83579 8.31812 1.5 7.98233 1.5 7.56812Z" fill="#6D6D6D"/>
<path fill-rule="evenodd" clip-rule="evenodd" d="M1.5 3.1366C1.5 2.72238 1.83579 2.3866 2.25 2.3866H10.2273C10.6415 2.3866 10.9773 2.72238 10.9773 3.1366V6.68205C10.9773 7.09627 10.6415 7.43205 10.2273 7.43205C9.81307 7.43205 9.47728 7.09627 9.47728 6.68205V3.8866H2.25C1.83579 3.8866 1.5 3.55081 1.5 3.1366Z" fill="#6D6D6D"/>
<path fill-rule="evenodd" clip-rule="evenodd" d="M14.661 16.2957C13.6067 16.2957 12.752 17.1504 12.752 18.2047C12.752 19.2591 13.6067 20.1138 14.661 20.1138C15.7154 20.1138 16.5701 19.2591 16.5701 18.2047C16.5701 17.1504 15.7154 16.2957 14.661 16.2957ZM11.252 18.2047C11.252 16.322 12.7783 14.7957 14.661 14.7957C16.5438 14.7957 18.0701 16.322 18.0701 18.2047C18.0701 20.0875 16.5438 21.6138 14.661 21.6138C12.7783 21.6138 11.252 20.0875 11.252 18.2047Z" fill="#6D6D6D"/>
<path fill-rule="evenodd" clip-rule="evenodd" d="M13.7734 8.59094C14.1877 8.59094 14.5234 8.92673 14.5234 9.34094V10.3637H15.5462C15.9604 10.3637 16.2962 10.6995 16.2962 11.1137C16.2962 11.5279 15.9604 11.8637 15.5462 11.8637H13.7734C13.3592 11.8637 13.0234 11.5279 13.0234 11.1137V9.34094C13.0234 8.92673 13.3592 8.59094 13.7734 8.59094Z" fill="#6D6D6D"/>
</svg>
