<svg width="24" height="24" viewBox="0 0 24 24" fill="none" xmlns="http://www.w3.org/2000/svg">
<path fill-rule="evenodd" clip-rule="evenodd" d="M7.27345 3.45815C8.52724 2.20437 10.2277 1.5 12.0009 1.5C13.774 1.5 15.4745 2.20437 16.7283 3.45815C17.982 4.71194 18.6864 6.41244 18.6864 8.18556V10.7294C18.6864 11.8549 19.1777 12.5501 19.7707 13.2221C19.8407 13.3015 19.9168 13.3852 19.9958 13.4722C20.2312 13.7314 20.4922 14.0187 20.6931 14.2999C20.9809 14.7029 21.2302 15.1991 21.2302 15.817C21.2302 16.4948 20.8359 17.0288 20.3451 17.4131C19.8541 17.7975 19.1833 18.1042 18.4018 18.346C16.8312 18.8318 14.6297 19.1108 12.0009 19.1108C9.37197 19.1108 7.17048 18.8318 5.59986 18.346C4.81838 18.1042 4.14756 17.7975 3.65662 17.4131C3.16582 17.0288 2.77148 16.4948 2.77148 15.817C2.77148 15.1991 3.02081 14.7029 3.30865 14.2999C3.50955 14.0187 3.77051 13.7314 4.00595 13.4722C4.08492 13.3852 4.16101 13.3015 4.23101 13.2221C4.82402 12.5501 5.3153 11.8549 5.3153 10.7294V8.18556C5.3153 6.41244 6.01966 4.71194 7.27345 3.45815ZM12.0009 3C10.6256 3 9.30659 3.54633 8.33411 4.51881C7.36163 5.4913 6.8153 6.81026 6.8153 8.18556V10.7294C6.8153 12.402 6.03466 13.4452 5.35577 14.2146C5.2485 14.3361 5.14995 14.4447 5.0589 14.5449C4.84672 14.7786 4.67528 14.9674 4.52926 15.1718C4.34014 15.4366 4.27148 15.6293 4.27148 15.817C4.27148 15.8599 4.29051 16.0043 4.58141 16.2321C4.87216 16.4598 5.35136 16.6989 6.04316 16.913C7.41913 17.3386 9.45733 17.6108 12.0009 17.6108C14.5444 17.6108 16.5826 17.3386 17.9585 16.913C18.6503 16.6989 19.1296 16.4598 19.4203 16.2321C19.7112 16.0043 19.7302 15.8599 19.7302 15.817C19.7302 15.6293 19.6616 15.4366 19.4725 15.1718C19.3264 14.9674 19.155 14.7786 18.9428 14.5449C18.8518 14.4447 18.7532 14.3361 18.6459 14.2146C17.967 13.4452 17.1864 12.402 17.1864 10.7294V8.18556C17.1864 6.81026 16.6401 5.4913 15.6676 4.51881C14.6951 3.54633 13.3762 3 12.0009 3Z" fill="#6D6D6D"/>
<path d="M12.0009 20.0565C11.1437 20.0565 10.3381 20.0276 9.58008 19.9717C9.74169 20.4872 10.0637 20.9377 10.4991 21.2575C10.9345 21.5773 11.4607 21.7498 12.0009 21.7498C12.5412 21.7498 13.0674 21.5773 13.5028 21.2575C13.9382 20.9377 14.2602 20.4872 14.4218 19.9717C13.6637 20.0276 12.8582 20.0565 12.0009 20.0565Z" fill="#6D6D6D"/>
</svg>
