<svg width="24" height="24" viewBox="0 0 24 24" fill="none" xmlns="http://www.w3.org/2000/svg">
<path fill-rule="evenodd" clip-rule="evenodd" d="M6.66286 1.55838C7.04416 1.45759 7.44898 1.49714 7.80356 1.66982C8.15814 1.84251 8.43888 2.13684 8.59462 2.49918L10.7398 7.49941C10.8681 7.79951 10.9046 8.13186 10.844 8.45256C10.7834 8.77325 10.6287 9.06867 10.3997 9.30122L8.75911 10.9659C9.31555 11.8166 9.95003 12.6142 10.6545 13.3481C11.3868 14.0533 12.1836 14.6876 13.0342 15.243L14.6991 13.6006C14.9325 13.3708 15.2297 13.2154 15.5517 13.1554C15.8731 13.0954 16.2051 13.1327 16.5053 13.2624C16.5058 13.2626 16.5063 13.2628 16.5068 13.263L21.5049 15.4059C21.8673 15.5617 22.1623 15.843 22.3348 16.1978C22.5073 16.5526 22.5464 16.9576 22.4451 17.3388C22.4451 17.3388 22.4451 17.3387 22.4451 17.3388L21.4074 21.2678C21.4071 21.2688 21.4068 21.2698 21.4066 21.2709C21.3132 21.6318 21.0998 21.9502 20.8014 22.1737C20.5021 22.3979 20.1353 22.5133 19.7616 22.5007L19.7459 22.5002C14.9889 22.2405 10.4879 20.2625 7.07935 16.9341L7.06654 16.9216C3.73917 13.5136 1.76192 9.01368 1.50174 4.25786L1.50068 4.23845C1.48997 3.86585 1.60629 3.50065 1.83014 3.20261C2.05358 2.90514 2.37118 2.69214 2.73115 2.59833L6.66286 1.55838ZM15.752 14.6689C15.7519 14.669 15.7522 14.6688 15.752 14.6689L13.6651 16.7276C13.421 16.9684 13.0447 17.013 12.7511 16.836C11.6143 16.1506 10.5583 15.3394 9.60298 14.4179C9.59622 14.4114 9.58958 14.4047 9.58307 14.3979C8.66342 13.4415 7.85286 12.3859 7.16629 11.2505C6.98877 10.9569 7.03308 10.5803 7.27389 10.336L9.33092 8.24874C9.35111 8.22823 9.36475 8.20219 9.3701 8.17391C9.37543 8.14571 9.37227 8.11657 9.36104 8.09017C9.36101 8.09009 9.36107 8.09024 9.36104 8.09017L7.21653 3.09152C7.21651 3.09148 7.21655 3.09157 7.21653 3.09152C7.20279 3.05963 7.178 3.0336 7.14678 3.0184C7.11555 3.00319 7.0799 2.99969 7.04632 3.00854L3.10963 4.0498C3.07762 4.0581 3.04937 4.07701 3.02952 4.10345C3.01079 4.12837 3.00057 4.15859 3.00026 4.18967C3.24348 8.57467 5.06714 12.7232 8.13372 15.8671C11.2789 18.9353 15.4295 20.7594 19.8166 21.0017C19.8473 21.0017 19.8773 20.9918 19.902 20.9733C19.9279 20.9539 19.9464 20.9262 19.9544 20.8949L19.9557 20.8898L20.9951 16.9547C21.004 16.9213 21.0009 16.8847 20.9858 16.8536C20.9707 16.8226 20.9451 16.7981 20.9135 16.7844C20.9134 16.7843 20.9136 16.7845 20.9135 16.7844L15.9131 14.6405L15.9104 14.6394C15.8841 14.628 15.8549 14.6247 15.8267 14.6299C15.7987 14.6352 15.7724 14.649 15.752 14.6689Z" fill="#6D6D6D"/>
</svg>
