<svg width="24" height="24" viewBox="0 0 24 24" fill="none" xmlns="http://www.w3.org/2000/svg">
<path fill-rule="evenodd" clip-rule="evenodd" d="M16.0755 7.9242C16.3684 8.21709 16.3684 8.69197 16.0755 8.98486L8.98443 16.0759C8.69154 16.3688 8.21666 16.3688 7.92377 16.0759C7.63088 15.783 7.63088 15.3081 7.92377 15.0152L15.0148 7.9242C15.3077 7.63131 15.7826 7.63131 16.0755 7.9242Z" fill="#6D6D6D"/>
<path fill-rule="evenodd" clip-rule="evenodd" d="M7.92377 7.9242C8.21666 7.63131 8.69154 7.63131 8.98443 7.9242L16.0755 15.0152C16.3684 15.3081 16.3684 15.783 16.0755 16.0759C15.7826 16.3688 15.3077 16.3688 15.0148 16.0759L7.92377 8.98486C7.63088 8.69197 7.63088 8.21709 7.92377 7.9242Z" fill="#6D6D6D"/>
<path fill-rule="evenodd" clip-rule="evenodd" d="M11.9992 3C7.02854 3 2.99902 7.02952 2.99902 12.0002C2.99902 16.9708 7.02854 21.0004 11.9992 21.0004C16.9699 21.0004 20.9994 16.9708 20.9994 12.0002C20.9994 7.02952 16.9699 3 11.9992 3ZM1.49902 12.0002C1.49902 6.20109 6.20012 1.5 11.9992 1.5C17.7983 1.5 22.4994 6.20109 22.4994 12.0002C22.4994 17.7993 17.7983 22.5004 11.9992 22.5004C6.20012 22.5004 1.49902 17.7993 1.49902 12.0002Z" fill="#6D6D6D"/>
</svg>
