<svg width="24" height="24" viewBox="0 0 24 24" fill="none" xmlns="http://www.w3.org/2000/svg">
<path fill-rule="evenodd" clip-rule="evenodd" d="M22.2823 1.71967C22.5752 2.01256 22.5752 2.48744 22.2823 2.78033L2.78228 22.2803C2.48939 22.5732 2.01452 22.5732 1.72162 22.2803C1.42873 21.9874 1.42873 21.5126 1.72162 21.2197L21.2216 1.71967C21.5145 1.42678 21.9894 1.42678 22.2823 1.71967Z" fill="#6D6D6D"/>
<path fill-rule="evenodd" clip-rule="evenodd" d="M1.72162 1.71967C2.01452 1.42678 2.48939 1.42678 2.78228 1.71967L22.2823 21.2197C22.5752 21.5126 22.5752 21.9874 22.2823 22.2803C21.9894 22.5732 21.5145 22.5732 21.2216 22.2803L1.72162 2.78033C1.42873 2.48744 1.42873 2.01256 1.72162 1.71967Z" fill="#6D6D6D"/>
</svg>
