<svg width="24" height="24" viewBox="0 0 24 24" fill="none" xmlns="http://www.w3.org/2000/svg">
<path fill-rule="evenodd" clip-rule="evenodd" d="M11.9985 1.5C12.2839 1.5 12.5447 1.66205 12.671 1.91803L15.6645 7.98247L22.3587 8.95511C22.6412 8.99616 22.8759 9.19404 22.9641 9.46554C23.0524 9.73705 22.9788 10.0351 22.7744 10.2344L17.9305 14.9562L19.0737 21.6233C19.1219 21.9046 19.0062 22.1889 18.7753 22.3567C18.5444 22.5245 18.2382 22.5467 17.9855 22.4139L11.9985 19.2673L6.01144 22.4139C5.75876 22.5467 5.45259 22.5245 5.22166 22.3567C4.99072 22.1889 4.87507 21.9046 4.92331 21.6233L6.06646 14.9562L1.2226 10.2344C1.01817 10.0351 0.944604 9.73705 1.03283 9.46554C1.12105 9.19404 1.35576 8.99616 1.63828 8.95511L8.33248 7.98247L11.326 1.91803C11.4523 1.66205 11.713 1.5 11.9985 1.5ZM11.9985 3.94444L9.50303 8.99995C9.39378 9.22129 9.18261 9.3747 8.93834 9.41019L3.35781 10.221L7.39582 14.1573C7.57257 14.3296 7.65322 14.5778 7.61151 14.8211L6.65849 20.3793L11.6496 17.7561C11.868 17.6413 12.129 17.6413 12.3474 17.7561L17.3385 20.3793L16.3855 14.8211C16.3437 14.5778 16.4244 14.3296 16.6011 14.1573L20.6391 10.221L15.0586 9.41019C14.8144 9.3747 14.6032 9.22129 14.4939 8.99995L11.9985 3.94444Z" fill="#6D6D6D"/>
</svg>
