<svg width="24" height="24" viewBox="0 0 24 24" fill="none" xmlns="http://www.w3.org/2000/svg">
<path fill-rule="evenodd" clip-rule="evenodd" d="M12.002 9.47754C12.4162 9.47754 12.752 9.81333 12.752 10.2275V13.023H15.5474C15.9616 13.023 16.2974 13.3588 16.2974 13.773C16.2974 14.1872 15.9616 14.523 15.5474 14.523H12.002C11.5877 14.523 11.252 14.1872 11.252 13.773V10.2275C11.252 9.81333 11.5877 9.47754 12.002 9.47754Z" fill="#6D6D6D"/>
<path fill-rule="evenodd" clip-rule="evenodd" d="M12.0017 6.54529C8.01017 6.54529 4.77441 9.78105 4.77441 13.7726C4.77441 17.7641 8.01017 20.9998 12.0017 20.9998C15.9932 20.9998 19.229 17.7641 19.229 13.7726C19.229 9.78105 15.9932 6.54529 12.0017 6.54529ZM3.27441 13.7726C3.27441 8.95262 7.18175 5.04529 12.0017 5.04529C16.8216 5.04529 20.729 8.95262 20.729 13.7726C20.729 18.5925 16.8216 22.4998 12.0017 22.4998C7.18175 22.4998 3.27441 18.5925 3.27441 13.7726Z" fill="#6D6D6D"/>
<path fill-rule="evenodd" clip-rule="evenodd" d="M8.59375 2.25C8.59375 1.83579 8.92954 1.5 9.34375 1.5H14.6619C15.0761 1.5 15.4119 1.83579 15.4119 2.25C15.4119 2.66421 15.0761 3 14.6619 3H9.34375C8.92954 3 8.59375 2.66421 8.59375 2.25Z" fill="#6D6D6D"/>
<path fill-rule="evenodd" clip-rule="evenodd" d="M12.002 1.5C12.4162 1.5 12.752 1.83579 12.752 2.25V3.13636C12.752 3.55058 12.4162 3.88636 12.002 3.88636C11.5877 3.88636 11.252 3.55058 11.252 3.13636V2.25C11.252 1.83579 11.5877 1.5 12.002 1.5Z" fill="#6D6D6D"/>
</svg>
