<svg width="24" height="24" viewBox="0 0 24 24" fill="none" xmlns="http://www.w3.org/2000/svg">
<path fill-rule="evenodd" clip-rule="evenodd" d="M15.0341 15.0347C15.327 14.7418 15.8019 14.7418 16.0948 15.0347L22.2804 21.2204C22.5733 21.5133 22.5733 21.9881 22.2804 22.281C21.9875 22.5739 21.5126 22.5739 21.2197 22.281L15.0341 16.0954C14.7412 15.8025 14.7412 15.3276 15.0341 15.0347Z" fill="#6D6D6D"/>
<path fill-rule="evenodd" clip-rule="evenodd" d="M10.0503 3C6.15652 3 3 6.15652 3 10.0503C3 13.944 6.15652 17.1006 10.0503 17.1006C13.944 17.1006 17.1006 13.944 17.1006 10.0503C17.1006 6.15652 13.944 3 10.0503 3ZM1.5 10.0503C1.5 5.32809 5.32809 1.5 10.0503 1.5C14.7725 1.5 18.6006 5.32809 18.6006 10.0503C18.6006 14.7725 14.7725 18.6006 10.0503 18.6006C5.32809 18.6006 1.5 14.7725 1.5 10.0503Z" fill="#6D6D6D"/>
</svg>
