<svg width="24" height="24" viewBox="0 0 24 24" fill="none" xmlns="http://www.w3.org/2000/svg">
<path fill-rule="evenodd" clip-rule="evenodd" d="M11.5137 3C6.56539 3 2.51367 7.05171 2.51367 12C2.51367 16.9483 6.56539 21 11.5137 21C16.462 21 20.5137 16.9483 20.5137 12C20.5137 11.1747 20.4216 10.3592 20.2436 9.6469C20.1431 9.24506 20.3874 8.83785 20.7893 8.73739C21.1911 8.63693 21.5983 8.88125 21.6988 9.2831C21.9107 10.1308 22.0137 11.0703 22.0137 12C22.0137 17.7767 17.2904 22.5 11.5137 22.5C5.73696 22.5 1.01367 17.7767 1.01367 12C1.01367 6.22329 5.73696 1.5 11.5137 1.5C13.5018 1.5 15.3953 2.02442 17.0787 3.0765C17.4299 3.29603 17.5367 3.75875 17.3172 4.11C17.0976 4.46125 16.6349 4.56803 16.2837 4.3485C14.847 3.45058 13.2306 3 11.5137 3Z" fill="#6D6D6D"/>
<path fill-rule="evenodd" clip-rule="evenodd" d="M22.7686 2.69489C23.0615 2.98778 23.0615 3.46266 22.7686 3.75555L12.0436 14.4806C11.903 14.6212 11.7122 14.7002 11.5133 14.7002C11.3144 14.7002 11.1236 14.6212 10.983 14.4806L7.08295 10.5805C6.79006 10.2877 6.79006 9.81278 7.08295 9.51989C7.37584 9.227 7.85072 9.227 8.14361 9.51989L11.5133 12.8896L21.708 2.69489C22.0008 2.402 22.4757 2.402 22.7686 2.69489Z" fill="#6D6D6D"/>
</svg>
