<svg width="24" height="24" viewBox="0 0 24 24" fill="none" xmlns="http://www.w3.org/2000/svg">
<path fill-rule="evenodd" clip-rule="evenodd" d="M4.0227 3.8866C3.45788 3.8866 3 4.34447 3 4.90929C3 5.47411 3.45788 5.93199 4.0227 5.93199C4.58752 5.93199 5.04539 5.47411 5.04539 4.90929C5.04539 4.34447 4.58752 3.8866 4.0227 3.8866ZM1.5 4.90929C1.5 3.51605 2.62945 2.3866 4.0227 2.3866C5.41595 2.3866 6.5454 3.51605 6.5454 4.90929C6.5454 6.30254 5.41595 7.43199 4.0227 7.43199C2.62945 7.43199 1.5 6.30254 1.5 4.90929Z" fill="#6D6D6D"/>
<path fill-rule="evenodd" clip-rule="evenodd" d="M4.0227 10.9772C3.45788 10.9772 3 11.4351 3 11.9999C3 12.5647 3.45788 13.0226 4.0227 13.0226C4.58752 13.0226 5.04539 12.5647 5.04539 11.9999C5.04539 11.4351 4.58752 10.9772 4.0227 10.9772ZM1.5 11.9999C1.5 10.6066 2.62945 9.47717 4.0227 9.47717C5.41595 9.47717 6.5454 10.6066 6.5454 11.9999C6.5454 13.3931 5.41595 14.5226 4.0227 14.5226C2.62945 14.5226 1.5 13.3931 1.5 11.9999Z" fill="#6D6D6D"/>
<path fill-rule="evenodd" clip-rule="evenodd" d="M4.0227 18.0681C3.45788 18.0681 3 18.526 3 19.0908C3 19.6556 3.45788 20.1135 4.0227 20.1135C4.58752 20.1135 5.04539 19.6556 5.04539 19.0908C5.04539 18.526 4.58752 18.0681 4.0227 18.0681ZM1.5 19.0908C1.5 17.6976 2.62945 16.5681 4.0227 16.5681C5.41595 16.5681 6.5454 17.6976 6.5454 19.0908C6.5454 20.4841 5.41595 21.6135 4.0227 21.6135C2.62945 21.6135 1.5 20.4841 1.5 19.0908Z" fill="#6D6D6D"/>
<path fill-rule="evenodd" clip-rule="evenodd" d="M8.5918 4.90906C8.5918 4.49484 8.92758 4.15906 9.3418 4.15906H21.7507C22.1649 4.15906 22.5007 4.49484 22.5007 4.90906C22.5007 5.32327 22.1649 5.65906 21.7507 5.65906H9.3418C8.92758 5.65906 8.5918 5.32327 8.5918 4.90906Z" fill="#6D6D6D"/>
<path fill-rule="evenodd" clip-rule="evenodd" d="M8.5918 12C8.5918 11.5858 8.92758 11.25 9.3418 11.25H21.7507C22.1649 11.25 22.5007 11.5858 22.5007 12C22.5007 12.4142 22.1649 12.75 21.7507 12.75H9.3418C8.92758 12.75 8.5918 12.4142 8.5918 12Z" fill="#6D6D6D"/>
<path fill-rule="evenodd" clip-rule="evenodd" d="M8.5918 19.0909C8.5918 18.6767 8.92758 18.3409 9.3418 18.3409H21.7507C22.1649 18.3409 22.5007 18.6767 22.5007 19.0909C22.5007 19.5052 22.1649 19.8409 21.7507 19.8409H9.3418C8.92758 19.8409 8.5918 19.5052 8.5918 19.0909Z" fill="#6D6D6D"/>
</svg>
