<svg width="24" height="24" viewBox="0 0 24 24" fill="none" xmlns="http://www.w3.org/2000/svg">
<path fill-rule="evenodd" clip-rule="evenodd" d="M11.3279 1.92151C11.5093 1.54914 11.9582 1.39433 12.3306 1.57574C16.1145 3.41917 18.0703 7.45589 18.0703 12C18.0703 16.5441 16.1145 20.5808 12.3306 22.4242C11.9582 22.6056 11.5093 22.4508 11.3279 22.0785C11.1465 21.7061 11.3013 21.2572 11.6736 21.0757C14.8034 19.551 16.5703 16.1422 16.5703 12C16.5703 7.85772 14.8034 4.44898 11.6736 2.92423C11.3013 2.74282 11.1465 2.29388 11.3279 1.92151Z" fill="#6D6D6D"/>
<path fill-rule="evenodd" clip-rule="evenodd" d="M12.676 1.92151C12.8574 2.29388 12.7026 2.74282 12.3303 2.92423C9.20049 4.44898 7.43359 7.85772 7.43359 12C7.43359 16.1422 9.20049 19.551 12.3303 21.0757C12.7026 21.2572 12.8574 21.7061 12.676 22.0785C12.4946 22.4508 12.0457 22.6056 11.6733 22.4242C7.88942 20.5808 5.93359 16.5441 5.93359 12C5.93359 7.45589 7.88942 3.41917 11.6733 1.57574C12.0457 1.39433 12.4946 1.54914 12.676 1.92151Z" fill="#6D6D6D"/>
<path fill-rule="evenodd" clip-rule="evenodd" d="M12.002 1.49982C12.4162 1.49982 12.752 1.8356 12.752 2.24982V21.7498C12.752 22.164 12.4162 22.4998 12.002 22.4998C11.5877 22.4998 11.252 22.164 11.252 21.7498V2.24982C11.252 1.8356 11.5877 1.49982 12.002 1.49982Z" fill="#6D6D6D"/>
<path fill-rule="evenodd" clip-rule="evenodd" d="M1.50098 11.9998C1.50098 11.5856 1.83676 11.2498 2.25098 11.2498H21.751C22.1652 11.2498 22.501 11.5856 22.501 11.9998C22.501 12.414 22.1652 12.7498 21.751 12.7498H2.25098C1.83676 12.7498 1.50098 12.414 1.50098 11.9998Z" fill="#6D6D6D"/>
<path fill-rule="evenodd" clip-rule="evenodd" d="M12.001 2.99982C7.03041 2.99982 3.00098 7.02925 3.00098 11.9998C3.00098 16.9704 7.03041 20.9998 12.001 20.9998C16.9715 20.9998 21.001 16.9704 21.001 11.9998C21.001 7.02925 16.9715 2.99982 12.001 2.99982ZM1.50098 11.9998C1.50098 6.20083 6.20199 1.49982 12.001 1.49982C17.8 1.49982 22.501 6.20083 22.501 11.9998C22.501 17.7988 17.8 22.4998 12.001 22.4998C6.20199 22.4998 1.50098 17.7988 1.50098 11.9998Z" fill="#6D6D6D"/>
</svg>
