<svg width="24" height="24" viewBox="0 0 24 24" fill="none" xmlns="http://www.w3.org/2000/svg">
<path fill-rule="evenodd" clip-rule="evenodd" d="M11.9951 18.15C11.5809 18.15 11.2451 17.8142 11.2451 17.4L11.2451 3.75002C11.2451 3.33581 11.5809 3.00002 11.9951 3.00002C12.4093 3.00002 12.7451 3.33581 12.7451 3.75002L12.7451 17.4C12.7451 17.8142 12.4093 18.15 11.9951 18.15Z" fill="#6D6D6D"/>
<path fill-rule="evenodd" clip-rule="evenodd" d="M12.5278 17.9304C12.2349 18.2232 11.76 18.2232 11.4671 17.9304L7.56713 14.0304C7.27424 13.7375 7.27424 13.2626 7.56713 12.9697C7.86002 12.6768 8.3349 12.6768 8.62779 12.9697L11.9975 16.3394L15.3671 12.9697C15.66 12.6768 16.1349 12.6768 16.4278 12.9697C16.7207 13.2626 16.7207 13.7375 16.4278 14.0304L12.5278 17.9304Z" fill="#6D6D6D"/>
<path fill-rule="evenodd" clip-rule="evenodd" d="M4.19902 10.7999C3.88076 10.7999 3.57554 10.9263 3.3505 11.1513C3.12545 11.3764 2.99902 11.6816 2.99902 11.9999V19.7999C2.99902 20.1181 3.12545 20.4234 3.3505 20.6484C3.57554 20.8734 3.88076 20.9999 4.19902 20.9999H19.799C20.1173 20.9999 20.4225 20.8734 20.6476 20.6484C20.8726 20.4233 20.999 20.1181 20.999 19.7999V11.9999C20.999 11.6816 20.8726 11.3764 20.6476 11.1513C20.4225 10.9263 20.1173 10.7999 19.799 10.7999H16.874C16.4598 10.7999 16.124 10.4641 16.124 10.0499C16.124 9.63565 16.4598 9.29987 16.874 9.29987H19.799C20.5151 9.29987 21.2019 9.58433 21.7082 10.0907C22.2146 10.597 22.499 11.2838 22.499 11.9999V19.7999C22.499 20.516 22.2146 21.2027 21.7082 21.7091C21.2019 22.2154 20.5151 22.4999 19.799 22.4999H4.19902C3.48294 22.4999 2.79618 22.2154 2.28984 21.7091C1.78349 21.2027 1.49902 20.516 1.49902 19.7999V11.9999C1.49902 11.2838 1.78349 10.597 2.28984 10.0907C2.79618 9.58433 3.48294 9.29987 4.19902 9.29987H7.12402C7.53824 9.29987 7.87402 9.63565 7.87402 10.0499C7.87402 10.4641 7.53824 10.7999 7.12402 10.7999H4.19902Z" fill="#6D6D6D"/>
</svg>
