<svg width="24" height="24" viewBox="0 0 24 24" fill="none" xmlns="http://www.w3.org/2000/svg">
<path fill-rule="evenodd" clip-rule="evenodd" d="M11.999 1.5C12.4132 1.5 12.749 1.83579 12.749 2.25L12.749 21.75C12.749 22.1642 12.4132 22.5 11.999 22.5C11.5848 22.5 11.249 22.1642 11.249 21.75L11.249 2.25C11.249 1.83579 11.5848 1.5 11.999 1.5Z" fill="#6D6D6D"/>
<path fill-rule="evenodd" clip-rule="evenodd" d="M11.4685 1.71967C11.7614 1.42678 12.2363 1.42678 12.5292 1.71967L19.3542 8.54467C19.6471 8.83756 19.6471 9.31244 19.3542 9.60533C19.0613 9.89822 18.5864 9.89822 18.2935 9.60533L11.9988 3.31066L5.70416 9.60533C5.41127 9.89822 4.93639 9.89822 4.6435 9.60533C4.3506 9.31244 4.3506 8.83756 4.6435 8.54467L11.4685 1.71967Z" fill="#6D6D6D"/>
</svg>
