<svg width="24" height="24" viewBox="0 0 24 24" fill="none" xmlns="http://www.w3.org/2000/svg">
<path fill-rule="evenodd" clip-rule="evenodd" d="M2.38867 5.79529C2.38867 5.38107 2.72446 5.04529 3.13867 5.04529H17.3204C17.7346 5.04529 18.0704 5.38107 18.0704 5.79529V21.7497C18.0704 22.164 17.7346 22.4997 17.3204 22.4997H3.13867C2.72446 22.4997 2.38867 22.164 2.38867 21.7497V5.79529ZM3.88867 6.54529V20.9997H16.5704V6.54529H3.88867Z" fill="#6D6D6D"/>
<path fill-rule="evenodd" clip-rule="evenodd" d="M5.04883 2.25C5.04883 1.83579 5.38461 1.5 5.79883 1.5H20.8669C21.2811 1.5 21.6169 1.83579 21.6169 2.25V19.9772C21.6169 20.3914 21.2811 20.7272 20.8669 20.7272C20.4527 20.7272 20.1169 20.3914 20.1169 19.9772V3H5.79883C5.38461 3 5.04883 2.66421 5.04883 2.25Z" fill="#6D6D6D"/>
<path fill-rule="evenodd" clip-rule="evenodd" d="M5.93555 10.2275C5.93555 9.81333 6.27133 9.47754 6.68555 9.47754H13.7764C14.1906 9.47754 14.5264 9.81333 14.5264 10.2275C14.5264 10.6418 14.1906 10.9775 13.7764 10.9775H6.68555C6.27133 10.9775 5.93555 10.6418 5.93555 10.2275Z" fill="#6D6D6D"/>
<path fill-rule="evenodd" clip-rule="evenodd" d="M5.93555 13.7728C5.93555 13.3586 6.27133 13.0228 6.68555 13.0228H13.7764C14.1906 13.0228 14.5264 13.3586 14.5264 13.7728C14.5264 14.187 14.1906 14.5228 13.7764 14.5228H6.68555C6.27133 14.5228 5.93555 14.187 5.93555 13.7728Z" fill="#6D6D6D"/>
<path fill-rule="evenodd" clip-rule="evenodd" d="M5.93555 17.3181C5.93555 16.9039 6.27133 16.5681 6.68555 16.5681H10.231C10.6452 16.5681 10.981 16.9039 10.981 17.3181C10.981 17.7323 10.6452 18.0681 10.231 18.0681H6.68555C6.27133 18.0681 5.93555 17.7323 5.93555 17.3181Z" fill="#6D6D6D"/>
</svg>
