<svg width="204" height="200" viewBox="0 0 204 200" fill="none" xmlns="http://www.w3.org/2000/svg">
<g clip-path="url(#clip0_6574_216995)">
<path d="M129.509 44.9795H74.5395C73.2868 44.981 72.0859 45.4815 71.2002 46.3711C70.3144 47.2608 69.8161 48.4669 69.8146 49.725V172.429L69.1846 172.622L55.6998 176.769C55.0607 176.965 54.3704 176.898 53.7805 176.583C53.1905 176.268 52.7491 175.731 52.5531 175.089L12.442 43.4957C12.2468 42.8539 12.3133 42.1604 12.627 41.5678C12.9406 40.9751 13.4757 40.5318 14.1146 40.3352L34.8947 33.9446L95.1368 15.4243L115.917 9.0337C116.233 8.93594 116.565 8.90179 116.895 8.93318C117.224 8.96457 117.544 9.06089 117.836 9.21663C118.129 9.37237 118.388 9.58448 118.598 9.8408C118.809 10.0971 118.967 10.3927 119.064 10.7105L129.316 44.3468L129.509 44.9795Z" fill="#F2F2F2"/>
<path d="M141.505 44.3479L129.147 3.80846C128.942 3.13299 128.606 2.50484 128.158 1.95989C127.711 1.41493 127.161 0.963866 126.54 0.632456C125.919 0.301047 125.239 0.0957882 124.539 0.0284179C123.839 -0.0389524 123.133 0.0328856 122.46 0.239819L93.2447 9.22153L33.0058 27.7449L3.79031 36.7298C2.43311 37.1484 1.29671 38.0907 0.630546 39.3499C-0.0356178 40.6091 -0.17712 42.0824 0.237104 43.4463L42.4712 181.994C42.8077 183.095 43.4867 184.058 44.4085 184.743C45.3303 185.428 46.4464 185.798 47.5931 185.8C48.1238 185.8 48.6515 185.72 49.1585 185.562L69.1857 179.406L69.8157 179.21V178.548L69.1857 178.741L48.9727 184.958C47.7747 185.325 46.4808 185.199 45.3748 184.609C44.2688 184.019 43.4409 183.012 43.0729 181.81L0.842017 43.2596C0.659665 42.6639 0.596111 42.0379 0.654991 41.4174C0.713871 40.797 0.894024 40.1943 1.18515 39.6438C1.47627 39.0934 1.87264 38.6061 2.35155 38.2097C2.83046 37.8134 3.38251 37.5158 3.97609 37.334L33.1916 28.3492L93.4306 9.82896L122.646 0.84409C123.096 0.706089 123.564 0.635726 124.035 0.635285C125.045 0.637563 126.028 0.964675 126.84 1.56871C127.652 2.17274 128.25 3.02195 128.546 3.99196L140.846 44.3479L141.042 44.9807H141.697L141.505 44.3479Z" fill="#5A5A5A"/>
<path d="M38.644 40.438C38.0369 40.4375 37.4459 40.2417 36.9577 39.8792C36.4695 39.5167 36.1099 39.0066 35.9315 38.4237L31.8743 25.1135C31.7652 24.756 31.7274 24.3804 31.7629 24.0082C31.7985 23.636 31.9066 23.2744 32.0813 22.9442C32.256 22.614 32.4937 22.3216 32.7809 22.0836C33.0681 21.8457 33.3991 21.6669 33.7551 21.5575L89.1745 4.51668C89.8934 4.29633 90.67 4.37148 91.3338 4.72562C91.9976 5.07977 92.4944 5.68397 92.7152 6.40562L96.7724 19.716C96.9917 20.438 96.9168 21.218 96.5642 21.8847C96.2116 22.5514 95.6101 23.0503 94.8917 23.2722L39.4722 40.313C39.2038 40.3957 38.9247 40.4378 38.644 40.438Z" fill="black"/>
<path d="M59.8975 14.2212C63.3768 14.2212 66.1973 11.3883 66.1973 7.89378C66.1973 4.39927 63.3768 1.56641 59.8975 1.56641C56.4182 1.56641 53.5977 4.39927 53.5977 7.89378C53.5977 11.3883 56.4182 14.2212 59.8975 14.2212Z" fill="black"/>
<path d="M59.8955 11.9021C62.0987 11.9021 63.8847 10.1082 63.8847 7.89536C63.8847 5.68253 62.0987 3.88867 59.8955 3.88867C57.6923 3.88867 55.9062 5.68253 55.9062 7.89536C55.9062 10.1082 57.6923 11.9021 59.8955 11.9021Z" fill="white"/>
<path d="M189.824 184.181H83.3571C82.6473 184.181 81.9667 183.897 81.4648 183.393C80.9628 182.889 80.6805 182.205 80.6797 181.492V53.363C80.6805 52.65 80.9628 51.9665 81.4648 51.4623C81.9667 50.9582 82.6473 50.6746 83.3571 50.6738H189.824C190.534 50.6747 191.215 50.9582 191.717 51.4624C192.219 51.9665 192.501 52.65 192.502 53.363V181.492C192.501 182.205 192.219 182.889 191.717 183.393C191.215 183.897 190.534 184.181 189.824 184.181Z" fill="#F2F2F2"/>
<path d="M140.844 44.3457H74.5385C73.1189 44.3477 71.758 44.915 70.7542 45.9232C69.7504 46.9314 69.1856 48.2982 69.1836 49.724V178.739L69.8136 178.546V49.724C69.8151 48.4658 70.3134 47.2597 71.1991 46.3701C72.0849 45.4804 73.2858 44.98 74.5385 44.9784H141.04L140.844 44.3457ZM198.645 44.3457H74.5385C73.1189 44.3477 71.758 44.915 70.7542 45.9232C69.7504 46.9314 69.1856 48.2982 69.1836 49.724V194.621C69.1856 196.047 69.7504 197.413 70.7542 198.422C71.758 199.43 73.1189 199.997 74.5385 199.999H198.645C200.065 199.997 201.426 199.43 202.429 198.422C203.433 197.413 203.998 196.047 204 194.621V49.724C203.998 48.2982 203.433 46.9314 202.429 45.9232C201.426 44.915 200.065 44.3477 198.645 44.3457V44.3457ZM203.37 194.621C203.369 195.879 202.87 197.085 201.984 197.975C201.099 198.864 199.898 199.365 198.645 199.366H74.5385C73.2858 199.365 72.0849 198.864 71.1991 197.975C70.3134 197.085 69.8151 195.879 69.8136 194.621V49.724C69.8151 48.4658 70.3134 47.2597 71.1991 46.3701C72.0849 45.4804 73.2858 44.98 74.5385 44.9784H198.645C199.898 44.98 201.099 45.4804 201.984 46.3701C202.87 47.2597 203.369 48.4658 203.37 49.724V194.621Z" fill="#5A5A5A"/>
<path d="M165.571 58.2672H107.612C106.861 58.2664 106.14 57.9661 105.609 57.4323C105.077 56.8985 104.778 56.1748 104.777 55.4199V41.4997C104.778 40.7448 105.077 40.021 105.609 39.4872C106.14 38.9535 106.861 38.6532 107.612 38.6523H165.571C166.322 38.6532 167.043 38.9535 167.574 39.4872C168.106 40.021 168.405 40.7448 168.406 41.4997V55.4199C168.405 56.1748 168.106 56.8985 167.574 57.4323C167.043 57.9661 166.322 58.2664 165.571 58.2672Z" fill="black"/>
<path d="M136.593 39.6001C140.072 39.6001 142.893 36.7672 142.893 33.2727C142.893 29.7782 140.072 26.9453 136.593 26.9453C133.113 26.9453 130.293 29.7782 130.293 33.2727C130.293 36.7672 133.113 39.6001 136.593 39.6001Z" fill="black"/>
<path d="M136.591 37.1278C138.71 37.1278 140.428 35.4024 140.428 33.2739C140.428 31.1454 138.71 29.4199 136.591 29.4199C134.472 29.4199 132.754 31.1454 132.754 33.2739C132.754 35.4024 134.472 37.1278 136.591 37.1278Z" fill="white"/>
</g>
<defs>
<clipPath id="clip0_6574_216995">
<rect width="204" height="200" fill="white"/>
</clipPath>
</defs>
</svg>
