<svg width="32" height="32" viewBox="0 0 32 32" fill="none" xmlns="http://www.w3.org/2000/svg">
<path fill-rule="evenodd" clip-rule="evenodd" d="M16.0005 4C9.3728 4 4 9.3728 4 16.0005C4 22.6282 9.3728 28.001 16.0005 28.001C22.6282 28.001 28.001 22.6282 28.001 16.0005C28.001 9.3728 22.6282 4 16.0005 4ZM2 16.0005C2 8.26823 8.26823 2 16.0005 2C23.7327 2 30.001 8.26823 30.001 16.0005C30.001 23.7327 23.7327 30.001 16.0005 30.001C8.26823 30.001 2 23.7327 2 16.0005Z" fill="#6D6D6D"/>
<path fill-rule="evenodd" clip-rule="evenodd" d="M16.0024 7.91016C16.5547 7.91016 17.0024 8.35787 17.0024 8.91016V15.0013H23.0936C23.6459 15.0013 24.0936 15.449 24.0936 16.0013C24.0936 16.5536 23.6459 17.0013 23.0936 17.0013H16.0024C15.4502 17.0013 15.0024 16.5536 15.0024 16.0013V8.91016C15.0024 8.35787 15.4502 7.91016 16.0024 7.91016Z" fill="#6D6D6D"/>
</svg>
