<svg width="24" height="24" viewBox="0 0 24 24" fill="none" xmlns="http://www.w3.org/2000/svg">
<path fill-rule="evenodd" clip-rule="evenodd" d="M4.15039 13.1636C5.91324 12.6244 8.60828 12.2138 11.66 12.2138C12.1018 12.2138 12.46 12.3249 12.46 12.7257C12.46 13.1266 12.1018 13.4515 11.66 13.4515C8.83801 13.4515 6.3228 14.031 4.66197 14.539C3.72829 14.8258 3.1 15.6263 3.1 16.5301V19.5483H12.699C13.1408 19.5483 13.5 19.8733 13.5 20.2741C13.5 20.675 13.1418 20.9999 12.7 20.9999H2.30106C1.85923 20.9999 1.5 20.675 1.5 20.2741V16.5301C1.5 15.0129 2.55709 13.6526 4.15039 13.1636Z" fill="#6D6D6D"/>
<path fill-rule="evenodd" clip-rule="evenodd" d="M11.25 2.86356C9.12409 2.86356 7.4 4.54287 7.4 6.61356V7.49992C7.4 8.55396 7.84548 9.73837 8.58382 10.6562C9.32426 11.5767 10.2783 12.1363 11.25 12.1363C12.2217 12.1363 13.1757 11.5767 13.9162 10.6562C14.6545 9.73837 15.1 8.55396 15.1 7.49992V6.61356C15.1 4.54287 13.3759 2.86356 11.25 2.86356ZM6 6.61356C6 3.78975 8.35089 1.49992 11.25 1.49992C14.1491 1.49992 16.5 3.78975 16.5 6.61356V7.49992C16.5 8.89313 15.9267 10.3678 15.0182 11.4972C14.1118 12.6241 12.7908 13.4999 11.25 13.4999C9.70918 13.4999 8.38823 12.6241 7.4818 11.4972C6.57327 10.3678 6 8.89313 6 7.49992V6.61356Z" fill="#6D6D6D"/>
<path fill-rule="evenodd" clip-rule="evenodd" d="M18.8232 14.6249C19.2375 14.6249 19.5732 14.9607 19.5732 15.3749V21.2249C19.5732 21.6391 19.2375 21.9749 18.8232 21.9749C18.409 21.9749 18.0732 21.6391 18.0732 21.2249V15.3749C18.0732 14.9607 18.409 14.6249 18.8232 14.6249Z" fill="#6D6D6D"/>
<path fill-rule="evenodd" clip-rule="evenodd" d="M15.1504 18.2999C15.1504 17.8856 15.4862 17.5499 15.9004 17.5499H21.7504C22.1646 17.5499 22.5004 17.8856 22.5004 18.2999C22.5004 18.7141 22.1646 19.0499 21.7504 19.0499H15.9004C15.4862 19.0499 15.1504 18.7141 15.1504 18.2999Z" fill="#6D6D6D"/>
</svg>
