<svg width="24" height="24" viewBox="0 0 24 24" fill="none" xmlns="http://www.w3.org/2000/svg">
<path fill-rule="evenodd" clip-rule="evenodd" d="M11.9999 1.5C12.2673 1.5 12.5114 1.65176 12.6298 1.89148L15.6504 8.01096L22.4024 8.99178C22.667 9.03021 22.8868 9.21554 22.9694 9.46983C23.052 9.72412 22.9831 10.0033 22.7916 10.1899L17.9053 14.9518L19.0585 21.679C19.1037 21.9425 18.9954 22.2087 18.7791 22.3659C18.5628 22.523 18.276 22.5437 18.0394 22.4193L11.9999 19.2441L5.96049 22.4193C5.72386 22.5437 5.43712 22.523 5.22083 22.3659C5.00454 22.2087 4.8962 21.9425 4.94137 21.679L6.09455 14.9518L1.20828 10.1899C1.0168 10.0033 0.947869 9.72412 1.03048 9.46983C1.1131 9.21554 1.33292 9.03021 1.59752 8.99178L8.34948 8.01096L11.3701 1.89148C11.4885 1.65176 11.7326 1.5 11.9999 1.5Z" fill="#E89D35"/>
</svg>
