<svg width="24" height="24" viewBox="0 0 24 24" fill="none" xmlns="http://www.w3.org/2000/svg">
<path fill-rule="evenodd" clip-rule="evenodd" d="M1.5 4.49994C1.5 4.08573 1.83579 3.74994 2.25 3.74994H21.75C22.1642 3.74994 22.5 4.08573 22.5 4.49994C22.5 4.91415 22.1642 5.24994 21.75 5.24994H2.25C1.83579 5.24994 1.5 4.91415 1.5 4.49994Z" fill="#6D6D6D"/>
<path fill-rule="evenodd" clip-rule="evenodd" d="M1.5 11.9999C1.5 11.5857 1.83579 11.2499 2.25 11.2499H21.75C22.1642 11.2499 22.5 11.5857 22.5 11.9999C22.5 12.4142 22.1642 12.7499 21.75 12.7499H2.25C1.83579 12.7499 1.5 12.4142 1.5 11.9999Z" fill="#6D6D6D"/>
<path fill-rule="evenodd" clip-rule="evenodd" d="M1.5 19.4999C1.5 19.0857 1.83579 18.7499 2.25 18.7499H21.75C22.1642 18.7499 22.5 19.0857 22.5 19.4999C22.5 19.9142 22.1642 20.2499 21.75 20.2499H2.25C1.83579 20.2499 1.5 19.9142 1.5 19.4999Z" fill="#6D6D6D"/>
</svg>
