<svg width="24" height="24" viewBox="0 0 24 24" fill="none" xmlns="http://www.w3.org/2000/svg">
<path fill-rule="evenodd" clip-rule="evenodd" d="M3.12 12C3.22967 12.1788 3.38065 12.4163 3.57045 12.6947C4.01112 13.341 4.6561 14.2005 5.47377 15.0571C7.13088 16.7931 9.38343 18.4 12 18.4C14.6166 18.4 16.8691 16.7931 18.5262 15.0571C19.3439 14.2005 19.9889 13.341 20.4295 12.6947C20.6193 12.4163 20.7703 12.1788 20.88 12C20.7703 11.8211 20.6193 11.5837 20.4295 11.3053C19.9889 10.659 19.3439 9.79944 18.5262 8.94283C16.8691 7.20681 14.6166 5.59998 12 5.59998C9.38343 5.59998 7.13088 7.20681 5.47377 8.94283C4.6561 9.79944 4.01112 10.659 3.57045 11.3053C3.38065 11.5837 3.22967 11.8211 3.12 12ZM21.75 12C22.4084 11.6408 22.4083 11.6406 22.4082 11.6403L22.4078 11.6397L22.4068 11.6379L22.4038 11.6324L22.3934 11.6137C22.3846 11.5979 22.3719 11.5755 22.3556 11.5469C22.3229 11.4898 22.2752 11.408 22.213 11.305C22.0887 11.0992 21.9061 10.8081 21.6689 10.4603C21.1955 9.76597 20.4998 8.83801 19.6113 7.90712C17.8559 6.06814 15.2334 4.09998 12 4.09998C8.76657 4.09998 6.14412 6.06814 4.38873 7.90712C3.50015 8.83801 2.80451 9.76597 2.33111 10.4603C2.09393 10.8081 1.91131 11.0992 1.78699 11.305C1.7248 11.408 1.67712 11.4898 1.64441 11.5469C1.62805 11.5755 1.61543 11.5979 1.60661 11.6137L1.59623 11.6324L1.59318 11.6379L1.5922 11.6397L1.59184 11.6403C1.5917 11.6406 1.59158 11.6408 2.25 12L1.59158 11.6408C1.46947 11.8647 1.46947 12.1353 1.59158 12.3591L2.25 12C1.59158 12.3591 1.5917 12.3593 1.59184 12.3596L1.5922 12.3603L1.59318 12.362L1.59623 12.3676L1.60661 12.3863C1.61543 12.4021 1.62805 12.4245 1.64441 12.453C1.67712 12.5101 1.7248 12.5919 1.78699 12.6949C1.91131 12.9008 2.09393 13.1918 2.33111 13.5397C2.80451 14.234 3.50015 15.1619 4.38873 16.0928C6.14412 17.9318 8.76657 19.9 12 19.9C15.2334 19.9 17.8559 17.9318 19.6113 16.0928C20.4998 15.1619 21.1955 14.234 21.6689 13.5397C21.9061 13.1918 22.0887 12.9008 22.213 12.6949C22.2752 12.5919 22.3229 12.5101 22.3556 12.453C22.3719 12.4245 22.3846 12.4021 22.3934 12.3863L22.4038 12.3676L22.4068 12.362L22.4078 12.3603L22.4082 12.3596C22.4083 12.3593 22.4084 12.3591 21.75 12ZM21.75 12L22.4084 12.3591C22.5305 12.1353 22.5305 11.8647 22.4084 11.6408L21.75 12Z" fill="#6D6D6D"/>
<path fill-rule="evenodd" clip-rule="evenodd" d="M12 9.49976C10.6193 9.49976 9.5 10.619 9.5 11.9998C9.5 13.3805 10.6193 14.4998 12 14.4998C13.3807 14.4998 14.5 13.3805 14.5 11.9998C14.5 10.619 13.3807 9.49976 12 9.49976ZM8 11.9998C8 9.79062 9.79086 7.99976 12 7.99976C14.2091 7.99976 16 9.79062 16 11.9998C16 14.2089 14.2091 15.9998 12 15.9998C9.79086 15.9998 8 14.2089 8 11.9998Z" fill="#6D6D6D"/>
</svg>
