<svg width="24" height="24" viewBox="0 0 24 24" fill="none" xmlns="http://www.w3.org/2000/svg">
<path fill-rule="evenodd" clip-rule="evenodd" d="M17.4914 3.93311C16.0182 2.45996 13.7459 2.45996 12.2728 3.93311L4.61995 11.5859C2.46002 13.7459 2.46002 17.3918 4.61995 19.5517C6.77989 21.7116 10.4258 21.7116 12.5857 19.5517L21.2197 10.9177C21.5126 10.6248 21.9874 10.6248 22.2803 10.9177C22.5732 11.2106 22.5732 11.6855 22.2803 11.9784L13.6464 20.6124C10.9006 23.3581 6.30502 23.3581 3.55929 20.6124C0.813569 17.8666 0.813569 13.271 3.55929 10.5253L11.2121 2.87245C13.2711 0.813514 16.4931 0.813514 18.552 2.87245C20.611 4.93138 20.611 8.15342 18.552 10.2124L18.5483 10.2161L18.5483 10.216L11.4879 17.1784C11.4872 17.179 11.4866 17.1797 11.4859 17.1803C10.2328 18.4314 8.17653 18.4773 6.97945 17.1645C5.74025 15.9106 5.69849 13.8642 7.00622 12.6708L12.88 6.79697C13.1729 6.50408 13.6478 6.50408 13.9407 6.79697C14.2336 7.08987 14.2336 7.56474 13.9407 7.85763L8.05391 13.7444C8.04462 13.7537 8.03508 13.7628 8.02531 13.7716C7.39161 14.3419 7.34928 15.4131 8.05391 16.1177C8.06321 16.127 8.07226 16.1366 8.08106 16.1463C8.65139 16.78 9.72258 16.8224 10.4272 16.1177L10.4309 16.114L10.4309 16.114L17.4914 9.15169C17.492 9.15108 17.4926 9.15047 17.4932 9.14986C18.9645 7.67666 18.9639 5.40564 17.4914 3.93311Z" fill="#6D6D6D"/>
</svg>
