<svg width="24" height="24" viewBox="0 0 24 24" fill="none" xmlns="http://www.w3.org/2000/svg">
<path fill-rule="evenodd" clip-rule="evenodd" d="M3.27441 6.68152C3.27441 6.2673 3.6102 5.93152 4.02441 5.93152H19.979C20.3932 5.93152 20.729 6.2673 20.729 6.68152V21.7497C20.729 22.1639 20.3932 22.4997 19.979 22.4997H4.02441C3.6102 22.4997 3.27441 22.1639 3.27441 21.7497V6.68152ZM4.77441 7.43152V20.9997H19.229V7.43152H4.77441Z" fill="#6D6D6D"/>
<path fill-rule="evenodd" clip-rule="evenodd" d="M12.0025 3C10.4667 3 9.20703 4.25967 9.20703 5.79546V9.34091C9.20703 9.75512 8.87124 10.0909 8.45703 10.0909C8.04282 10.0909 7.70703 9.75512 7.70703 9.34091V5.79546C7.70703 3.43124 9.63827 1.5 12.0025 1.5C14.3667 1.5 16.2979 3.43124 16.2979 5.79546V9.34091C16.2979 9.75512 15.9622 10.0909 15.5479 10.0909C15.1337 10.0909 14.7979 9.75512 14.7979 9.34091V5.79546C14.7979 4.25967 13.5383 3 12.0025 3Z" fill="#6D6D6D"/>
</svg>
