<svg width="24" height="24" viewBox="0 0 24 24" fill="none" xmlns="http://www.w3.org/2000/svg">
<path fill-rule="evenodd" clip-rule="evenodd" d="M3.11969 11.9997C3.22936 12.1786 3.38034 12.416 3.57014 12.6944C4.01081 13.3407 4.65578 14.2003 5.47346 15.0569C7.13056 16.7929 9.38312 18.3997 11.9997 18.3997C14.6163 18.3997 16.8688 16.7929 18.5259 15.0569C19.3436 14.2003 19.9886 13.3407 20.4292 12.6944C20.619 12.416 20.77 12.1786 20.8797 11.9997C20.77 11.8209 20.619 11.5834 20.4292 11.305C19.9886 10.6587 19.3436 9.7992 18.5259 8.94259C16.8688 7.20657 14.6163 5.59973 11.9997 5.59973C9.38312 5.59973 7.13056 7.20657 5.47346 8.94259C4.65578 9.7992 4.01081 10.6587 3.57014 11.305C3.38034 11.5834 3.22936 11.8209 3.11969 11.9997ZM21.7497 11.9997C22.4081 11.6406 22.408 11.6404 22.4078 11.6401L22.4065 11.6377L22.4035 11.6321L22.3931 11.6134C22.3843 11.5976 22.3716 11.5753 22.3553 11.5467C22.3226 11.4896 22.2749 11.4078 22.2127 11.3048C22.0884 11.0989 21.9058 10.8079 21.6686 10.46C21.1952 9.76572 20.4995 8.83777 19.611 7.90687C17.8556 6.06789 15.2331 4.09973 11.9997 4.09973C8.76626 4.09973 6.14381 6.06789 4.38842 7.90687C3.49984 8.83777 2.8042 9.76572 2.3308 10.46C2.09362 10.8079 1.911 11.0989 1.78668 11.3048C1.72449 11.4078 1.67681 11.4896 1.6441 11.5467C1.62774 11.5753 1.61512 11.5976 1.6063 11.6134L1.59592 11.6321L1.59287 11.6377L1.59189 11.6395C1.59175 11.6397 1.59127 11.6406 2.24969 11.9997L1.59189 11.6395C1.46979 11.8633 1.46916 12.135 1.59127 12.3589L2.24969 11.9997C1.59127 12.3589 1.59113 12.3586 1.59127 12.3589L1.59287 12.3618L1.59592 12.3673L1.6063 12.386C1.61512 12.4018 1.62774 12.4242 1.6441 12.4528C1.67681 12.5099 1.72449 12.5917 1.78668 12.6947C1.911 12.9005 2.09362 13.1916 2.3308 13.5394C2.8042 14.2337 3.49984 15.1617 4.38842 16.0926C6.14381 17.9316 8.76626 19.8997 11.9997 19.8997C15.2331 19.8997 17.8556 17.9316 19.611 16.0926C20.4995 15.1617 21.1952 14.2337 21.6686 13.5394C21.9058 13.1916 22.0884 12.9005 22.2127 12.6947C22.2749 12.5917 22.3226 12.5099 22.3553 12.4528C22.3716 12.4242 22.3843 12.4018 22.3931 12.386L22.4035 12.3673L22.4065 12.3618L22.4075 12.36C22.4076 12.3598 22.4081 12.3589 21.7497 11.9997ZM21.7497 11.9997L22.4075 12.36C22.5296 12.1362 22.5299 11.864 22.4078 11.6401L21.7497 11.9997Z" fill="#6D6D6D"/>
<path fill-rule="evenodd" clip-rule="evenodd" d="M12 9.49988C10.6193 9.49988 9.5 10.6192 9.5 11.9999C9.5 13.3806 10.6193 14.4999 12 14.4999C13.3807 14.4999 14.5 13.3806 14.5 11.9999C14.5 10.6192 13.3807 9.49988 12 9.49988ZM8 11.9999C8 9.79074 9.79086 7.99988 12 7.99988C14.2091 7.99988 16 9.79074 16 11.9999C16 14.209 14.2091 15.9999 12 15.9999C9.79086 15.9999 8 14.209 8 11.9999Z" fill="#6D6D6D"/>
<path fill-rule="evenodd" clip-rule="evenodd" d="M21.6307 2.36951C21.9236 2.6624 21.9236 3.13728 21.6307 3.43017L3.43072 21.6302C3.13783 21.9231 2.66295 21.9231 2.37006 21.6302C2.07717 21.3373 2.07717 20.8624 2.37006 20.5695L20.5701 2.36951C20.863 2.07662 21.3378 2.07662 21.6307 2.36951Z" fill="#6D6D6D"/>
</svg>
