<svg width="24" height="24" viewBox="0 0 24 24" fill="none" xmlns="http://www.w3.org/2000/svg">
<path fill-rule="evenodd" clip-rule="evenodd" d="M1.5 12.0004C1.5 6.20117 6.20117 1.5 12.0004 1.5C17.7996 1.5 22.5007 6.20117 22.5007 12.0004C22.5007 17.7996 17.7996 22.5007 12.0004 22.5007C6.20117 22.5007 1.5 17.7996 1.5 12.0004Z" fill="#1C00C2"/>
<path fill-rule="evenodd" clip-rule="evenodd" d="M17.8497 7.92475C18.1426 8.21764 18.1426 8.69252 17.8497 8.98541L10.7585 16.0766C10.4656 16.3695 9.99077 16.3695 9.69787 16.0766L6.15229 12.531C5.85939 12.2381 5.85939 11.7632 6.15229 11.4703C6.44518 11.1774 6.92005 11.1774 7.21295 11.4703L10.2282 14.4856L16.789 7.92475C17.0819 7.63185 17.5568 7.63185 17.8497 7.92475Z" fill="white"/>
</svg>
