<svg width="24" height="24" viewBox="0 0 24 24" fill="none" xmlns="http://www.w3.org/2000/svg">
<path fill-rule="evenodd" clip-rule="evenodd" d="M16.4357 9.47666C16.6533 9.47777 16.8597 9.57334 17.0013 9.73856L22.3195 15.9431C22.589 16.2576 22.5526 16.7311 22.2381 17.0006C21.9236 17.2702 21.4501 17.2338 21.1806 16.9193L16.426 11.3723L10.7917 17.8114C10.655 17.9677 10.4597 18.0602 10.2522 18.0671C10.0448 18.0741 9.84374 17.9947 9.69696 17.8479L6.73224 14.8832L2.82618 19.5704C2.56101 19.8886 2.08809 19.9316 1.76988 19.6665C1.45167 19.4013 1.40868 18.9284 1.67385 18.6102L6.10567 13.292C6.24057 13.1301 6.43735 13.0324 6.64785 13.0229C6.85835 13.0133 7.06316 13.0928 7.21217 13.2418L10.1908 16.2204L15.8674 9.73278C16.0107 9.56901 16.2181 9.47555 16.4357 9.47666Z" fill="#6D6D6D"/>
<path fill-rule="evenodd" clip-rule="evenodd" d="M1.5 4.02267C1.5 3.60846 1.83579 3.27267 2.25 3.27267H21.75C22.1642 3.27267 22.5 3.60846 22.5 4.02267V19.9772C22.5 20.3914 22.1642 20.7272 21.75 20.7272H2.25C1.83579 20.7272 1.5 20.3914 1.5 19.9772V4.02267ZM3 4.77267V19.2272H21V4.77267H3Z" fill="#6D6D6D"/>
<path fill-rule="evenodd" clip-rule="evenodd" d="M9.34109 7.43137C8.77625 7.43137 8.31836 7.88926 8.31836 8.45409C8.31836 9.01893 8.77625 9.47682 9.34109 9.47682C9.90592 9.47682 10.3638 9.01893 10.3638 8.45409C10.3638 7.88926 9.90592 7.43137 9.34109 7.43137ZM6.81836 8.45409C6.81836 7.06083 7.94782 5.93137 9.34109 5.93137C10.7344 5.93137 11.8638 7.06083 11.8638 8.45409C11.8638 9.84736 10.7344 10.9768 9.34109 10.9768C7.94782 10.9768 6.81836 9.84736 6.81836 8.45409Z" fill="#6D6D6D"/>
</svg>
