<svg width="24" height="24" viewBox="0 0 24 24" fill="none" xmlns="http://www.w3.org/2000/svg">
<path fill-rule="evenodd" clip-rule="evenodd" d="M10.3094 2.24999H13.6908C13.9072 2.24985 14.0957 2.24973 14.2737 2.27816C14.977 2.39046 15.5856 2.82912 15.9146 3.46081C15.9978 3.6207 16.0573 3.79958 16.1256 4.00491L16.2373 4.33981C16.2562 4.3965 16.2616 4.41255 16.2661 4.42519C16.4413 4.9093 16.8953 5.23656 17.4099 5.24961C17.4235 5.24995 17.44 5.25001 17.5001 5.25001H20.5001C20.9143 5.25001 21.2501 5.58579 21.2501 6.00001C21.2501 6.41422 20.9143 6.75001 20.5001 6.75001H3.5C3.08579 6.75001 2.75 6.41422 2.75 6.00001C2.75 5.58579 3.08579 5.25001 3.5 5.25001H6.50008C6.56013 5.25001 6.5767 5.24995 6.59023 5.24961C7.10488 5.23656 7.55891 4.90932 7.73402 4.42521C7.73863 4.41248 7.74392 4.39678 7.76291 4.33981L7.87452 4.00493C7.94281 3.79961 8.00233 3.6207 8.08559 3.46081C8.41453 2.82912 9.02313 2.39046 9.72643 2.27816C9.90445 2.24973 10.093 2.24985 10.3094 2.24999ZM9.00815 5.25001C9.05966 5.14898 9.10531 5.04401 9.14458 4.93545C9.1565 4.90248 9.1682 4.86739 9.18322 4.82231L9.28302 4.52289C9.37419 4.24938 9.39519 4.1936 9.41601 4.15361C9.52566 3.94304 9.72853 3.79683 9.96296 3.75939C10.0075 3.75228 10.067 3.75001 10.3553 3.75001H13.6448C13.9331 3.75001 13.9927 3.75228 14.0372 3.75939C14.2716 3.79683 14.4745 3.94304 14.5842 4.15361C14.605 4.1936 14.626 4.24937 14.7171 4.52289L14.8169 4.82213L14.8556 4.93547C14.8949 5.04402 14.9405 5.14899 14.992 5.25001H9.00815Z" fill="#636363"/>
<path d="M5.91509 8.45012C5.88754 8.03682 5.53016 7.72412 5.11686 7.75167C4.70357 7.77922 4.39086 8.1366 4.41841 8.5499L4.88186 15.5016C4.96736 16.7844 5.03642 17.8205 5.19839 18.6336C5.36679 19.4789 5.65321 20.185 6.2448 20.7384C6.8364 21.2919 7.55995 21.5307 8.4146 21.6425C9.23662 21.75 10.275 21.75 11.5606 21.75H12.4395C13.7251 21.75 14.7635 21.75 15.5856 21.6425C16.4402 21.5307 17.1638 21.2919 17.7554 20.7384C18.347 20.185 18.6334 19.4789 18.8018 18.6336C18.9638 17.8205 19.0328 16.7844 19.1183 15.5016L19.5818 8.5499C19.6093 8.1366 19.2966 7.77922 18.8833 7.75167C18.47 7.72412 18.1126 8.03682 18.0851 8.45012L17.6251 15.3492C17.5353 16.6971 17.4713 17.6349 17.3307 18.3405C17.1943 19.025 17.004 19.3873 16.7306 19.6431C16.4572 19.8989 16.083 20.0647 15.391 20.1552C14.6776 20.2485 13.7376 20.25 12.3868 20.25H11.6134C10.2626 20.25 9.32255 20.2485 8.60915 20.1552C7.91715 20.0647 7.54299 19.8989 7.26958 19.6431C6.99617 19.3873 6.80583 19.025 6.66948 18.3405C6.52892 17.6349 6.46489 16.6971 6.37503 15.3492L5.91509 8.45012Z" fill="#636363"/>
<path d="M9.42546 10.2537C9.83762 10.2125 10.2052 10.5132 10.2464 10.9254L10.7464 15.9254C10.7876 16.3375 10.4869 16.7051 10.0747 16.7463C9.66256 16.7875 9.29503 16.4868 9.25381 16.0746L8.75381 11.0746C8.7126 10.6625 9.01331 10.2949 9.42546 10.2537Z" fill="#636363"/>
<path d="M14.5747 10.2537C14.9869 10.2949 15.2876 10.6625 15.2464 11.0746L14.7464 16.0746C14.7052 16.4868 14.3376 16.7875 13.9255 16.7463C13.5133 16.7051 13.2126 16.3375 13.2538 15.9254L13.7538 10.9254C13.795 10.5132 14.1626 10.2125 14.5747 10.2537Z" fill="#636363"/>
</svg>
