<svg width="24" height="24" viewBox="0 0 24 24" fill="none" xmlns="http://www.w3.org/2000/svg">
<path fill-rule="evenodd" clip-rule="evenodd" d="M12 2.25C9.37665 2.25 7.25 4.37665 7.25 7C7.25 9.62335 9.37665 11.75 12 11.75C14.6234 11.75 16.75 9.62335 16.75 7C16.75 4.37665 14.6234 2.25 12 2.25ZM8.75 7C8.75 5.20507 10.2051 3.75 12 3.75C13.7949 3.75 15.25 5.20507 15.25 7C15.25 8.79493 13.7949 10.25 12 10.25C10.2051 10.25 8.75 8.79493 8.75 7Z" fill="#636363"/>
<path fill-rule="evenodd" clip-rule="evenodd" d="M12 13.25C9.96067 13.25 8.07752 13.7208 6.67815 14.5204C5.3 15.3079 4.25 16.5101 4.25 18C4.25 19.4899 5.3 20.6921 6.67815 21.4796C8.07752 22.2792 9.96067 22.75 12 22.75C14.0393 22.75 15.9225 22.2792 17.3219 21.4796C18.7 20.6921 19.75 19.4899 19.75 18C19.75 16.5101 18.7 15.3079 17.3219 14.5204C15.9225 13.7208 14.0393 13.25 12 13.25ZM5.75 18C5.75 17.2807 6.26701 16.483 7.42236 15.8228C8.55649 15.1747 10.1733 14.75 12 14.75C13.8267 14.75 15.4435 15.1747 16.5776 15.8228C17.733 16.483 18.25 17.2807 18.25 18C18.25 18.7193 17.733 19.517 16.5776 20.1772C15.4435 20.8253 13.8267 21.25 12 21.25C10.1733 21.25 8.55649 20.8253 7.42236 20.1772C6.26701 19.517 5.75 18.7193 5.75 18Z" fill="#636363"/>
</svg>
