<svg width="16" height="16" viewBox="0 0 16 16" fill="none" xmlns="http://www.w3.org/2000/svg">
<path fill-rule="evenodd" clip-rule="evenodd" d="M6.62545 2.16675H9.37383C10.6022 2.16674 11.5749 2.16673 12.3361 2.26882C13.1193 2.37385 13.7531 2.59512 14.253 3.0938C14.9394 3.77847 15.1062 4.72131 15.1588 5.97206L15.1595 5.98817C15.1641 6.0974 15.1688 6.20893 15.1647 6.30288C15.1603 6.4028 15.1448 6.54711 15.065 6.68966C15.0098 6.7883 14.9359 6.85649 14.8866 6.89731C14.8332 6.94157 14.7738 6.98168 14.7173 7.01737C14.6081 7.08622 14.4605 7.16866 14.2874 7.26529L14.2747 7.2724C14.0176 7.41599 13.8463 7.68873 13.8463 8.00008C13.8463 8.31144 14.0176 8.58417 14.2747 8.72777L14.2875 8.7349C14.4605 8.83152 14.6081 8.91395 14.7173 8.9828C14.7738 9.01848 14.8332 9.05859 14.8866 9.10285C14.9359 9.14367 15.0098 9.21186 15.065 9.3105C15.1448 9.45305 15.1603 9.59736 15.1647 9.69729C15.1688 9.79123 15.1641 9.90276 15.1595 10.012L15.1588 10.0281C15.1062 11.2789 14.9394 12.2217 14.253 12.9064C13.7531 13.405 13.1193 13.6263 12.3361 13.7313C11.5749 13.8334 10.6022 13.8334 9.37383 13.8334H6.62545C5.39708 13.8334 4.42438 13.8334 3.66317 13.7313C2.87998 13.6263 2.24618 13.405 1.74624 12.9064C1.05988 12.2217 0.89305 11.2789 0.840466 10.0281L0.839786 10.012C0.835174 9.90275 0.830465 9.79123 0.834597 9.69729C0.838993 9.59736 0.854446 9.45305 0.934242 9.3105C0.989464 9.21186 1.06341 9.14367 1.11268 9.10285C1.16611 9.05859 1.22545 9.01848 1.28202 8.9828C1.39118 8.91394 1.5388 8.83151 1.71185 8.73487L1.72458 8.72777C1.98171 8.58417 2.15302 8.31144 2.15302 8.00008C2.15302 7.68873 1.98171 7.41599 1.72458 7.2724L1.71184 7.26528C1.53879 7.16865 1.39117 7.08622 1.28202 7.01737C1.22545 6.98168 1.16611 6.94157 1.11268 6.89731C1.06341 6.85649 0.989463 6.78831 0.934242 6.68966C0.854446 6.54711 0.838993 6.4028 0.834597 6.30287C0.830465 6.20894 0.835174 6.09741 0.839786 5.98818C0.840013 5.9828 0.84024 5.97743 0.840466 5.97206C0.89305 4.72131 1.05988 3.77847 1.74624 3.0938C2.24618 2.59512 2.87998 2.37385 3.66318 2.26882C4.42438 2.16673 5.39708 2.16674 6.62545 2.16675ZM14.1642 9.7229C14.1642 9.7229 14.1643 9.72356 14.1645 9.72511ZM14.1658 9.81741C14.1657 9.82178 14.1656 9.82632 14.1655 9.83103C14.1644 9.87368 14.1623 9.92323 14.1597 9.9861C14.1077 11.2235 13.9387 11.8075 13.5468 12.1984C13.2637 12.4807 12.8759 12.65 12.2032 12.7402C11.5162 12.8324 10.6106 12.8334 9.33629 12.8334H6.66298C5.38867 12.8334 4.48312 12.8324 3.7961 12.7402C3.12334 12.65 2.73554 12.4807 2.45247 12.1984C2.06062 11.8075 1.8916 11.2235 1.83958 9.9861C1.83694 9.92323 1.83487 9.87368 1.83377 9.83103C1.83365 9.82632 1.83355 9.82178 1.83345 9.81741C1.91656 9.76609 2.03592 9.69926 2.21214 9.60085C2.77204 9.28818 3.15302 8.68916 3.15302 8.00008C3.15302 7.31101 2.77204 6.71198 2.21214 6.39931C2.03592 6.3009 1.91656 6.23407 1.83345 6.18275C1.83354 6.17839 1.83365 6.17385 1.83377 6.16913C1.83487 6.12649 1.83694 6.07694 1.83958 6.01406C1.8916 4.77671 2.06062 4.19267 2.45247 3.80179C2.73554 3.51943 3.12334 3.35017 3.7961 3.25994C4.48311 3.16781 5.38867 3.16675 6.66298 3.16675H9.33629C10.6106 3.16675 11.5162 3.16781 12.2032 3.25994C12.8759 3.35017 13.2637 3.51943 13.5468 3.80179C13.9387 4.19267 14.1077 4.77671 14.1597 6.01406C14.1623 6.07694 14.1644 6.12649 14.1655 6.16913C14.1656 6.17385 14.1657 6.17839 14.1658 6.18275C14.0827 6.23407 13.9634 6.3009 13.7871 6.39931C13.2272 6.71198 12.8463 7.31101 12.8463 8.00008C12.8463 8.68916 13.2272 9.28818 13.7871 9.60085C13.9634 9.69926 14.0827 9.76609 14.1658 9.81741ZM14.2487 6.12723L14.2479 6.12785C14.2507 6.12527 14.2513 6.12507 14.2487 6.12723ZM14.1642 6.27727C14.1642 6.27727 14.1643 6.27649 14.1645 6.27507ZM1.75063 6.12723C1.74802 6.12507 1.74857 6.12527 1.75138 6.12785L1.75063 6.12723ZM1.83476 6.27506C1.835 6.27648 1.83507 6.27727 1.83507 6.27727ZM1.83507 9.72289C1.83507 9.72289 1.835 9.72368 1.83476 9.7251ZM1.75139 9.87232C1.74857 9.87489 1.74802 9.8751 1.75063 9.87294L1.75139 9.87232ZM14.2479 9.87232L14.2487 9.87294C14.2513 9.8751 14.2507 9.87489 14.2479 9.87232ZM10.3532 5.64653C10.5485 5.84179 10.5485 6.15837 10.3532 6.35364L6.35319 10.3536C6.15793 10.5489 5.84135 10.5489 5.64609 10.3536C5.45082 10.1584 5.45082 9.84179 5.64609 9.64653L9.64609 5.64653C9.84135 5.45127 10.1579 5.45127 10.3532 5.64653Z" fill="#566577"/>
<path d="M10.333 9.66675C10.333 10.0349 10.0345 10.3334 9.66631 10.3334C9.29812 10.3334 8.99964 10.0349 8.99964 9.66675C8.99964 9.29856 9.29812 9.00008 9.66631 9.00008C10.0345 9.00008 10.333 9.29856 10.333 9.66675Z" fill="#566577"/>
<path d="M6.99964 6.33342C6.99964 6.7016 6.70116 7.00008 6.33297 7.00008C5.96478 7.00008 5.66631 6.7016 5.66631 6.33342C5.66631 5.96523 5.96478 5.66675 6.33297 5.66675C6.70116 5.66675 6.99964 5.96523 6.99964 6.33342Z" fill="#566577"/>
</svg>
