<svg width="24" height="24" viewBox="0 0 24 24" fill="none" xmlns="http://www.w3.org/2000/svg">
<path opacity="0.4" fill-rule="evenodd" clip-rule="evenodd" d="M22 12C22 17.5228 17.5228 22 12 22C6.47715 22 2 17.5228 2 12C2 6.47715 6.47715 2 12 2C17.5228 2 22 6.47715 22 12ZM8.96963 8.96965C9.26252 8.67676 9.73739 8.67676 10.0303 8.96965L12 10.9393L13.9696 8.96967C14.2625 8.67678 14.7374 8.67678 15.0303 8.96967C15.3232 9.26256 15.3232 9.73744 15.0303 10.0303L13.0606 12L15.0303 13.9696C15.3232 14.2625 15.3232 14.7374 15.0303 15.0303C14.7374 15.3232 14.2625 15.3232 13.9696 15.0303L12 13.0607L10.0303 15.0303C9.73742 15.3232 9.26254 15.3232 8.96965 15.0303C8.67676 14.7374 8.67676 14.2625 8.96965 13.9697L10.9393 12L8.96963 10.0303C8.67673 9.73742 8.67673 9.26254 8.96963 8.96965Z" fill="black"/>
<path d="M9.56066 8.49994C9.26777 8.20705 8.79289 8.20705 8.5 8.49994C8.20711 8.79284 8.20711 9.26771 8.5 9.5606L10.9396 12.0004L8.49994 14.44C8.20705 14.7329 8.20705 15.2078 8.49994 15.5007C8.79284 15.7935 9.26771 15.7935 9.5606 15.5007L12.0003 13.061L14.4393 15.5001C14.7322 15.793 15.2071 15.793 15.5 15.5001C15.7929 15.2072 15.7929 14.7323 15.5 14.4394L13.061 12.0004L15.5003 9.56126C15.7932 9.26836 15.7932 8.79349 15.5003 8.5006C15.2074 8.2077 14.7325 8.2077 14.4396 8.5006L12.0003 10.9397L9.56066 8.49994Z" fill="white"/>
</svg>
