<svg width="12" height="12" viewBox="0 0 12 12" fill="none" xmlns="http://www.w3.org/2000/svg">
<g clip-path="url(#clip0_798_9938)">
<path fill-rule="evenodd" clip-rule="evenodd" d="M6 0.75C6.20711 0.75 6.375 0.917893 6.375 1.125V10.875C6.375 11.0821 6.20711 11.25 6 11.25C5.79289 11.25 5.625 11.0821 5.625 10.875V1.125C5.625 0.917893 5.79289 0.75 6 0.75Z" fill="#6D6D6D"/>
<path fill-rule="evenodd" clip-rule="evenodd" d="M0.75 6C0.75 5.79289 0.917893 5.625 1.125 5.625H10.875C11.0821 5.625 11.25 5.79289 11.25 6C11.25 6.20711 11.0821 6.375 10.875 6.375H1.125C0.917893 6.375 0.75 6.20711 0.75 6Z" fill="#6D6D6D"/>
</g>
<defs>
<clipPath id="clip0_798_9938">
<rect width="12" height="12" fill="white"/>
</clipPath>
</defs>
</svg>
