<svg width="16" height="16" viewBox="0 0 16 16" fill="none" xmlns="http://www.w3.org/2000/svg">
<path fill-rule="evenodd" clip-rule="evenodd" d="M3.37109 8.29621C3.37109 8.03176 3.58547 7.81738 3.84992 7.81738H5.03559C5.30004 7.81738 5.51442 8.03176 5.51442 8.29621V8.88904C5.51442 9.15349 5.30004 9.36787 5.03559 9.36787H3.84992C3.58547 9.36787 3.37109 9.15349 3.37109 8.88904V8.29621Z" fill="#6D6D6D"/>
<path fill-rule="evenodd" clip-rule="evenodd" d="M6.92773 8.29621C6.92773 8.03176 7.14211 7.81738 7.40656 7.81738H8.59223C8.85668 7.81738 9.07106 8.03176 9.07106 8.29621V8.88904C9.07106 9.15349 8.85668 9.36787 8.59223 9.36787H7.40656C7.14211 9.36787 6.92773 9.15349 6.92773 8.88904V8.29621Z" fill="#6D6D6D"/>
<path fill-rule="evenodd" clip-rule="evenodd" d="M3.37109 11.2606C3.37109 10.9961 3.58547 10.7817 3.84992 10.7817H5.03559C5.30004 10.7817 5.51442 10.9961 5.51442 11.2606V11.8534C5.51442 12.1178 5.30004 12.3322 5.03559 12.3322H3.84992C3.58547 12.3322 3.37109 12.1178 3.37109 11.8534V11.2606Z" fill="#6D6D6D"/>
<path fill-rule="evenodd" clip-rule="evenodd" d="M6.92773 11.2606C6.92773 10.9961 7.14211 10.7817 7.40656 10.7817H8.59223C8.85668 10.7817 9.07106 10.9961 9.07106 11.2606V11.8534C9.07106 12.1178 8.85668 12.3322 8.59223 12.3322H7.40656C7.14211 12.3322 6.92773 12.1178 6.92773 11.8534V11.2606Z" fill="#6D6D6D"/>
<path fill-rule="evenodd" clip-rule="evenodd" d="M10.4863 8.29621C10.4863 8.03176 10.7007 7.81738 10.9652 7.81738H12.1508C12.4153 7.81738 12.6297 8.03176 12.6297 8.29621V8.88904C12.6297 9.15349 12.4153 9.36787 12.1508 9.36787H10.9652C10.7007 9.36787 10.4863 9.15349 10.4863 8.88904V8.29621Z" fill="#6D6D6D"/>
<path d="M5.03528 8.29639H3.84961V8.88922H5.03528V8.29639Z" fill="#6D6D6D"/>
<path d="M8.59192 8.29639H7.40625V8.88922H8.59192V8.29639Z" fill="#6D6D6D"/>
<path d="M5.03528 11.2607H3.84961V11.8536H5.03528V11.2607Z" fill="#6D6D6D"/>
<path d="M8.59192 11.2607H7.40625V11.8536H8.59192V11.2607Z" fill="#6D6D6D"/>
<path d="M12.1505 8.29639H10.9648V8.88922H12.1505V8.29639Z" fill="#6D6D6D"/>
<path fill-rule="evenodd" clip-rule="evenodd" d="M1 3.55353C1 3.28909 1.21438 3.07471 1.47883 3.07471H14.5212C14.7856 3.07471 15 3.28909 15 3.55353V14.2245C15 14.489 14.7856 14.7034 14.5212 14.7034H1.47883C1.21438 14.7034 1 14.489 1 14.2245V3.55353ZM1.95765 4.03236V13.7457H14.0423V4.03236H1.95765Z" fill="#6D6D6D"/>
<path fill-rule="evenodd" clip-rule="evenodd" d="M10.9652 1.29639C11.2296 1.29639 11.444 1.51077 11.444 1.77521V3.55372C11.444 3.81817 11.2296 4.03254 10.9652 4.03254C10.7007 4.03254 10.4863 3.81817 10.4863 3.55372V1.77521C10.4863 1.51077 10.7007 1.29639 10.9652 1.29639Z" fill="#6D6D6D"/>
<path fill-rule="evenodd" clip-rule="evenodd" d="M5.03547 1.29639C5.29992 1.29639 5.5143 1.51077 5.5143 1.77521V3.55372C5.5143 3.81817 5.29992 4.03254 5.03547 4.03254C4.77102 4.03254 4.55664 3.81817 4.55664 3.55372V1.77521C4.55664 1.51077 4.77102 1.29639 5.03547 1.29639Z" fill="#6D6D6D"/>
<path fill-rule="evenodd" clip-rule="evenodd" d="M1 5.92512C1 5.66067 1.21438 5.44629 1.47883 5.44629H14.5212C14.7856 5.44629 15 5.66067 15 5.92512C15 6.18957 14.7856 6.40394 14.5212 6.40394H1.47883C1.21438 6.40394 1 6.18957 1 5.92512Z" fill="#6D6D6D"/>
</svg>
